<svg xmlns="http://www.w3.org/2000/svg" width="600" height="372" viewBox="26.73277 28.21785 600 372"><path fill="#17cde6" d="M26.732801 384.65354V28.21786H680.19829v356.43568z" style="mix-blend-mode:normal;stroke-linejoin:miter;stroke-miterlimit:10;stroke-dasharray:none;stroke-dashoffset:0" transform="translate(-43.495539 -2.0078676) scale(1.0474241)"/><path fill="#19e4ff" d="M323.76257 325.2476v-59.40595h59.40595v59.40595z" data-paper-data="{&quot;index&quot;:null}" style="mix-blend-mode:normal;stroke-linejoin:miter;stroke-miterlimit:10;stroke-dasharray:none;stroke-dashoffset:0" transform="translate(-43.495539 -2.0078676) scale(1.0474241)"/><path fill="#17cde6" d="M383.16852 325.24759v-59.40595h59.40595v59.40595z" data-paper-data="{&quot;index&quot;:null}" style="mix-blend-mode:normal;stroke-linejoin:miter;stroke-miterlimit:10;stroke-dasharray:none;stroke-dashoffset:0" transform="translate(-43.495539 -2.0078676) scale(1.0474241)"/><path fill="#14b7cc" d="M323.76257 265.84165V206.4357h59.40595v59.40595z" data-paper-data="{&quot;index&quot;:null}" style="mix-blend-mode:normal;stroke-linejoin:miter;stroke-miterlimit:10;stroke-dasharray:none;stroke-dashoffset:0" transform="translate(-43.495539 -2.0078676) scale(1.0474241)"/><path fill="#14b7cc" d="M264.35662 325.2476v-59.40595h59.40595v59.40595z" data-paper-data="{&quot;index&quot;:null}" style="mix-blend-mode:normal;stroke-linejoin:miter;stroke-miterlimit:10;stroke-dasharray:none;stroke-dashoffset:0" transform="translate(-43.495539 -2.0078676) scale(1.0474241)"/><path fill="#14b7cc" d="M323.76255 384.65354v-59.40595h59.40595v59.40595z" data-paper-data="{&quot;index&quot;:null}" style="mix-blend-mode:normal;stroke-linejoin:miter;stroke-miterlimit:10;stroke-dasharray:none;stroke-dashoffset:0" transform="translate(-43.495539 -2.0078676) scale(1.0474241)"/><path fill="#17cde6" d="M264.35661 265.84165V206.4357h59.40595v59.40595z" data-paper-data="{&quot;index&quot;:null}" style="mix-blend-mode:normal;stroke-linejoin:miter;stroke-miterlimit:10;stroke-dasharray:none;stroke-dashoffset:0" transform="translate(-43.495539 -2.0078676) scale(1.0474241)"/><path fill="#19e4ff" d="M383.16851 265.84165V206.4357h59.40595v59.40595z" data-paper-data="{&quot;index&quot;:null}" style="mix-blend-mode:normal;stroke-linejoin:miter;stroke-miterlimit:10;stroke-dasharray:none;stroke-dashoffset:0" transform="translate(-43.495539 -2.0078676) scale(1.0474241)"/><path fill="#17cde6" d="M383.16852 384.65355V325.2476h59.40595v59.40595z" data-paper-data="{&quot;index&quot;:null}" style="mix-blend-mode:normal;stroke-linejoin:miter;stroke-miterlimit:10;stroke-dasharray:none;stroke-dashoffset:0" transform="translate(-43.495539 -2.0078676) scale(1.0474241)"/><path fill="#19e4ff" d="M264.35661 384.65355V325.2476h59.40595v59.40595z" data-paper-data="{&quot;index&quot;:null}" style="mix-blend-mode:normal;stroke-linejoin:miter;stroke-miterlimit:10;stroke-dasharray:none;stroke-dashoffset:0" transform="translate(-43.495539 -2.0078676) scale(1.0474241)"/><path fill="#14b7cc" d="M383.16851 87.6238v59.40595h-59.40595V87.6238Z" data-paper-data="{&quot;index&quot;:null}" style="mix-blend-mode:normal;stroke-linejoin:miter;stroke-miterlimit:10;stroke-dasharray:none;stroke-dashoffset:0" transform="translate(-43.495539 -2.0078676) scale(1.0474241)"/><path fill="#19e4ff" d="M442.57446 87.62381v59.40595h-59.40595V87.62381Z" data-paper-data="{&quot;index&quot;:null}" style="mix-blend-mode:normal;stroke-linejoin:miter;stroke-miterlimit:10;stroke-dasharray:none;stroke-dashoffset:0" transform="translate(-43.495539 -2.0078676) scale(1.0474241)"/><path fill="#17cde6" d="M383.16851 147.02975v59.40595h-59.40595v-59.40595ZM323.76256 87.6238v59.40595h-59.40595V87.6238Z" data-paper-data="{&quot;index&quot;:null}" style="mix-blend-mode:normal;stroke-linejoin:miter;stroke-miterlimit:10;stroke-dasharray:none;stroke-dashoffset:0" transform="translate(-43.495539 -2.0078676) scale(1.0474241)"/><path fill="#19e4ff" d="M383.1685 28.21786v59.40595h-59.40595V28.21786Z" data-paper-data="{&quot;index&quot;:null}" style="mix-blend-mode:normal;stroke-linejoin:miter;stroke-miterlimit:10;stroke-dasharray:none;stroke-dashoffset:0" transform="translate(-43.495539 -2.0078676) scale(1.0474241)"/><path fill="#14b7cc" d="M323.76255 147.02975v59.40595H264.3566v-59.40595z" data-paper-data="{&quot;index&quot;:null}" style="mix-blend-mode:normal;stroke-linejoin:miter;stroke-miterlimit:10;stroke-dasharray:none;stroke-dashoffset:0" transform="translate(-43.495539 -2.0078676) scale(1.0474241)"/><path fill="#17cde6" d="M442.57445 147.02975v59.40595H383.1685v-59.40595zM442.57446 28.21785V87.6238h-59.40595V28.21785Z" data-paper-data="{&quot;index&quot;:null}" style="mix-blend-mode:normal;stroke-linejoin:miter;stroke-miterlimit:10;stroke-dasharray:none;stroke-dashoffset:0" transform="translate(-43.495539 -2.0078676) scale(1.0474241)"/><path fill="#14b7cc" d="M323.76255 28.21785V87.6238H264.3566V28.21785Z" data-paper-data="{&quot;index&quot;:null}" style="mix-blend-mode:normal;stroke-linejoin:miter;stroke-miterlimit:10;stroke-dasharray:none;stroke-dashoffset:0" transform="translate(-43.495539 -2.0078676) scale(1.0474241)"/><path fill="#19e4ff" d="M561.38637 87.6238v59.40595h-59.40595V87.6238Z" data-paper-data="{&quot;index&quot;:null}" style="mix-blend-mode:normal;stroke-linejoin:miter;stroke-miterlimit:10;stroke-dasharray:none;stroke-dashoffset:0" transform="translate(-43.495539 -2.0078676) scale(1.0474241)"/><path fill="#17cde6" d="M501.98042 87.62381v59.40595h-59.40595V87.62381Z" data-paper-data="{&quot;index&quot;:null}" style="mix-blend-mode:normal;stroke-linejoin:miter;stroke-miterlimit:10;stroke-dasharray:none;stroke-dashoffset:0" transform="translate(-43.495539 -2.0078676) scale(1.0474241)"/><path fill="#14b7cc" d="M561.38637 147.02975v59.40595h-59.40595v-59.40595ZM620.79232 87.6238v59.40595h-59.40595V87.6238Z" data-paper-data="{&quot;index&quot;:null}" style="mix-blend-mode:normal;stroke-linejoin:miter;stroke-miterlimit:10;stroke-dasharray:none;stroke-dashoffset:0" transform="translate(-43.495539 -2.0078676) scale(1.0474241)"/><path fill="#17cde6" d="M561.38639 28.21786v59.40595h-59.40595V28.21786ZM620.79233 147.02975v59.40595h-59.40595v-59.40595Z" data-paper-data="{&quot;index&quot;:null}" style="mix-blend-mode:normal;stroke-linejoin:miter;stroke-miterlimit:10;stroke-dasharray:none;stroke-dashoffset:0" transform="translate(-43.495539 -2.0078676) scale(1.0474241)"/><path fill="#14b7cc" d="M501.98043 147.02975v59.40595h-59.40595v-59.40595Z" data-paper-data="{&quot;index&quot;:null}" style="mix-blend-mode:normal;stroke-linejoin:miter;stroke-miterlimit:10;stroke-dasharray:none;stroke-dashoffset:0" transform="translate(-43.495539 -2.0078676) scale(1.0474241)"/><path fill="#19e4ff" d="M501.98042 28.21785V87.6238h-59.40595V28.21785ZM620.79233 28.21785V87.6238h-59.40595V28.21785Z" data-paper-data="{&quot;index&quot;:null}" style="mix-blend-mode:normal;stroke-linejoin:miter;stroke-miterlimit:10;stroke-dasharray:none;stroke-dashoffset:0" transform="translate(-43.495539 -2.0078676) scale(1.0474241)"/><path fill="#14b7cc" d="M501.98043 325.2476v-59.40595h59.40595v59.40595z" data-paper-data="{&quot;index&quot;:null}" style="mix-blend-mode:normal;stroke-linejoin:miter;stroke-miterlimit:10;stroke-dasharray:none;stroke-dashoffset:0" transform="translate(-43.495539 -2.0078676) scale(1.0474241)"/><path fill="#19e4ff" d="M442.57448 325.24759v-59.40595h59.40595v59.40595zM501.98043 265.84165V206.4357h59.40595v59.40595z" data-paper-data="{&quot;index&quot;:null}" style="mix-blend-mode:normal;stroke-linejoin:miter;stroke-miterlimit:10;stroke-dasharray:none;stroke-dashoffset:0" transform="translate(-43.495539 -2.0078676) scale(1.0474241)"/><path fill="#17cde6" d="M561.38638 325.2476v-59.40595h59.40595v59.40595z" data-paper-data="{&quot;index&quot;:null}" style="mix-blend-mode:normal;stroke-linejoin:miter;stroke-miterlimit:10;stroke-dasharray:none;stroke-dashoffset:0" transform="translate(-43.495539 -2.0078676) scale(1.0474241)"/><path fill="#17cde6" d="M501.98044 384.65354v-59.40595h59.40595v59.40595z" data-paper-data="{&quot;index&quot;:null}" style="mix-blend-mode:normal;stroke-linejoin:miter;stroke-miterlimit:10;stroke-dasharray:none;stroke-dashoffset:0" transform="translate(-43.495539 -2.0078676) scale(1.0474241)"/><path fill="#14b7cc" d="M561.38639 265.84165V206.4357h59.40595v59.40595z" data-paper-data="{&quot;index&quot;:null}" style="mix-blend-mode:normal;stroke-linejoin:miter;stroke-miterlimit:10;stroke-dasharray:none;stroke-dashoffset:0" transform="translate(-43.495539 -2.0078676) scale(1.0474241)"/><path fill="#17cde6" d="M442.57449 265.84165V206.4357h59.40595v59.40595z" data-paper-data="{&quot;index&quot;:null}" style="mix-blend-mode:normal;stroke-linejoin:miter;stroke-miterlimit:10;stroke-dasharray:none;stroke-dashoffset:0" transform="translate(-43.495539 -2.0078676) scale(1.0474241)"/><path fill="#14b7cc" d="M442.57448 384.65355V325.2476h59.40595v59.40595z" data-paper-data="{&quot;index&quot;:null}" style="mix-blend-mode:normal;stroke-linejoin:miter;stroke-miterlimit:10;stroke-dasharray:none;stroke-dashoffset:0" transform="translate(-43.495539 -2.0078676) scale(1.0474241)"/><path fill="#19e4ff" d="M561.38639 384.65355V325.2476h59.40595v59.40595z" data-paper-data="{&quot;index&quot;:null}" style="mix-blend-mode:normal;stroke-linejoin:miter;stroke-miterlimit:10;stroke-dasharray:none;stroke-dashoffset:0" transform="translate(-43.495539 -2.0078676) scale(1.0474241)"/><path fill="#17cde6" d="M204.95064 87.6238v59.40595h-59.40595V87.6238Z" data-paper-data="{&quot;index&quot;:null}" style="mix-blend-mode:normal;stroke-linejoin:miter;stroke-miterlimit:10;stroke-dasharray:none;stroke-dashoffset:0" transform="translate(-43.495539 -2.0078676) scale(1.0474241)"/><path fill="#14b7cc" d="M145.54469 87.62381v59.40595H86.138741V87.62381ZM204.95064 147.02975v59.40595h-59.40595v-59.40595Z" data-paper-data="{&quot;index&quot;:null}" style="mix-blend-mode:normal;stroke-linejoin:miter;stroke-miterlimit:10;stroke-dasharray:none;stroke-dashoffset:0" transform="translate(-43.495539 -2.0078676) scale(1.0474241)"/><path fill="#19e4ff" d="M264.35659 87.6238v59.40595h-59.40595V87.6238Z" data-paper-data="{&quot;index&quot;:null}" style="mix-blend-mode:normal;stroke-linejoin:miter;stroke-miterlimit:10;stroke-dasharray:none;stroke-dashoffset:0" transform="translate(-43.495539 -2.0078676) scale(1.0474241)"/><path fill="#19e4ff" d="M204.95066 28.21786v59.40595h-59.40595V28.21786Z" data-paper-data="{&quot;index&quot;:null}" style="mix-blend-mode:normal;stroke-linejoin:miter;stroke-miterlimit:10;stroke-dasharray:none;stroke-dashoffset:0" transform="translate(-43.495539 -2.0078676) scale(1.0474241)"/><path fill="#17cde6" d="M264.3566 147.02975v59.40595h-59.40595v-59.40595Z" data-paper-data="{&quot;index&quot;:null}" style="mix-blend-mode:normal;stroke-linejoin:miter;stroke-miterlimit:10;stroke-dasharray:none;stroke-dashoffset:0" transform="translate(-43.495539 -2.0078676) scale(1.0474241)"/><path fill="#19e4ff" d="M145.5447 147.02975v59.40595H86.138751v-59.40595z" data-paper-data="{&quot;index&quot;:null}" style="mix-blend-mode:normal;stroke-linejoin:miter;stroke-miterlimit:10;stroke-dasharray:none;stroke-dashoffset:0" transform="translate(-43.495539 -2.0078676) scale(1.0474241)"/><path fill="#17cde6" d="M145.54469 28.21785V87.6238H86.138741V28.21785ZM264.3566 28.21785V87.6238h-59.40595V28.21785ZM145.5447 325.2476v-59.40595h59.40595v59.40595z" data-paper-data="{&quot;index&quot;:null}" style="mix-blend-mode:normal;stroke-linejoin:miter;stroke-miterlimit:10;stroke-dasharray:none;stroke-dashoffset:0" transform="translate(-43.495539 -2.0078676) scale(1.0474241)"/><path fill="#19e4ff" d="M86.138751 325.24759v-59.40595H145.5447v59.40595zM145.5447 265.84165V206.4357h59.40595v59.40595zM204.95065 325.2476v-59.40595h59.40595v59.40595Z" data-paper-data="{&quot;index&quot;:null}" style="mix-blend-mode:normal;stroke-linejoin:miter;stroke-miterlimit:10;stroke-dasharray:none;stroke-dashoffset:0" transform="translate(-43.495539 -2.0078676) scale(1.0474241)"/><path fill="#14b7cc" d="M145.54471 384.65354v-59.40595h59.40595v59.40595z" data-paper-data="{&quot;index&quot;:null}" style="mix-blend-mode:normal;stroke-linejoin:miter;stroke-miterlimit:10;stroke-dasharray:none;stroke-dashoffset:0" transform="translate(-43.495539 -2.0078676) scale(1.0474241)"/><path fill="#17cde6" d="M204.95066 265.84165V206.4357h59.40595v59.40595zM86.138761 265.84165V206.4357h59.405949v59.40595zM86.138751 384.65355V325.2476H145.5447v59.40595zM204.95066 384.65355V325.2476h59.40595v59.40595z" data-paper-data="{&quot;index&quot;:null}" style="mix-blend-mode:normal;stroke-linejoin:miter;stroke-miterlimit:10;stroke-dasharray:none;stroke-dashoffset:0" transform="translate(-43.495539 -2.0078676) scale(1.0474241)"/><path fill="#14b7cc" d="M26.732791 325.24759v-59.40595h59.40595v59.40595z" data-paper-data="{&quot;index&quot;:null}" style="mix-blend-mode:normal;stroke-linejoin:miter;stroke-miterlimit:10;stroke-dasharray:none;stroke-dashoffset:0" transform="translate(-43.495539 -2.0078676) scale(1.0474241)"/><path fill="#19e4ff" d="M26.732781 265.84165V206.4357h59.40595v59.40595zM26.732791 384.65355V325.2476h59.40595v59.40595zM86.138731 87.62381v59.40595h-59.40595V87.62381Z" data-paper-data="{&quot;index&quot;:null}" style="mix-blend-mode:normal;stroke-linejoin:miter;stroke-miterlimit:10;stroke-dasharray:none;stroke-dashoffset:0" transform="translate(-43.495539 -2.0078676) scale(1.0474241)"/><path fill="#17cde6" d="M86.138721 147.02975v59.40595h-59.40595v-59.40595Z" data-paper-data="{&quot;index&quot;:null}" style="mix-blend-mode:normal;stroke-linejoin:miter;stroke-miterlimit:10;stroke-dasharray:none;stroke-dashoffset:0" transform="translate(-43.495539 -2.0078676) scale(1.0474241)"/><path fill="#14b7cc" d="M86.138731 28.21785V87.6238h-59.40595V28.21785Z" data-paper-data="{&quot;index&quot;:null}" style="mix-blend-mode:normal;stroke-linejoin:miter;stroke-miterlimit:10;stroke-dasharray:none;stroke-dashoffset:0" transform="translate(-43.495539 -2.0078676) scale(1.0474241)"/><path fill="#19e4ff" d="M620.79236 325.24759v-59.40595h59.40595v59.40595z" data-paper-data="{&quot;index&quot;:null}" style="mix-blend-mode:normal;stroke-linejoin:miter;stroke-miterlimit:10;stroke-dasharray:none;stroke-dashoffset:0" transform="translate(-43.495539 -2.0078676) scale(1.0474241)"/><path fill="#17cde6" d="M620.79235 265.84165V206.4357h59.40595v59.40595z" data-paper-data="{&quot;index&quot;:null}" style="mix-blend-mode:normal;stroke-linejoin:miter;stroke-miterlimit:10;stroke-dasharray:none;stroke-dashoffset:0" transform="translate(-43.495539 -2.0078676) scale(1.0474241)"/><path fill="#14b7cc" d="M620.79236 384.65355V325.2476h59.40595v59.40595z" data-paper-data="{&quot;index&quot;:null}" style="mix-blend-mode:normal;stroke-linejoin:miter;stroke-miterlimit:10;stroke-dasharray:none;stroke-dashoffset:0" transform="translate(-43.495539 -2.0078676) scale(1.0474241)"/><path fill="#17cde6" d="M680.1983 87.62381v59.40595h-59.40595V87.62381Z" data-paper-data="{&quot;index&quot;:null}" style="mix-blend-mode:normal;stroke-linejoin:miter;stroke-miterlimit:10;stroke-dasharray:none;stroke-dashoffset:0" transform="translate(-43.495539 -2.0078676) scale(1.0474241)"/><path fill="#19e4ff" d="M680.19829 147.02975v59.40595h-59.40595v-59.40595Z" data-paper-data="{&quot;index&quot;:null}" style="mix-blend-mode:normal;stroke-linejoin:miter;stroke-miterlimit:10;stroke-dasharray:none;stroke-dashoffset:0" transform="translate(-43.495539 -2.0078676) scale(1.0474241)"/><path fill="#14b7cc" d="M680.1983 28.21785V87.6238h-59.40595V28.21785Z" data-paper-data="{&quot;index&quot;:null}" style="mix-blend-mode:normal;stroke-linejoin:miter;stroke-miterlimit:10;stroke-dasharray:none;stroke-dashoffset:0" transform="translate(-43.495539 -2.0078676) scale(1.0474241)"/><g style="mix-blend-mode:normal;stroke-linejoin:miter;stroke-miterlimit:10;stroke-dasharray:none;stroke-dashoffset:0"><path fill="#00e1ff" stroke="#10a0b3" stroke-width="23.898958" d="M239.8303223 171.52216754c3.11978193 0 5.66159146 1.97401808 5.66159146 4.39755167v76.59625598c0 2.42353359-2.54180953 4.39755167-5.66159145 4.39755167H165.7621459c-3.11976998 0-5.6615795-1.97401808-5.6615795-4.39755167v-76.59625598c0-2.42353359 2.54180952-4.39755167 5.6615795-4.39755167z" data-paper-data="{&quot;noHover&quot;:false,&quot;origItem&quot;:[&quot;Path&quot;,{&quot;applyMatrix&quot;:true,&quot;segments&quot;:[[[726.5281,181.04885],[0,0],[0,-10.02498]],[[708.34495,162.8657],[10.02498,0],[0,0]],[[391.65505,162.8657],[0,0],[-10.02498,0]],[[373.4719,181.04885],[0,-10.02498],[0,0]],[[373.4719,418.94509],[0,0],[0,10.02498]],[[391.65505,437.12824],[-10.02498,0],[0,0]],[[708.34495,437.12824],[0,0],[10.02498,0]],[[726.5281,418.94509],[0,10.02498],[0,0]]],&quot;closed&quot;:true,&quot;fillColor&quot;:[0,0,0,1]}],&quot;index&quot;:null}"/><path fill="none" stroke="#fff" stroke-width="11.949479" d="M239.8303223 171.52216754c3.11978193 0 5.66159146 1.97401808 5.66159146 4.39755167v76.59625598c0 2.42353359-2.54180953 4.39755167-5.66159145 4.39755167H165.7621459c-3.11976998 0-5.6615795-1.97401808-5.6615795-4.39755167v-76.59625598c0-2.42353359 2.54180952-4.39755167 5.6615795-4.39755167z" data-paper-data="{&quot;noHover&quot;:false,&quot;origItem&quot;:[&quot;Path&quot;,{&quot;applyMatrix&quot;:true,&quot;segments&quot;:[[[726.5281,181.04885],[0,0],[0,-10.02498]],[[708.34495,162.8657],[10.02498,0],[0,0]],[[391.65505,162.8657],[0,0],[-10.02498,0]],[[373.4719,181.04885],[0,-10.02498],[0,0]],[[373.4719,418.94509],[0,0],[0,10.02498]],[[391.65505,437.12824],[-10.02498,0],[0,0]],[[708.34495,437.12824],[0,0],[10.02498,0]],[[726.5281,418.94509],[0,10.02498],[0,0]]],&quot;closed&quot;:true,&quot;fillColor&quot;:[0,0,0,1]}],&quot;index&quot;:null}"/><path fill="#fff" fill-rule="evenodd" stroke="#fff" stroke-linecap="round" stroke-width="5.377265550000001" d="M202.73351129 236.93151248c-4.89396888 0-8.61675736-1.99731957-11.16831766-5.9919826-1.884397-2.95019492-3.07296387-6.77292885-3.56570064-11.46822568-.17962457-1.76612105-.26695136-3.54040359-.26164579-5.31561819-.00955958-2.10610762.11818035-4.21060207.38272986-6.30005212.56176891-4.26529483 1.74133783-7.74941637 3.53873066-10.45240047 1.08197753-1.6823313 2.53289522-3.09614586 4.24269837-4.13416125 1.98436633-1.17580483 4.30335392-1.76370725 6.95697473-1.76370725 1.70706672-.02174805 3.40423927.26215962 5.0113008.83825595 2.38717132.88593437 4.36044854 2.47396039 5.91983165 4.76408999.08065898.11829984.15972868.23779463.2371613.35826928 1.87685687 2.9229979 3.06354768 6.72900256 3.56006049 11.41802592.18369934 1.79312687.2729261 3.59467812.26728594 5.39718533.00955959 2.10611957-.11853883 4.21062596-.38335123 6.30005211-.56133873 4.26486466-1.74071646 7.74899815-3.53809734 10.45240048-1.08215677 1.68241494-2.5333015 3.09621755-4.24331974 4.13416125-1.9839481 1.17580483-4.30273255 1.76370725-6.95635335 1.76370725zm.06273476-5.14494378c.9449648.00955958 1.88407435-.14916535 2.77388036-.46743972.75827809-.27861405 1.4643489-.68266179 2.08873308-1.19525859.585871-.4883752 1.09238552-1.06473442 1.50145204-1.7084887.65587105-1.0059908 1.20112578-2.26649354 1.63571638-3.78154408.72992197-2.5448686 1.09591062-5.96374598 1.09800178-10.2566441v-.03321956c.00477979-1.59450263-.06596113-3.18833609-.21333405-4.77602751-.30661168-3.1764822-.94428368-5.78513712-1.9130399-7.82596474-.09189149-.1936413-.18827599-.38507196-.28924908-.57410077-.4210638-.80698416-.94218057-1.55766238-1.55101848-2.23428968-1.2936506-1.47555752-3.16898988-2.31002549-5.13115408-2.2832228-.9449648-.00955959-1.88407435.14916534-2.77388036.46743972-.75827809.27861405-1.4643489.68266178-2.08872113 1.19525858-1.35944443 1.10846952-2.40516723 2.92801669-3.13716842 5.4586654-.2650275.93885862-.4699969 1.89365784-.6136416 2.85857827-.32291076 2.08642683-.48437212 4.57398572-.48437212 7.46268862-.00597474 1.59449068.06548314 3.1883361.21270072 4.77602752.30661168 3.1764822.94449877 5.78513711 1.91367322 7.82596473.09189149.19364131.18827599.38507196.28924908.57410077.4210638.80698417.94218058 1.55766239 1.55101848 2.23430164 1.2936506 1.47555751 3.16898988 2.31001353 5.13115408 2.2832228z"/><path fill="none" stroke="#fff" stroke-width="11.949479" d="M239.8303223 171.52216754c3.11978193 0 5.66159146 1.97401808 5.66159146 4.39755167v76.59625598c0 2.42353359-2.54180953 4.39755167-5.66159145 4.39755167H165.7621459c-3.11976998 0-5.6615795-1.97401808-5.6615795-4.39755167v-76.59625598c0-2.42353359 2.54180952-4.39755167 5.6615795-4.39755167z" data-paper-data="{&quot;noHover&quot;:false,&quot;origItem&quot;:[&quot;Path&quot;,{&quot;applyMatrix&quot;:true,&quot;segments&quot;:[[[726.5281,181.04885],[0,0],[0,-10.02498]],[[708.34495,162.8657],[10.02498,0],[0,0]],[[391.65505,162.8657],[0,0],[-10.02498,0]],[[373.4719,181.04885],[0,-10.02498],[0,0]],[[373.4719,418.94509],[0,0],[0,10.02498]],[[391.65505,437.12824],[-10.02498,0],[0,0]],[[708.34495,437.12824],[0,0],[10.02498,0]],[[726.5281,418.94509],[0,10.02498],[0,0]]],&quot;closed&quot;:true,&quot;fillColor&quot;:[0,0,0,1]}],&quot;index&quot;:null}"/></g><g style="mix-blend-mode:normal;stroke-linejoin:miter;stroke-miterlimit:10;stroke-dasharray:none;stroke-dashoffset:0"><path fill="#45d3e6" stroke="#10a0b3" stroke-width="23.898958" d="M363.76685315 171.52216754c3.11978192 0 5.6615795 1.97401808 5.6615795 4.39755167v76.59625598c0 2.42353359-2.54180953 4.39755167-5.6615795 4.39755167h-74.06818836c-3.11976998 0-5.6615795-1.97401808-5.6615795-4.39755167v-76.59625598c0-2.42353359 2.54182147-4.39755167 5.6615795-4.39755167z" data-paper-data="{&quot;noHover&quot;:false,&quot;origItem&quot;:[&quot;Path&quot;,{&quot;applyMatrix&quot;:true,&quot;segments&quot;:[[[726.5281,181.04885],[0,0],[0,-10.02498]],[[708.34495,162.8657],[10.02498,0],[0,0]],[[391.65505,162.8657],[0,0],[-10.02498,0]],[[373.4719,181.04885],[0,-10.02498],[0,0]],[[373.4719,418.94509],[0,0],[0,10.02498]],[[391.65505,437.12824],[-10.02498,0],[0,0]],[[708.34495,437.12824],[0,0],[10.02498,0]],[[726.5281,418.94509],[0,10.02498],[0,0]]],&quot;closed&quot;:true,&quot;fillColor&quot;:[0,0,0,1]}],&quot;index&quot;:null}"/><path fill="none" stroke="#fff" stroke-width="11.949479" d="M363.76685315 171.52216754c3.11978192 0 5.6615795 1.97401808 5.6615795 4.39755167v76.59625598c0 2.42353359-2.54180953 4.39755167-5.6615795 4.39755167h-74.06818836c-3.11976998 0-5.6615795-1.97401808-5.6615795-4.39755167v-76.59625598c0-2.42353359 2.54182147-4.39755167 5.6615795-4.39755167z" data-paper-data="{&quot;noHover&quot;:false,&quot;origItem&quot;:[&quot;Path&quot;,{&quot;applyMatrix&quot;:true,&quot;segments&quot;:[[[726.5281,181.04885],[0,0],[0,-10.02498]],[[708.34495,162.8657],[10.02498,0],[0,0]],[[391.65505,162.8657],[0,0],[-10.02498,0]],[[373.4719,181.04885],[0,-10.02498],[0,0]],[[373.4719,418.94509],[0,0],[0,10.02498]],[[391.65505,437.12824],[-10.02498,0],[0,0]],[[708.34495,437.12824],[0,0],[10.02498,0]],[[726.5281,418.94509],[0,10.02498],[0,0]]],&quot;closed&quot;:true,&quot;fillColor&quot;:[0,0,0,1]}],&quot;index&quot;:null}"/><path fill="#fff" fill-rule="evenodd" stroke="#fff" stroke-linecap="round" stroke-width="5.377265550000001" d="M339.45241176 236.93150053H316.6089632v-5.19169014h9.28014463v-32.77256941l-8.69608994 6.55451627-3.17991171-4.34803302 13.43349675-9.66953036h4.2831593v40.23561652h7.7226376z"/><path fill="none" stroke="#fff" stroke-width="11.949479" d="M363.76685315 171.52216754c3.11978192 0 5.6615795 1.97401808 5.6615795 4.39755167v76.59625598c0 2.42353359-2.54180953 4.39755167-5.6615795 4.39755167h-74.06818836c-3.11976998 0-5.6615795-1.97401808-5.6615795-4.39755167v-76.59625598c0-2.42353359 2.54182147-4.39755167 5.6615795-4.39755167z" data-paper-data="{&quot;noHover&quot;:false,&quot;origItem&quot;:[&quot;Path&quot;,{&quot;applyMatrix&quot;:true,&quot;segments&quot;:[[[726.5281,181.04885],[0,0],[0,-10.02498]],[[708.34495,162.8657],[10.02498,0],[0,0]],[[391.65505,162.8657],[0,0],[-10.02498,0]],[[373.4719,181.04885],[0,-10.02498],[0,0]],[[373.4719,418.94509],[0,0],[0,10.02498]],[[391.65505,437.12824],[-10.02498,0],[0,0]],[[708.34495,437.12824],[0,0],[10.02498,0]],[[726.5281,418.94509],[0,10.02498],[0,0]]],&quot;closed&quot;:true,&quot;fillColor&quot;:[0,0,0,1]}],&quot;index&quot;:null}"/></g><g style="mix-blend-mode:normal;stroke-linejoin:miter;stroke-miterlimit:10;stroke-dasharray:none;stroke-dashoffset:0"><path fill="#45d3e6" stroke="#10a0b3" stroke-width="23.898958" d="M487.70337204 171.52216754c3.11978192 0 5.66159145 1.97401808 5.66159145 4.39755167v76.59625598c0 2.42353359-2.54180953 4.39755167-5.66159145 4.39755167h-74.06817642c-3.11976997 0-5.66159145-1.97401808-5.66159145-4.39755167v-76.59625598c0-2.42353359 2.54182148-4.39755167 5.66159145-4.39755167z" data-paper-data="{&quot;noHover&quot;:false,&quot;origItem&quot;:[&quot;Path&quot;,{&quot;applyMatrix&quot;:true,&quot;segments&quot;:[[[726.5281,181.04885],[0,0],[0,-10.02498]],[[708.34495,162.8657],[10.02498,0],[0,0]],[[391.65505,162.8657],[0,0],[-10.02498,0]],[[373.4719,181.04885],[0,-10.02498],[0,0]],[[373.4719,418.94509],[0,0],[0,10.02498]],[[391.65505,437.12824],[-10.02498,0],[0,0]],[[708.34495,437.12824],[0,0],[10.02498,0]],[[726.5281,418.94509],[0,10.02498],[0,0]]],&quot;closed&quot;:true,&quot;fillColor&quot;:[0,0,0,1]}],&quot;index&quot;:null}"/><path fill="none" stroke="#fff" stroke-width="11.949479" d="M487.70337204 171.52216754c3.11978192 0 5.66159145 1.97401808 5.66159145 4.39755167v76.59625598c0 2.42353359-2.54180953 4.39755167-5.66159145 4.39755167h-74.06817642c-3.11976997 0-5.66159145-1.97401808-5.66159145-4.39755167v-76.59625598c0-2.42353359 2.54182148-4.39755167 5.66159145-4.39755167z" data-paper-data="{&quot;noHover&quot;:false,&quot;origItem&quot;:[&quot;Path&quot;,{&quot;applyMatrix&quot;:true,&quot;segments&quot;:[[[726.5281,181.04885],[0,0],[0,-10.02498]],[[708.34495,162.8657],[10.02498,0],[0,0]],[[391.65505,162.8657],[0,0],[-10.02498,0]],[[373.4719,181.04885],[0,-10.02498],[0,0]],[[373.4719,418.94509],[0,0],[0,10.02498]],[[391.65505,437.12824],[-10.02498,0],[0,0]],[[708.34495,437.12824],[0,0],[10.02498,0]],[[726.5281,418.94509],[0,10.02498],[0,0]]],&quot;closed&quot;:true,&quot;fillColor&quot;:[0,0,0,1]}],&quot;index&quot;:null}"/><path fill="#fff" fill-rule="evenodd" stroke="#fff" stroke-linecap="round" stroke-width="5.377265550000001" d="M463.38893065 236.93151248h-22.84344857v-5.19169014h9.28014463v-32.77256941l-8.69608994 6.55451627-3.17989976-4.34803302 13.43349675-9.66954231h4.28314735v40.23562847h7.7226376z"/><path fill="none" stroke="#fff" stroke-width="11.949479" d="M487.70337204 171.52216754c3.11978192 0 5.66159145 1.97401808 5.66159145 4.39755167v76.59625598c0 2.42353359-2.54180953 4.39755167-5.66159145 4.39755167h-74.06817642c-3.11976997 0-5.66159145-1.97401808-5.66159145-4.39755167v-76.59625598c0-2.42353359 2.54182148-4.39755167 5.66159145-4.39755167z" data-paper-data="{&quot;noHover&quot;:false,&quot;origItem&quot;:[&quot;Path&quot;,{&quot;applyMatrix&quot;:true,&quot;segments&quot;:[[[726.5281,181.04885],[0,0],[0,-10.02498]],[[708.34495,162.8657],[10.02498,0],[0,0]],[[391.65505,162.8657],[0,0],[-10.02498,0]],[[373.4719,181.04885],[0,-10.02498],[0,0]],[[373.4719,418.94509],[0,0],[0,10.02498]],[[391.65505,437.12824],[-10.02498,0],[0,0]],[[708.34495,437.12824],[0,0],[10.02498,0]],[[726.5281,418.94509],[0,10.02498],[0,0]]],&quot;closed&quot;:true,&quot;fillColor&quot;:[0,0,0,1]}],&quot;index&quot;:null}"/></g><g style="mix-blend-mode:normal;stroke-linejoin:miter;stroke-miterlimit:10;stroke-dasharray:none;stroke-dashoffset:0"><g fill="#10a0b3" stroke="#10a0b3" stroke-width="12.5" data-paper-data="{&quot;index&quot;:null}"><path stroke-width="14.936848750000001" d="M276.35367783 76.61772045c32.07941598-13.2602771 69.17222393-14.29877047 103.66256679-.12307964 35.1901641 14.44223592 62.7002188 43.19748608 75.72525846 78.92450443l1.40958444 3.86645707c1.87269845 5.13675838-5.95953976 8.32495108-7.9393414 2.8944506l-1.40958443-3.86645707c-12.21459014-33.50400897-38.09645664-60.33436536-71.053526-73.88174064-64.83078702-26.59026746-139.25360006 3.82514772-165.85040389 68.61333484-2.07710624 5.28151438-9.78554785 1.87654618-7.85036557-3.02941996 14.1720343-34.5250083 41.24013752-60.1247715 73.311631-73.38214488z"/><path stroke-width="14.936848750000001" d="m192.29860485 119.41616562 13.0250277 35.7270303 35.7270303-13.02503966c5.26378135-1.91901463 8.24558264 5.9884814 2.89446255 7.9393414l-39.69670696 14.472253c-2.08010556.75834979-4.65855219-.44233386-5.41690198-2.52243942l-14.47226495-39.69670696c-1.92191836-5.2717397 6.08688536-7.97563196 7.9393414-2.89446255z"/></g><g fill="#fff" stroke="#fff" stroke-width="3" data-paper-data="{&quot;index&quot;:null}"><path stroke-width="3.5848437000000004" d="M276.35367783 76.61772045c32.07941598-13.2602771 69.17222393-14.29877047 103.66256679-.12307964 35.1901641 14.44223592 62.7002188 43.19748608 75.72525846 78.92450443l1.40958444 3.86645707c1.87269845 5.13675838-5.95953976 8.32495108-7.9393414 2.8944506l-1.40958443-3.86645707c-12.21459014-33.50400897-38.09645664-60.33436536-71.053526-73.88174064-64.83078702-26.59026746-139.25360006 3.82514772-165.85040389 68.61333484-2.07710624 5.28151438-9.78554785 1.87654618-7.85036557-3.02941996 14.1720343-34.5250083 41.24013752-60.1247715 73.311631-73.38214488z"/><path stroke-width="3.5848437000000004" d="m192.29860485 119.41616562 13.0250277 35.7270303 35.7270303-13.02503966c5.26378135-1.91901463 8.24558264 5.9884814 2.89446255 7.9393414l-39.69670696 14.472253c-2.08010556.75834979-4.65855219-.44233386-5.41690198-2.52243942l-14.47226495-39.69670696c-1.92191836-5.2717397 6.08688536-7.97563196 7.9393414-2.89446255z"/></g></g><g data-paper-data="{&quot;index&quot;:null}" style="mix-blend-mode:normal;stroke-linejoin:miter;stroke-miterlimit:10;stroke-dasharray:none;stroke-dashoffset:0"><g fill="#10a0b3" stroke="#10a0b3" stroke-width="12.5" data-paper-data="{&quot;index&quot;:null}"><path stroke-width="14.936848750000001" d="M377.11182815 351.81797395c-32.07941598 13.2602771-69.17222392 14.29877047-103.66256679.12307964-35.1901641-14.44223592-62.70020685-43.19748608-75.72525846-78.92450443l-1.40958444-3.86645707c-1.87269845-5.13675838 5.95953976-8.32495108 7.9393414-2.8944506l1.40958443 3.86645707c12.21459015 33.50400897 38.09645664 60.33436536 71.053526 73.88174064 64.83078702 26.5902794 139.25360007-3.82513577 165.85040389-68.6133229 2.07710624-5.28151437 9.78554785-1.87654617 7.85036557 3.02941997-14.1720343 34.5250083-41.24013752 60.1247715-73.311631 73.38215683z"/><path stroke-width="14.936848750000001" d="m461.16692503 309.01952878-13.0250277-35.72701835-35.7270303 13.02503966c-5.26378135 1.91901463-8.24558264-5.9884814-2.89446255-7.9393414l39.69670696-14.47226495c2.08009361-.75834979 4.6585522.44233386 5.41690198 2.52243942l14.47226495 39.69669501c1.92191836 5.2717397-6.08688536 7.97563196-7.93934139 2.89446255z"/></g><g fill="#fff" stroke="#fff" stroke-width="3" data-paper-data="{&quot;index&quot;:null}"><path stroke-width="3.5848437000000004" d="M377.11182815 351.81797395c-32.07941598 13.2602771-69.17222392 14.29877047-103.66256679.12307964-35.1901641-14.44223592-62.70020685-43.19748608-75.72525846-78.92450443l-1.40958444-3.86645707c-1.87269845-5.13675838 5.95953976-8.32495108 7.9393414-2.8944506l1.40958443 3.86645707c12.21459015 33.50400897 38.09645664 60.33436536 71.053526 73.88174064 64.83078702 26.5902794 139.25360007-3.82513577 165.85040389-68.6133229 2.07710624-5.28151437 9.78554785-1.87654617 7.85036557 3.02941997-14.1720343 34.5250083-41.24013752 60.1247715-73.311631 73.38215683z"/><path stroke-width="3.5848437000000004" d="m461.16692503 309.01952878-13.0250277-35.72701835-35.7270303 13.02503966c-5.26378135 1.91901463-8.24558264-5.9884814-2.89446255-7.9393414l39.69670696-14.47226495c2.08009361-.75834979 4.6585522.44233386 5.41690198 2.52243942l14.47226495 39.69669501c1.92191836 5.2717397-6.08688536 7.97563196-7.93934139 2.89446255z"/></g></g></svg>