<svg xmlns="http://www.w3.org/2000/svg" width="600" height="372" viewBox="0 0 158.75 98.425"><path fill="#d9f3cb" d="M0 98.425V0h158.75v98.425z" style="mix-blend-mode:normal;fill-rule:nonzero;stroke-width:1.11355;stroke-linecap:butt;stroke-linejoin:miter;stroke-miterlimit:10;stroke-dasharray:none;stroke-dashoffset:0"/><path fill="#8bc34a" stroke="#6ba339" stroke-width="1.45623" d="M100.61855 65.192918 83.385256 47.664053s-5.25061 2.852391-11.798853 2.88363c-1.318059.0048-9.886044.24631-15.187117-7.359264-2.243223-3.981812-4.988679-5.391186-4.827677-13.796967.03845-2.0654 2.936497-4.145218 5.406806-3.509618 1.177482.302781 2.793517 1.213528 3.152769 2.735844.565912 2.394614 2.348957 8.464655 5.289058 10.298163 8.098193 5.048755 14.700504-.759356 14.700504-.759356s4.134405-2.270858 3.55888-10.135959c-.02403-.307587-2.824756-9.415051-11.870943-9.687794-1.08857-.03244-2.662551-.515449-3.263307-1.754209-1.231551-2.538795-.509442-6.8342022 1.929628-7.0168321 6.341583-.4770005 13.524224 3.1551721 16.918497 6.7404851 4.02747 4.253354 5.339521 10.278939 5.403202 11.1224.662033 8.813094-2.918474 14.042076-2.918474 14.042076l17.307781 17.085507-.01 3.728293-2.701 2.823554z" style="mix-blend-mode:normal;fill-rule:nonzero;stroke-linecap:butt;stroke-linejoin:miter;stroke-miterlimit:10;stroke-dasharray:none;stroke-dashoffset:0"/><g style="font-size:20.7238px;font-family:&quot;Sans Serif&quot;;fill:#82e050;stroke:#6ba339;stroke-width:1.03639;stroke-miterlimit:10"><path d="M22.541 60.616h3.896v9.056q0 1.872.607 2.682.618.8 2.004.8 1.396 0 2.004-.8.617-.81.617-2.682v-9.056h3.896v9.056q0 3.208-1.61 4.776-1.608 1.569-4.907 1.569-3.289 0-4.898-1.569-1.609-1.568-1.609-4.776zm15.027 0h13.924v2.944h-5.009v12.163h-3.896V63.56h-5.019zm15.938 0h3.896v15.107h-3.896zm7.71 0h3.896v12.163h6.84v2.944H61.217Zm13.206 0h3.896v15.107h-3.896zm5.909 0h13.924v2.944h-5.009v12.163H85.35V63.56h-5.019zm15.938 0h3.896v15.107h-3.896zm7.711 0h10.513v2.944h-6.618v2.813h6.224v2.945h-6.224v3.46h6.84v2.945H103.98Zm24.67.475v3.198q-1.245-.557-2.429-.84-1.184-.283-2.236-.283-1.397 0-2.064.384-.668.385-.668 1.194 0 .607.445.951.455.334 1.64.577l1.659.334q2.52.506 3.582 1.538 1.062 1.032 1.062 2.935 0 2.5-1.487 3.724-1.477 1.214-4.523 1.214-1.437 0-2.884-.273-1.447-.274-2.894-.81v-3.289q1.447.77 2.793 1.164 1.356.385 2.61.385 1.275 0 1.953-.425.678-.425.678-1.215 0-.708-.465-1.092-.456-.385-1.832-.689l-1.507-.333q-2.267-.486-3.32-1.549-1.042-1.062-1.042-2.863 0-2.257 1.457-3.471t4.19-1.214q1.244 0 2.56.192 1.315.182 2.722.556z" aria-label="UTILITIES" style="font-weight:700;font-family:&quot;DejaVu Sans&quot;;-inkscape-font-specification:&quot;DejaVu Sans Bold&quot;" transform="matrix(1.2533577 0 0 1.1518058 -15.994241 1.48152)"/></g></svg>