<svg xmlns="http://www.w3.org/2000/svg" width="600" height="372" viewBox="10.331 8.678 600 372"><path fill="#54a621" d="M10.331 380.678v-372h600v372z" style="mix-blend-mode:normal;fill-rule:nonzero;stroke-linecap:butt;stroke-linejoin:miter;stroke-miterlimit:10;stroke-dasharray:none;stroke-dashoffset:0"/><path fill="none" stroke="#55b31b" stroke-width="5.686" d="M.71 40.872c5.717-21.368 8.513-28.838 25.129-36.72 22.084-10.478 26.13 0 52.27 0H310.31c35.522 0 48.112-17.42 71.054 0 15.758 11.955-28.549 75.367 4.54 89.457 54.495 23.203 19.257-73.441 35.821-86.011C443.86-9.208 431.941 4.15 465.109 4.15h77.4c34.15 0 35.986-5.063 68.298 0 6.388 1.003 8.339 4.287 9.102 12.132 3.788 39.151 0 40.931 0 81.862s3.457 42.448 0 81.863c-.67 7.582-12.111 16.37-14.448 24.664-2.336 8.293-11.445 14.036-8.39 56.396 1.073 14.851 19.433 30.805 22.838 45.493 7.493 32.309 16.987 57.411 0 73.566-21.713 20.628-38.7 0-77.4 0-27.72 0-42.394 19.563-55.439 0-18.287-27.434 1.528-50.105-7.213-93.994-2.24-11.28-5.326-13.936-14.748-16.342-36.646-9.35-43.045-17.011-76.11-10.603-12.415 2.406-12.59 18.45-7.244 26.318 6.966 10.252 23.451 8.067 26.594 9.25 29.856 11.229 21.425 55.08 21.425 85.37 0 14.902-21.033 0-42.065 0H155.51c-37.017 0-41.661 7.144-74.035 0-6.326-1.403 2.982-16.279-3.365-17.093-34.035-4.4-56.883 27.032-77.4 6.654-18.183-18.072 0-41.77 0-83.554V98.145c0-28.636-6.852-31.644 0-57.273" style="mix-blend-mode:normal;fill-rule:nonzero;stroke-linecap:butt;stroke-linejoin:miter;stroke-miterlimit:10;stroke-dasharray:none;stroke-dashoffset:0"/><path fill="none" stroke="#55b31b" stroke-width="5.58" d="M158.454 97.387c37.923-1.427 34.096-3.062 71.645-1.882 33.082.988 27.712 56.49 26.207 96.635-.516 13.81-10.197 17.511-21.904 17.511-17.62 0-24-.8-36.749-17.511-25.225-33.044-25.225-19.947-47.807-57.086-5.458-8.977-7.007-24.103-7.007-27.46 0-3.025 7.119-9.887 15.615-10.207M6.556 79.728c11.473 0 18.157 7.28 33.225 20.18 22.906 19.627 20.74 23.365 42.724 44.874 25.144 24.607 29.56 19.528 51.534 47.358 16 20.266 5.225 39.905 24.415 48.833 30.987 14.413 40.931-13.576 75.948-2.14 31.433 10.269 31.028 19.492 56.962 45.538 12.04 12.089 6.765 18.877 18.987 30.744 35.25 34.249 75.949 44.702 75.949 61.488 0 13.957-37.974 0-75.949 0-22.44 0-24.617 7.772-44.88 0-17.712-6.789-15.048-29.12-31.069-29.12-17.984 0-16.81 21.397-36.951 29.12-17.833 6.837-19.504 0-38.997 0-15.686 0-27.676 13.453-31.372 0-8.962-32.663 18.4-55.02 6.055-92.232-9.944-29.981-25.144-42.168-50.632-42.168-26.248 0-26.35 21.213-52.83 42.168-11.494 9.088-15.605 17.93-23.119 17.93-4.04 0 0-8.965 0-17.93V99.908c0-10.084-5.134-20.18 0-20.18" style="mix-blend-mode:normal;fill-rule:nonzero;stroke-linecap:butt;stroke-linejoin:miter;stroke-miterlimit:10;stroke-dasharray:none;stroke-dashoffset:0"/><path fill="none" stroke="#55b31b" stroke-width="5.58" d="M82.505 63.015C61.482 51.1 55.872 26.061 55.872 7.676c0-9.284 13.317 0 26.633 0H310.352c19.3 0 34.642-15.347 38.591 0 7.92 30.769-11.878 45.698-14.855 92.232-2.917 45.698 10.511 49.448 3.068 92.232-4.425 25.468-15.099 44.27-26.805 44.27-10.46 0-13.964-20.56-17.529-44.27-6.693-44.542 12.466-55.389-2.997-92.232-13.752-32.76-24.648-38.996-55.423-46.989-34.916-9.063-37.802 10.342-75.948 12.876-37.803 2.508-45.681 14.363-75.95-2.78M450.563 99.908c8.162-44.087-4.274-51.883.84-92.232.73-5.767 5.418 0 10.846 0h75.949c19.544 0 23.26-10.231 39.088 0 22.147 14.315 25.69 21.128 36.86 49.092 7.261 18.151 0 21.57 0 43.14s6.745 24.521 0 43.14c-9.964 27.497-23.696 20.537-33.417 49.092-14.35 42.106-16.992 50.087-7.635 88.542 7.351 30.215 26.359 20.647 41.052 48.796 9.378 17.967 12.84 39.156 0 47.125-25.134 15.593-37.974 0-75.948 0-14.37 0-24.436 12.654-28.74 0-11.371-33.462 10.552-52.757-2.602-92.232-10.45-31.37-21.58-25.763-44.607-49.46-21.782-22.419-42.623-15.237-45.002-42.771-3.464-39.967 24.405-44.087 33.316-92.232" style="mix-blend-mode:normal;fill-rule:nonzero;stroke-linecap:butt;stroke-linejoin:miter;stroke-miterlimit:10;stroke-dasharray:none;stroke-dashoffset:0"/><path fill="none" stroke="#55b31b" stroke-width="5.58" d="M533.415 79.998c5.6 0 9.205 4.956 9.205 9.457 0 4.23-11.696 32.306-30.47 24.312-17.202-7.323-18.139-19.275-11.393-28.924 3.865-5.527 14.663-4.845 32.658-4.845M82.505 11.772c-1.853-.628-1.975-2.73-1.975-4.096 0-.688.993 0 1.975 0H310.352c3.736 0 7.473-3.234 7.473 0 0 9.937 1.954 26.157-7.474 26.354-32.283.676-37.984-24.657-75.949-24.607-37.984.049-37.863 24.201-75.948 24.792-37.863.59-38.846-9.802-75.95-22.443M538.198 31.325c-10.714 0-25.317-17.057-25.317-23.649 0-5.226 12.658 0 25.317 0 5.58 0 11.17-3.922 11.17 0 0 7.895-3.636 23.649-11.17 23.649M615.762 125.615c-7.273-4.075-14.51-12.863-14.274-30.208.102-7.505 8.368-18.637 15.852-22.11M6.556 148.225c14.785 0 47.473 23.857 47.473 43.915 0 18.372-31.605 32.945-47.473 32.945-7.868 0 0-16.48 0-32.945 0-21.964-8.952-43.915 0-43.915M452.406 192.14c0-10.232.466-19.332 9.843-23.058 33.519-13.319 43.382-19.086 75.949-11.031 14.015 3.468 17.053 15.273 17.215 34.089.374 44.344-18.238 54.392-5.003 91.001 16.132 44.591 32.324 32.724 63.736 71.412 6.026 7.428 7.332 19.922 0 22.05-30.642 8.903-37.974 0-75.948 0-1.54 0-3.059 1.795-3.079 0-.577-44.32 17.499-54.688 1.874-92.232-20.81-50.014-37.104-41.824-74.744-82.873-4.648-5.067-9.843-3.382-9.843-9.358M200.104 284.371c0-9.469 17.853-16.343 34.298-16.343 10.927 0 20.446 7.194 20.446 16.343 0 10.342-9.094 22.652-20.446 22.652-16.02 0-34.298-12.617-34.298-22.652" style="mix-blend-mode:normal;fill-rule:nonzero;stroke-linecap:butt;stroke-linejoin:miter;stroke-miterlimit:10;stroke-dasharray:none;stroke-dashoffset:0"/><g style="mix-blend-mode:normal;stroke-linecap:butt;stroke-linejoin:miter;stroke-miterlimit:10;stroke-dasharray:none;stroke-dashoffset:0"><path fill="none" stroke="#000" stroke-opacity=".149" stroke-width="11.157" d="M458.432 89.666v40.453c0 3.709-3.034 6.742-6.742 6.742h-40.487c-3.709 0-6.709-3.033-6.709-6.742l.034-53.937c0-3.709 3-6.742 6.708-6.742h26.97z"/><path fill="#fff" d="M458.432 89.666v40.453c0 3.709-3.034 6.742-6.742 6.742h-40.487c-3.709 0-6.709-3.033-6.709-6.742l.034-53.937c0-3.709 3-6.742 6.708-6.742h26.97z"/><path fill="#3b7517" d="M428.105 129.555v-26.864h6.716v26.864z" data-paper-data="{&quot;noHover&quot;:false,&quot;origItem&quot;:[&quot;Path&quot;,{&quot;applyMatrix&quot;:true,&quot;segments&quot;:[[127.93334,157.21668],[108.33334,157.21668],[108.33334,162.11668],[127.93334,162.11668]],&quot;closed&quot;:true,&quot;fillColor&quot;:[0,0,0,1]}]}"/><path fill="#3b7517" d="M444.895 106.116H418.03V99.4h26.864z" data-paper-data="{&quot;noHover&quot;:false,&quot;origItem&quot;:[&quot;Path&quot;,{&quot;applyMatrix&quot;:true,&quot;segments&quot;:[[127.93334,147.41668],[108.33334,147.41668],[108.33334,152.31668],[127.93334,152.31668]],&quot;closed&quot;:true,&quot;fillColor&quot;:[0,0,0,1]}]}"/><path fill="#54a621" d="M434.815 93.056V74.477l18.58 18.58z" data-paper-data="{&quot;noHover&quot;:false,&quot;origItem&quot;:[&quot;Path&quot;,{&quot;applyMatrix&quot;:true,&quot;segments&quot;:[[681.24998,262.5],[612.5,193.75002],[612.5,262.50004]],&quot;closed&quot;:true,&quot;fillColor&quot;:[0,0,0,1]}]}"/><path fill="none" stroke="#000" stroke-opacity=".149" stroke-width="11.157" d="M458.28 177.47v40.454c0 3.708-3.035 6.742-6.743 6.742H411.05c-3.708 0-6.708-3.034-6.708-6.742l.034-53.938c0-3.708 3-6.742 6.708-6.742h26.969z"/><path fill="#fff" d="M458.28 177.47v40.454c0 3.708-3.035 6.742-6.743 6.742H411.05c-3.708 0-6.708-3.034-6.708-6.742l.034-53.938c0-3.708 3-6.742 6.708-6.742h26.969z"/><path fill="#3b7517" stroke="#3b7517" stroke-width="1.1157" d="M445.141 217.114a1.11 1.11 0 0 1-.785-.324l-27.706-27.707a1.11 1.11 0 0 1 1.57-1.57l27.706 27.706a1.11 1.11 0 0 1-.785 1.895z"/><path fill="#3b7517" d="M428.89 193.647a6.105 6.105 0 1 1-12.211 0 6.105 6.105 0 0 1 12.21 0z"/><path fill="#3b7517" d="M428.043 206.251a6.105 6.105 0 1 1 2.806-11.883 6.105 6.105 0 0 1-2.806 11.883z"/><path fill="#3b7517" d="M442.211 206.968a6.107 6.107 0 0 1-12.211 0 6.105 6.105 0 0 1 12.211 0z"/><path fill="#3b7517" stroke="#3b7517" stroke-width="1.1157" d="M445.186 217.16a1.11 1.11 0 0 1-.785-.325l-6.8-6.8a1.109 1.109 0 1 1 1.57-1.57l6.8 6.8a1.11 1.11 0 0 1-.785 1.894z"/><path fill="#54a621" d="M434.649 180.874v-18.606l18.607 18.606z" data-paper-data="{&quot;noHover&quot;:false,&quot;origItem&quot;:[&quot;Path&quot;,{&quot;applyMatrix&quot;:true,&quot;segments&quot;:[[81.74375,131.7125],[61.7375,111.70626],[61.7375,131.71251]],&quot;closed&quot;:true,&quot;fillColor&quot;:[0,0,0,1]}]}"/><path fill="none" stroke="#000" stroke-opacity=".149" stroke-width="11.157" d="M458.278 272.723v40.452c0 3.708-3.034 6.742-6.742 6.742h-40.485c-3.708 0-6.708-3.034-6.708-6.742l.034-53.936c0-3.708 3-6.742 6.708-6.742h26.968z"/><path fill="#fff" d="M458.278 272.723v40.452c0 3.708-3.034 6.742-6.742 6.742h-40.485c-3.708 0-6.708-3.034-6.708-6.742l.034-53.936c0-3.708 3-6.742 6.708-6.742h26.968z"/><path fill="#3b7517" fill-rule="evenodd" d="M438.203 299.084c-.01-.288-.08-.762-.237-1.573-.089-.458-.566-2.794-.696-3.449-.365-1.83-.703-3.624-1.056-5.652-.677-3.904-.64-5.593.318-6.034.462-.213.98-.074 1.701.323.383.21 2.018 1.262 1.914 1.198 1.844 1.149 3.203 1.64 4.558 1.432 1.411-.22 2.315-.056 2.66.571.321.587.013 1.31-.676 2.016-1.36 1.401-3.675 2.324-5.407 1.87-.76-.203-1.144-.43-2.2-1.171l-.088-.061c.044.548.244 1.608.663 3.516.272 1.235 1.923 8.494 2.438 10.793l.002.011c.489 2.438-1.731 4.368-4.84 4.368-3.042 0-5.884-1.838-6.345-4.186-.49-2.441 1.732-4.377 4.838-4.377a7.749 7.749 0 0 1 2.45.404zm-15.714 5.539c-.01-.294-.084-.775-.246-1.606-.084-.426-.55-2.716-.697-3.446-.36-1.812-.693-3.597-1.044-5.612-.677-3.905-.64-5.594.318-6.034.464-.213.98-.076 1.701.323.384.21 2.017 1.262 1.914 1.198 1.843 1.148 3.2 1.64 4.554 1.431 1.41-.222 2.315-.06 2.66.568.321.587.013 1.308-.674 2.015-1.363 1.403-3.677 2.324-5.406 1.865-.758-.203-1.142-.429-2.198-1.171l-.088-.06c.043.548.244 1.608.663 3.515.272 1.236 1.921 8.497 2.437 10.794l.002.012c.478 2.44-1.742 4.375-4.84 4.375-3.038 0-5.88-1.842-6.35-4.197-.482-2.441 1.741-4.373 4.844-4.373.837 0 1.667.138 2.45.403z"/><path fill="#54a621" d="M434.663 276.113v-18.578l18.578 18.578z" data-paper-data="{&quot;noHover&quot;:false,&quot;origItem&quot;:[&quot;Path&quot;,{&quot;applyMatrix&quot;:true,&quot;segments&quot;:[[442.12499,125.75002],[407.75,91.37503],[407.75,125.75004]],&quot;closed&quot;:true,&quot;fillColor&quot;:[0,0,0,1]}]}"/><path fill="none" stroke="#000" stroke-opacity=".149" stroke-width="11.157" d="m382.868 123.531-1.86 7.84h-11.367l-.002 59.581h11.367v7.84h-11.367v59.581h11.367l1.942 7.84h-17.23c-1.959 0-3.919-1.569-3.919-3.92v-63.5h-16.072v-7.839H361.8v-63.5c0-2.35 1.96-3.919 3.92-3.919z"/><path fill="#fff" d="m382.868 123.531-1.86 7.84h-11.367l-.002 59.581h11.367v7.84h-11.367v59.581h11.367l1.942 7.84h-17.23c-1.959 0-3.919-1.569-3.919-3.92v-63.5h-16.072v-7.839H361.8v-63.5c0-2.35 1.96-3.919 3.92-3.919z"/><path fill="none" stroke="#000" stroke-opacity=".149" stroke-width="11.157" d="M322.772 103.188c0 17.928-36.594 33.749-80.27 33.749-43.68 0-80.272-15.291-80.272-33.749 0-17.928 36.595-33.749 80.271-33.749 43.68.53 80.271 15.821 80.271 33.75z"/><path fill="none" stroke="#000" stroke-opacity=".149" stroke-width="11.157" d="M322.772 164.359c0 18.454-36.594 33.748-80.27 33.748-43.68-.529-80.272-15.82-80.272-33.748v-43.535c15.938 13.181 45.451 26.66 80.271 26.66 34.826 0 64.927-13.479 80.271-26.66z"/><path fill="none" stroke="#000" stroke-opacity=".149" stroke-width="11.157" d="M322.772 229.741c0 17.928-36.594 33.749-80.27 33.749-43.68 0-80.272-15.294-80.272-33.749V181.46c15.938 13.182 45.448 26.66 80.271 26.66s64.927-13.476 80.271-26.66z"/><path fill="none" stroke="#000" stroke-opacity=".149" stroke-width="11.157" d="M322.772 286.168c0 18.454-36.594 33.749-80.27 33.749-43.68-.003-80.272-15.294-80.272-33.75V247.38c15.938 13.182 45.451 26.66 80.271 26.66 34.826 0 64.927-13.478 80.271-26.66z"/><path fill="#fff" d="M322.772 103.188c0 17.928-36.594 33.749-80.27 33.749-43.68 0-80.272-15.291-80.272-33.749 0-17.928 36.595-33.749 80.271-33.749 43.68.53 80.271 15.821 80.271 33.75z"/><path fill="#fff" d="M322.772 125.337v39.022c0 18.454-36.594 33.748-80.27 33.748-43.68-.529-80.272-15.82-80.272-33.748v-39.022c15.938 13.182 45.451 22.148 80.271 22.148 34.826 0 64.927-8.966 80.271-22.148z"/><path fill="#fff" d="M322.772 185.974v43.767c0 17.928-36.594 33.749-80.27 33.749-43.68 0-80.272-15.294-80.272-33.749v-43.767c15.938 13.182 45.448 22.147 80.271 22.147s64.927-8.963 80.271-22.147z"/><path fill="#fff" d="M322.772 251.893v34.275c0 18.454-36.594 33.749-80.27 33.749-43.68-.003-80.272-15.294-80.272-33.75v-34.274c15.938 13.182 45.451 22.147 80.271 22.147 34.826 0 64.927-8.965 80.271-22.147z"/><path fill="#3b7517" stroke="#3b7517" stroke-width="2.78925" d="M290.625 159.879c0-5.387 4.366-9.753 9.753-9.753 5.386 0 9.753 4.366 9.753 9.753 0 5.387-4.367 9.753-9.753 9.753-5.387 0-9.753-4.366-9.753-9.753z"/></g></svg>