<svg xmlns="http://www.w3.org/2000/svg" width="600" height="372"><path fill="#0fbd8c" d="M0 0h600v372H0z"/><path fill="#ffd641" d="M-19.344061 186C-19.344061 9.631143 123.63114-133.34406 300-133.34406c176.36885 0 319.34406 142.975203 319.34406 319.34406 0 176.36885-142.97521 319.34406-319.34406 319.34406-176.36886 0-319.344061-142.97521-319.344061-319.34406Z" style="fill:#0eaa7e;fill-opacity:1;fill-rule:nonzero;stroke-linecap:butt;stroke-linejoin:miter;stroke-miterlimit:10;stroke-dasharray:none;stroke-dashoffset:0"/><path fill="#ffc800" d="M20.155927 186C20.155927 31.446397 145.44638-93.844074 300-93.844074c154.5536 0 279.84407 125.29046 279.84407 279.844074 0 154.5536-125.29046 279.84407-279.84407 279.84407S20.155937 340.55361 20.155937 186Z" style="fill:#0fbd8c;fill-opacity:1;fill-rule:nonzero;stroke-linecap:butt;stroke-linejoin:miter;stroke-miterlimit:10;stroke-dasharray:none;stroke-dashoffset:0"/><path fill="#ffd641" d="M60.155932 186c0-132.462224 107.381848-239.844074 239.844078-239.844074 132.46222 0 239.84406 107.38185 239.84406 239.844074 0 132.46222-107.38185 239.84407-239.84406 239.84407-132.46223 0-239.844078-107.38185-239.844078-239.84407Z" style="fill:#0eaa7e;fill-opacity:1;fill-rule:nonzero;stroke-linecap:butt;stroke-linejoin:miter;stroke-miterlimit:10;stroke-dasharray:none;stroke-dashoffset:0"/><path fill="#ffc800" d="M100.65593 185.99999C100.65593 75.905307 189.9053-13.344074 300-13.344074c110.09469 0 199.34407 89.249381 199.34407 199.344074 0 110.09469-89.24938 199.34407-199.34406 199.34407-110.09469 0-199.34406-89.24938-199.34406-199.34406z" style="fill:#0fbd8c;fill-opacity:1;fill-rule:nonzero;stroke-linecap:butt;stroke-linejoin:miter;stroke-miterlimit:10;stroke-dasharray:none;stroke-dashoffset:0"/><path fill="#ffd641" d="M139.90593 185.99999c0-88.417506 71.67656-160.094063 160.09407-160.094063S460.09407 97.582494 460.09407 186c0 88.41751-71.67656 160.09407-160.09406 160.09407-88.41752 0-160.09407-71.67656-160.09407-160.09406z" style="fill:#0eaa7e;fill-opacity:1;fill-rule:nonzero;stroke-linecap:butt;stroke-linejoin:miter;stroke-miterlimit:10;stroke-dasharray:none;stroke-dashoffset:0"/><path fill="#ffc800" d="M180.65593 185.99999c0-65.9119 53.43216-119.344064 119.34408-119.344064 65.9119 0 119.34407 53.432164 119.34407 119.344074 0 65.9119-53.43216 119.34407-119.34406 119.34407s-119.34407-53.43216-119.34407-119.34406z" style="fill:#0fbd8c;fill-opacity:1;fill-rule:nonzero;stroke-linecap:butt;stroke-linejoin:miter;stroke-miterlimit:10;stroke-dasharray:none;stroke-dashoffset:0"/><path fill="#ffd641" d="M219.90593 185.99999c0-44.23473 35.85933-80.09406 80.09407-80.09406 44.23473 0 80.09407 35.85933 80.09407 80.09407 0 44.23473-35.85933 80.09407-80.09406 80.09407s-80.09406-35.85933-80.09406-80.09406z" style="fill:#0eaa7e;fill-opacity:1;fill-rule:nonzero;stroke-linecap:butt;stroke-linejoin:miter;stroke-miterlimit:10;stroke-dasharray:none;stroke-dashoffset:0"/><path fill="#ffc800" d="M260.0726 186c0-22.05129 17.87611-39.9274 39.9274-39.9274 22.05129 0 39.9274 17.87611 39.9274 39.9274 0 22.05129-17.87611 39.9274-39.9274 39.9274-22.05129 0-39.9274-17.87611-39.9274-39.9274z" style="fill:#0fbd8c;fill-opacity:1;fill-rule:nonzero;stroke-linecap:butt;stroke-linejoin:miter;stroke-miterlimit:10;stroke-dasharray:none;stroke-dashoffset:0"/><path fill="#fff" d="M161.0396 170.46968c24.52219 0 27.79208-13.0789 27.79208-24.52351 0-9.80914-1.63481-17.98373-1.63481-27.79208 0-9.80835-1.63481-19.618019-1.63481-27.792079 0-34.331855 21.25362-49.0457 55.58547-49.0457h13.07889v31.061981h-6.53936c-16.34815 0-21.25363 9.809129-21.25363 26.157779 0 6.539389 1.63482 13.078889 1.63482 21.253609 0 6.53939 1.63481 14.71385 1.63481 24.52351 0 27.79208-11.44395 37.60175-31.06198 42.50593 19.61803 4.90456 31.06198 14.71383 31.06198 42.50591 0 9.80915-1.63481 17.98375-1.63481 24.5222 0 6.53939-1.63482 14.71384-1.63482 19.61802 0 16.34813 4.90457 26.15778 21.25363 26.15778h6.53936V330.685h-13.07889c-32.69757 0-53.94987-13.07889-53.94987-49.04569 0-9.80914 0-17.98374 1.63481-27.79209 1.63482-9.80834 1.63482-19.61801 1.63482-27.79208 0-9.80914-3.26976-24.5235-27.79209-24.5235zm277.9208 27.79208c-24.52219 0-27.79208 14.71383-27.79208 24.52218 0 9.80914 1.63481 17.98373 1.63481 27.79208 1.63482 9.80914 1.63482 19.61802 1.63482 27.79208 0 35.96746-22.8879 49.0457-55.58548 49.0457h-13.07889v-27.79208h6.53938c16.34813 0 21.25362-9.80914 21.25362-26.15779 0-6.53938 0-13.07889-1.63482-19.61802 0-8.17432-1.63481-16.34813-1.63481-24.52219 0-27.79208 11.44395-37.60174 31.06197-42.50592-19.61802-4.90457-31.06197-14.71384-31.06197-42.50592 0-9.80914 1.63481-17.98373 1.63481-24.52351 1.63482-8.17432 1.63482-14.71383 1.63482-21.253609 0-16.34813-6.53939-24.523497-21.25362-26.157781h-6.53938V41.314999h13.07889c34.33185 0 55.58548 14.713845 55.58548 49.045692 0 9.809139-1.63482 17.983739-1.63482 27.792089-1.63481 9.80914-1.63481 19.61802-1.63481 27.79208 0 11.44394 3.26975 24.5235 27.79208 24.5235z"/></svg>