<svg xmlns="http://www.w3.org/2000/svg" width="600" height="372" viewBox="0 0 158.75 98.425"><rect width="158.75" height="98.425" ry="0" style="fill:#0fbd8c;fill-opacity:1;stroke-width:.234683"/><g style="font-size:104.398px;line-height:1.25;fill:#fff;stroke-width:2.60995"><path d="M72.067 62.471q0-3.967.73-6.786.836-2.923 2.715-5.533 1.984-2.61 5.325-5.429 4.071-3.445 6.263-5.742 2.297-2.296 3.237-4.489.94-2.192.94-5.324 0-5.011-3.237-7.725-3.236-2.715-9.396-2.715-5.115 0-9.082 1.357-3.968 1.253-7.621 3.028l-3.237-7.308q4.176-2.192 9.187-3.654 5.116-1.461 11.38-1.461 9.917 0 15.346 4.906 5.429 4.907 5.429 13.363 0 4.698-1.566 8.039-1.462 3.236-4.28 6.055-2.715 2.714-6.473 5.846-3.445 2.923-5.324 5.116Q80.628 56.207 80 58.4q-.626 2.087-.626 5.115v1.775h-7.308zm-2.401 18.165q0-3.862 1.775-5.428 1.879-1.566 4.698-1.566 2.61 0 4.489 1.566t1.879 5.428q0 3.759-1.88 5.429-1.878 1.67-4.488 1.67-2.82 0-4.698-1.67-1.775-1.67-1.775-5.429z" aria-label="?" style="font-family:&quot;Noto Sans&quot;;-inkscape-font-specification:&quot;Noto Sans&quot;"/></g></svg>