<svg xmlns="http://www.w3.org/2000/svg" width="600.5" height="372"><path fill="#96f" d="M.25 372V0h600v372z" style="mix-blend-mode:normal;stroke-linejoin:miter;stroke-miterlimit:10;stroke-dasharray:none;stroke-dashoffset:0"/><path fill="#8955f2" d="M0 367.749V122.958s58.765-24.864 167.647-24.466c92.196.337 157.953 37.282 260.051 43.06C529.796 147.329 600 122.958 600 122.958v244.79z" style="mix-blend-mode:normal;stroke-linejoin:miter;stroke-miterlimit:10;stroke-dasharray:none;stroke-dashoffset:0"/><path fill="#7a45e6" d="M.5 372V239.057s70.204 23.913 172.302 18.244c102.098-5.668 167.855-41.919 260.05-42.249 108.883-.39 167.648 24.005 167.648 24.005V372Z" data-paper-data="{&quot;index&quot;:null}" style="mix-blend-mode:normal;stroke-linejoin:miter;stroke-miterlimit:10;stroke-dasharray:none;stroke-dashoffset:0"/><g style="mix-blend-mode:normal;stroke-linejoin:miter;stroke-miterlimit:10;stroke-dasharray:none;stroke-dashoffset:0"><path fill="#7a45e6" fill-rule="evenodd" stroke="#fff" stroke-width="13.1434" d="M364.346 139.794c-8.905 18.34-22.106 39.495-34.562 55.172-10.43 13.203-18.797 20.947-26.791 24.724-.93.586-1.841.775-2.975.775-.744 0-1.487-.19-2.417-.586-1.673-.548-3.16-1.87-3.904-3.57-2.231-5.118-5.392-9.444-9.65-12.862-4.294-3.211-9.128-5.667-14.687-6.989-1.692-.378-3.366-1.492-4.295-3.21-.93-1.512-1.283-3.4-.93-5.27 2.231-8.69 7.995-18.889 18.034-31.544 19.727-25.328 59.142-62.897 78.273-64.993 5.206-.756 8.18.944 10.04 2.455 4.852 4.156 9.686 13.24-6.136 45.898zM284.04 240.1c1.115 9.444-1.302 18.699-7.084 26.065-5.001 6.592-12.066 11.144-20.06 13.033-.372.189-.93.378-1.302.378l-1.878.188c-3.514.567-6.86.945-10.225.945-26.754 0-45.55-18.151-52.969-30.032-2.807-4.722-7.065-13.41-3.347-18.888.93-1.322 3.514-4.155 9.092-3.022 17.662 3.777 23.984-4.155 25.118-5.666 11.899-15.678 34.023-18.51 49.25-6.8 7.455 5.855 12.27 14.355 13.405 23.799z"/><path fill="none" stroke="#fff" stroke-linecap="round" stroke-width="39.4302" d="M375.175 266.9v-52.946M348.701 240.427h52.947"/><path fill="none" stroke="#7a45e6" stroke-linecap="round" stroke-width="14.457740000000001" d="M375.175 213.954V266.9M348.701 240.427h52.947"/></g><path fill="#ab81ff" d="m15.82 79.396-3.855-12.784-12.609-3.68 12.434-4.206 4.03-12.26 3.769 12.172 12.696 4.293-12.259 3.856ZM92.7 82.397l-5.815-19.283-19.018-5.552L86.62 51.22l6.08-18.491 5.683 18.358 19.151 6.476-18.49 5.816zM166.436 80.805l-3.855-12.784-12.61-3.68 12.435-4.206 4.03-12.258 3.768 12.17 12.697 4.294-12.26 3.855zM261.748 59.84l-5.816-19.283-19.019-5.552 18.755-6.343 6.08-18.491 5.683 18.359 19.151 6.475-18.49 5.816zM290.221 114.499l-3.855-12.784-12.61-3.68 12.435-4.206 4.03-12.259 3.768 12.171 12.697 4.294-12.26 3.855zM373.355 76.487l-5.816-19.283-19.019-5.551 18.755-6.344 6.08-18.49 5.683 18.358 19.151 6.476-18.49 5.815zM456.067 55.7l-3.855-12.785-12.61-3.68 12.435-4.206 4.03-12.259 3.768 12.172 12.697 4.293-12.26 3.855zM419.9 134.503l-3.855-12.784-12.609-3.68 12.434-4.206 4.03-12.26 3.769 12.172 12.696 4.293-12.259 3.856zM511.25 120.937l-5.816-19.283-19.02-5.551 18.756-6.344 6.08-18.49 5.683 18.358 19.15 6.476-18.49 5.815zM600 122.958l-3.855-12.784-12.61-3.68 12.434-4.206L600 90.028l3.768 12.172 12.696 4.293-12.258 3.856zM561.902 64.158l-3.855-12.784-12.61-3.68 12.435-4.206 4.03-12.259L565.67 43.4l12.696 4.293-12.258 3.856z" style="mix-blend-mode:normal;stroke-linejoin:miter;stroke-miterlimit:10;stroke-dasharray:none;stroke-dashoffset:0"/><path fill="#96f" d="m33.293 174.579-5.815-19.283-19.02-5.552 18.756-6.344 6.08-18.49 5.683 18.358 19.15 6.476-18.49 5.816zM37.767 239.56l-3.856-12.783-12.609-3.68 12.434-4.206 4.03-12.26 3.769 12.172 12.696 4.293-12.259 3.856zM80.483 198l-3.856-12.785-12.609-3.68 12.434-4.206 4.03-12.259 3.769 12.172 12.696 4.293-12.259 3.855zM201.683 198.288l-5.816-19.283-19.019-5.552 18.755-6.343 6.08-18.491 5.683 18.359 19.151 6.475-18.49 5.816zM137.726 253.703l-5.816-19.283-19.019-5.551 18.755-6.344 6.08-18.49 5.683 18.358 19.151 6.476-18.49 5.815zM137.726 159.555l-3.856-12.785-12.609-3.68 12.434-4.206 4.03-12.258 3.769 12.17 12.696 4.294-12.259 3.856zM419.9 205.481l-5.815-19.283-19.019-5.551 18.755-6.344 6.08-18.49 5.683 18.358 19.151 6.476-18.49 5.815zM481.233 198.807l-3.856-12.784-12.609-3.68 12.434-4.206 4.03-12.259L485 178.05l12.697 4.294-12.259 3.855zM542.42 221.897l-3.855-12.784-12.61-3.68 12.435-4.206 4.03-12.26 3.768 12.172 12.697 4.293-12.26 3.856zM597.447 192.271l-5.816-19.283-19.019-5.551 18.755-6.344 6.08-18.49 5.683 18.358 19.151 6.476-18.49 5.815z" style="mix-blend-mode:normal;stroke-linejoin:miter;stroke-miterlimit:10;stroke-dasharray:none;stroke-dashoffset:0"/><path fill="#8955f2" d="m108.136 327.065-5.815-19.283-19.02-5.55 18.755-6.345 6.08-18.49 5.683 18.358 19.151 6.476-18.49 5.816zM13.8 332.036l-5.815-19.283-19.02-5.552 18.755-6.343 6.08-18.491 5.683 18.358 19.151 6.476-18.49 5.816zM71.602 367.784 67.747 355l-12.61-3.68 12.435-4.206 4.03-12.259 3.768 12.171 12.697 4.294-12.26 3.855zM159.302 358.891l-3.855-12.784-12.609-3.68 12.434-4.206 4.03-12.259 3.768 12.172 12.697 4.293-12.259 3.855zM238.525 364.467l-5.816-19.283-19.019-5.551 18.755-6.344 6.08-18.49 5.683 18.358 19.151 6.476-18.49 5.815zM306.862 324.19l-5.816-19.283-19.019-5.551 18.755-6.344 6.08-18.49 5.683 18.358 19.151 6.476-18.49 5.815zM363.266 358.891l-3.855-12.784-12.61-3.68 12.435-4.206 4.03-12.259 3.768 12.172 12.697 4.293-12.26 3.855zM436.291 274.258l-3.855-12.784-12.609-3.68 12.434-4.206 4.03-12.259 3.768 12.171 12.697 4.294-12.259 3.855zM422.72 346.193l-5.815-19.283-19.02-5.552 18.756-6.343 6.08-18.491 5.683 18.359 19.15 6.475-18.49 5.816zM481.233 359.411l-3.856-12.784-12.609-3.68 12.434-4.206 4.03-12.259L485 338.653l12.697 4.294-12.259 3.855zM545.111 338.597l-3.855-12.784-12.61-3.68 12.435-4.206 4.03-12.26 3.768 12.172 12.697 4.293-12.26 3.856zM509.044 296.894l-5.815-19.283-19.02-5.552 18.756-6.343 6.08-18.491 5.683 18.359 19.15 6.475-18.49 5.816zM598.898 294.883l-3.856-12.784-12.609-3.68 12.434-4.206 4.03-12.259 3.768 12.171 12.697 4.293-12.259 3.856zM595.794 380.357l-3.855-12.784-12.609-3.68 12.434-4.206 4.03-12.258 3.768 12.17 12.697 4.294L600 367.75Z" style="mix-blend-mode:normal;stroke-linejoin:miter;stroke-miterlimit:10;stroke-dasharray:none;stroke-dashoffset:0"/></svg>