<?xml version="1.0" encoding="UTF-8" standalone="no"?>
<svg width="20px" height="20px" viewBox="0 0 20 20" version="1.1" xmlns="http://www.w3.org/2000/svg" xmlns:xlink="http://www.w3.org/1999/xlink">
    <!-- Generator: Sketch 48.2 (47327) - http://www.bohemiancoding.com/sketch -->
    <title>mask</title>
    <desc>Created with Sketch.</desc>
    <defs></defs>
    <mask id="myMask">
        <!-- Everything under a white pixel will be visible -->
        <rect x="0" y="0" width="20" height="20" fill="white" />

        <!-- Everything under a black pixel will be invisible -->
        <g id="copy" transform="translate(0.000000, 0.000000)">
            <g transform="translate(1.000000, 1.000000) scale(0.9)">
                <rect x="2.6" y="7.75" width="8.5" height="8.5" rx="1" fill="black"></rect>
            </g>
        </g>
    </mask>
    <mask id="myMask2">
        <!-- Everything under a white pixel will be visible -->
        <rect x="0" y="0" width="20" height="20" fill="white" />

        <!-- Everything under a black pixel will be invisible -->
        <g id="copy" transform="translate(0.000000, 0.000000)">
            <g transform="translate(0.000000, 0.000000)">
                <circle cx="12.5" cy="7.5" r="5" fill="black"></circle>
            </g>
        </g>
    </mask>
    <g id="Page-1" stroke="none" stroke-width="1" fill="none" fill-rule="evenodd">
        <g id="copy-v2">
            <g id="copy" transform="translate(0.000000, 0.000000)">
                <circle cx="10" cy="10" r="10" fill="#00c3ff"></circle>
                <g id="copy" transform="translate(1.000000, 1.000000) scale(0.9)">
                    <rect x="2.5" y="8" width="8.5" height="8.5" rx="1" fill="#ffffff80"></rect>
                    <circle cx="12.5" cy="7.5" r="5" fill="#00c3ff"></circle>
                    <circle cx="12.5" cy="7.5" r="5" fill="#ffffff80"></circle>
                    <circle cx="12.5" cy="7.5" r="5" fill="white" mask="url(#myMask)"></circle>
                    <rect x="2.5" y="8" width="8.5" height="8.5" rx="1" fill="#ffffff" mask="url(#myMask2)"></rect>
                    <!-- <rect x="0" y="0" width="20" height="20" rx="1" fill="#00000080"></rect>
                    <rect x="0" y="0" width="20" height="20" rx="1" fill="#ffffff" mask="url(#myMask2)"></rect> -->
                </g>
            </g>
        </g>
    </g>
</svg>