<svg xmlns="http://www.w3.org/2000/svg" width="600" height="372" viewBox="0 0 599.99999 372.00001"><path fill="#169fb0" d="M0 372V0h600v372z" style="mix-blend-mode:normal;fill-rule:nonzero;stroke-width:1.11355;stroke-linejoin:miter;stroke-miterlimit:10;stroke-dasharray:none;stroke-dashoffset:0"/><g fill="none" stroke="#00b2c9" stroke-linecap="round" stroke-width="12.5" style="mix-blend-mode:normal;fill-rule:nonzero;stroke-linejoin:miter;stroke-miterlimit:10;stroke-dasharray:none;stroke-dashoffset:0"><path d="M621.73086 163.20088c-6.84468 156.562-140.9058 301.18083-297.4678 297.4678-156.562-3.71303-284.59799-140.9058-297.4678-297.4678-12.8698-156.562 140.9058-272.71096 297.4678-297.4678 156.562-24.75683 304.31248 140.9058 297.4678 297.4678"/><path d="M588.56 157.85075c-5.42429 133.47192-120.12473 256.53914-253.59665 253.59665C201.49143 408.5049 91.56578 291.32268 81.3667 157.85076 71.16762 24.37884 201.49143-76.12656 334.96335-95.74589 468.43527-115.36522 593.98429 24.37884 588.56 157.85076"/><path d="M550.03899 155.17568c-4.67223 110.38184-99.34366 212.26003-209.7255 209.7255-110.38183-2.53454-200.94049-99.34366-209.7255-209.72549-8.78502-110.38183 99.34367-192.82633 209.7255-209.7255 110.38183-16.89916 214.39772 99.34367 209.7255 209.7255"/><path d="M509.37793 153.57063c-4.1968 87.29177-78.56259 168.13099-165.85435 165.85435-87.29176-2.27663-157.96327-78.56259-165.85435-165.85435-7.89108-87.29176 78.56259-150.67477 165.85435-165.85435 87.29177-15.17958 170.05115 78.56259 165.85435 165.85435"/><path d="M467.64683 152.5006c-3.86434 64.20169-57.78152 124.07948-121.9832 121.9832-64.20168-2.09628-114.71722-57.78151-121.98319-121.9832-7.26597-64.20168 57.78151-108.0061 121.98319-121.98319 64.20169-13.97709 125.84754 57.78151 121.9832 121.9832"/><path d="M425.30429 151.73629c-3.61619 41.1116-37.00045 80.07372-78.11205 78.11205-41.1116-1.96167-71.31266-37.00045-78.11204-78.11205-6.79938-41.1116 37.00044-65.03249 78.11204-78.11204 41.1116-13.07955 81.72824 37.00045 78.11205 78.11204"/><path d="M666.6963 163.38226c-7.87841 180.2071-162.18639 346.66729-342.39349 342.39349-180.2071-4.2738-327.57999-162.18639-342.39349-342.39349-14.8135-180.2071 162.18639-313.8977 342.39349-342.39349S674.57471-16.82484 666.6963 163.38226" data-paper-data="{&quot;index&quot;:null}"/></g><g stroke="#fff" stroke-width="10" style="mix-blend-mode:normal;fill-rule:nonzero;stroke-linejoin:miter;stroke-miterlimit:10;stroke-dasharray:none;stroke-dashoffset:0"><path fill="#5bd3e3" stroke-width="11.537325000000001" d="M226.56729141 166.20166386h66.69386078v66.69387231H226.5672914z"/><path fill="#5bd3e3" stroke-width="11.537325000000001" d="M259.91424487 232.89550156h66.69386078v66.69382616h-66.69386078zm-66.69389538 0h66.69386077v66.69382616H193.2203495z"/><path fill="#fff" stroke-width="11.537325000000001" d="M158.59023781 299.58932772h202.6480372z"/></g><g stroke="#fff" stroke-width="10" style="mix-blend-mode:normal;fill-rule:nonzero;stroke-linejoin:miter;stroke-miterlimit:10;stroke-dasharray:none;stroke-dashoffset:0"><path fill="#5bd3e3" stroke-width="11.537325000000001" d="M319.49734075 144.64181848c0-20.14385794 16.32982597-36.47368391 36.47369545-36.47368391 20.14386947 0 36.4736839 16.32982597 36.4736839 36.4736839 0 20.14385795-16.32981443 36.47368392-36.4736839 36.47368392-20.14386948 0-36.47369545-16.32982597-36.47369545-36.47368391z"/><path fill="#0ff" stroke-linecap="round" stroke-width="11.537325000000001" d="m408.33294342 57.41063083-35.30811411 35.60733464m26.3314984 8.97661571 35.30811411-35.60731156m-26.3314984 61.93875228 35.30811412-35.6073231"/></g></svg>