<svg xmlns="http://www.w3.org/2000/svg" width="600" height="372" viewBox="0 0 158.75 98.425"><rect width="158.75" height="98.425" ry="0" style="fill:#67ef36;fill-opacity:1;stroke:none;stroke-width:2.22379;stroke-miterlimit:10;stroke-dasharray:none;stroke-opacity:.423719;paint-order:stroke fill markers"/><path d="M99.219 0v19.844h19.844zM79.375 0v19.844h19.844Zm19.844 19.844v19.844h19.844zM119.063 0v19.844h19.843zm0 19.844v19.844h19.843zM138.906 0v19.844h19.844Zm0 19.844v19.844h19.844ZM138.906 39.688V59.53h19.844Zm0 19.843v19.844h19.844Zm-19.843-19.843V59.53h19.843z" style="fill:#47ce15;fill-opacity:1;stroke:none;stroke-width:.276042;stroke-linecap:butt;stroke-linejoin:miter;stroke-miterlimit:4;stroke-dasharray:none;stroke-opacity:1"/><path d="M119.063 59.531v9.922h9.921zm0 9.922v9.922h9.921zm9.921 0v9.922h9.922zM148.828 89.297v9.922h9.922ZM138.906 89.297v9.922h9.922zM138.906 79.375v9.922h9.922z" style="fill:#47ce15;fill-opacity:1;stroke:none;stroke-width:.138021;stroke-linecap:butt;stroke-linejoin:miter;stroke-miterlimit:4;stroke-dasharray:none;stroke-opacity:1"/><path d="M99.219 69.453v4.961h4.96zm4.96 0v4.961h4.962z" style="fill:#47ce15;fill-opacity:1;stroke:none;stroke-width:.0690105;stroke-linecap:butt;stroke-linejoin:miter;stroke-miterlimit:4;stroke-dasharray:none;stroke-opacity:1"/><path d="M104.18 74.414v4.961h4.96zm-4.961 0v4.961h4.96zm-9.922-4.96v4.96h4.96zm4.96 0v4.96h4.962z" style="fill:#47ce15;fill-opacity:1;stroke:none;stroke-width:.0690105;stroke-linecap:butt;stroke-linejoin:miter;stroke-miterlimit:4;stroke-dasharray:none;stroke-opacity:1"/><path d="M105.316 111.106v4.961h4.96zM105.316 106.145v4.961h4.96zM110.277 111.106v4.961h4.96zM110.277 106.145v4.961h4.96z" style="fill:#47ce15;fill-opacity:1;stroke:none;stroke-width:.0690105;stroke-linecap:butt;stroke-linejoin:miter;stroke-miterlimit:4;stroke-dasharray:none;stroke-opacity:1" transform="translate(13.747 -16.849)"/><path d="M105.316 111.106v4.961h4.96zM105.316 106.145v4.961h4.96zM110.277 111.106v4.961h4.96zM110.277 106.145v4.961h4.96z" style="fill:#47ce15;fill-opacity:1;stroke:none;stroke-width:.0690105;stroke-linecap:butt;stroke-linejoin:miter;stroke-miterlimit:4;stroke-dasharray:none;stroke-opacity:1" transform="translate(3.825 -26.77)"/><path d="M105.316 111.106v4.961h4.96zM105.316 106.145v4.961h4.96zM110.277 111.106v4.961h4.96zM110.277 106.145v4.961h4.96z" style="fill:#47ce15;fill-opacity:1;stroke:none;stroke-width:.0690105;stroke-linecap:butt;stroke-linejoin:miter;stroke-miterlimit:4;stroke-dasharray:none;stroke-opacity:1" transform="translate(3.825 -16.849)"/><path d="M105.316 111.106v4.961h4.96zM105.316 106.145v4.961h4.96zM110.277 111.106v4.961h4.96zM110.277 106.145v4.961h4.96z" style="fill:#47ce15;fill-opacity:1;stroke:none;stroke-width:.0690105;stroke-linecap:butt;stroke-linejoin:miter;stroke-miterlimit:4;stroke-dasharray:none;stroke-opacity:1" transform="translate(-6.097 -26.77)"/><path d="M105.316 111.106v4.961h4.96zM105.316 106.145v4.961h4.96zM110.277 111.106v4.961h4.96zM110.277 106.145v4.961h4.96z" style="fill:#47ce15;fill-opacity:1;stroke:none;stroke-width:.0690105;stroke-linecap:butt;stroke-linejoin:miter;stroke-miterlimit:4;stroke-dasharray:none;stroke-opacity:1" transform="translate(-6.097 -16.849)"/><path d="M105.316 111.106v4.961h4.96zM105.316 106.145v4.961h4.96zM110.277 111.106v4.961h4.96zM110.277 106.145v4.961h4.96z" style="fill:#47ce15;fill-opacity:1;stroke:none;stroke-width:.0690105;stroke-linecap:butt;stroke-linejoin:miter;stroke-miterlimit:4;stroke-dasharray:none;stroke-opacity:1" transform="translate(-16.019 -26.77)"/><path d="M105.316 111.106v4.961h4.96zM105.316 106.145v4.961h4.96zM110.277 111.106v4.961h4.96zM110.277 106.145v4.961h4.96z" style="fill:#47ce15;fill-opacity:1;stroke:none;stroke-width:.0690105;stroke-linecap:butt;stroke-linejoin:miter;stroke-miterlimit:4;stroke-dasharray:none;stroke-opacity:1" transform="translate(-16.019 -16.849)"/><path d="M105.316 111.106v4.961h4.96zM105.316 106.145v4.961h4.96zM110.277 111.106v4.961h4.96zM110.277 106.145v4.961h4.96z" style="fill:#47ce15;fill-opacity:1;stroke:none;stroke-width:.0690105;stroke-linecap:butt;stroke-linejoin:miter;stroke-miterlimit:4;stroke-dasharray:none;stroke-opacity:1" transform="translate(-25.94 -26.77)"/><path d="M105.316 111.106v4.961h4.96zM105.316 106.145v4.961h4.96zM110.277 111.106v4.961h4.96zM110.277 106.145v4.961h4.96z" style="fill:#47ce15;fill-opacity:1;stroke:none;stroke-width:.0690105;stroke-linecap:butt;stroke-linejoin:miter;stroke-miterlimit:4;stroke-dasharray:none;stroke-opacity:1" transform="translate(-25.94 -16.849)"/><path d="M105.316 111.106v4.961h4.96zM105.316 106.145v4.961h4.96zM110.277 111.106v4.961h4.96zM110.277 106.145v4.961h4.96z" style="fill:#47ce15;fill-opacity:1;stroke:none;stroke-width:.0690105;stroke-linecap:butt;stroke-linejoin:miter;stroke-miterlimit:4;stroke-dasharray:none;stroke-opacity:1" transform="translate(-35.863 -26.77)"/><path d="M105.316 111.106v4.961h4.96zM105.316 106.145v4.961h4.96zM110.277 111.106v4.961h4.96zM110.277 106.145v4.961h4.96z" style="fill:#47ce15;fill-opacity:1;stroke:none;stroke-width:.0690105;stroke-linecap:butt;stroke-linejoin:miter;stroke-miterlimit:4;stroke-dasharray:none;stroke-opacity:1" transform="translate(-35.863 -16.849)"/><path d="M105.316 111.106v4.961h4.96zM105.316 106.145v4.961h4.96zM110.277 111.106v4.961h4.96zM110.277 106.145v4.961h4.96z" style="fill:#47ce15;fill-opacity:1;stroke:none;stroke-width:.0690105;stroke-linecap:butt;stroke-linejoin:miter;stroke-miterlimit:4;stroke-dasharray:none;stroke-opacity:1" transform="translate(-45.784 -26.77)"/><path d="M105.316 111.106v4.961h4.96zM105.316 106.145v4.961h4.96zM110.277 111.106v4.961h4.96zM110.277 106.145v4.961h4.96z" style="fill:#47ce15;fill-opacity:1;stroke:none;stroke-width:.0690105;stroke-linecap:butt;stroke-linejoin:miter;stroke-miterlimit:4;stroke-dasharray:none;stroke-opacity:1" transform="translate(-45.784 -16.849)"/><path d="M105.316 111.106v4.961h4.96zM105.316 106.145v4.961h4.96zM110.277 111.106v4.961h4.96zM110.277 106.145v4.961h4.96z" style="fill:#47ce15;fill-opacity:1;stroke:none;stroke-width:.0690105;stroke-linecap:butt;stroke-linejoin:miter;stroke-miterlimit:4;stroke-dasharray:none;stroke-opacity:1" transform="translate(-55.706 -26.77)"/><path d="M105.316 111.106v4.961h4.96zM105.316 106.145v4.961h4.96zM110.277 111.106v4.961h4.96zM110.277 106.145v4.961h4.96z" style="fill:#47ce15;fill-opacity:1;stroke:none;stroke-width:.0690105;stroke-linecap:butt;stroke-linejoin:miter;stroke-miterlimit:4;stroke-dasharray:none;stroke-opacity:1" transform="translate(-55.706 -16.849)"/><path d="M105.316 111.106v4.961h4.96zM105.316 106.145v4.961h4.96zM110.277 111.106v4.961h4.96zM110.277 106.145v4.961h4.96z" style="fill:#47ce15;fill-opacity:1;stroke:none;stroke-width:.0690105;stroke-linecap:butt;stroke-linejoin:miter;stroke-miterlimit:4;stroke-dasharray:none;stroke-opacity:1" transform="translate(-65.628 -26.77)"/><path d="M105.316 111.106v4.961h4.96zM105.316 106.145v4.961h4.96zM110.277 111.106v4.961h4.96zM110.277 106.145v4.961h4.96z" style="fill:#47ce15;fill-opacity:1;stroke:none;stroke-width:.0690105;stroke-linecap:butt;stroke-linejoin:miter;stroke-miterlimit:4;stroke-dasharray:none;stroke-opacity:1" transform="translate(-65.628 -16.849)"/><path d="M105.316 111.106v4.961h4.96zM105.316 106.145v4.961h4.96zM110.277 111.106v4.961h4.96zM110.277 106.145v4.961h4.96z" style="fill:#47ce15;fill-opacity:1;stroke:none;stroke-width:.0690105;stroke-linecap:butt;stroke-linejoin:miter;stroke-miterlimit:4;stroke-dasharray:none;stroke-opacity:1" transform="translate(-75.55 -26.77)"/><path d="M105.316 111.106v4.961h4.96zM105.316 106.145v4.961h4.96zM110.277 111.106v4.961h4.96zM110.277 106.145v4.961h4.96z" style="fill:#47ce15;fill-opacity:1;stroke:none;stroke-width:.0690105;stroke-linecap:butt;stroke-linejoin:miter;stroke-miterlimit:4;stroke-dasharray:none;stroke-opacity:1" transform="translate(-75.55 -16.849)"/><path d="M105.316 111.106v4.961h4.96zM105.316 106.145v4.961h4.96zM110.277 111.106v4.961h4.96zM110.277 106.145v4.961h4.96z" style="fill:#47ce15;fill-opacity:1;stroke:none;stroke-width:.0690105;stroke-linecap:butt;stroke-linejoin:miter;stroke-miterlimit:4;stroke-dasharray:none;stroke-opacity:1" transform="translate(-85.472 -26.77)"/><path d="M105.316 111.106v4.961h4.96zM105.316 106.145v4.961h4.96zM110.277 111.106v4.961h4.96zM110.277 106.145v4.961h4.96z" style="fill:#47ce15;fill-opacity:1;stroke:none;stroke-width:.0690105;stroke-linecap:butt;stroke-linejoin:miter;stroke-miterlimit:4;stroke-dasharray:none;stroke-opacity:1" transform="translate(-85.472 -16.849)"/><path d="M105.316 111.106v4.961h4.96zM105.316 106.145v4.961h4.96zM110.277 111.106v4.961h4.96zM110.277 106.145v4.961h4.96z" style="fill:#47ce15;fill-opacity:1;stroke:none;stroke-width:.0690105;stroke-linecap:butt;stroke-linejoin:miter;stroke-miterlimit:4;stroke-dasharray:none;stroke-opacity:1" transform="translate(-95.394 -26.77)"/><path d="M105.316 111.106v4.961h4.96zM105.316 106.145v4.961h4.96zM110.277 111.106v4.961h4.96zM110.277 106.145v4.961h4.96z" style="fill:#47ce15;fill-opacity:1;stroke:none;stroke-width:.0690105;stroke-linecap:butt;stroke-linejoin:miter;stroke-miterlimit:4;stroke-dasharray:none;stroke-opacity:1" transform="translate(-95.394 -16.849)"/><path d="M105.316 111.106v4.961h4.96zM105.316 106.145v4.961h4.96zM110.277 111.106v4.961h4.96zM110.277 106.145v4.961h4.96z" style="fill:#47ce15;fill-opacity:1;stroke:none;stroke-width:.0690105;stroke-linecap:butt;stroke-linejoin:miter;stroke-miterlimit:4;stroke-dasharray:none;stroke-opacity:1" transform="translate(-105.316 -26.77)"/><path d="M105.316 111.106v4.961h4.96zM105.316 106.145v4.961h4.96zM110.277 111.106v4.961h4.96zM110.277 106.145v4.961h4.96z" style="fill:#47ce15;fill-opacity:1;stroke:none;stroke-width:.0690105;stroke-linecap:butt;stroke-linejoin:miter;stroke-miterlimit:4;stroke-dasharray:none;stroke-opacity:1" transform="translate(-105.316 -16.849)"/><path d="M94.258 74.414v4.961h4.96zm-4.961 0v4.961h4.96zm-9.922-4.96v4.96h4.961zm4.961 0v4.96h4.96zM84.336 74.414v4.961h4.96zm-4.961 0v4.961h4.961zm0-14.883v4.961h4.961zm4.961 0v4.961h4.96zM84.336 64.492v4.961h4.96zm-4.961 0v4.961h4.961zm9.922-4.96v4.96h4.96zm4.96 0v4.96h4.962zM94.258 64.492v4.961h4.96zm-4.961 0v4.961h4.96zM79.375 49.61v4.961h4.961zm4.961 0v4.961h4.96z" style="fill:#47ce15;fill-opacity:1;stroke:none;stroke-width:.0690105;stroke-linecap:butt;stroke-linejoin:miter;stroke-miterlimit:4;stroke-dasharray:none;stroke-opacity:1"/><path d="M84.336 54.57v4.961h4.96zm-4.961 0v4.961h4.961zm-9.922-14.882v4.96h4.961zm4.961 0v4.96h4.961ZM74.414 44.648v4.961h4.961Zm-4.96 0v4.961h4.96zm-9.923-4.96v4.96h4.961zm4.961 0v4.96h4.961zM64.492 44.648v4.961h4.961zm-4.96 0v4.961h4.96zm-9.923-4.96v4.96h4.961zm4.961 0v4.96h4.961zM54.57 44.648v4.961h4.961zm-4.96 0v4.961h4.96zm19.843 4.961v4.961h4.961zm4.961 0v4.961h4.961ZM74.414 54.57v4.961h4.961Zm-4.96 0v4.961h4.96zm-9.923-4.96v4.96h4.961zm4.961 0v4.96h4.961zM64.492 54.57v4.961h4.961zm-4.96 0v4.961h4.96zm-9.923-4.96v4.96h4.961zm4.961 0v4.96h4.961zM54.57 54.57v4.961h4.961zm-4.96 0v4.961h4.96zm19.843 4.961v4.961h4.961zm4.961 0v4.961h4.961ZM74.414 64.492v4.961h4.961Zm-4.96 0v4.961h4.96zm-9.923-4.96v4.96h4.961zm4.961 0v4.96h4.961zM64.492 64.492v4.961h4.961zm-4.96 0v4.961h4.96Zm-9.923-4.96v4.96h4.961zm4.961 0v4.96h4.961zM54.57 64.492v4.961h4.961zm-4.96 0v4.961h4.96zm19.843 4.961v4.961h4.961zm4.961 0v4.961h4.961ZM74.414 74.414v4.961h4.961Zm-4.96 0v4.961h4.96zm-9.923-4.96v4.96h4.961zm4.961 0v4.96h4.961zM64.492 74.414v4.961h4.961zm-4.96 0v4.961h4.96zm-9.923-4.96v4.96h4.961zm4.961 0v4.96h4.961zM54.57 74.414v4.961h4.961zm-4.96 0v4.961h4.96zm0-44.648v4.96h4.96zm4.96 0v4.96h4.961zM54.57 34.727v4.96h4.961zm-4.96 0v4.96h4.96zm9.921-4.961v4.96h4.961zm4.961 0v4.96h4.961zM64.492 34.727v4.96h4.961zm-4.96 0v4.96h4.96Zm-9.923-14.883v4.96h4.961zm4.961 0v4.96h4.961zM54.57 24.805v4.96h4.961zm-4.96 0v4.96h4.96zM39.686 9.922v4.96h4.961zm4.961 0v4.96h4.961z" style="fill:#47ce15;fill-opacity:1;stroke:none;stroke-width:.0690105;stroke-linecap:butt;stroke-linejoin:miter;stroke-miterlimit:4;stroke-dasharray:none;stroke-opacity:1"/><path d="M44.648 14.883v4.96h4.961zm-4.96 0v4.96h4.96zm-9.922-4.961v4.96h4.96zm4.96 0v4.96h4.962zM34.727 14.883v4.96h4.96zm-4.961 0v4.96h4.96zm-9.922-4.961v4.96h4.96zM24.805 9.922v4.96h4.96zM24.805 14.883v4.96h4.96zM19.844 14.883v4.96h4.96zm0-14.883v4.96h4.96zm4.96 0v4.96h4.962z" style="fill:#47ce15;fill-opacity:1;stroke:none;stroke-width:.0690105;stroke-linecap:butt;stroke-linejoin:miter;stroke-miterlimit:4;stroke-dasharray:none;stroke-opacity:1"/><path d="M24.805 4.96v4.962h4.96zm-4.961 0v4.962h4.96zM9.922 9.923v4.96h4.96zm4.96 0v4.96h4.962zM14.883 14.883v4.96h4.96zm-4.961 0v4.96h4.96zM9.922 0v4.96h4.96zm4.96 0v4.96h4.962zM14.883 4.96v4.962h4.96zm-4.961 0v4.962h4.96zM29.766 0v4.96h4.96zm4.96 0v4.96h4.962zM34.727 4.96v4.962h4.96zm-4.961 0v4.962h4.96z" style="fill:#47ce15;fill-opacity:1;stroke:none;stroke-width:.0690105;stroke-linecap:butt;stroke-linejoin:miter;stroke-miterlimit:4;stroke-dasharray:none;stroke-opacity:1"/><path d="M128.984 59.531v9.922h9.922zM99.22 39.688v9.921h9.922zm0 9.921v9.922h9.922zm9.922 0v9.922h9.922zM148.828 79.375v9.922h9.922ZM119.063 79.375v9.922h9.921zM128.984 79.375v9.922h9.922zM128.984 89.297v9.922h9.922z" style="fill:#47ce15;fill-opacity:1;stroke:none;stroke-width:.138021;stroke-linecap:butt;stroke-linejoin:miter;stroke-miterlimit:4;stroke-dasharray:none;stroke-opacity:1"/><path d="M109.14 39.688v9.921h9.923zM99.22 59.53v9.922h9.922zm9.922 9.922v9.922h9.922z" style="fill:#47ce15;fill-opacity:1;stroke:none;stroke-width:.138021;stroke-linecap:butt;stroke-linejoin:miter;stroke-miterlimit:4;stroke-dasharray:none;stroke-opacity:1"/><path d="M109.14 59.531v9.922h9.923zM79.376 39.688v9.921h9.922zm9.922 9.921v9.922h9.922z" style="fill:#47ce15;fill-opacity:1;stroke:none;stroke-width:.138021;stroke-linecap:butt;stroke-linejoin:miter;stroke-miterlimit:4;stroke-dasharray:none;stroke-opacity:1"/><path d="M39.688 69.453v4.961h4.96zm4.96 0v4.961h4.961zM44.648 74.414v4.961h4.961zm-4.96 0v4.961h4.96zm0-14.883v4.961h4.96zm4.96 0v4.961h4.961zM44.648 64.492v4.961h4.961zm-4.96 0v4.961h4.96zm-9.922-4.96v4.96h4.96zm4.96 0v4.96h4.961zM34.727 64.492v4.961h4.96zm-4.961 0v4.961h4.96zm-9.922-4.96v4.96h4.96zm4.96 0v4.96h4.962z" style="fill:#47ce15;fill-opacity:1;stroke:none;stroke-width:.0690105;stroke-linecap:butt;stroke-linejoin:miter;stroke-miterlimit:4;stroke-dasharray:none;stroke-opacity:1"/><path d="M24.805 64.492v4.961h4.96zm-4.961 0v4.961h4.96zm-9.922-4.96v4.96h4.96zm4.96 0v4.96h4.962zM14.883 64.492v4.961h4.96zm-4.961 0v4.961h4.96zm19.844 4.961v4.961h4.96zm4.96 0v4.961h4.961zM34.727 74.414v4.961h4.96zm-4.961 0v4.961h4.96zm-9.922-4.96v4.96h4.96zm4.96 0v4.96h4.962z" style="fill:#47ce15;fill-opacity:1;stroke:none;stroke-width:.0690105;stroke-linecap:butt;stroke-linejoin:miter;stroke-miterlimit:4;stroke-dasharray:none;stroke-opacity:1"/><path d="M24.805 74.414v4.961h4.96zm-4.961 0v4.961h4.96zm-9.922-4.96v4.96h4.96zm4.96 0v4.96h4.962zM14.883 74.414v4.961h4.96zm-4.961 0v4.961h4.96zM39.688 49.61v4.961h4.96zm4.96 0v4.961h4.961z" style="fill:#47ce15;fill-opacity:1;stroke:none;stroke-width:.0690105;stroke-linecap:butt;stroke-linejoin:miter;stroke-miterlimit:4;stroke-dasharray:none;stroke-opacity:1"/><path d="M44.648 54.57v4.961h4.961zm-4.96 0v4.961h4.96zm0-14.882v4.96h4.96zm4.96 0v4.96h4.961zM44.648 44.648v4.961h4.961zm-4.96 0v4.961h4.96zm-9.922-4.96v4.96h4.96zm4.96 0v4.96h4.961zM34.727 44.648v4.961h4.96zm-4.961 0v4.961h4.96zm-9.922-4.96v4.96h4.96zm4.96 0v4.96h4.962z" style="fill:#47ce15;fill-opacity:1;stroke:none;stroke-width:.0690105;stroke-linecap:butt;stroke-linejoin:miter;stroke-miterlimit:4;stroke-dasharray:none;stroke-opacity:1"/><path d="M24.805 44.648v4.961h4.96zm-4.961 0v4.961h4.96zm-9.922-4.96v4.96h4.96zm4.96 0v4.96h4.962zM14.883 44.648v4.961h4.96zm-4.961 0v4.961h4.96zm19.844 4.961v4.961h4.96zm4.96 0v4.961h4.961zM34.727 54.57v4.961h4.96zm-4.961 0v4.961h4.96zm-9.922-4.96v4.96h4.96zm4.96 0v4.96h4.962z" style="fill:#47ce15;fill-opacity:1;stroke:none;stroke-width:.0690105;stroke-linecap:butt;stroke-linejoin:miter;stroke-miterlimit:4;stroke-dasharray:none;stroke-opacity:1"/><path d="M24.805 54.57v4.961h4.96zm-4.961 0v4.961h4.96zm-9.922-4.96v4.96h4.96zm4.96 0v4.96h4.962zM14.883 54.57v4.961h4.96zm-4.961 0v4.961h4.96Zm29.766-24.804v4.96h4.96zm4.96 0v4.96h4.961zM44.648 34.727v4.96h4.961zm-4.96 0v4.96h4.96zm0-14.883v4.96h4.96zm4.96 0v4.96h4.961zM44.648 24.805v4.96h4.961zm-4.96 0v4.96h4.96zm-9.922-4.961v4.96h4.96zm4.96 0v4.96h4.961zM34.727 24.805v4.96h4.96zm-4.961 0v4.96h4.96zm-9.922-4.961v4.96h4.96zM24.805 19.844v4.96h4.96zM24.805 24.805v4.96h4.96z" style="fill:#47ce15;fill-opacity:1;stroke:none;stroke-width:.0690105;stroke-linecap:butt;stroke-linejoin:miter;stroke-miterlimit:4;stroke-dasharray:none;stroke-opacity:1"/><path d="M19.844 24.805v4.96h4.96zm-9.922-4.961v4.96h4.96zm4.96 0v4.96h4.962zM14.883 24.805v4.96h4.96zm-4.961 0v4.96h4.96zm19.844 4.96v4.962h4.96zm4.96 0v4.962h4.961z" style="fill:#47ce15;fill-opacity:1;stroke:none;stroke-width:.0690105;stroke-linecap:butt;stroke-linejoin:miter;stroke-miterlimit:4;stroke-dasharray:none;stroke-opacity:1"/><path d="M34.727 34.727v4.96h4.96zm-4.961 0v4.96h4.96zm-9.922-4.961v4.96h4.96zM24.805 29.766v4.96h4.96zM24.805 34.727v4.96h4.96z" style="fill:#47ce15;fill-opacity:1;stroke:none;stroke-width:.0690105;stroke-linecap:butt;stroke-linejoin:miter;stroke-miterlimit:4;stroke-dasharray:none;stroke-opacity:1"/><path d="M19.844 34.727v4.96h4.96zm-9.922-4.961v4.96h4.96zm4.96 0v4.96h4.962zM14.883 34.727v4.96h4.96zm-4.961 0v4.96h4.96zM0 9.922v4.96h4.96zm4.96 0v4.96h4.962zM4.96 14.883v4.96h4.962zm-4.96 0v4.96h4.96zM0 0v4.96h4.96zm4.96 0v4.96h4.962zM4.96 4.96v4.962h4.962zM0 4.96v4.962h4.96zm0 54.571v4.961h4.96zm4.96 0v4.961h4.962zm0 4.961v4.961h4.962zm-4.96 0v4.961h4.96zm0 4.961v4.961h4.96zm4.96 0v4.961h4.962zm0 4.961v4.961h4.962zm-4.96 0v4.961h4.96zm0-34.727v4.961h4.96zm4.96 0v4.961h4.962zM4.96 44.648v4.961h4.962zm-4.96 0v4.961h4.96zm0 4.961v4.961h4.96zm4.96 0v4.961h4.962zM4.96 54.57v4.961h4.962zm-4.96 0v4.961h4.96zm0-34.726v4.96h4.96zm4.96 0v4.96h4.962z" style="fill:#47ce15;fill-opacity:1;stroke:none;stroke-width:.0690105;stroke-linecap:butt;stroke-linejoin:miter;stroke-miterlimit:4;stroke-dasharray:none;stroke-opacity:1"/><path d="M4.96 24.805v4.96h4.962zm-4.96 0v4.96h4.96zm0 4.96v4.962h4.96zm4.96 0v4.962h4.962z" style="fill:#47ce15;fill-opacity:1;stroke:none;stroke-width:.0690105;stroke-linecap:butt;stroke-linejoin:miter;stroke-miterlimit:4;stroke-dasharray:none;stroke-opacity:1"/><path d="M4.96 34.727v4.96h4.962zm-4.96 0v4.96h4.96z" style="fill:#47ce15;fill-opacity:1;stroke:none;stroke-width:.0690105;stroke-linecap:butt;stroke-linejoin:miter;stroke-miterlimit:4;stroke-dasharray:none;stroke-opacity:1"/><path d="M89.297 39.688v9.921h9.922zM59.53 19.844v9.922h9.922zm9.922 9.922v9.922h9.922zM69.453 19.844v9.922h9.922ZM39.688 0v9.922h9.921zm9.921 9.922v9.922h9.922zM49.61 0v9.922h9.921zm29.765 19.844v9.922h9.922zm0 9.922v9.922h9.922zm9.922 0v9.922h9.922z" style="fill:#47ce15;fill-opacity:1;stroke:none;stroke-width:.138021;stroke-linecap:butt;stroke-linejoin:miter;stroke-miterlimit:4;stroke-dasharray:none;stroke-opacity:1"/><path d="M89.297 19.844v9.922h9.922zM59.53 0v9.922h9.922zm0 9.922v9.922h9.922zm9.922 0v9.922h9.922zM69.453 0v9.922h9.922Z" style="fill:#47ce15;fill-opacity:1;stroke:none;stroke-width:.138021;stroke-linecap:butt;stroke-linejoin:miter;stroke-miterlimit:4;stroke-dasharray:none;stroke-opacity:1"/><g transform="matrix(1.54803 0 0 1.54803 -53.097 -47.593)"><rect width="57.857" height="27.439" x="43.957" y="48.815" ry="13.72" style="fill:#00e60b;fill-opacity:1;stroke:#000;stroke-width:2;stroke-miterlimit:10;stroke-dasharray:none;stroke-opacity:.423719;paint-order:stroke fill markers"/><path fill="#fff" d="M96.436 57.043q-.161.705-.242 1.531-.02.222.04.564.061.403.061.564 0 .524-.685.524-.443 0-.584-.262-.02-.443.02-1.209.04-.906.04-1.209-.02 0-.06-.04-1.874.08-3.526.242-.04.262 0 .645l.08.725q-.08.625-.08 1.854.06.524.06 4.493v1.47q0 .343.1.484h1.25q.766-.1.766.645 0 .443-.423.625-.262.1-.927.04-.403-.04-.947-.02-.746.1-1.814.161-1.088.06-1.33-.302-.16-.242 0-.504.283-.443 1.471-.443.625 0 .625-.343 0-.181-.02-.342 0-.504.02-.887.06-1.088 0-3.062-.08-2.862.06-5.138l-.06-.06q-.625.04-2.337-.021-.08 0-1.23.08.283 1.935.323 2.761l-.04.544q-.02.302-.504.302-.383 0-.645-1.45l-.242-1.753q0-.141-.14-.484-.121-.363-.121-.544 0-.504.765-.625.06 0 .202.02.14.02.201.02h4.997q1.854-.08 3.587-.322.12-.06.362-.12.423-.04.726.2.302.223.201.646z"/><rect width="31.303" height="17.347" x="49.871" y="53.861" ry="8.674" style="fill:#fff;fill-opacity:1;stroke:#b0c7d2;stroke-width:1.94165;stroke-miterlimit:10;stroke-dasharray:none;stroke-opacity:1;paint-order:stroke fill markers"/></g><path d="M120.517 26.873a3.224 3.224 0 0 0-3.231 3.232v6.555h-6.556a3.224 3.224 0 0 0-3.23 3.231v.058c0 1.79 1.44 3.232 3.23 3.232h6.556v6.554c0 1.79 1.44 3.232 3.23 3.232h.06a3.224 3.224 0 0 0 3.23-3.232v-6.554h6.556a3.224 3.224 0 0 0 3.23-3.232v-.058c0-1.79-1.44-3.231-3.23-3.231h-6.556v-6.555c0-1.79-1.44-3.232-3.23-3.232z" style="fill:#fffffe;fill-opacity:1;stroke:#000;stroke-width:2.42892;stroke-miterlimit:10;stroke-dasharray:none;stroke-opacity:.423719;paint-order:stroke fill markers" transform="translate(-15.095 1.978) scale(1.19017)"/></svg>