<svg xmlns="http://www.w3.org/2000/svg" width="600" height="372" viewBox="17.199 54.723 600 372"><path fill="#96f" d="M17.2 426.723v-372h600v372z" style="mix-blend-mode:normal;fill:#4d97ff;fill-opacity:1;fill-rule:nonzero;stroke:none;stroke-width:1.11355;stroke-linecap:butt;stroke-linejoin:miter;stroke-miterlimit:10;stroke-dasharray:none;stroke-dashoffset:0"/><path fill="#8250e6" d="m308.605 289.716 48.002 27.669v55.547l-48.002 27.67-48.001-27.67v-55.547zm95.374-116.44 29.032 16.77v33.537l-29.032 16.77-29.031-16.77v-33.538zm201.229 44.019 35.424 20.437v40.875l-35.424 20.437-35.425-20.437v-40.875zM32.484 194.14l52.037 30.02v60.042l-52.037 30.02-52.035-30.02v-60.041zm95.407-73.896 37.38 21.595v43.19l-37.38 21.595-37.383-21.595v-43.19zm61.221 114.325 23.582 13.625v27.25l-23.582 13.624-23.581-13.624v-27.25zm321.77 56.09 26.306 15.196v30.394l-26.306 15.197-26.307-15.197v-30.394zm-316.516 66.027 40.875 23.582v47.163l-40.875 23.581-40.874-23.581v-47.163ZM547.564 60.085l31.757 18.341v36.682l-31.757 18.342-31.756-18.342V78.426ZM101.166 310.566l25.43 14.671v29.34l-25.43 14.671-25.43-14.67v-29.34zm331.111 50.314 38.988 22.533v45.067l-38.988 22.533-38.988-22.533v-45.067zm0-289.266 23.581 13.625v27.25l-23.581 13.624-23.581-13.625v-27.25Zm78.143 100.045 22.467 12.961v25.925l-22.467 12.963-22.469-12.963V184.62ZM17.733 71.46l37.382 21.595v43.19l-37.382 21.595-37.382-21.595v-43.19Zm582.753 298.48 35.425 20.438v40.874l-35.425 20.437-35.424-20.437V390.38Zm-583.25-7.711 31.756 18.34v36.683l-31.756 18.341-31.757-18.341v-36.682zm288.75-241.357 37.205 21.485v42.97l-37.206 21.486-37.206-21.485v-42.97zm-88.734-82.507 37.382 21.595v43.191l-37.382 21.594-37.382-21.595v-43.19Zm413.998 92.342 23.582 13.625v27.25l-23.582 13.624-23.581-13.625v-27.25z" style="mix-blend-mode:normal;fill:#4280d7;fill-opacity:1;fill-rule:nonzero;stroke:none;stroke-width:1.04807;stroke-linecap:butt;stroke-linejoin:miter;stroke-miterlimit:10;stroke-dasharray:none;stroke-dashoffset:0"/><path fill="none" stroke="#000" stroke-opacity=".149" stroke-width="10" d="M258.45 138.443h50.79l-19.808 16.064 24.446 23.64-16.124 16.123-23.616-24.42-15.688 19.383z" style="mix-blend-mode:normal;fill-rule:nonzero;stroke-linecap:butt;stroke-linejoin:miter;stroke-miterlimit:10;stroke-dasharray:none;stroke-dashoffset:0" transform="translate(-135.41 -65.734) scale(1.21989)"/><path fill="#fff" d="M258.45 138.443h50.79l-19.808 16.064 24.446 23.64-16.124 16.123-23.616-24.42-15.688 19.383z" style="mix-blend-mode:normal;fill-rule:nonzero;stroke-linecap:butt;stroke-linejoin:miter;stroke-miterlimit:10;stroke-dasharray:none;stroke-dashoffset:0" transform="translate(-135.41 -65.734) scale(1.21989)"/><path fill="none" stroke="#000" stroke-opacity=".149" stroke-width="10" d="M483.799 138.642v50.791l-16.065-19.808-23.64 24.445-16.123-16.124 24.42-23.615-19.383-15.689z" style="mix-blend-mode:normal;fill-rule:nonzero;stroke-linecap:butt;stroke-linejoin:miter;stroke-miterlimit:10;stroke-dasharray:none;stroke-dashoffset:0" transform="translate(-135.41 -65.734) scale(1.21989)"/><path fill="#fff" d="M483.799 138.642v50.791l-16.065-19.808-23.64 24.445-16.123-16.124 24.42-23.615-19.383-15.689z" style="mix-blend-mode:normal;fill-rule:nonzero;stroke-linecap:butt;stroke-linejoin:miter;stroke-miterlimit:10;stroke-dasharray:none;stroke-dashoffset:0" transform="translate(-135.41 -65.734) scale(1.21989)"/><path fill="none" stroke="#000" stroke-opacity=".149" stroke-width="10" d="m444.095 308.364 23.626 24.432 15.878-19.595v50.79h-50.791l19.595-15.877-24.432-23.627z" style="mix-blend-mode:normal;fill-rule:nonzero;stroke-linecap:butt;stroke-linejoin:miter;stroke-miterlimit:10;stroke-dasharray:none;stroke-dashoffset:0" transform="translate(-135.41 -65.734) scale(1.21989)"/><path fill="#fff" d="m444.095 308.364 23.626 24.432 15.878-19.595v50.79h-50.791l19.595-15.877-24.432-23.627z" style="mix-blend-mode:normal;fill-rule:nonzero;stroke-linecap:butt;stroke-linejoin:miter;stroke-miterlimit:10;stroke-dasharray:none;stroke-dashoffset:0" transform="translate(-135.41 -65.734) scale(1.21989)"/><path fill="none" stroke="#000" stroke-opacity=".149" stroke-width="10" d="m313.878 324.288-24.433 23.626 19.595 15.877h-50.79v-50.79l15.877 19.595 23.627-24.432z" style="mix-blend-mode:normal;fill-rule:nonzero;stroke-linecap:butt;stroke-linejoin:miter;stroke-miterlimit:10;stroke-dasharray:none;stroke-dashoffset:0" transform="translate(-135.41 -65.734) scale(1.21989)"/><path fill="#fff" d="m313.878 324.288-24.433 23.626 19.595 15.877h-50.79v-50.79l15.877 19.595 23.627-24.432z" style="mix-blend-mode:normal;fill-rule:nonzero;stroke-linecap:butt;stroke-linejoin:miter;stroke-miterlimit:10;stroke-dasharray:none;stroke-dashoffset:0" transform="translate(-135.41 -65.734) scale(1.21989)"/><path fill="none" stroke="#000" stroke-opacity=".149" stroke-width="10" d="M421.924 306.202c-1.045 0-2.09-.4-2.889-1.195L317.07 203.039a4.087 4.087 0 0 1 0-5.777 4.087 4.087 0 0 1 5.777 0l101.965 101.965a4.087 4.087 0 0 1-2.888 6.975z" style="mix-blend-mode:normal;fill-rule:nonzero;stroke-linecap:butt;stroke-linejoin:miter;stroke-miterlimit:10;stroke-dasharray:none;stroke-dashoffset:0" transform="translate(-135.41 -65.734) scale(1.21989)"/><path fill="none" stroke="#000" stroke-opacity=".149" stroke-width="20" d="M362.115 219.837c0 12.41-10.06 22.469-22.47 22.469-12.409 0-22.468-10.06-22.468-22.469 0-12.41 10.06-22.469 22.468-22.469 12.41 0 22.47 10.06 22.47 22.469z" style="mix-blend-mode:normal;fill-rule:nonzero;stroke-linecap:butt;stroke-linejoin:miter;stroke-miterlimit:10;stroke-dasharray:none;stroke-dashoffset:0" transform="translate(-135.41 -65.734) scale(1.21989)"/><path fill="none" stroke="#000" stroke-opacity=".149" stroke-width="20" d="M359 266.224c-12.077-2.853-19.556-14.955-16.704-27.032 2.852-12.077 14.954-19.556 27.031-16.704 12.077 2.852 19.556 14.954 16.704 27.031-2.852 12.077-14.954 19.556-27.031 16.704z" style="mix-blend-mode:normal;fill-rule:nonzero;stroke-linecap:butt;stroke-linejoin:miter;stroke-miterlimit:10;stroke-dasharray:none;stroke-dashoffset:0" transform="translate(-135.41 -65.734) scale(1.21989)"/><path fill="none" stroke="#000" stroke-opacity=".149" stroke-width="20" d="M411.142 268.861c0 12.41-10.063 22.472-22.472 22.472-12.41 0-22.47-10.063-22.47-22.472s10.06-22.469 22.47-22.469c12.409 0 22.472 10.063 22.472 22.47z" style="mix-blend-mode:normal;fill-rule:nonzero;stroke-linecap:butt;stroke-linejoin:miter;stroke-miterlimit:10;stroke-dasharray:none;stroke-dashoffset:0" transform="translate(-135.41 -65.734) scale(1.21989)"/><path fill="#fff" stroke="#fff" d="M421.924 306.202c-1.045 0-2.09-.4-2.889-1.195L317.07 203.039a4.087 4.087 0 0 1 0-5.777 4.087 4.087 0 0 1 5.777 0l101.965 101.965a4.087 4.087 0 0 1-2.888 6.975z" style="mix-blend-mode:normal;fill-rule:nonzero;stroke-linecap:butt;stroke-linejoin:miter;stroke-miterlimit:10;stroke-dasharray:none;stroke-dashoffset:0" transform="translate(-135.41 -65.734) scale(1.21989)"/><path fill="#aa80ff" stroke="#fff" stroke-width="7.5" d="M362.115 219.837c0 12.41-10.06 22.469-22.47 22.469-12.409 0-22.468-10.06-22.468-22.469 0-12.41 10.06-22.469 22.468-22.469 12.41 0 22.47 10.06 22.47 22.469z" style="mix-blend-mode:normal;fill:#599eff;fill-opacity:1;fill-rule:nonzero;stroke-linecap:butt;stroke-linejoin:miter;stroke-miterlimit:10;stroke-dasharray:none;stroke-dashoffset:0" transform="translate(-135.41 -65.734) scale(1.21989)"/><path fill="#8a5ce6" stroke="#fff" stroke-width="7.5" d="M359 266.224c-12.077-2.853-19.556-14.955-16.704-27.032 2.852-12.077 14.954-19.556 27.031-16.704 12.077 2.852 19.556 14.954 16.704 27.031-2.852 12.077-14.954 19.556-27.031 16.704z" style="mix-blend-mode:normal;fill:#3c8dff;fill-opacity:1;fill-rule:nonzero;stroke-linecap:butt;stroke-linejoin:miter;stroke-miterlimit:10;stroke-dasharray:none;stroke-dashoffset:0" transform="translate(-135.41 -65.734) scale(1.21989)"/><path fill="#7a45e6" stroke="#fff" stroke-width="7.5" d="M411.142 268.861c0 12.41-10.063 22.472-22.472 22.472-12.41 0-22.47-10.063-22.47-22.472s10.06-22.469 22.47-22.469c12.409 0 22.472 10.063 22.472 22.47z" style="mix-blend-mode:normal;fill:#2680ff;fill-opacity:1;fill-rule:nonzero;stroke-linecap:butt;stroke-linejoin:miter;stroke-miterlimit:10;stroke-dasharray:none;stroke-dashoffset:0" transform="translate(-135.41 -65.734) scale(1.21989)"/><path fill="#fff" stroke="#fff" d="M422.089 306.368c-1.044 0-2.09-.4-2.888-1.195l-25.024-25.025a4.081 4.081 0 0 1 0-5.777 4.087 4.087 0 0 1 5.776 0l25.025 25.025a4.087 4.087 0 0 1 0 5.777 4.097 4.097 0 0 1-2.888 1.195z" style="mix-blend-mode:normal;fill-rule:nonzero;stroke-linecap:butt;stroke-linejoin:miter;stroke-miterlimit:10;stroke-dasharray:none;stroke-dashoffset:0" transform="translate(-135.41 -65.734) scale(1.21989)"/></svg>