<svg xmlns="http://www.w3.org/2000/svg" width="600" height="372" viewBox="0 0 158.751 98.424001"><path fill="#3767b4" d="M0 98.42481V-.00081h158.75099v98.42562z" style="fill-rule:nonzero;stroke:none;stroke-width:.294629;stroke-linecap:butt;stroke-linejoin:miter;stroke-miterlimit:10;stroke-dasharray:none;stroke-dashoffset:0"/><path fill="#2f5899" d="m80.401009 57.249962 13.098506 7.550235v15.157651l-13.098506 7.550235-13.098503-7.550235V64.800197Zm-9.723779-42.06964 10.152769 5.862864v11.725739L70.67723 38.631789l-10.15277-5.862864V21.043186Zm35.7492 10.295765 7.92201 4.575897v9.151792l-7.92201 4.575896-7.922033-4.575896v-9.151792zm54.91073 12.011728 9.66658 5.576875v11.153742l-9.66658 5.576876-9.66658-5.576876V43.06469ZM-3.6810846 38.631789l12.6409138 7.292837v14.585663l-12.6409138 7.292838-12.6409134-7.292838V45.924626ZM26.348237.59465256l7.178436 4.14690954v8.2938059l-7.178436 4.146903-7.17844-4.146903V4.7415621ZM51.229672 46.925595l6.434853 3.717921v7.435831l-6.434853 3.71791-6.434854-3.71791v-7.435831zM135.59776 57.50736l7.17843 4.146903v8.293817l-7.17843 4.146903-7.17845-4.146903v-8.293817ZM49.227718 75.524946l11.153746 6.434861V94.82951l-11.153746 6.43485-11.153747-6.43485V81.959807ZM145.60752-5.4112111l8.66561 5.00488576V9.6034465l-8.66561 5.0048895-8.66559-5.0048895V-.40632534ZM18.340416 71.235048l8.923 5.147884v10.295765l-8.923 5.147883-8.9229978-5.147883V76.382932Zm146.142674 7.149833 6.69224 3.860914v7.72183l-6.69224 3.860904-6.69225-3.860904v-7.72183zm-50.33485-1.715961 10.63896 6.148862v12.297726l-10.63896 6.148852-10.63896-6.148852V82.817782Zm0-78.9342024 6.43486 3.7179155v7.4358324l-6.43486 3.7179095-6.43485-3.7179095V1.4526331ZM-2.8231042 5.4565431 9.8178102 12.74938v14.585663L-2.8231042 34.62788l-12.6409128-7.292837V12.74938Z" style="fill-rule:nonzero;stroke:none;stroke-width:.285993;stroke-linecap:butt;stroke-linejoin:miter;stroke-miterlimit:10;stroke-dasharray:none;stroke-dashoffset:0"/><path fill="#fff" d="M411.27444 38.92288v50.11513L395.42371 69.4931l-23.325 24.12048-15.90955-15.90954 24.09503-23.30118-19.12488-15.47998ZM243.61358 222.0987l-24.10776 23.31229 19.33487 15.66614h-50.11513V210.962l15.66619 19.33492 23.31229-24.10775zm-54.6907-183.37313h50.11513L219.4931 54.57631l24.12048 23.325-15.90955 15.90955-23.30117-24.09503-15.47998 19.12488zM372.0987 206.38642l23.31228 24.10776 15.66614-19.33487v50.11513h-50.11513l19.33491-15.66618-24.10775-23.31229z" style="fill-rule:nonzero;stroke-linecap:butt;stroke-linejoin:miter;stroke-miterlimit:10;stroke-dasharray:none;stroke-dashoffset:0" transform="matrix(.314294 0 0 .314294 -14.912831 2.06783322)"/><g stroke="#fff" style="fill-rule:nonzero;stroke-linecap:butt;stroke-linejoin:miter;stroke-miterlimit:10;stroke-dasharray:none;stroke-dashoffset:0"><path fill="#fff" stroke-width=".31429444" d="M95.16015841 66.2635341c-.3240407 0-.64808455-.12383515-.89575485-.37047771L62.6436552 34.27127402c-.49431914-.49431915-.49431914-1.29719057 0-1.79150972.49431915-.49431914 1.29719057-.49431914 1.79150972 0l31.62074834 31.62074834c.49431915.49431915.49431915 1.29719057 0 1.79150972-.24767659.24664256-.5717173.3715086-.89575486.3715086z"/><path fill="#3767b4" stroke-width="2.3572083" d="M76.6124337 39.48064458c0 3.84823679-3.11965828 6.96789822-6.9678982 6.96789822-3.8482368 0-6.96789823-3.11965829-6.96789823-6.96789822 0-3.8482368 3.11965829-6.96789822 6.96789822-6.96789822 3.84823679 0 6.96789822 3.11965829 6.96789822 6.96789822z"/><path fill="#3767b4" stroke-width="2.3572083" d="M75.64658176 53.86561177c-3.74526764-.88437426-6.06447457-4.63744584-5.18009403-8.3827072.88437425-3.74526764 4.63744583-6.06447458 8.3827072-5.18009403 3.74526764.88437425 6.06447457 4.63744583 5.18009403 8.3827072-.88437426 3.74526764-4.63744584 6.06447457-8.3827072 5.18009403z"/><path fill="#3767b4" stroke-width="2.3572083" d="M91.81652448 54.68370761c0 3.84823679-3.12069231 6.96892596-6.96892596 6.96892596-3.84823679 0-6.96789822-3.12069231-6.96789822-6.96892596 0-3.84823679 3.11965829-6.96789822 6.96789822-6.96789822 3.8482368 0 6.96892596 3.12069232 6.96892596 6.96789822z"/><path fill="#fff" stroke-width=".31429444" d="M95.21159584 66.31497152c-.3240407 0-.64808455-.12383515-.89575486-.3704777l-7.76045135-7.76045136c-.49535318-.49431915-.49535318-1.29719057 0-1.79150971.49535317-.49431915 1.29615654-.49431915 1.79150971 0l7.76045136 7.76045135c.49431914.49431915.49431914 1.29719057 0 1.79150971-.24767659.24561168-.5717173.37047771-.89575486.37047771z"/></g></svg>