<svg xmlns="http://www.w3.org/2000/svg" width="600" height="372" viewBox="0 0 600.00001 371.99999"><path fill="#96f" d="M0 372V0h600v372z" style="mix-blend-mode:normal;fill-rule:nonzero;stroke:none;stroke-width:1.11355;stroke-linecap:butt;stroke-linejoin:miter;stroke-miterlimit:10;stroke-dasharray:none;stroke-dashoffset:0"/><path fill="#aa80ff" d="M466.16023 79.430893c-2.57617-8.339071-7.59235-13.407401-15.93504-15.932151 8.31879-2.54069 13.38205-7.619875 15.93504-15.935042 2.52186 8.258676 7.56774 13.291512 15.93215 15.935042-8.36152 2.52475-13.38566 7.53659-15.93215 15.932151z" style="mix-blend-mode:normal;fill-rule:nonzero;stroke:none;stroke-width:.977521;stroke-linecap:butt;stroke-linejoin:miter;stroke-miterlimit:10;stroke-dasharray:none;stroke-dashoffset:0"/><path fill="#8955f2" d="M545.56258 79.027913c-4.15664-13.455061-12.25024-21.632798-25.71114-25.706471 13.42233-4.099391 21.5919-12.294645 25.71114-25.711142 4.06901 13.325343 12.21052 21.445817 25.70647 25.711142-13.49128 4.073683-21.59773 12.160266-25.70647 25.706471z" style="mix-blend-mode:normal;fill-rule:nonzero;stroke:none;stroke-width:.977521;stroke-linecap:butt;stroke-linejoin:miter;stroke-miterlimit:10;stroke-dasharray:none;stroke-dashoffset:0"/><path fill="#aa80ff" d="M70.295992 340.26702c-5.816133-18.82686-17.141029-30.26946-35.976044-35.96952 18.781056-5.73602 30.212237-17.20315 35.976044-35.97604 5.693523 18.64535 17.085438 30.00784 35.969518 35.97604-18.877551 5.70006-30.220403 17.01513-35.969518 35.96952z" style="mix-blend-mode:normal;fill-rule:nonzero;stroke:none;stroke-width:.977521;stroke-linecap:butt;stroke-linejoin:miter;stroke-miterlimit:10;stroke-dasharray:none;stroke-dashoffset:0"/><path fill="#8955f2" d="M160.03523 324.2793c-4.94688-16.01306-14.57919-25.7455-30.5992-30.59363 15.97411-4.87874 25.69682-14.63203 30.5992-30.5992 4.84258 15.85869 14.5319 25.52297 30.59362 30.5992-16.05616 4.84814-25.70376 14.4721-30.59362 30.59363z" style="mix-blend-mode:normal;fill-rule:nonzero;stroke:none;stroke-width:.977521;stroke-linecap:butt;stroke-linejoin:miter;stroke-miterlimit:10;stroke-dasharray:none;stroke-dashoffset:0"/><path fill="#aa80ff" d="M103.87108 179.45313c-3.84055-12.43186-11.318673-19.98771-23.755929-23.75161 12.401625-3.78765 19.949929-11.35969 23.755929-23.75592 3.75957 12.31201 11.28195 19.81496 23.7516 23.75592-12.46533 3.7639-19.95532 11.23553-23.7516 23.75161z" style="mix-blend-mode:normal;fill-rule:nonzero;stroke:none;stroke-width:.977521;stroke-linecap:butt;stroke-linejoin:miter;stroke-miterlimit:10;stroke-dasharray:none;stroke-dashoffset:0"/><path fill="#8955f2" d="M40.610697 219.95777c-4.630782-14.98986-13.647613-24.10041-28.643971-28.63877 14.953396-4.567 24.054851-13.69708 28.643971-28.64397 4.533156 14.84535 13.60334 23.89211 28.638769 28.64397-15.030218 4.53835-24.061341 13.54737-28.638769 28.63877z" style="mix-blend-mode:normal;fill-rule:nonzero;stroke:none;stroke-width:.977521;stroke-linecap:butt;stroke-linejoin:miter;stroke-miterlimit:10;stroke-dasharray:none;stroke-dashoffset:0"/><path d="M492.33705 351.72402c-5.26296-17.03625-15.51077-27.39056-32.55442-32.54849 16.99483-5.19049 27.3388-15.56698 32.55442-32.55441 5.15202 16.87202 15.46046 27.15383 32.54849 32.55441-17.08212 5.15794-27.34616 15.39684-32.54849 32.54849zM48.962985 99.440869c-5.104919-16.52467-15.04498-26.568023-31.576808-31.57106 16.484467-5.034611 26.517813-15.099511 31.576808-31.576804 4.997293 16.365357 14.996181 26.338409 31.571059 31.576814-16.56914 5.003047-26.524949 14.93448-31.57105 31.57107z" style="mix-blend-mode:normal;fill:#aa80ff;fill-opacity:1;fill-rule:nonzero;stroke:none;stroke-width:.977521;stroke-linecap:butt;stroke-linejoin:miter;stroke-miterlimit:10;stroke-dasharray:none;stroke-dashoffset:0"/><path fill="#8955f2" d="M560.44172 186.51816c-5.50004-17.80365-16.20945-28.62438-34.02083-34.01465 17.76035-5.42428 28.57027-16.2682 34.02083-34.02082 5.38409 17.63202 16.15688 28.37698 34.01465 34.02082-17.85159 5.39027-28.57798 16.09039-34.01465 34.01465z" style="mix-blend-mode:normal;fill-rule:nonzero;stroke:none;stroke-width:.977521;stroke-linecap:butt;stroke-linejoin:miter;stroke-miterlimit:10;stroke-dasharray:none;stroke-dashoffset:0"/><path fill="#aa80ff" d="M224.50874 348.80998c-3.20835-10.38547-9.45551-16.69756-19.84549-19.84187 10.36021-3.16417 16.666-9.48979 19.84549-19.84549 3.14072 10.28535 9.42485 16.55324 19.84187 19.84549-10.41342 3.14432-16.67049 9.38606-19.84187 19.84187z" style="mix-blend-mode:normal;fill-rule:nonzero;stroke:none;stroke-width:.977521;stroke-linecap:butt;stroke-linejoin:miter;stroke-miterlimit:10;stroke-dasharray:none;stroke-dashoffset:0"/><path fill="#8955f2" d="M152.74633 73.403729c-2.41812-7.827472-7.12657-12.584852-14.95743-14.954715 7.80843-2.38482 12.56107-7.152396 14.95743-14.957433 2.36715 7.752007 7.10345 12.476083 14.95471 14.957433-7.84854 2.369863-12.56446 7.074223-14.95471 14.954715z" style="mix-blend-mode:normal;fill-rule:nonzero;stroke:none;stroke-width:.977521;stroke-linecap:butt;stroke-linejoin:miter;stroke-miterlimit:10;stroke-dasharray:none;stroke-dashoffset:0"/><path d="M566.99958 285.23319c-4.63148-14.99218-13.64971-24.10412-28.64838-28.64316 14.95571-4.56772 24.05856-13.69919 28.64838-28.64838 4.53385 14.84763 13.60543 23.89579 28.64316 28.64838-15.03253 4.53906-24.06504 13.54945-28.64316 28.64316z" style="mix-blend-mode:normal;fill-rule:nonzero;stroke:none;stroke-width:.977521;stroke-linecap:butt;stroke-linejoin:miter;stroke-miterlimit:10;stroke-dasharray:none;stroke-dashoffset:0;fill:#aa80ff;fill-opacity:1"/><path d="M281.53815 77.072851c-2.41813-7.827471-7.12657-12.584851-14.95743-14.954715 7.80842-2.384819 12.56105-7.152395 14.95743-14.957432 2.36713 7.752016 7.10346 12.476083 14.95471 14.957432-7.84853 2.369864-12.56446 7.074223-14.95471 14.954715z" style="mix-blend-mode:normal;fill:#aa80ff;fill-opacity:1;fill-rule:nonzero;stroke:none;stroke-width:.977521;stroke-linecap:butt;stroke-linejoin:miter;stroke-miterlimit:10;stroke-dasharray:none;stroke-dashoffset:0"/><path fill="#8955f2" d="M225.12459 88.70184c-2.41812-7.82747-7.12657-12.58485-14.95743-14.954714 7.80843-2.384819 12.56106-7.152395 14.95743-14.957432 2.36714 7.752016 7.10346 12.476083 14.95472 14.957432-7.84854 2.369864-12.56446 7.074224-14.95472 14.954714zm152.8273-8.35591c-5.14442-16.65255-15.16142-26.773667-31.82119-31.815419 16.61205-5.073569 26.72304-15.216378 31.82119-31.821207 5.03599 16.492033 15.11226 26.542261 31.81541 31.821217-16.69739 5.041761-26.73025 15.050063-31.81541 31.815419z" style="mix-blend-mode:normal;fill-rule:nonzero;stroke:none;stroke-width:.977521;stroke-linecap:butt;stroke-linejoin:miter;stroke-miterlimit:10;stroke-dasharray:none;stroke-dashoffset:0"/><path fill="#aa80ff" d="M340.22525 360.87544c-4.7098-15.24566-13.88051-24.51169-29.13278-29.12748 15.20857-4.64494 24.46534-13.93083 29.13278-29.13279 4.61051 15.09869 13.83548 24.29982 29.12748 29.13279-15.28671 4.6158-24.47195 13.77855-29.12748 29.12748z" style="mix-blend-mode:normal;fill-rule:nonzero;stroke:none;stroke-width:.977521;stroke-linecap:butt;stroke-linejoin:miter;stroke-miterlimit:10;stroke-dasharray:none;stroke-dashoffset:0"/><path fill="#fff" stroke="#96f" stroke-miterlimit="10" stroke-width="1.60982" d="M315.45879 153.41811c-.5232 2.11413-1.02226 3.7991-1.49317 5.06846-.47893 1.26035-1.16314 2.7601-2.02845 4.48121l4.76929 3.76294c.5876.42914 1.33215.93961 2.24979 1.54042l-6.83797 8.98952c-1.24767-.75892-2.54762-1.6353-3.88383-2.63814-1.34426-1.00286-2.55167-1.85664-3.60613-2.56584-2.20956 1.66237-4.41511 2.8685-6.62466 3.64098-3.05072 1.03897-6.52806 1.563-10.42394 1.563-6.10147 0-10.6373-1.45459-13.61154-4.37281-2.97425-2.90464-4.46742-6.43268-4.46742-10.58864 0-2.9905.87337-5.81382 2.6241-8.47454 1.75074-2.65168 4.60829-4.91037 8.5887-6.73989-1.6622-2.32191-2.8052-4.32308-3.42501-6.03517-.62787-1.69851-.93777-3.4422-.93777-5.20398 0-3.72681 1.23558-6.78957 3.71079-9.19731 2.48725-2.40774 6.24229-3.61387 11.28525-3.61387 5.13952 0 8.91873 1.14741 11.32951 3.43319 2.42288 2.29481 3.62626 5.03233 3.62626 8.2306 0 1.79339-.37429 3.50546-1.11081 5.1543-.74862 1.64881-1.63002 2.98143-2.67643 4.00688-1.04643 1.02542-2.91388 2.55229-5.61043 4.58059 2.22968 2.56584 4.55596 4.94649 6.97882 7.14643.63993-1.49524 1.19534-3.05824 1.65415-4.70706zm-20.73924-15.10146c.8935-1.21064 1.34426-2.3445 1.34426-3.41962 0-1.12481-.37429-2.07798-1.11887-2.85948-.74456-.76795-1.78294-1.16097-3.09498-1.16097-1.29193 0-2.33433.42915-3.1473 1.29648-.80898.85378-1.21547 1.87019-1.21547 3.04017 0 1.48621 1.139 3.63647 3.43306 6.45982 1.64209-1.039 2.90181-2.15026 3.79931-3.3564zm-11.81251 19.73178c-.57554 1.01188-.86533 2.07797-.86533 3.19827 0 1.74823.652 3.29766 1.96406 4.66643 1.31205 1.3552 3.01852 2.03733 5.11942 2.03733 2.27393 0 4.82159-1.01191 7.64692-3.05374-2.69252-2.37611-6.16182-5.86802-10.37567-10.46216-1.75879 1.4049-2.92193 2.61555-3.4894 3.61388z" style="mix-blend-mode:normal;fill-rule:nonzero;stroke-linecap:butt;stroke-linejoin:miter;stroke-dasharray:none;stroke-dashoffset:0" transform="translate(-12.091637 31.106602) scale(1.0373009)"/><g stroke="#fff" stroke-miterlimit="10"><g style="mix-blend-mode:normal;fill-rule:nonzero;stroke-linecap:butt;stroke-linejoin:miter;stroke-dasharray:none;stroke-dashoffset:0"><path fill="#fff" stroke="none" d="M241.63464229 279.5994493c-1.7624987 0-3.52497667-.67354022-4.87208823-2.01505036L64.77469673 105.5909267c-2.6886248-2.68863726-2.6886248-7.05552571 0-9.74416297 2.6886248-2.68863725 7.05553816-2.68863725 9.74417541 0l171.98786875 171.98786771c2.6886217 2.6886217 2.6886217 7.055534 0 9.74418682-1.34714268 1.34151014-3.10963101 2.02066216-4.87207785 2.02066216z"/><path fill="#aa80ff" stroke-width="9.476646173283001" d="M140.7520781 133.9251794c0 20.9308702-16.96808513 37.89897608-37.89895015 37.89897608-20.9308619 0-37.89896883-16.96807476-37.89896883-37.89897609 0-20.93085983 16.96808099-37.89896571 37.8989792-37.89896571 20.9308754 0 37.89896053 16.96806854 37.89896053 37.89896571z"/><path fill="#8a5ce6" stroke-width="9.476646173283001" d="M135.49867807 212.16626045c-20.37081589-4.81019248-32.9851728-25.22344435-28.17493884-45.5942395 4.81019248-20.37082626 25.22343398-32.98517073 45.5942395-28.1749492 20.37082626 4.81019247 32.98520393 25.22344434 28.17493884 45.59421874-4.81019248 20.37083664-25.22344435 32.98519356-45.59421875 28.17496996z"/><path fill="#7a45e6" stroke-width="9.476646173283001" d="M223.44835097 216.61599087c0 20.93085465-16.9737073 37.90455158-37.90455158 37.90455158-20.9308754 0-37.89898128-16.9737073-37.89898128-37.90455158 0-20.93085465 16.96808514-37.89896053 37.89898128-37.89896053 20.9308754 0 37.90455158 16.97368656 37.90455158 37.89896053z"/><path fill="#fff" stroke-width="1.895325085453" d="M242.83148007 279.8793027c-1.52786124 0-3.05571211-.5838863-4.22347435-1.74679396l-36.59042619-36.59041582c-2.33557633-2.33070102-2.33557633-6.1162373 0-8.44692795 2.33557633-2.33070101 6.11136198-2.33070101 8.44694869 0l36.5904262 36.59041582c2.33070101 2.33070102 2.33070101 6.1162373 0 8.44693832-1.16779336 1.15807384-2.69564423 1.74680434-4.22347435 1.74680434z"/></g><g fill="#fff" stroke-width="1.82717" style="mix-blend-mode:normal;fill-rule:nonzero;stroke-linecap:butt;stroke-linejoin:miter;stroke-dasharray:none;stroke-dashoffset:0"><path stroke-width="1.895325085453" d="M181.8870129 223.76443592c5.9323446 0 10.74157238-4.80910331 10.74157238-10.74156201v-5.370781c0-2.96616193 2.40458797-5.37077064 5.37077064-5.37077064 2.9661723 0 5.370781 2.40459834 5.370781 5.37077063v5.370781c0 11.86482404-9.6183311 21.4831344-21.48314477 21.4831344h-5.370781c-2.96618267 0-5.370781-2.40450498-5.370781-5.370781 0-2.96616193 2.40459833-5.370781 5.370781-5.370781zm-75.4588274-96.78622973c-5.9323446 0-10.741562 4.80911887-10.741562 10.74155993v5.370781c0 2.96616193-2.40460872 5.37078101-5.37078101 5.37078101-2.96617645 0-5.37076752-2.4046087-5.37076752-5.370781v-5.370781c0-11.8648199 9.61832799-21.48313233 21.48314165-21.48313233h5.370781c2.96618268 0 5.37077064 2.40450187 5.37077064 5.37077997 0 2.966164-2.40460871 5.37079242-5.37077063 5.37079242z"/><path stroke-width="1.895325085453" d="M111.7989665 223.76443592c2.96616193 0 5.37078101 2.4046087 5.37078101 5.370781 0 2.9662864-2.40459833 5.37079138-5.370781 5.37079138h-5.370781c-11.86482404 0-21.48314892-9.61831036-21.48314892-21.4831344v-5.370781c0-2.96616192 2.40459107-5.37076025 5.37076752-5.37076025 2.96617955 0 5.37077789 2.40458796 5.37077789 5.37076025v5.370781c0 5.93244833 4.80921742 10.74156202 10.74157238 10.74156202zm64.71734838-96.78622973c-2.9661723 0-5.370781-2.40460353-5.370781-5.37077997 0-2.96629055 2.40458796-5.37077997 5.370781-5.37077997h5.37076026c11.86482403 0 21.48314476 9.61831243 21.48314476 21.48313024v5.370781c0 2.96616193-2.40459833 5.37078101-5.370781 5.37078101-2.9661723 0-5.370781-2.40459833-5.370781-5.370781v-5.370781c0-5.932439-4.80921742-10.74155787-10.74155164-10.74155787z" data-paper-data="{&quot;index&quot;:null}"/><path stroke-width="1.895325085453" d="M154.9852883 234.48244083h-21.48313439c-2.96575737 0-5.370781-2.40504438-5.370781-5.37077064 0-2.965747 2.40504437-5.37077063 5.370781-5.37077063h21.4831344c2.96616192 0 5.37077063 2.405034 5.37077063 5.37077063 0 2.965747-2.40460871 5.37077064-5.37077063 5.37077064zm48.48634851-69.6579607v21.4831344c0 2.965747-2.40504437 5.37077062-5.370781 5.37077062-2.965747 0-5.370781-2.405034-5.370781-5.37077063v-21.48313439c0-2.96616192 2.40504437-5.370781 5.370781-5.370781 2.965747 0 5.370781 2.4046087 5.370781 5.370781zM95.78805077 185.99565665c0 2.965747-2.4046087 5.370781-5.37078308 5.370781-2.966164 0-5.37076752-2.40504437-5.37076752-5.370781v-21.4831344c0-2.96616192 2.40459108-5.370781 5.37076752-5.370781 2.966164 0 5.37078308 2.40460871 5.37078308 5.370781zm37.74524292-59.1967863c-2.96576775 0-5.37077064-2.40460353-5.37077064-5.37077997 0-2.96617645 2.40502363-5.37077997 5.37077064-5.37077997h21.48312402c2.96618266 0 5.370781 2.40460352 5.370781 5.37077997 0 2.96617644-2.4046087 5.37077997-5.370781 5.37077997z"/></g></g><g style="mix-blend-mode:normal;fill-rule:nonzero;stroke-linecap:butt;stroke-linejoin:miter;stroke-dasharray:none;stroke-dashoffset:0"><path stroke="#fff" stroke-width="9.476646173283001" d="M505.0498825 155.90329822c-.016908 2.59025445-.20147495 5.17669163-.55266355 7.74308816 18.86585826 10.62704399 30.54110518 30.59579168 30.54863598 52.24883596 0 15.91085769-6.32055445 31.17004146-17.57122374 42.42071075-11.2506693 11.25067966-26.50986344 17.57123412-42.42071075 17.57123412-10.54404955-.04678227-20.88950784-2.87179866-29.99402231-8.19033082-9.10566588 5.31919603-19.45255564 8.14420205-29.99792256 8.19033082-15.91084732 0-31.17003109-6.3205752-42.42071075-17.5712445-11.2506693-11.25066929-17.57122375-26.50985306-17.57122375-42.42071074.06130449-21.60447786 11.73432121-41.50734656 30.56033674-52.10629007-.36131265-2.61327216-.54984209-5.24753929-.56438505-7.8856548 0-33.13262721 26.85931974-59.99192309 59.99194487-59.99192309 33.13262513 0 59.9919345 26.85929588 59.9919345 59.99192309z"/><path fill="red" stroke="red" stroke-miterlimit="10" stroke-width="7" d="M284.4525 202.98326c0-26.22181 21.25698-47.47879 47.47879-47.47879 26.22181 0 47.47879 21.25698 47.47879 47.47879 0 26.22181-21.25698 47.47878-47.47879 47.47878-26.22181 0-47.47879-21.25697-47.47879-47.47878z" style="mix-blend-mode:screen" transform="translate(-4.35059076 -40.58464999) scale(1.2635524)"/><path fill="#0f0" stroke="#0f0" stroke-miterlimit="10" stroke-width="7" d="M308.19191 155.50439c0-26.22181 21.25698-47.47879 47.47879-47.47879 26.22181 0 47.47879 21.25698 47.47879 47.47879 0 26.22181-21.25698 47.47879-47.47879 47.47879-26.22181 0-47.47879-21.25698-47.47879-47.47879z" style="mix-blend-mode:screen" transform="translate(-4.35059076 -40.58464999) scale(1.2635524)"/><path fill="#00f" stroke="#00f" stroke-miterlimit="10" stroke-width="7" d="M331.93129 202.98326c0-26.22181 21.25698-47.47879 47.47879-47.47879 26.22181 0 47.47879 21.25698 47.47879 47.47879 0 26.22181-21.25698 47.47878-47.47879 47.47878-26.22181 0-47.47879-21.25697-47.47879-47.47878z" style="mix-blend-mode:screen" transform="translate(-4.35059076 -40.58464999) scale(1.2635524)"/></g></svg>