<svg xmlns="http://www.w3.org/2000/svg" xmlns:xlink="http://www.w3.org/1999/xlink" xml:space="preserve" width="600" height="372" stroke-miterlimit="10"><defs><path id="b" d="M92.556 34.703c-.246.028-.32 1.079-.29 1.353l.094.839c-.727.168-1.468.347-2.09.705l-.443-.58c-.163-.222-.93-.963-1.129-.817l-.638.48c-.199.147.237 1.117.401 1.34l.518.696c-.536.502-.985 1.026-1.355 1.66l-.76-.323c-.252-.11-1.298-.353-1.397-.127l-.327.728c-.1.227.796.842 1.05.952l.662.303c-.206.68-.226 1.428-.23 2.164l-.838.094c-.275.03-1.284.335-1.256.58l.09.808c.028.246 1.079.32 1.353.29l.87-.098c.168.721.316 1.444.67 2.063l-.579.442c-.222.164-.96.961-.814 1.16l.48.638c.147.2 1.113-.268 1.336-.432l.665-.514a7.262 7.262 0 0 0 1.692 1.351l-.351.794c-.111.253-.322 1.295-.096 1.395l.728.327c.227.099.81-.793.921-1.046l.303-.663c.687.211 1.45.223 2.195.226l.094.839c.03.274.335 1.283.58 1.256l.808-.09c.246-.028.32-1.08.289-1.354l-.097-.87c.721-.167 1.444-.315 2.063-.67l.442.58c.164.222.961.96 1.16.813l.638-.48c.199-.146-.268-1.113-.432-1.335l-.518-.697a7.308 7.308 0 0 0 1.352-1.692l.794.352c.253.11 1.298.353 1.397.127l.297-.725c.099-.227-.766-.845-1.019-.956l-.663-.303c.21-.681.194-1.42.199-2.16l.839-.094c.274-.03 1.314-.338 1.287-.584l-.091-.807c-.027-.246-1.109-.317-1.384-.286l-.807.09c-.168-.726-.348-1.468-.705-2.09l.583-.412c.222-.163.929-.957.782-1.156l-.449-.642c-.146-.199-1.113.269-1.335.432l-.697.519a7.233 7.233 0 0 0-1.692-1.352l.352-.794c.11-.253.353-1.299.127-1.398l-.729-.327c-.226-.1-.84.796-.952 1.05l-.303.662c-.682-.21-1.42-.194-2.16-.199l-.097-.87c-.031-.274-.335-1.282-.581-1.255zm.875 4.179a5.25 5.25 0 1 1 1.166 10.435 5.25 5.25 0 0 1-1.166-10.435z"/><path id="c" d="M90.313 17.031c-.248 0-.438 1.037-.438 1.313v.843c-.741.087-1.497.183-2.156.47l-.375-.626c-.138-.239-.817-1.06-1.031-.937l-.688.406c-.214.123.112 1.136.25 1.375l.438.75c-.59.439-1.094.91-1.532 1.5l-.719-.406c-.239-.138-1.251-.495-1.374-.282l-.407.688c-.123.214.699.924.938 1.063l.625.375c-.28.652-.384 1.393-.469 2.125h-.844c-.276 0-1.312.19-1.312.437v.813c0 .247 1.036.437 1.312.437h.875c.087.735.154 1.47.438 2.125l-.625.375c-.24.138-1.061.849-.938 1.063l.406.687c.124.214 1.136-.143 1.376-.281l.718-.438a7.26 7.26 0 0 0 1.531 1.532l-.437.75c-.138.239-.464 1.251-.25 1.374l.688.407c.213.123.893-.699 1.03-.938l.376-.625c.659.286 1.415.383 2.156.469v.844c0 .276.19 1.312.438 1.312h.812c.247 0 .438-1.036.438-1.312v-.875c.735-.087 1.47-.154 2.124-.438l.376.625c.138.24.848 1.061 1.062.938l.688-.407c.213-.123-.144-1.135-.282-1.374l-.437-.75a7.303 7.303 0 0 0 1.531-1.532l.75.438c.24.138 1.251.495 1.375.281l.375-.688c.124-.213-.667-.924-.906-1.062l-.625-.375c.284-.654.35-1.39.437-2.125h.844c.276 0 1.344-.19 1.344-.438v-.812c0-.247-1.068-.438-1.344-.438h-.813c-.086-.74-.182-1.497-.468-2.156l.625-.343c.239-.139 1.03-.849.906-1.063l-.375-.688c-.124-.213-1.136.144-1.375.282l-.75.437a7.239 7.239 0 0 0-1.531-1.531l.437-.75c.138-.24.495-1.252.281-1.375l-.687-.406c-.214-.124-.924.698-1.063.937l-.374.625c-.655-.284-1.39-.35-2.126-.437v-.875c0-.276-.19-1.313-.437-1.313h-.813zm.406 4.25a5.25 5.25 0 1 1 0 10.5 5.25 5.25 0 0 1 0-10.5z"/></defs><clipPath id="a"><path d="M0 0h158.75v79.375H0Z"/></clipPath><g clip-path="url(#a)" transform="matrix(4.79374 0 0 4.79374 -74.524 -.54)"><path fill="#a1e65c" d="M0 79.375V0h158.75v79.375z"/><g fill="none" stroke="#8fcc52" stroke-width="7.5"><path d="M0 39.688C0-3.089 34.676-37.764 77.451-37.764c42.776 0 77.452 34.676 77.452 77.452 0 42.775-34.676 77.451-77.451 77.451C34.675 117.139 0 82.463 0 39.688Z"/><path d="M19.363 39.688c0-32.082 26.007-58.09 58.088-58.09 32.082 0 58.089 26.008 58.089 58.09 0 32.081-26.007 58.088-58.088 58.088-32.082 0-58.09-26.007-58.09-58.088z"/><path d="M38.726 39.688C38.726 18.3 56.064.962 77.45.962c21.388 0 38.726 17.338 38.726 38.725 0 21.388-17.338 38.726-38.726 38.726-21.387 0-38.725-17.338-38.725-38.725z"/><path d="M58.089 39.688c0-10.694 8.669-19.363 19.362-19.363 10.694 0 19.363 8.669 19.363 19.363 0 10.693-8.669 19.362-19.362 19.362-10.694 0-19.363-8.669-19.363-19.362z"/><path d="M76.967 39.688a.484.484 0 1 1 .969 0 .484.484 0 0 1-.969 0z"/></g></g><mask id="d" width="20.974" height="20.974" x="83.527" y="33.612" maskUnits="userSpaceOnUse"><path fill="#fff" d="M83.527 33.612h20.974v20.974H83.527Z"/><use xlink:href="#b" width="100%" height="100%" fill-rule="evenodd"/></mask><mask id="e" width="21" height="21" x="80.219" y="16.031" maskUnits="userSpaceOnUse"><path fill="#fff" d="M80.219 16.031h21v21h-21z"/><use xlink:href="#c" width="100%" height="100%" fill-rule="evenodd"/></mask><g transform="translate(-67.398 -2.438) scale(1.25636)"><path fill-opacity=".15" d="M349.017 124.003c-.314.034-.62.147-.926.223 0 0-1.75.62-2.933 1.398 0 0-.998.87-1.293 1.21a8.617 8.617 0 0 0-1.394 2.418c-.454 1.18-.613 2.087-.741 2.933-.635-.518-1.247-1.096-2.32-1.644-.594-.302-1.354-.692-3.081-.964 0 0-1.285-.037-2.714.19l-1.814.793a7.532 7.532 0 0 0-.884.574l-2.412 1.815a6.947 6.947 0 0 0-.65.548s-1.21 1.47-1.84 2.702c0 0-.33 1.16-.416 1.587a8.73 8.73 0 0 0-.05 2.74c.174 1.29.507 2.166.81 3.002.015.037 0 .079.015.117-.85-.129-1.747-.34-3.001-.257-.662.038-1.41.06-3.013.691 0 0-1.217.666-2.32 1.569l-1.134 1.55a6.807 6.807 0 0 0-.39.755l-1.24 2.756a7.415 7.415 0 0 0-.362.99s-.314 1.927-.22 3.352c0 0 .265 1.198.417 1.618.472 1.175 1.035 1.825 1.45 2.336.776.956 1.362 1.614 2.023 2.15-.764.303-1.595.571-2.597 1.24-.551.37-1.171.91-2.24 2.268 0 0-.65 1.179-1.146 2.51l-.272 1.813c-.008.314-.05.64-.015.95l.34 3.053c.038.31.151.62.227.926 0 0 .62 1.746 1.398 2.933 0 0 .87.998 1.21 1.289a8.686 8.686 0 0 0 2.415 1.398c1.122.427 1.995.507 2.804.635-.53.67-.952 1.436-1.497 2.544-.294.593-.718 1.27-.979 2.963 0 0-.037 1.304.19 2.71l.793 1.814c.166.302.367.608.575.888l1.814 2.411c.177.235.34.439.548.65 0 0 1.425 1.202 2.702 1.837 0 0 1.278.443 1.72.522 1.262.181 2.079.038 2.725-.068 1.247-.197 2.071-.605 2.872-.915-.008.038.015.076.012.117-.114.889-.242 1.815-.129 3.107.06.654.163 1.444.813 2.997 0 0 .665 1.142 1.55 2.204l1.436 1.149c.249.151.49.272.755.39l2.756 1.239c.313.14.661.264.99.363 0 0 1.912.313 3.352.219 0 0 1.308-.272 1.739-.431 1.194-.488 1.822-1.024 2.332-1.451.922-.771 1.398-1.467 1.901-2.113.314.797.67 1.648 1.372 2.699.37.551.91 1.171 2.268 2.24 0 0 1.179.65 2.506 1.15l1.814.272c.313.008.642.045.952.011l3.054-.34c.31-.038.62-.147.926-.223 0 0 1.746-.62 2.933-1.398 0 0 .998-.87 1.289-1.21a8.695 8.695 0 0 0 1.398-2.419c.427-1.122.51-1.995.635-2.8.67.525 1.436.948 2.544 1.496.593.291 1.27.718 2.963.975 0 0 1.304.038 2.71-.185l1.814-.793a7.23 7.23 0 0 0 .884-.575l2.416-1.814c.234-.178.438-.344.65-.548 0 0 1.202-1.425 1.837-2.703 0 0 .442-1.28.521-1.723.182-1.259.038-2.075-.068-2.721-.208-1.293-.605-2.162-.926-2.99.88.132 1.81.329 3.118.246.658-.042 1.41-.064 3.012-.692 0 0 1.214-.669 2.321-1.568l1.134-1.55c.197-.325.336-.658.48-1.01l1.119-2.735c.098-.239.204-.5.276-.745 0 0 .302-1.852.23-3.235 0 0-.272-1.202-.416-1.618a8.24 8.24 0 0 0-1.334-2.343 13.962 13.962 0 0 0-2.15-2.26c.767-.299 1.59-.586 2.592-1.24.556-.363 1.286-.824 2.374-2.166 0 0 .624-1.16 1.145-2.506l.261-1.927c.008-.325.05-.631.011-.956l-.34-3.05c-.038-.322-.143-.613-.223-.926 0 0-.722-1.841-1.527-3.04 0 0-.865-1-1.213-1.288-1.013-.786-1.784-1.047-2.404-1.277-1.119-.416-1.988-.518-2.804-.64.544-.71 1.05-1.496 1.602-2.671.28-.601.64-1.274.862-2.948 0 0-.068-1.335-.302-2.703l-.666-1.708c-.124-.227-.287-.454-.43-.665l-1.697-2.423a7.363 7.363 0 0 0-.692-.873s-1.425-1.206-2.702-1.84c0 0-1.282-.443-1.724-.518-1.258-.186-2.075-.038-2.725.064-1.289.208-2.158.605-2.986.93.133-.881.33-1.815.246-3.118-.042-.662-.064-1.41-.692-3.013 0 0-.669-1.217-1.568-2.32l-1.55-1.134a6.595 6.595 0 0 0-.76-.39l-2.751-1.24a7.415 7.415 0 0 0-.994-.362s-1.928-.314-3.352-.22c0 0-1.199.265-1.614.416-1.18.473-1.826 1.036-2.336 1.452-.956.775-1.618 1.36-2.154 2.022-.299-.764-.567-1.595-1.236-2.597-.37-.551-.915-1.171-2.272-2.24 0 0-1.179-.651-2.506-1.146l-1.814-.272c-.313-.008-.639-.05-.952-.015l-3.05.34zm4.91 30.111a12.624 12.624 0 0 1 13.96 11.157 12.624 12.624 0 0 1-11.153 13.962 12.624 12.624 0 0 1-13.965-11.154 12.624 12.624 0 0 1 11.157-13.965z" style="stroke-width:3.77953"/><use xlink:href="#b" width="100%" height="100%" fill="#737373" transform="scale(3.77953)"/><use xlink:href="#b" width="100%" height="100%" fill="none" stroke="#fff" stroke-linecap="round" stroke-width="2" mask="url(#d)" transform="scale(3.77953)"/><path fill="#a6a6a6" d="m350.529 149.148 5.503-.616 1.844 16.509-5.503.616z" style="stroke-width:3.77953"/><path fill="#a6a6a6" d="m372.828 171.232-2.219 5.072-15.22-6.656 2.219-5.076z" style="stroke-width:3.77953"/><path fill="#a6a6a6" d="m339.27 174.98 3.284 4.46 13.375-9.853-3.288-4.46z" style="stroke-width:3.77953"/><path fill="#a6a6a6" d="M346.877 167.622a8.504 8.504 0 1 1 16.903-1.89 8.504 8.504 0 0 1-16.903 1.89z" style="stroke-width:3.77953"/><path fill="none" stroke="#a6a6a6" stroke-linecap="round" stroke-width="4.157" d="M337.49 168.669a17.953 17.953 0 1 1 35.682-3.987 17.953 17.953 0 0 1-35.683 3.987z"/><path fill-opacity=".15" d="M341.34 57.165c-.317 0-.634.076-.944.118 0 0-1.807.423-3.073 1.062 0 0-1.089.755-1.417 1.065a8.617 8.617 0 0 0-1.656 2.245 13.032 13.032 0 0 0-1.058 2.835c-.578-.586-1.123-1.228-2.128-1.89-.556-.37-1.266-.839-2.952-1.3 0 0-1.277-.189-2.721-.12l-1.89.593a7.468 7.468 0 0 0-.945.472l-2.596 1.535a6.886 6.886 0 0 0-.707.472s-1.36 1.323-2.128 2.48c0 0-.457 1.118-.59 1.538-.34 1.198-.37 2.06-.355 2.713.03 1.3.265 2.208.473 3.073.01.038-.008.076 0 .117-.832-.219-1.694-.529-2.952-.59-.662-.033-1.41-.094-3.073.352 0 0-1.281.53-2.48 1.3l-1.3 1.418a6.41 6.41 0 0 0-.468.71l-1.538 2.597a7.6 7.6 0 0 0-.473.945s-.525 1.882-.59 3.307c0 0 .133 1.22.239 1.655.336 1.22.824 1.928 1.179 2.48.665 1.035 1.171 1.757 1.772 2.362-.793.215-1.647.393-2.717.945-.59.306-1.266.774-2.48 2.006 0 0-.778 1.097-1.417 2.363l-.472 1.772c-.042.31-.117.631-.117.945v3.073c0 .314.075.631.113.945 0 0 .427 1.803 1.066 3.069 0 0 .756 1.088 1.062 1.417.907.907 1.655 1.35 2.245 1.656 1.07.551 1.928.729 2.717.944-.597.605-1.107 1.323-1.772 2.363-.355.551-.858 1.179-1.3 2.834 0 0-.182 1.29-.117 2.714l.59 1.89c.131.321.294.646.472.945l1.534 2.6c.151.253.295.472.476.707 0 0 1.282 1.353 2.48 2.128 0 0 1.22.582 1.651.706 1.232.322 2.06.269 2.718.238 1.255-.06 2.124-.37 2.952-.593-.008.038.01.08 0 .121-.208.87-.443 1.769-.473 3.069-.015.661 0 1.455.473 3.073 0 0 .536 1.21 1.3 2.362l1.3 1.296c.227.178.457.33.707.477l2.6 1.534c.295.174.627.34.945.472 0 0 1.863.522 3.307.59 0 0 1.327-.125 1.773-.238 1.24-.352 1.927-.813 2.479-1.18 1.005-.664 1.55-1.303 2.124-1.889.227.831.48 1.712 1.062 2.835.31.59.779 1.266 2.01 2.479 0 0 1.097.779 2.363 1.417l1.773.473c.31.041.627.12.944.12h3.07c.313 0 .634-.075.944-.12 0 0 1.807-.42 3.073-1.062 0 0 1.085-.756 1.414-1.062.907-.907 1.349-1.656 1.655-2.245.556-1.07.73-1.928.945-2.718.605.601 1.323 1.108 2.362 1.773.556.355 1.183.858 2.835 1.3 0 0 1.292.181 2.717.117l1.89-.59c.321-.132.643-.294.945-.472l2.596-1.538c.257-.151.477-.291.711-.469 0 0 1.353-1.285 2.124-2.483 0 0 .582-1.22.71-1.652.322-1.232.265-2.06.235-2.717-.06-1.304-.36-2.215-.59-3.073.862.23 1.765.53 3.073.593.662.03 1.406.095 3.07-.355 0 0 1.284-.529 2.478-1.3l1.3-1.417c.231-.299.409-.613.59-.945l1.418-2.597a7.219 7.219 0 0 0 .355-.71s.506-1.803.59-3.186c0 0-.14-1.225-.235-1.656a8.353 8.353 0 0 0-1.062-2.48 14.075 14.075 0 0 0-1.89-2.482c.794-.212 1.644-.405 2.714-.945.593-.295 1.368-.673 2.6-1.89 0 0 .749-1.081 1.418-2.362l.472-1.89c.042-.317.117-.62.117-.945V98.74c0-.325-.075-.623-.117-.945 0 0-.514-1.912-1.183-3.19 0 0-.748-1.092-1.062-1.417-.918-.888-1.655-1.24-2.245-1.534-1.07-.537-1.92-.734-2.714-.945.616-.643 1.21-1.372 1.89-2.48.344-.567.775-1.194 1.18-2.834 0 0 .082-1.33 0-2.718l-.473-1.772a7.245 7.245 0 0 0-.355-.707l-1.418-2.6a7.056 7.056 0 0 0-.59-.945s-1.284-1.353-2.479-2.124c0 0-1.224-.583-1.655-.711-1.232-.321-2.056-.265-2.718-.234-1.304.06-2.21.359-3.069.59.227-.863.53-1.766.59-3.074.034-.66.094-1.406-.355-3.069 0 0-.526-1.285-1.297-2.479l-1.417-1.3a6.66 6.66 0 0 0-.71-.472l-2.597-1.535a7.37 7.37 0 0 0-.945-.472s-1.882-.53-3.307-.594c0 0-1.22.132-1.655.238-1.221.34-1.928.828-2.48 1.183-1.035.666-1.757 1.172-2.362 1.77-.215-.79-.39-1.649-.945-2.715-.306-.593-.775-1.27-2.007-2.483 0 0-1.096-.775-2.362-1.417l-1.773-.472c-.31-.038-.63-.118-.945-.118h-3.072zm1.535 30.475a12.624 12.624 0 0 1 12.639 12.635 12.624 12.624 0 0 1-12.639 12.638 12.624 12.624 0 0 1-12.639-12.638 12.624 12.624 0 0 1 12.639-12.635z" style="stroke-width:3.77953"/><use xlink:href="#c" width="100%" height="100%" fill="#737373" transform="scale(3.77953)"/><use xlink:href="#c" width="100%" height="100%" fill="none" stroke="#fff" stroke-linecap="round" stroke-width="2" mask="url(#e)" transform="scale(3.77953)"/><path fill="#a6a6a6" d="M340.052 82.322h5.537v16.615h-5.537V82.318Z" style="stroke-width:3.77953"/><path fill="#a6a6a6" d="m359.758 106.745-2.77 4.8-14.385-8.311 2.766-4.792z" style="stroke-width:3.77953"/><path fill="#a6a6a6" d="m325.988 106.745 2.77 4.8 14.39-8.311-2.771-4.792z" style="stroke-width:3.77953"/><path fill="#a6a6a6" d="M334.371 100.275a8.504 8.504 0 1 1 17.008 0 8.504 8.504 0 0 1-17.008 0z" style="stroke-width:3.77953"/><path fill="none" stroke="#a6a6a6" stroke-linecap="round" stroke-width="4.157" d="M324.922 100.275a17.953 17.953 0 1 1 35.906 0 17.953 17.953 0 0 1-35.906 0z"/><path fill="none" stroke="#000" stroke-linecap="round" stroke-opacity=".15" stroke-width="7.559" d="M259.948 55.185a21.702 21.702 0 0 0-17.718 16.18c-2.933 11.709 4.346 23.433 15.95 26.343.359.087.34.05.944.235 1.006.306 2.45.892 4.131 1.534 4.498 1.716 8.931 3.799 12.756 6.26 6.88 4.425 10.984 9.221 12.873 13.938 2.374 5.919 1.512 13.062-3.186 21.494-1.073 1.928-2.2 3.715-3.307 5.197-.072.09-.072.053-.12.117-.163.121-.122.121-.59.473-1.648 1.24-3.417 2.43-5.197 3.428-8.493 4.75-15.42 5.537-21.143 3.186-4.63-1.901-9.437-6.18-13.935-13.108a70.579 70.579 0 0 1-6.497-12.756c-.627-1.625-1.187-3.023-1.535-4.134-.143-.454.03-.03-.238-1.062-3.016-11.71-15.016-18.57-26.573-15.59a21.706 21.706 0 0 0-15.591 26.456c.624 2.415 1.78 5.801 3.424 10.038 2.71 6.973 6.15 14.064 10.515 20.788 8.511 13.115 19.627 23.66 33.895 29.525 19.241 7.91 38.513 4.702 55.63-4.014l49.134 49.017a21.713 21.713 0 0 0 30.71 0 21.57 21.57 0 0 0 0-30.591c-12.27-12.299-35.215-35.188-49.135-49.134 8.655-17.057 11.845-36.261 4.135-55.514-5.813-14.51-16.498-25.712-29.764-34.25a113.295 113.295 0 0 0-20.787-10.51 88.267 88.267 0 0 0-10.039-3.19 22.137 22.137 0 0 0-8.742-.356z"/><path fill="#70a63a" stroke="#fff" stroke-linecap="round" stroke-width="7.559" d="M261.17 62.646a14.124 14.124 0 0 0-11.574 10.514c-1.905 7.593 2.8 15.338 10.394 17.243.147.037.544.124 1.3.355 1.368.416 2.918 1.009 4.604 1.651 4.837 1.849 9.75 4.12 14.173 6.97 7.755 4.989 13.175 10.858 15.828 17.48 3.478 8.686 1.83 18.342-3.545 27.991a53.971 53.971 0 0 1-3.893 6.025c-.438.582-.578.756-.831 1.062-.295.25-.68.51-1.417 1.066-1.766 1.323-3.784 2.759-6.021 4.014-9.676 5.412-19.215 7.056-27.757 3.545-6.577-2.706-12.352-8.228-17.363-15.95a78.255 78.255 0 0 1-7.204-14.173 75.364 75.364 0 0 1-1.655-4.603c-.239-.756-.314-1.267-.352-1.418-1.954-7.578-9.785-12.11-17.363-10.155a14.135 14.135 0 0 0-10.16 17.242c.53 2.037 1.527 5.227 3.073 9.214 2.548 6.562 5.768 13.153 9.804 19.37 7.9 12.167 17.92 21.532 30.47 26.691 17.86 7.34 35.816 4.158 52.325-5.08.68-.377 1.224-.785 1.89-1.178l53.03 52.913a14.071 14.071 0 0 0 19.96 0 14.071 14.071 0 0 0 0-19.96l-52.914-53.034c.397-.661.802-1.206 1.183-1.89 9.14-16.41 12.246-34.318 5.08-52.203-5.11-12.752-14.502-22.786-26.812-30.708a105.683 105.683 0 0 0-19.37-9.804 82.602 82.602 0 0 0-9.215-2.952 14.347 14.347 0 0 0-5.669-.238z"/></g></svg>