<svg xmlns="http://www.w3.org/2000/svg" width="600" height="372" fill="none" stroke-linecap="square" stroke-miterlimit="10"><path fill="#a4c2f4" fill-rule="evenodd" d="M0 0h600v372H0Z" style="stroke-width:.835165"/><path fill="#000" d="M32.927 282.837v-6.845q4.054-.073 6.228-.411 2.188-.338 3.157-1.498.984-1.175 1.175-3.657.191-2.483.191-6.845v-32.49h8.49V261.1q0 6.242-.265 10.31-.264 4.054-1.204 6.39-.94 2.335-3.01 3.393-2.057 1.042-5.641 1.35-3.57.295-9.121.295zm50.227.602q-2.776 0-6.125-.162-3.349-.147-6.55-.41-3.188-.25-5.817-.56v-6.99q2.702.22 5.67.455 2.966.22 5.669.338 2.717.103 4.67.103 3.995 0 6.243-.368 2.262-.382 3.613-1.204.896-.602 1.307-1.498.426-.91.529-2.145.117-1.248.117-2.746 0-2.042-.147-3.393-.146-1.351-.675-2.1-.529-.75-1.66-1.087-1.13-.338-2.937-.573l-12.323-1.425q-3.614-.455-5.905-1.542-2.291-1.087-3.54-2.894-1.233-1.806-1.689-4.288-.455-2.483-.455-5.493 0-5.038 1.351-7.961 1.366-2.938 3.878-4.48 2.526-1.542 5.978-2.027 3.466-.5 7.667-.5 2.937 0 6.022.192 3.084.19 5.83.455 2.747.264 4.54.72v6.844q-1.88-.308-4.407-.529-2.512-.235-5.214-.337-2.703-.118-5.038-.118-3.907 0-6.287.338-2.364.338-3.642 1.087-1.498.837-1.807 2.306-.293 1.454-.293 3.642 0 2.556.337 3.951.338 1.38 1.572 1.91 1.248.528 3.804.822l12.338 1.44q2.32.22 4.2.72 1.88.484 3.35 1.615 1.468 1.116 2.29 3.231.53 1.043.794 2.409.264 1.351.455 2.967.19 1.616.19 3.642 0 4.29-.866 7.153-.866 2.85-2.408 4.539-1.543 1.689-3.805 2.556-2.247.866-4.964 1.13-2.703.265-5.86.265zm49.114 0q-6.17 0-10.164-.705-3.98-.72-6.316-2.453-2.32-1.733-3.378-4.73-1.058-3.01-1.366-7.564-.294-4.553-.294-11.015 0-6.478.294-11.016.308-4.553 1.366-7.564 1.057-3.011 3.378-4.73 2.335-1.733 6.316-2.453 3.995-.72 10.164-.72 6.154 0 10.178.72 4.025.72 6.36 2.453 2.335 1.719 3.422 4.73 1.087 3.01 1.38 7.564.31 4.538.31 11.016 0 6.462-.31 11.015-.293 4.554-1.38 7.565-1.087 2.996-3.422 4.729t-6.36 2.453q-4.024.705-10.178.705zm0-7.226q3.76 0 6.198-.22 2.438-.221 3.833-1.117 1.396-.91 2.071-2.982.676-2.07.867-5.64.19-3.569.19-9.282 0-5.714-.19-9.283-.191-3.584-.867-5.64-.675-2.071-2.07-2.967-1.396-.91-3.834-1.13-2.438-.236-6.199-.236-3.686 0-6.095.235-2.409.22-3.848 1.131-1.425.896-2.071 2.967-.632 2.056-.823 5.64-.176 3.57-.176 9.283 0 5.713.176 9.282.191 3.57.823 5.64.646 2.071 2.07 2.982 1.44.896 3.85 1.116 2.408.22 6.095.22zm33.758 6.624v-51.745h8.798l23.691 35.809h.294v-35.81h8.122v51.746h-8.122l-24.367-36.925h-.293v36.925zm88.219.602q-4.891 0-8.137-.632-3.232-.646-5.185-2.115-1.954-1.468-2.938-3.76-.969-2.291-1.277-5.566-.294-3.276-.294-7.623 0-5.2.529-8.96.528-3.76 2.173-6.198 1.66-2.453 5.156-3.57 3.495-1.13 9.37-1.13 4.583 0 7.506.72 2.937.705 4.626 2.217 1.704 1.499 2.483 3.863.793 2.365 1.013 5.64.235 3.276.235 7.418v2.555h-25.042q0 3.379.293 5.45.309 2.07 1.396 3.157 1.087 1.087 3.451 1.498 2.38.412 6.434.412 1.733 0 3.804-.074 2.07-.073 4.244-.293 2.189-.235 3.907-.382v6.242q-1.645.308-3.98.558-2.335.264-4.891.411-2.556.162-4.876.162zm7.593-21.43v-1.439q0-3.378-.426-5.36-.411-1.998-1.351-3.012-.94-1.028-2.556-1.366-1.615-.338-4.024-.338-2.996 0-4.774.426-1.762.412-2.673 1.543-.896 1.116-1.234 3.113-.337 1.998-.337 5.23h18.726zm13.982 20.828 13.91-19.476-13.454-18.874h9.018l9.253 13.013h.455l9.312-13.013h8.578l-13.38 18.8 13.982 19.55h-9.018l-9.856-13.616h-.455l-9.767 13.616zm46.7 0V251.17h-7.667v-6.683h7.667v-11.133h7.975v11.133h8.945v6.683h-8.945v31.667zm40.616.602q-4.891 0-8.137-.632-3.232-.646-5.185-2.115-1.954-1.468-2.938-3.76-.969-2.291-1.277-5.566-.294-3.276-.294-7.623 0-5.2.529-8.96.528-3.76 2.173-6.198 1.66-2.453 5.156-3.57 3.495-1.13 9.37-1.13 4.583 0 7.506.72 2.937.705 4.627 2.217 1.703 1.499 2.482 3.863.793 2.365 1.013 5.64.235 3.276.235 7.418v2.555h-25.042q0 3.379.293 5.45.309 2.07 1.396 3.157 1.087 1.087 3.451 1.498 2.38.412 6.434.412 1.733 0 3.804-.074 2.07-.073 4.244-.293 2.189-.235 3.907-.382v6.242q-1.645.308-3.98.558-2.335.264-4.891.411-2.556.162-4.876.162zm7.593-21.43v-1.439q0-3.378-.426-5.36-.411-1.998-1.351-3.012-.94-1.028-2.556-1.366-1.615-.338-4.024-.338-2.996 0-4.774.426-1.762.412-2.673 1.543-.896 1.116-1.234 3.113-.337 1.998-.337 5.23h18.726zm18.036 20.828v-38.35h7.373l.235 5.111h.602q.896-1.88 2.395-3.113 1.512-1.249 3.907-1.924 2.408-.676 5.875-.676 4.053 0 6.536.94 2.482.94 3.76 2.82 1.278 1.88 1.762 4.67.5 2.777.5 6.537v23.985h-8.05V262.01q0-3.76-.264-5.978t-1.087-3.305q-.822-1.102-2.438-1.395-1.615-.309-4.333-.309-3.01 0-4.773.764-1.763.749-2.63 2.247-.866 1.498-1.13 3.76-.265 2.262-.265 5.258v19.785zm58.215.602q-2.262 0-4.862-.162-2.585-.147-5.067-.367t-4.436-.529v-6.315q1.278.073 2.894.235 1.616.147 3.422.22 1.807.073 3.525.147 1.733.073 3.393.073 3.613 0 5.229-.44 1.616-.456 2.1-1.543.5-1.101.5-2.82 0-1.968-.353-2.864-.338-.896-1.234-1.19-.896-.308-2.776-.543l-9.326-1.13q-3.614-.368-5.464-1.675-1.836-1.322-2.482-3.613-.632-2.306-.632-5.611 0-3.834 1.087-6.125t3.084-3.422q1.998-1.131 4.847-1.498 2.864-.382 6.243-.382 2.115 0 4.406.147 2.291.147 4.436.411 2.144.264 3.716.573v6.316q-1.792-.235-3.907-.382-2.1-.147-4.172-.25-2.07-.118-3.95-.118-2.777 0-4.583.265-1.807.25-2.673 1.19-.867.94-.867 3.201 0 1.734.264 2.6.265.852 1.131 1.205.867.337 2.674.558l10.075 1.204q2.85.294 4.612 1.16 1.777.867 2.644 3.085.867 2.218.867 6.727 0 3.76-.94 6.066-.94 2.291-2.82 3.54-1.88 1.233-4.554 1.645-2.673.41-6.051.41zm23.908-48.587v-7.887h8.357v7.887zm.147 47.985v-38.35h7.975v38.35zm35.495.602q-4.802 0-8.004-.602-3.188-.602-5.038-1.91-1.836-1.322-2.703-3.569-.866-2.262-1.13-5.64-.265-3.393-.265-8.137 0-4.656.264-8.034.265-3.393 1.131-5.64.867-2.262 2.703-3.57 1.85-1.321 5.038-1.88 3.202-.572 8.004-.572 4.891 0 8.079.573 3.202.558 5.037 1.88 1.851 1.307 2.718 3.569.866 2.247 1.13 5.64.265 3.378.265 8.034 0 4.744-.264 8.137-.265 3.378-1.131 5.64-.867 2.247-2.718 3.57-1.835 1.307-5.037 1.909-3.188.602-8.079.602zm0-6.698q3.467 0 5.347-.44 1.88-.456 2.658-1.807.793-1.351.984-3.98.191-2.644.191-6.933t-.19-6.874q-.192-2.6-.985-3.95-.778-1.352-2.658-1.763-1.88-.412-5.347-.412-3.378 0-5.258.412-1.88.411-2.673 1.762-.778 1.352-.97 3.951-.19 2.585-.19 6.874t.19 6.933q.192 2.629.97 3.98.793 1.351 2.673 1.807 1.88.44 5.258.44zm27.599 6.096v-38.35h7.373l.235 5.111h.602q.896-1.88 2.394-3.113 1.513-1.249 3.907-1.924 2.409-.676 5.875-.676 4.054 0 6.536.94 2.482.94 3.76 2.82 1.278 1.88 1.763 4.67.499 2.777.499 6.537v23.985h-8.049V262.01q0-3.76-.264-5.978-.265-2.218-1.087-3.305-.823-1.102-2.438-1.395-1.616-.309-4.333-.309-3.011 0-4.774.764-1.762.749-2.629 2.247-.866 1.498-1.13 3.76-.265 2.262-.265 5.258v19.785z" style="stroke-width:.940013"/><path d="M7.543-56.866h584.914V59.48H7.543Z"/><path fill="#b4a7d6" fill-rule="evenodd" d="M279.145 106.661c0-9.996 8.104-18.1 18.1-18.1h205.22a18.1 18.1 0 0 1 18.1 18.1v72.398c0 9.996-8.103 18.1-18.1 18.1h-205.22c-9.996 0-18.1-8.104-18.1-18.1z"/><path fill="#b6d7a8" fill-rule="evenodd" d="M79.753 106.661c0-9.996 8.103-18.1 18.1-18.1h143.072a18.1 18.1 0 0 1 18.1 18.1v72.398c0 9.996-8.104 18.1-18.1 18.1H97.853c-9.997 0-18.1-8.104-18.1-18.1z"/><path fill="#000" d="M75.472 177.926h-.452q-.219 0-.51-.072-5.6-1.123-8.59-3.136t-4.113-4.857q-1.123-2.83-1.123-6.417l.16-7.175q0-2.83-.86-4.842-.86-2.028-2.465-3.107-1.604-1.08-3.923-1.152h-.38q-1.195 0-2.056-.817-.846-.831-.846-2.1 0-1.269.846-2.085.86-.832 2.057-.832h.452q2.319-.146 3.923-1.181 1.604-1.05 2.42-3.063.832-2.027.832-4.856l-.16-7.176q0-2.917.744-5.265.758-2.348 2.362-4.069 1.605-1.72 4.244-2.99 2.655-1.269 6.476-2.085 1.867-.38 2.712.554.86.933.86 2.202 0 .831-.597 1.546-.598.7-1.56 1.006-3.515 1.182-5.266 2.494-1.75 1.313-2.348 3.15-.598 1.824-.598 4.507l.146 7.234q0 4.42-2.056 7.175-2.057 2.757-5.717 3.88v-.292q3.66 1.123 5.717 3.88 2.056 2.756 2.056 7.175l-.146 7.234q0 2.61.598 4.434.598 1.837 2.348 3.135 1.75 1.313 5.265 2.582 2.232.831 2.159 2.77 0 1.05-.788 1.824-.773.787-1.823.787zm9.483-48.376-1.765-9.844v-8.46h7.234v8.46l-1.59 9.844zm11.668 0-1.736-9.844v-8.46h7.234v8.46l-1.692 9.844zm18.431 33.37q-1.56 0-2.654-1.08-1.08-1.08-1.08-2.727v-47.648q0-1.633 1.08-2.712 1.094-1.094 2.654-1.094 1.648 0 2.684 1.094 1.05 1.079 1.05 2.712v47.648q0 1.648-1.05 2.727-1.036 1.08-2.684 1.08zm24.342-39.423q1.429 0 2.464 1.196 1.05 1.182 1.05 2.378 0 1.502-1.414 2.77l-23.379 20.9-.292-8.575 18.814-17.473q1.196-1.196 2.757-1.196zm.904 39.35q-1.575 0-2.684-1.27l-14.934-15.75 5.673-5.237 14.556 15.752q1.195 1.268 1.195 2.843 0 1.649-1.312 2.655-1.298 1.006-2.494 1.006zm28.75.816q-6.198 0-10.763-2.567-4.55-2.581-7.059-7.103-2.494-4.52-2.494-10.34 0-6.577 2.655-11.244 2.654-4.667 6.898-7.161 4.259-2.509 9.042-2.509 3.661 0 6.943 1.459 3.281 1.458 5.862 4.04 2.582 2.566 4.07 6.052 1.502 3.471 1.575 7.57-.073 1.501-1.196 2.479-1.123.962-2.61.962H152.92l-1.794-6.359h28.075l-1.415 1.357v-1.867q-.145-2.625-1.72-4.594-1.561-1.984-3.88-3.063-2.319-1.08-4.857-1.08-2.246 0-4.302.715-2.042.7-3.646 2.276-1.604 1.56-2.538 4.142-.933 2.566-.933 6.373 0 4.113 1.706 7.176 1.721 3.062 4.638 4.74 2.917 1.677 6.417 1.677 2.771 0 4.55-.555 1.794-.568 2.99-1.385 1.196-.817 2.1-1.56 1.109-.686 2.232-.686 1.342 0 2.231.933.904.934.904 2.203 0 1.648-1.633 2.99-2.027 1.94-5.571 3.441-3.544 1.488-7.424 1.488zm53.98-40.326q1.649 0 2.684 1.094 1.05 1.08 1.05 2.727v32.1q0 6.578-2.508 10.676-2.494 4.113-6.71 6.009-4.214 1.91-9.523 1.91-2.683 0-5.381-.495-2.684-.482-4.405-1.371-1.78-.817-2.537-2.013-.744-1.196-.22-2.61.526-1.794 1.795-2.436 1.268-.627 2.61-.117 1.27.525 3.355 1.342 2.1.831 4.783.831 3.661 0 6.199-1.196 2.537-1.196 3.835-3.733 1.313-2.538 1.313-6.578v-5.148l1.196 1.794q-1.196 2.465-3.136 4.113-1.94 1.633-4.594 2.537-2.64.89-5.848.89-4.113 0-7.074-1.823-2.946-1.838-4.52-5.076-1.561-3.252-1.561-7.438v-22.168q0-1.648 1.05-2.727 1.05-1.094 2.683-1.094 1.575 0 2.655 1.094 1.079 1.08 1.079 2.727v20.156q0 4.93 2.158 7.204 2.173 2.276 6.432 2.276 2.844 0 4.93-1.196 2.085-1.196 3.281-3.326 1.196-2.129 1.196-4.958v-20.156q0-1.648 1.08-2.727 1.093-1.094 2.654-1.094zm14.041 6.213-1.764-9.844v-8.46h7.233v8.46l-1.59 9.844zm11.668 0-1.736-9.844v-8.46h7.234v8.46l-1.692 9.844zm17.615 3.5q-1.867 0-2.873-1.006-1.007-1.006-1.007-2.873v-1.43q0-1.866 1.007-2.902 1.006-1.05 2.873-1.05h.817q1.866 0 2.829 1.05.977 1.036.977 2.903v1.429q0 1.867-.977 2.873-.963 1.006-2.83 1.006zm0 29.87q-1.867 0-2.873-1.036-1.007-1.05-1.007-2.917v-1.357q0-1.94 1.007-2.946 1.006-1.006 2.873-1.006h.817q1.866 0 2.829 1.006.977 1.007.977 2.946v1.357q0 1.867-.977 2.917-.963 1.035-2.83 1.035zm14.56-33.37-1.766-9.844v-8.46h7.234v8.46l-1.59 9.844zm11.667 0-1.736-9.844v-8.46h7.234v8.46l-1.692 9.844zm15.004-6.286q1.123 0 2.13.598 1.006.598 1.458 1.794l11.711 27.112-1.415.671 11.872-27.71q1.05-2.465 3.369-2.392 1.488 0 2.494.933 1.006.934 1.006 2.436 0 .452-.146.933-.145.482-.379.934l-14.176 31.954q-.977 2.246-3.223 2.392-1.108.146-2.202-.481-1.08-.642-1.677-1.91l-14.103-31.955q-.16-.306-.307-.788-.146-.481-.146-1.152 0-1.123 1.007-2.246 1.006-1.123 2.727-1.123zm72.278-.219q1.648 0 2.684 1.08 1.05 1.079 1.05 2.727v32.26q0 1.649-1.05 2.728-1.036 1.08-2.684 1.08-1.56 0-2.654-1.08-1.08-1.08-1.08-2.727v-5.382l1.576.233q0 1.342-1.094 2.99-1.08 1.634-2.946 3.165-1.867 1.531-4.404 2.538-2.538 1.006-5.455 1.006-5.148 0-9.261-2.64-4.098-2.654-6.49-7.277-2.392-4.638-2.392-10.545 0-6.038 2.392-10.632 2.392-4.594 6.46-7.205 4.07-2.625 9.072-2.625 3.209 0 5.936 1.05t4.74 2.698q2.013 1.634 3.092 3.471 1.094 1.823 1.094 3.471l-2.32.22v-6.797q0-1.56 1.08-2.684 1.094-1.123 2.654-1.123zm-15.226 33.749q3.5 0 6.184-1.794 2.698-1.794 4.186-4.886 1.502-3.106 1.502-6.913 0-3.88-1.502-6.942-1.488-3.063-4.186-4.857-2.683-1.794-6.184-1.794-3.442 0-6.096 1.794-2.64 1.794-4.171 4.857-1.531 3.063-1.531 6.942 0 3.807 1.53 6.913 1.532 3.092 4.172 4.886 2.654 1.794 6.096 1.794zm37.475 2.319q0 1.648-1.08 2.727-1.078 1.08-2.653 1.08-1.561 0-2.655-1.08-1.079-1.08-1.079-2.727v-47.648q0-1.633 1.123-2.712 1.123-1.094 2.684-1.094 1.648 0 2.654 1.094 1.006 1.079 1.006 2.712zm40.023-35.47q1.575 0 2.655 1.08 1.079 1.079 1.079 2.727v19.645q0 7.759-4.332 12.134-4.317 4.361-12.236 4.361-7.846 0-12.149-4.36-4.288-4.376-4.288-12.135V127.45q0-1.648 1.05-2.727 1.05-1.08 2.684-1.08 1.575 0 2.654 1.08 1.08 1.079 1.08 2.727v19.645q0 4.842 2.275 7.234 2.29 2.392 6.694 2.392 4.477 0 6.782-2.392 2.319-2.392 2.319-7.234V127.45q0-1.648 1.05-2.727 1.05-1.08 2.683-1.08zm32.417 40.02q-6.198 0-10.763-2.567-4.55-2.581-7.059-7.103-2.494-4.52-2.494-10.34 0-6.577 2.654-11.244 2.655-4.667 6.899-7.161 4.259-2.509 9.042-2.509 3.66 0 6.942 1.459 3.282 1.458 5.863 4.04 2.582 2.566 4.07 6.052 1.502 3.471 1.574 7.57-.072 1.501-1.195 2.479-1.123.962-2.611.962h-29.052l-1.794-6.359h28.075l-1.415 1.357v-1.867q-.146-2.625-1.72-4.594-1.561-1.984-3.88-3.063-2.32-1.08-4.857-1.08-2.246 0-4.302.715-2.042.7-3.646 2.276-1.605 1.56-2.538 4.142-.933 2.566-.933 6.373 0 4.113 1.706 7.176 1.721 3.062 4.638 4.74 2.917 1.677 6.417 1.677 2.771 0 4.55-.555 1.794-.568 2.99-1.385 1.196-.817 2.1-1.56 1.109-.686 2.232-.686 1.341 0 2.231.933.904.934.904 2.203 0 1.648-1.633 2.99-2.027 1.94-5.571 3.441-3.544 1.488-7.424 1.488zm25.01-34.113-1.765-9.844v-8.46h7.234v8.46l-1.59 9.844zm11.668 0-1.736-9.844v-8.46h7.234v8.46l-1.692 9.844zm13.21 48.376q-1.269 0-1.91-1.05-.628-1.035-.628-1.866 0-.89.598-1.561.598-.67 1.561-.977 3.588-1.196 5.309-2.509 1.72-1.298 2.319-3.164.598-1.867.598-4.478l-.16-7.248q0-4.478 2.085-7.205 2.1-2.727 5.688-3.836v.22q-3.588-1.124-5.688-3.851-2.086-2.727-2.086-7.205l.16-7.16q0-2.772-.597-4.522-.598-1.75-2.363-3.136-1.75-1.385-5.265-2.508-2.231-.817-2.159-2.83.073-1.05.817-1.823.744-.787 1.794-.787.219 0 .481.044.263.029.496.029 5.6 1.123 8.576 3.135 2.99 2.013 4.113 4.886 1.123 2.873 1.123 6.388l-.146 7.249q0 2.829.846 4.856.86 2.013 2.508 3.092 1.648 1.08 3.88 1.08h.379q1.196 0 2.056.86.86.86.86 2.13 0 1.268-.86 2.1-.86.816-2.056.816h-.452q-2.32.073-3.923 1.152-1.605 1.08-2.421 3.063-.817 1.983-.817 4.886l.146 7.175q0 2.61-.642 4.813-.627 2.202-2.159 3.923-1.53 1.721-4.229 3.136-2.684 1.415-6.782 2.538-.233.072-.452.102-.219.043-.598.043z"/></svg>