<svg xmlns="http://www.w3.org/2000/svg" width="600" height="372"><path fill="#ff4c4c" d="M0 372V0h600v372z" style="mix-blend-mode:normal;fill-rule:nonzero;stroke:none;stroke-width:1.11355;stroke-linecap:butt;stroke-linejoin:miter;stroke-miterlimit:10;stroke-dasharray:none;stroke-dashoffset:0"/><path d="M280.73292 159.38672h-5.1296c-4.1847 0-7.69443-3.61098-7.69443-7.8969 0-2.15984.91118-4.1172 2.53105-5.56834l3.30726-3.23976c3.27351-3.23976 3.27351-8.53811 0-11.77787l-7.52569-7.45819c-1.48489-1.48489-3.67848-2.36232-5.90581-2.36232-2.22734 0-4.38717.87743-5.90581 2.36232l-3.17226 3.17227c-1.51864 1.68737-3.54348 2.59855-5.73707 2.59855-4.31968 0-7.93066-3.50975-7.93066-7.66068v-5.16337c0-4.5559-3.67848-8.47062-8.26813-8.47062h-10.25924c-4.58966 0-8.23438 3.88096-8.23438 8.47062v5.12962c0 4.15094-3.61098 7.66067-7.93067 7.66067-2.15984 0-4.15093-.91118-5.60207-2.4973l-3.27351-3.23976c-1.48489-1.51864-3.67847-2.36232-5.90581-2.36232-2.22733 0-4.38718.87743-5.90581 2.36232l-7.59319 7.42445c-3.23975 3.23975-3.23975 8.53811 0 11.74412l3.17227 3.17227c1.68737 1.51862 2.63231 3.54348 2.63231 5.70332 0 4.31968-3.50975 7.8969-7.69443 7.8969h-5.12962c-4.6234 0-8.50436 3.61098-8.50436 8.20064v10.25924c0 4.55591 3.88096 8.20064 8.50436 8.20064h5.12962c4.18468 0 7.69443 3.61097 7.69443 7.89691 0 2.15984-.94494 4.18468-2.63231 5.70332l-3.17227 3.13852c-3.23975 3.23976-3.23975 8.53811 0 11.74412l7.5257 7.49194c1.48488 1.51864 3.67848 2.36233 5.90581 2.36233s4.38717-.87744 5.90581-2.36233l3.2735-3.23976c1.41739-1.58612 3.44224-2.4973 5.60208-2.4973 4.31968 0 7.93066 3.50973 7.93066 7.66067v5.12962c0 4.55591 3.64473 8.47062 8.26814 8.47062h10.25922c4.58966 0 8.23439-3.88096 8.23439-8.47062v-5.12962c0-4.15094 3.61098-7.66067 7.93066-7.66067 2.15984 0 4.18468.94492 5.73708 2.59855l3.17225 3.17227c1.51864 1.48488 3.67848 2.36232 5.90581 2.36232 2.22734 0 4.38718-.87744 5.90581-2.36232l7.5257-7.49195c3.23975-3.23976 3.23975-8.53811 0-11.77787l-3.30726-3.23976c-1.61988-1.45114-2.53106-3.44224-2.53106-5.56834 0-4.31968 3.50973-7.8969 7.69443-7.8969h5.12961c4.58965 0 7.86317-3.61098 7.86317-8.20064v-10.29299c.0675-4.58966-3.20602-8.20064-7.79568-8.20064zm-29.59654 13.33026c0 14.88265-12.04784 26.99799-26.99797 26.99799-14.95015 0-26.99799-12.11534-26.99799-26.99799 0-14.88264 12.04784-26.99798 26.99799-26.99798 14.95013 0 26.99797 12.11534 26.99797 26.99798zM90.080629 318.14416h-5.1296c-4.1847 0-7.69443-3.61098-7.69443-7.8969 0-2.15984.91118-4.1172 2.53105-5.56834l3.30726-3.23976c3.27351-3.23976 3.27351-8.53811 0-11.77787l-7.52569-7.45819c-1.48489-1.48489-3.67848-2.36232-5.90581-2.36232-2.22734 0-4.38717.87743-5.90581 2.36232l-3.17226 3.17227c-1.51864 1.68737-3.54348 2.59855-5.73707 2.59855-4.31968 0-7.93066-3.50975-7.93066-7.66068v-5.16337c0-4.5559-3.67848-8.47062-8.26813-8.47062h-10.25924c-4.58966 0-8.23438 3.88096-8.23438 8.47062v5.12962c0 4.15094-3.61098 7.66067-7.93067 7.66067-2.15984 0-4.1509295-.91118-5.6020695-2.4973l-3.27351-3.23976c-1.48489-1.51864-3.67847004-2.36232-5.90581-2.36232-2.22733 0-4.38718.87743-5.90581 2.36232l-7.5931905 7.42445c-3.23975 3.23975-3.23975 8.53811 0 11.74412l3.17227 3.17227c1.68737 1.51862 2.63231 3.54348 2.63231 5.70332 0 4.31968-3.50975 7.8969-7.69443 7.8969h-5.12962c-4.6234 0-8.50436 3.61098-8.50436 8.20064v10.25924c0 4.55591 3.88096 8.20064 8.50436 8.20064h5.12962c4.18468 0 7.69443 3.61097 7.69443 7.89691 0 2.15984-.94494 4.18468-2.63231 5.70332l-3.17227 3.13852c-3.23975 3.23976-3.23975 8.53811 0 11.74412l7.5257005 7.49194c1.48488 1.51864 3.67848 2.36233 5.90581 2.36233 2.22732996 0 4.38717-.87744 5.90581-2.36233l3.2735-3.23976c1.41739-1.58612 3.44224-2.4973 5.6020795-2.4973 4.31968 0 7.93066 3.50973 7.93066 7.66067v5.12962c0 4.55591 3.64473 8.47062 8.26814 8.47062h10.25922c4.58966 0 8.23439-3.88096 8.23439-8.47062v-5.12962c0-4.15094 3.61098-7.66067 7.93066-7.66067 2.15984 0 4.18468.94492 5.73708 2.59855l3.17225 3.17227c1.51864 1.48488 3.67848 2.36232 5.90581 2.36232 2.22734 0 4.38718-.87744 5.90581-2.36232l7.5257-7.49195c3.23975-3.23976 3.23975-8.53811 0-11.77787l-3.30726-3.23976c-1.61988-1.45114-2.53106-3.44224-2.53106-5.56834 0-4.31968 3.50973-7.8969 7.69443-7.8969h5.12961c4.58965 0 7.86317-3.61098 7.86317-8.20064V326.3448c.0675-4.58966-3.20602-8.20064-7.79568-8.20064zm-29.59654 13.33026c0 14.88265-12.04784 26.99799-26.99797 26.99799-14.95015 0-26.9979895-12.11534-26.9979895-26.99799 0-14.88264 12.0478395-26.99798 26.9979895-26.99798 14.95013 0 26.99797 12.11534 26.99797 26.99798z" style="fill:#ff6868;fill-opacity:1;stroke-width:.337475"/><path fill="#ff6868" d="M437.00919 382.15797V262.19974h38.30116v119.95823zM382.83201 381.59354v-85.71762h38.30118v85.71762zM538.66747 382.40284V196.5406h38.30115v185.86224zM488.66746 382.56007v-86.43926h38.30115v86.43926z" style="mix-blend-mode:normal;fill-rule:nonzero;stroke:none;stroke-width:1.05656;stroke-linecap:butt;stroke-linejoin:miter;stroke-miterlimit:10;stroke-dasharray:none;stroke-dashoffset:0"/><g fill="#fff" style="mix-blend-mode:normal;fill-rule:nonzero;stroke:none;stroke-width:1;stroke-linecap:butt;stroke-linejoin:miter;stroke-miterlimit:10;stroke-dasharray:none;stroke-dashoffset:0"><path d="M213.01601838 72.54538542h1.4180664c1.4180664 0 4.05422494.16361817 10.2537328.65449381 22.52547586 1.7453133 34.74269009 8.92656187 39.30596343 23.10725752 1.52714517 4.76325815 2.21799505 9.49014965 2.3998071 16.50778006.07269102 3.14520694.16361817 4.03604162.47269232 5.05414897.7090332 2.34525716 2.9088555 5.70863222 7.1448925 11.03547815 5.1086778 6.39949266 10.962766 12.76262926 23.34360897 25.4161586l6.79945171 6.96308045-11.45363107 11.4718144-11.4718144 11.47181439-6.52675476-6.3631366c-3.58153263-3.4906266-7.36306062-7.16306525-8.4356968-8.16297871-10.94458268-10.30826163-18.58034025-16.27142861-23.25269237-18.18037065-1.0908195-.454509-1.4907891-.50903782-4.81779754-.63631049-5.83590488-.23635144-10.07192075-.79993922-14.36249714-1.89075871-9.89011926-2.54525253-18.03492523-7.63574701-23.96172557-14.99879707-3.72697804-4.63598548-7.29033791-11.19910688-9.599239-17.72586164l-.52722114-1.5453285.63631049-1.27262097c.34543022-.69084988.7090332-1.27262098.79993922-1.27262098.09086377 0 6.89035774 3.83604625 15.10788641 8.544765 8.21752868 4.69053544 15.10788641 8.54477558 15.2896879 8.54477558.19999537 0 1.07264674-.454509 1.96348143-.99992403 5.74499885-3.54517655 10.30827219-8.47205286 13.18076105-14.21705172 2.21800562-4.43601124 3.52699324-9.87193595 3.85424014-15.88964232l.1272621-2.29072832-.52722114-.36361355c-.29089084-.1999848-7.10852587-4.10876433-15.14425305-8.69022099-8.03571662-4.5996294-14.63520466-8.4356968-14.68974405-8.56294833-.0363455-.10908934.54540447-1.45443303 1.2908043-2.96339489z"/><path d="M394.54701731 80.18113243c.10908935 0 2.0725602 1.8725754 4.36328853 4.18148704 4.01786888 4.01786888 4.1633143 4.1996598 3.92696285 4.58145666-.3272469.52722114-19.652987 28.17957925-19.83478848 28.3795535-.07269101.09086376-2.41799043.72721651-5.1995944 1.41806639-2.79978728.7090332-5.3995792 1.36353757-5.79953824 1.45443303-.6363105.16362874-5.74499886 5.21775658-42.85112942 42.30572495-23.17996966 23.16179692-42.14210678 42.251175-42.14210678 42.39663098 0 .16362874 1.47261635 2.65434187 3.29065236 5.54502462 1.818036 2.9088555 3.38154782 5.45410802 3.49063717 5.69045946.18181205.3817863-.01817276.6363105-2.61797524 3.2361024-2.54525252 2.54525253-2.8543161 2.79977673-3.43609777 2.79977673-1.363527 0-4.30874914.56358778-6.14496847 1.18172552-2.12711016.72721651-4.30873858 1.83620876-5.96315642 3.05430091-6.87218498 5.05413841-12.27175361 14.4533926-13.39892918 23.2708757l-.21816812 1.76349661-23.99809221 24.01627553-23.99808164 23.9980922-.72721652-.072691c-7.18124857-.89084525-13.36257311-3.92696285-19.03484926-9.38107088-6.01770637-5.76318217-9.50834353-12.50810506-10.45372818-20.107496l-.072691-.7272165 23.9980922-23.99809222 24.01626496-23.99808164 1.76349662-.21816813c8.690221-1.1090028 18.18037065-6.50857144 23.10724696-13.18077162 1.30898762-1.78167994 2.5270692-4.09058102 3.1997569-6.12677458.63631049-1.90894204 1.19989827-4.83598086 1.19989827-6.19950786 0-.56358778.2545242-.89083469 2.76342065-3.39973114 1.52714517-1.52714518 2.8543161-2.78160397 2.96340545-2.78160397.10908935 0 2.69069794 1.5453285 5.7268261 3.45427053 3.0361176 1.89075872 5.65408227 3.45425996 5.817711 3.45425996.14544542 0 19.23483407-18.96211598 42.39662042-42.14209621 37.0879578-37.10614113 42.14209621-42.21481893 42.30572495-42.85112942.09086376-.39996961.72721652-2.89068274 1.38171032-5.54501405.65449381-2.6543313 1.25444823-4.96324295 1.32717094-5.12686112.072691-.18181205 6.54493808-4.81779753 14.39885321-10.32645551 7.8539257-5.49047466 14.36249714-9.99919804 14.4533926-9.99919804z"/><path d="M321.88007412 179.08235676c.0363455 0 3.69062197 3.54517656 8.09025601 7.87210902 8.8174831 8.6356816 11.23548408 10.962766 15.198803 14.56247138 8.12662265 7.3448773 13.83526544 11.58089317 17.61678287 13.07168228 1.32717093.50905896 1.59986788.54541503 5.03595509.69086044 5.83590488.23635145 10.09010407.79993923 14.36249714 1.89075872 9.94465865 2.56343584 18.03492523 7.61756369 23.96172557 14.99879706 3.74516136 4.65417937 7.29032735 11.19910688 9.59922843 17.72587221l.52723171 1.5453285-.63631049 1.27262098c-.34544078.69084988-.7090332 1.27262098-.79993922 1.27262098-.09086376 0-6.89035774-3.8360674-15.10788641-8.54477558-8.21752867-4.690546-15.10788641-8.54476501-15.30787122-8.54476501-.18181205 0-1.1090028.47269232-2.03619356 1.05445285-10.65370242 6.70855625-16.21689979 16.56231945-16.9441163 30.05215465l-.1272621 2.29072833.5272317.36360298c.29088027.19999537 7.03580316 4.0723977 14.98062432 8.59931496 7.9448106 4.5269067 14.58066527 8.34479077 14.72610012 8.47205287.23635144.21816813.09086376.59995442-1.0908195 2.9815782l-1.34535425 2.72706459h-2.19981173c-11.43544776-.01817276-23.30723177-1.85439208-30.61574244-4.76326871-7.83574238-3.1088403-13.58074123-8.21752868-16.72594817-14.88971829-2.47254039-5.23595046-3.72697805-11.70815527-3.94514617-20.43473233-.10908935-4.25420976-.2545242-5.01779291-1.34534369-7.16307582-3.3633645-6.70855625-12.6353566-17.25316932-34.27000833-39.06962255l-5.09049448-5.12685055 11.4536205-11.45363108c6.29040333-6.30858664 11.4718144-11.45363108 11.50818104-11.45363108z"/></g><path d="M535.32207 21.918322h-5.1296c-4.1847 0-7.69443-3.61098-7.69443-7.896903 0-2.159838.91118-4.1172005 2.53105-5.5683434l3.30726-3.2397516c3.27351-3.239762 3.27351-8.5381137 0-11.7778757l-7.52569-7.4581893c-1.48489-1.484885-3.67848-2.362324-5.90581-2.362324-2.22734 0-4.38717.877439-5.90581 2.362324l-3.17226 3.172267c-1.51864 1.6873706-3.54348 2.5985514-5.73707 2.5985514-4.31968 0-7.93066-3.5097434-7.93066-7.6606754v-5.163371c0-4.555904-3.67848-8.470619-8.26813-8.470619h-10.25924c-4.58966 0-8.23438 3.880962-8.23438 8.470619v5.129618c0 4.150943-3.61098 7.6606754-7.93067 7.6606754-2.15984 0-4.15093-.9111807-5.60207-2.4973034l-3.27351-3.239762c-1.48489-1.518638-3.67847-2.362324-5.90581-2.362324-2.22733 0-4.38718.877439-5.90581 2.362324l-7.59319 7.424447c-3.23975 3.2397514-3.23975 8.5381137 0 11.7441228l3.17227 3.1722667c1.68737 1.5186277 2.63231 3.5434855 2.63231 5.7033235 0 4.319676-3.50975 7.896903-7.69443 7.896903h-5.12962c-4.6234 0-8.50436 3.610981-8.50436 8.200638V40.378197c0 4.555915 3.88096 8.200638 8.50436 8.200638h5.12962c4.18468 0 7.69443 3.61098 7.69443 7.896914 0 2.159837-.94494 4.184685-2.63231 5.703323l-3.17227 3.138514c-3.23975 3.239762-3.23975 8.538113 0 11.744122l7.5257 7.491943c1.48488 1.518638 3.67848 2.362323 5.90581 2.362323s4.38717-.877438 5.90581-2.362323l3.2735-3.239762c1.41739-1.586123 3.44224-2.497304 5.60208-2.497304 4.31968 0 7.93066 3.509733 7.93066 7.660675v5.129619c0 4.555907 3.64473 8.470621 8.26814 8.470621h10.25922c4.58966 0 8.23439-3.880961 8.23439-8.470621V86.47726c0-4.150942 3.61098-7.660675 7.93066-7.660675 2.15984 0 4.18468.944923 5.73708 2.598552l3.17225 3.172267c1.51864 1.484885 3.67848 2.362323 5.90581 2.362323 2.22734 0 4.38718-.877438 5.90581-2.362323l7.5257-7.491943c3.23975-3.239762 3.23975-8.538113 0-11.777875l-3.30726-3.239752c-1.61988-1.451143-2.53106-3.442248-2.53106-5.568343 0-4.319676 3.50973-7.896903 7.69443-7.896903h5.12961c4.58965 0 7.86317-3.610981 7.86317-8.200638V30.11896c.0675-4.589657-3.20602-8.200638-7.79568-8.200638zm-29.59654 13.330256c0 14.882648-12.04784 26.997989-26.99797 26.997989-14.95015 0-26.99799-12.115341-26.99799-26.997989 0-14.882636 12.04784-26.9979777 26.99799-26.9979777 14.95013 0 26.99797 12.1153417 26.99797 26.9979777zM150.8148 56.641294h-5.1296c-4.1847 0-7.69443-3.61098-7.69443-7.896903 0-2.159838.91118-4.117201 2.53105-5.568343l3.30726-3.239752c3.27351-3.239762 3.27351-8.538114 0-11.777876l-7.52569-7.458189c-1.48489-1.484885-3.67848-2.362324-5.90581-2.362324-2.22734 0-4.38717.877439-5.90581 2.362324l-3.17226 3.172267c-1.51864 1.687371-3.54348 2.598551-5.73707 2.598551-4.31968 0-7.93066-3.509743-7.93066-7.660675v-5.163371c0-4.5559037-3.67848-8.4706187-8.268128-8.4706187h-10.25924c-4.58966 0-8.23438 3.880962-8.23438 8.4706187v5.129618c0 4.150943-3.61098 7.660675-7.93067 7.660675-2.15984 0-4.15093-.91118-5.60207-2.497303l-3.27351-3.239762c-1.48489-1.518638-3.67847-2.362324-5.90581-2.362324-2.22733 0-4.38718.877439-5.90581 2.362324l-7.59319 7.424447c-3.23975 3.239751-3.23975 8.538114 0 11.744123l3.17227 3.172266c1.68737 1.518628 2.63231 3.543486 2.63231 5.703324 0 4.319676-3.50975 7.896903-7.69443 7.896903h-5.12962c-4.6234 0-8.50436 3.610981-8.50436 8.200638V75.101169c0 4.555915 3.88096 8.200638 8.50436 8.200638h5.12962c4.18468 0 7.69443 3.61098 7.69443 7.896914 0 2.159837-.94494 4.184685-2.63231 5.703323l-3.17227 3.138516c-3.23975 3.23976-3.23975 8.53811 0 11.74412l7.5257 7.49194c1.48488 1.51864 3.67848 2.36233 5.90581 2.36233s4.38717-.87744 5.90581-2.36233l3.2735-3.23976c1.41739-1.58612 3.44224-2.4973 5.60208-2.4973 4.31968 0 7.93066 3.50973 7.93066 7.66067v5.12962c0 4.55591 3.64473 8.47062 8.26814 8.47062h10.25922c4.589658 0 8.234388-3.88096 8.234388-8.47062v-5.12962c0-4.15094 3.61098-7.66067 7.93066-7.66067 2.15984 0 4.18468.94492 5.73708 2.59855l3.17225 3.17227c1.51864 1.48488 3.67848 2.36232 5.90581 2.36232 2.22734 0 4.38718-.87744 5.90581-2.36232l7.5257-7.49195c3.23975-3.23976 3.23975-8.53811 0-11.77787l-3.30726-3.239754c-1.61988-1.451143-2.53106-3.442248-2.53106-5.568343 0-4.319676 3.50973-7.896903 7.69443-7.896903h5.12961c4.58965 0 7.86317-3.610981 7.86317-8.200638v-10.29299c.0675-4.589657-3.20602-8.200638-7.79568-8.200638zM121.21826 69.97155c0 14.882648-12.04784 26.997989-26.997968 26.997989-14.95015 0-26.99799-12.115341-26.99799-26.997989 0-14.882636 12.04784-26.997978 26.99799-26.997978 14.950128 0 26.997968 12.115342 26.997968 26.997978z" style="fill:#ff6868;fill-opacity:1;stroke-width:.337475"/></svg>