<svg xmlns="http://www.w3.org/2000/svg" width="600" height="372" viewBox="0 0 158.75 98.425"><defs><linearGradient id="a" x1="298.49899" x2="298.49899" y1="-30.931" y2="333.93399" gradientTransform="matrix(.23034 0 0 .269762 10.618 8.34396)" gradientUnits="userSpaceOnUse"><stop offset="0" stop-color="#091b15"/><stop offset="1" stop-color="#306955"/></linearGradient></defs><path fill="url(#a)" d="M0 98.425V0h158.75v98.425z" style="mix-blend-mode:normal;fill:url(#a);fill-rule:nonzero;stroke-width:1.11355;stroke-linecap:butt;stroke-linejoin:miter;stroke-miterlimit:10;stroke-dasharray:none;stroke-dashoffset:0"/><path d="M48.889758 36.073378c-.172959-.02617-.547324-.138823-.546186-.625839 0-.415329.273093-.557565.460845-.605356.530255-1.302882 1.561182-2.33836 2.233674-3.569555 1.020685-1.871825 1.866136-3.848336 3.015403-5.647337 1.184541-1.854758 2.540903-3.657172 3.537693-5.62458.405088-.568944.713456-1.203886 1.119682-1.766002.381192-.52798.920551-.947861 1.290365-1.476979.229853-.327712.343642-.72711.562116-1.062787.193441-.296989.455156-.547324.65201-.842037.438087-.655424.573496-1.475841 1.674971-1.607836.364124-.04324.500671.560979.628114.905759.0091.02617.0046 1.05596.0046 1.256228l-.0091 3.013127c-.01024 3.63669.12403 7.315482-.09672 10.944206-.05917.976308-.191165 1.961719-.207095 2.941441-.143374.448328-.327712.898931-.383469 1.370017-.170683 1.44398.04552 2.835616-.426707 4.23977l-.306092.197993a.88869047.88869047 0 0 1-.04324.04665.65200978.65200978 0 0 1-.312919.184338l-.0023.0011h-.0057c-.318609.06827-.573496-.187752-.573496-.187752-.315195-.32316-.707766-.695249-1.156094-.819279-.678181-.188889-1.085545-.209371-1.66473-.622425l-.04779-.03414-.01821.17751c-.05234 1.014996-.05348 1.943513-.307229 2.938027-.06827.615597-.05234 1.242573-.142236 1.853619-.04552.309506.04779.692974-.162718.925103-.211647.232129-.596254.212785-.908035.256025-.46312.06372-1.019547-.174097-1.471289-.257163-.637217-.117202-1.344983-.154753-1.963995-.350469-.302678-.09558-.671353-.100134-.892104-.326574-.332263-.339091-.268541-1.128785-.267403-1.550941a10.586909 10.586909 0 0 1 .418742-2.974439c.09103-.364125.164994-.718008.276507-1.070753-.216198.02276-.40395.02958-.409639.03072-1.117406.05917-2.540904.277645-3.550211-.259438zm1.490633-.962654c.770351.0023 1.681799.07852 2.437356-.07624.524567-.108099 1.038892-.57122 1.586216.14565.19913.261714-.0842.652009-.154753.971756-.111513.517739-.326573 1.040029-.458568 1.558906-.256025.838624-.367538 1.766002-.37209 2.6399 0 .18889.01821.380055-.0046.567806-.0046.04324-.116065.09331-.0751.109238.0842.03414.178648-.04096.268542-.033.27992.02276.553013.09217.830658.138822.508636.08648 1.019547.192303 1.52477.300403.188889.03983.400536.01479.58715.05234.0023-.142236.04893-.284472.05689-.428983.02617-.499533.0512-.987687.110375-1.486082.18889-.756695.284472-1.479254.286748-2.259845 0-.349332.03414-.696388.05234-1.045719.0091-.193441-.06258-.398261.0057-.580323.125168-.335677.216199-.810176.557565-.918276.499533-.158166.850003.450604 1.157232.71118.568944.48474.905759.439225 1.630594.662251.36071.111513.694111.311781 1.000203.548462.26399-1.514529.0091-3.100745.554152-4.59024-.0068-.499533.09444-.96948.125167-1.467875.08307-1.338157.08762-2.685416.139961-4.028124.104685-2.72069.01479-5.464137.02276-8.185965l.008-2.821962c-.229854.302678-.497257.580323-.634942.79197-.229853.352745-.357297.766936-.597391 1.113992-.3664.52798-.908035.939895-1.2824 1.4656-.385744.539358-.678181 1.148129-1.069614 1.689763-.989963 1.974236-2.35998 3.78234-3.546797 5.638235-1.13675 1.778519-1.96627 3.735686-2.978991 5.584754-.211647.385744-.39826.785142-.641768 1.153818-.473362.719145-1.08327 1.315399-1.446256 2.088024.09558-.0034.200268-.01138.320884-.01024z" style="mix-blend-mode:normal;fill-rule:nonzero;stroke-width:1.13789;stroke-linecap:butt;stroke-linejoin:miter;stroke-miterlimit:10;stroke-dasharray:none;stroke-dashoffset:0"/><path fill="#e9e9e9" d="M50.053818 35.126655c.364124-.772626.972894-1.370017 1.446255-2.088024.24237-.367538.430122-.769213.641769-1.154957 1.01272-1.84793 1.844516-3.818752 2.981266-5.596133 1.186817-1.857033 2.562524-3.663999 3.552486-5.639372.391434-.541635.685009-1.149267 1.069615-1.689764.375503-.524566.917138-.936481 1.283538-1.465599.238956-.345918.367537-.760109.597391-1.113993.136546-.210509.40395-.489291.634941-.790832l-.008 2.821962c-.0068 2.722966.08648 5.469828-.01934 8.18938-.05234 1.342708-.05689 2.695656-.138822 4.033812-.03072.498395-.133133.970619-.125168 1.470152-.546186 1.488357-.293575 3.077986-.557565 4.592515a3.2042924 3.2042924 0 0 0-1.001311-.548462c-.723696-.223026-1.061649-.176372-1.631731-.661113-.30723-.261714-.658837-.869346-1.157232-.71118-.341366.1081-.432397.582599-.559841.918276-.06827.180924.0046.386882-.0057.580323-.01707.349331-.0512.696387-.05234 1.045719a9.2112027 9.2112027 0 0 1-.286748 2.259845c-.05803.498395-.0842.986549-.110375 1.486082-.008.143374-.05462.286748-.05689.428984-.186614-.03755-.398261-.01138-.586013-.05234a36.310004 36.310004 0 0 0-1.528179-.300406c-.276507-.04665-.550738-.114926-.830658-.138822-.08875-.008-.184338.066-.267404.033-.0421-.01707.06941-.066.0751-.110375.02276-.187752.0034-.377779.0046-.566669.0034-.873897.114927-1.801276.37209-2.639899.130857-.518877.349331-1.057098.461982-1.573699.06941-.320885.35047-.696388.150201-.956964-.546186-.71687-1.062787-.253749-1.588491-.146788-.75442.154753-1.668144.07738-2.437356.0751-.121754 0-.227578.0068-.322022.01024z" data-paper-data="{&quot;noHover&quot;:false,&quot;origItem&quot;:[&quot;Path&quot;,{&quot;applyMatrix&quot;:true,&quot;segments&quot;:[[[221.12258,106.59626],[-0.35515,-0.00095],[2.25242,0.00601]],[[228.25494,106.3724],[-2.21102,0.45294],[1.53688,-0.31484]],[[232.90017,106.79932],[-1.60292,-2.0985],[0.58304,0.76331]],[[232.44737,109.64505],[0.20385,-0.93863],[-0.32867,1.51335]],[[231.10535,114.21007],[0.38498,-1.52158],[-0.75085,2.45204]],[[230.01581,121.93569],[0.01091,-2.55951],[-0.00236,0.55328]],[[230.00206,123.59549],[0.06482,-0.54948],[-0.01521,0.12891]],[[229.78211,123.91684],[-0.12067,-0.04783],[0.2455,0.09731]],[[230.56843,123.81999],[-0.26313,-0.02244],[0.81762,0.06973]],[[232.99622,124.22757],[-0.80902,-0.13733],[1.4929,0.25342]],[[237.46571,125.10547],[-1.48162,-0.3176],[0.54964,0.11782]],[[239.18055,125.25997],[-0.54552,-0.11171],[0.00823,-0.41642]],[[239.34672,124.0041],[-0.02216,0.41924],[0.07729,-1.46223]],[[239.66985,119.65177],[-0.17061,1.45944],[0.55338,-2.21417]],[[240.5098,113.03771],[-0.00586,2.28277],[0.00262,-1.02107]],[[240.66214,109.97828],[-0.05099,1.0198],[0.02832,-0.56635]],[[240.67897,108.27717],[-0.19971,0.53073],[0.3692,-0.98117]],[[242.31334,105.59017],[-0.9996,0.31595],[1.4606,-0.46166]],[[245.6988,107.67194],[-0.89709,-0.76335],[1.66875,1.41997]],[[250.47197,109.61085],[-2.11972,-0.65389],[1.05828,0.32646]],[[253.39966,111.21552],[-0.89333,-0.6916],[0.77377,-4.43316]],[[255.02435,97.78042],[-1.59776,4.35757],[-0.02035,-1.46311]],[[255.39038,93.48132],[-0.08988,1.45993],[0.24118,-3.91764]],[[255.79811,81.68886],[-0.15248,3.9301],[0.30896,-7.96358]],[[255.86544,57.72682],[-0.02273,7.97018],[0.00785,-2.75324]],[[255.88899,49.4671],[-0.00785,2.75324],[-0.67418,0.88592]],[[254.03183,51.78449],[0.40142,-0.61626],[-0.67329,1.03364]],[[252.28191,55.04537],[0.70286,-1.01377],[-1.07229,1.54661]],[[248.52738,59.33541],[1.09795,-1.53725],[-1.12822,1.57962]],[[245.39534,64.28248],[1.14604,-1.58479],[-2.89508,5.7809]],[[235.0134,80.7891],[3.47481,-5.43527],[-3.32669,5.20359]],[[226.29381,97.13551],[2.96481,-5.41202],[-0.61875,1.12948]],[[224.41687,100.51255],[0.70844,-1.0755],[-1.38657,2.10498]],[[220.18059,106.62553],[1.06363,-2.26076],[0.27953,-0.00992]]],&quot;closed&quot;:true}]}" style="mix-blend-mode:normal;fill-rule:nonzero;stroke-width:1.13789;stroke-linecap:butt;stroke-linejoin:miter;stroke-miterlimit:10;stroke-dasharray:none;stroke-dashoffset:0"/><g style="font-size:25.6248px;font-family:&quot;Sans Serif&quot;;fill:#e9e9e9;stroke:#000;stroke-width:1.28124;stroke-miterlimit:10"><path d="M24.991 20.599q3.536 0 5.15 1.537 1.64 1.512 1.64 4.177 0 1.589-.666 2.998-.666 1.384-2.229 2.23-1.538.845-4.202.845h-1.666v6.509h-3.87V20.599Zm-.205 3.177h-1.768v5.433h1.281q1.64 0 2.588-.64.974-.667.974-2.128 0-2.665-3.075-2.665zm22.857 8.098q0 3.485-1.845 5.38-1.819 1.897-4.97 1.897-1.948 0-3.486-.846-1.512-.845-2.383-2.46-.871-1.64-.871-3.971 0-3.485 1.82-5.356 1.818-1.87 4.996-1.87 1.973 0 3.485.845 1.512.846 2.383 2.46.871 1.589.871 3.92zm-9.66 0q0 2.075.666 3.151.692 1.051 2.23 1.051 1.511 0 2.177-1.05.692-1.077.692-3.152 0-2.076-.692-3.101-.666-1.05-2.203-1.05-1.512 0-2.204 1.05-.666 1.025-.666 3.1z" aria-label="Po" style="font-weight:700;font-family:&quot;Noto Sans&quot;;-inkscape-font-specification:&quot;Noto Sans&quot;" transform="rotate(-6.395 27.61378786 98.39753522) scale(1.1378879)"/></g><g style="font-size:25.6248px;font-family:&quot;Sans Serif&quot;;fill:#e9e9e9;stroke:#000;stroke-width:1.28124;stroke-miterlimit:10"><path d="M73.76 24.25q2.255 0 3.613 1.23 1.358 1.204 1.358 3.895v9.122h-3.818v-8.174q0-1.512-.538-2.255-.538-.77-1.717-.77-1.742 0-2.383 1.205-.64 1.179-.64 3.408v6.586h-3.818V24.506h2.92l.513 1.794h.205q.666-1.077 1.82-1.564 1.178-.486 2.485-.486zm14.786 11.454q.64 0 1.23-.128t1.178-.308v2.845q-.615.256-1.537.435-.897.205-1.973.205-1.256 0-2.255-.41-.974-.41-1.563-1.41-.564-1.024-.564-2.818v-6.74h-1.82v-1.614l2.102-1.28 1.102-2.948h2.434v2.973h3.92v2.87h-3.92v6.74q0 .793.461 1.203.462.385 1.205.385zM99.539 24.25q2.895 0 4.587 1.665 1.69 1.64 1.69 4.69v1.844h-9.02q.052 1.615.949 2.537.922.923 2.537.923 1.358 0 2.46-.256 1.102-.282 2.28-.846v2.947q-1.025.512-2.178.743-1.127.256-2.742.256-2.1 0-3.715-.769-1.615-.794-2.537-2.383-.922-1.588-.922-3.997 0-2.46.82-4.074.845-1.64 2.331-2.46 1.487-.82 3.46-.82zm.025 2.716q-1.102 0-1.845.717-.717.718-.845 2.23h5.355q-.025-1.282-.666-2.102-.64-.845-1.999-.845zm17.169-2.716q.282 0 .666.025.385.026.615.077l-.282 3.588q-.18-.052-.538-.077-.333-.052-.59-.052-.973 0-1.87.36-.897.332-1.46 1.101-.539.769-.539 2.101v7.124h-3.818V24.506h2.896l.564 2.357h.18q.614-1.076 1.69-1.845 1.077-.768 2.486-.768z" aria-label="nter" style="font-weight:700;font-family:&quot;Noto Sans&quot;;-inkscape-font-specification:&quot;Noto Sans&quot;" transform="rotate(-6.395 27.61378786 98.39753522) scale(1.1378879)"/></g><path d="M82.836369 58.039166c.066.01138.121754.03186.169545.05576.05689-.008.09672-.0046.09672-.0046.227578.01479.458569.04665.691836.08762a.63835512.63835512 0 0 1 .116065-.213923c-.03641-.578047.01707-1.149266.08989-1.784208.108099-.939895.186614-2.092576.513187-2.974439.682733-1.84793 2.62397-3.493316 4.269356-4.443452.554151-.318609 1.224367-.441501 1.809242-.697526 1.570285-.883001 3.291909-.111513 4.813266.596254 1.108302.516601 2.583005 1.242573 3.380665 2.197261 1.285819 1.540701 1.308569 3.946196.972894 5.800953.06827.885277-.02958 1.591905-.103548 2.462389-.01821.218475.07624.469948.04438.680457.250335.0068.500673.01365.751003.02276.4893.01479 1.54753-.157028 1.97651.129719.64518.432398.42443.952413.51546 1.554355.20824 1.388224.27765 2.74231.37096 4.155567-.15931.929654-.30382 1.946926-.26968 2.894787.0284.765798.2765 1.545252.26171 2.309912-.0148.747593-.19685 1.499737-.15703 2.259846.0478.914862.29471 1.831999.33226 2.751413.0114.293575.16386.650872-.0182.883001-.32089.409639-1.31084.251473-1.71138.227577-1.59077-.278782-3.124642-.243508-4.723374-.337952-.05007-.0034-1.463324-.257163-1.467876-.257163-.731662-.08534-1.494047-.02845-2.226846-.0842-2.290569-.172959-4.612998-.788556-6.873981-1.187955l-3.941643-.694075c-.342504-.06145-1.42236-.185476-1.615801-.543911-.248059-.460844.22644-1.98789.318609-2.51587.385744-2.181331.365262-4.437763.432397-6.654369.06486-1.874101.177511-3.856302.504084-5.706507l.099-.563255s.08648-.492705.580323-.406226zm7.260862.950136c1.614663.166132 3.25436.317471 4.876988.3664.251473.0091.500671.03983.74873.07965a1.8354132 1.8354132 0 0 0-.0057-.02276c-.176373-.727111-.166132-1.333605-.07965-2.061853.05007-.411916-.06031-.827245-.09558-1.240298-.08989-1.053684-.03641-1.727314-.555289-2.691105-.565531-.658837-1.458773-.855692-2.283741-1.000203-.510912-.08989-1.430325-.494982-1.911652-.257163-.142236.07055-.211647.249197-.352745.325436-.268542.147925-.662251.0842-.864795.315195-.0842.09558-.329988.91031-.341366.935344-.659975 1.480392-.903483 2.899338-1.198196 4.494657a1.6726952 1.6726952 0 0 0 .0023.327712c.690698.142236 1.388224.36071 2.060715.428983zm-6.93884.109238-.01479.0842c-.318608 1.801277-.433535 3.741376-.489291 5.56541-.02845.807901-.203682 1.606698-.184338 2.41915.01934.798797.100134 1.646524.07169 2.445321-.03072.864795-.310644 1.801277-.461983 2.654693-.0421.241232-.05917.489291-.127443.723696-.03869.136547-.211647.238957-.191166.380055.01138.07965.159305-.05576.241233-.04893.232129.01707.459706.07965.68956.119478l3.941644.695249c2.23026.39371 4.527656 1.009307 6.786363 1.176577.739627.05576 1.506564 0 2.245053.08534.480189.05689.944447.227578 1.428049.253749 1.615801.09103 3.169018.05689 4.779138.343642.20595.01365.4176-.0011.62014.03641-.0887-.153615-.0649-.386882-.0808-.534808-.0614-.589426-.0967-1.170886-.18206-1.756899-.14451-.986548.0501-1.910513.074-2.885683.0182-.743041-.23213-1.514529-.25944-2.260984-.0364-.974032.0967-2.026578.26968-2.982404-.10128-1.33588-.16727-2.622832-.35958-3.937092-.041-.286748.22644-.787419-.0523-.867071-.11834-.03414-.24351.05803-.3664.05234-.92169-.04552-1.836554-.05803-2.760519-.07738-1.285814-.02617-2.544318-.386882-3.833545-.42557a71.541289 71.541289 0 0 1-4.947536-.370952c-.993377-.103548-2.089163-.58146-3.083677-.550738-.230991.008-.452879.127444-.685008.128582-.466534.0023-.939896-.07965-1.414395-.174097a.66566443.66566443 0 0 1-.08307.02958c-.271955.08079-.435811-.03755-.525704-.155891a9.2533046 9.2533046 0 0 0-1.043505-.164973Zm1.759175-1.017272c.31747.05348.629252.16158.952412.168407.523428.01138.584874-.26399 1.176576-.134271.286748-1.686349.566668-3.206568 1.265331-4.773439.202544-.455156.16158-.829521.538221-1.231195.275369-.295851.749868-.306092 1.103752-.500671.164993-.08989.256024-.295851.432397-.364124.629252-.243508 1.219816-.03527 1.846792.07283 1.356362.235543 2.622832.460845 3.574106 1.525908.619011 1.121957.625838 1.94465.7328 3.175845.0421.482464.144512.967205.09331 1.448531-.07055.663389.0421 1.12082.07282 1.779657.0034.07851-.151339.17751-.08534.219612.07965.05007.167269-.09786.260576-.108099.193441-.02048.386882.01138.580323.01934.377779.01593.75442-.02276 1.132198-.01934.07055 0 .191166.125168.205958.05689.02617-.11834-.141098-.210509-.145649-.331125-.0091-.227578.202544-.966067.212785-1.206161.01821-.42557-.07965-.847727-.1081-1.272159.277645-1.615801.375503-3.758444-.751006-5.120496-.68956-.830658-2.066404-1.472427-3.026782-1.918479-1.179989-.547324-2.728655-1.374568-3.931402-.613321-.5496.241232-1.235747.361848-1.748934.664526-.85114.501809-1.558907 1.131061-2.224571 1.828586-.590564.617873-1.308571 1.238022-1.615801 2.086887-.246922.678181-.273093 1.531597-.390295 2.247328-.126306.77604-.240095 1.539563-.152477 2.298534z" style="mix-blend-mode:normal;fill-rule:nonzero;stroke-width:1.13789;stroke-linecap:butt;stroke-linejoin:miter;stroke-miterlimit:10;stroke-dasharray:none;stroke-dashoffset:0"/><path fill="#fff" d="M85.057526 55.78501c.117202-.715731.143374-1.572561.389157-2.250742.309506-.848865 1.027513-1.472427 1.618077-2.091438.666802-.696388 1.376844-1.331329 2.227985-1.832.513187-.303816 1.203885-.426708 1.752347-.66794 1.203885-.760109 2.761654.06714 3.942782.614459.959239.446053 2.341773 1.093511 3.030195 1.924169 1.128785 1.362052 1.029789 3.516074.751006 5.130737.02845.424432.126306.847726.109237 1.273296-.01138.241232-.224163.979722-.213922 1.208437.0046.120616.170683.212785.144511.329988-.01479.07055-.13427-.05576-.205957-.0569-.376641-.0011-.755558.03755-1.132199.02162-.193441-.0091-.389158-.03869-.581461-.01821-.09331.0091-.182062.158166-.261714.108099-.066-.04324.07396-.16158.07055-.238956-.02959-.659975-.145649-1.11513-.0751-1.778519.0512-.481327-.05234-.963791-.09444-1.445118-.108099-1.232332-.113789-2.044784-.7328-3.166742-.951274-1.065063-2.205227-1.282399-3.561589-1.517942-.625838-.1081-1.211851-.318609-1.841103-.0751-.175234.06827-.265128.273093-.430121.364124-.353884.193441-.826107.201406-1.102614.496119-.375503.401675-.333401.773764-.534807 1.227781-.699801 1.566872-.983135 3.077987-1.268745 4.764337-.591702-.129719-.67363.158167-1.198196.147926-.322022-.0068-.634942-.116065-.952412-.169546-.08762-.758971.02503-1.525907.151339-2.301947z" data-paper-data="{&quot;noHover&quot;:false,&quot;origItem&quot;:[&quot;Path&quot;,{&quot;applyMatrix&quot;:true,&quot;segments&quot;:[[[322.21982,173.83719],[-0.25618,-2.22228],[0.93105,0.15699]],[[325.0084,174.32942],[-0.9437,-0.0191],[1.53498,0.03106]],[[328.45314,173.93794],[-1.7322,-0.37954],[0.83823,-4.93636]],[[332.15839,159.96416],[-2.04658,4.58629],[0.59372,-1.33051]],[[333.732,156.35956],[-1.10037,1.17718],[0.80757,-0.86394]],[[336.96429,154.89691],[-1.03713,0.56826],[0.48392,-0.26515]],[[338.22871,153.82846],[-0.51449,0.19945],[1.84246,-0.71428]],[[343.63552,154.04264],[-1.83469,-0.31783],[3.96999,0.68774]],[[354.09861,158.50907],[-2.78353,-3.11923],[1.81337,3.28402]],[[356.24274,167.806],[-0.31526,-3.60507],[0.12338,1.41092]],[[356.5158,172.04614],[0.14966,-1.40838],[-0.20613,1.9398]],[[356.72845,177.25365],[-0.08714,-1.92663],[0.01039,0.22968]],[[356.47984,177.89702],[-0.19383,-0.12365],[0.23181,0.14788]],[[357.24186,177.58119],[-0.27344,0.02886],[0.56476,-0.05961]],[[358.94463,177.63686],[-0.56737,-0.02439],[1.10246,0.04739]],[[362.25459,177.58023],[-1.10346,-0.0072],[0.20895,0.00136]],[[362.85902,177.74648],[-0.04525,0.204],[0.0764,-0.34446]],[[362.4326,176.77767],[0.0143,0.35254],[-0.02705,-0.66702]],[[363.05549,173.2454],[-0.02953,0.7063],[0.05203,-1.24436]],[[362.7375,169.52263],[0.08149,1.24277],[0.8136,-4.72906]],[[360.53765,154.53511],[3.30279,3.98588],[-2.01605,-2.43301]],[[351.68093,148.91902],[2.80979,1.30454],[-3.45542,-1.60429]],[[340.17017,147.12339],[3.52319,-2.22711],[-1.60602,0.70446]],[[335.05056,149.06945],[1.50366,-0.8875],[-2.48895,1.46904]],[[328.54097,154.42173],[1.94975,-2.04146],[-1.72832,1.80962]],[[323.80837,160.52912],[0.90309,-2.4832],[-0.72239,1.98632]],[[322.66726,167.10818],[0.34227,-2.09529],[-0.37092,2.2707]]],&quot;closed&quot;:true}]}" style="mix-blend-mode:normal;fill-rule:nonzero;stroke-width:1.13789;stroke-linecap:butt;stroke-linejoin:miter;stroke-miterlimit:10;stroke-dasharray:none;stroke-dashoffset:0"/><path fill="#a5a5a5" d="M84.191593 59.25443c.09103.118341.254887.237819.526842.157029a.66794021.66794021 0 0 0 .08307-.03072c.474499.09558.948999.175235 1.415533.172959.232129 0 .454017-.120616.686146-.128582.994514-.03072 2.092576.444915 3.085952.5496 1.638559.170684 3.30784.31292 4.955502.369814 1.290365.03983 2.552283.401674 3.838096.428984.923965.01934 1.839956.03414 2.762786.07965.12289.0057.24806-.08762.3664-.05348.27878.07965.0114.582599.0535.869346.19231 1.314261.25944 2.605764.35957 3.940506-.17295.955826-.30495 2.012924-.26854 2.986956.0273.746455.27765 1.520218.25944 2.263259-.0239.97517-.22075 1.902549-.0762 2.889098.0853.586012.11948 1.167473.18207 1.755761.0148.149063-.009.383468.0797.535945-.20255-.03755-.41419-.02276-.62129-.03641-1.60897-.284471-3.164461-.250335-4.7814-.340228-.482465-.02617-.948999-.196855-1.430325-.252611-.73849-.08534-1.507702-.02958-2.247329-.08534-2.259845-.167269-4.565206-.785142-6.796605-1.179989-1.313122-.230992-2.628521-.466535-3.943919-.697526-.229853-.03983-.456293-.10241-.68956-.120616-.08193-.0057-.227578.129719-.241232.04893-.02048-.13996.152477-.243508.191165-.380054.06827-.235543.08534-.483603.127443-.724835.151339-.853416.430122-1.792173.460845-2.656968.02845-.79766-.05234-1.6488-.07169-2.447597-.01934-.812452.157028-1.614663.184338-2.422563.05576-1.824035.174097-3.768685.491567-5.569962l.01479-.0842c.345918.02959.694111.09331 1.044581.163856z" data-paper-data="{&quot;noHover&quot;:false,&quot;origItem&quot;:[&quot;Path&quot;,{&quot;applyMatrix&quot;:true,&quot;segments&quot;:[[[317.07081,176.81497],[1.01283,0.08745],[0,0]],[[317.02715,177.06254],[0,0],[-0.92983,5.2729]],[[315.59628,193.35335],[0.16203,-5.34125],[-0.0821,2.36463]],[[315.05647,200.43353],[-0.05663,-2.37634],[0.05577,2.34033]],[[315.26627,207.59284],[0.08258,-2.33697],[-0.08943,2.53063]],[[313.91531,215.36293],[0.44026,-2.49664],[-0.12458,0.70645]],[[313.54158,217.48229],[0.1992,-0.68914],[-0.11516,0.39841]],[[312.98156,218.59327],[-0.06161,-0.41011],[0.03564,0.23725]],[[313.68708,218.45087],[-0.23921,-0.01842],[0.68069,0.0524]],[[315.70471,218.80292],[-0.67245,-0.11789],[3.84691,0.67444]],[[327.24345,220.83767],[-3.84624,-0.67825],[6.53104,1.15169]],[[347.10985,224.28219],[-6.61315,-0.49009],[2.16676,0.16057]],[[353.6808,224.53219],[-2.16154,-0.25063],[1.4066,0.16309]],[[357.86344,225.27491],[-1.41384,-0.07866],[4.73172,0.26326]],[[371.84953,226.27779],[-4.70952,-0.83643],[0.6059,0.04063]],[[373.6692,226.38576],[-0.59618,-0.10962],[-0.26147,-0.44896]],[[373.43075,224.81741],[0.0456,0.43652],[-0.17987,-1.72192]],[[372.89707,219.6789],[0.25121,1.71529],[-0.42301,-2.8884]],[[373.1158,211.2297],[-0.07021,2.85516],[0.05349,-2.17509]],[[372.35391,204.61157],[0.0807,2.18522],[-0.10529,-2.85118]],[[373.14344,195.88115],[-0.50645,2.79726],[-0.29489,-3.91032]],[[372.09369,184.35753],[0.5622,3.84701],[-0.12267,-0.83941]],[[371.93968,181.8172],[0.81531,0.23436],[-0.34733,-0.09984]],[[370.86657,181.97163],[0.36095,0.0178],[-2.69952,-0.13314]],[[362.78405,181.74491],[2.70492,0.05603],[-3.76511,-0.07799]],[[351.56389,180.49901],[3.77487,0.11451],[-4.82486,-0.16752]],[[337.08191,179.41329],[4.79527,0.50205],[-2.90889,-0.30455]],[[328.05674,177.80164],[2.90966,-0.0907],[-0.68068,0.02122]],[[326.04829,178.17588],[0.681,-0.00324],[-1.3662,0.00651]],[[321.90838,177.6665],[1.38881,0.28047],[-0.07392,0.03311]],[[321.66647,177.75551],[0.08753,-0.02603],[-0.7963,0.23685]],[[320.12495,177.29723],[0.2659,0.3466],[-1.02131,-0.20799]]],&quot;closed&quot;:true}]}" style="mix-blend-mode:normal;fill-rule:nonzero;stroke-width:1.13789;stroke-linecap:butt;stroke-linejoin:miter;stroke-miterlimit:10;stroke-dasharray:none;stroke-dashoffset:0"/><path d="M90.950647 65.760873c-.455155-.34478-.622424-.686146-.8079-1.329053-.06258-.218474-.197993-.426708-.193441-.654285.03072-1.911652 2.423701-1.995856 3.747065-1.76714.471085.07965 1.01272.119478 1.380258.489292.46312.466534.50636 1.398464.434673 1.999269-.05689.46312-.324298.913724-.666802 1.228919-.725973.599667-.736214 1.228919-.844313 2.122161-.113789.936481-.223026 1.866136-.26399 2.809445-.01821.414191.143374 1.07189-.184338 1.426911-.793108.861382-2.258707.008-2.649003-.804486-.401674-.832934-.117202-2.187021-.130857-3.095056.110375-.72142.134271-1.456496.141098-2.184744z" style="mix-blend-mode:normal;fill-rule:nonzero;stroke-width:1.13789;stroke-linecap:butt;stroke-linejoin:miter;stroke-miterlimit:10;stroke-dasharray:none;stroke-dashoffset:0"/><g style="font-size:25.6248px;font-family:&quot;Noto Sans&quot;;-inkscape-font-specification:&quot;Noto Sans&quot;;fill:#e9e9e9;stroke:#000;stroke-width:1.28124;stroke-miterlimit:10"><path d="M75.492 45.945V27.649h3.87v15.093h7.43v3.203z" aria-label="L" style="font-weight:700" transform="rotate(10 -26.4706827 -59.80922455) scale(1.1378879)"/></g><g style="font-size:25.6248px;font-family:&quot;Noto Sans&quot;;-inkscape-font-specification:&quot;Noto Sans&quot;;fill:#e9e9e9;stroke:#000;stroke-width:1.28124;stroke-miterlimit:10"><path d="M120.32 31.236q-2.23 0-3.408 1.666-1.18 1.665-1.18 4.561 0 2.921 1.077 4.536 1.102 1.588 3.51 1.588 1.128 0 2.23-.256 1.128-.256 2.434-.717v3.254q-1.204.487-2.383.717-1.178.231-2.639.231-2.819 0-4.664-1.153-1.82-1.179-2.69-3.28-.872-2.127-.872-4.946 0-2.767 1-4.894 1-2.127 2.895-3.331 1.922-1.205 4.69-1.205 1.358 0 2.716.36 1.384.332 2.64.922l-1.256 3.152q-1.025-.487-2.076-.846-1.025-.359-2.024-.359zm23.267 15.324h-4.407l-4.792-7.713-1.64 1.178v6.535h-3.87V28.264h3.87v8.379l.768-1.076.77-1.076 4.945-6.227h4.305l-6.38 8.097z" aria-label="CK" style="font-weight:700" transform="rotate(10 -26.4706827 -59.80922455) scale(1.1378879)"/></g><path d="M19.294904 75.68782c-.172674-.02509-.546061-.138729-.546061-.625756 0-.414711.27303-.556392.460462-.605095.531302-1.301691 1.561439-2.337731 2.232947-3.570058 1.021281-1.871366 1.866938-3.847517 3.015142-5.646567 1.186576-1.855131 2.542873-3.657133 3.539066-5.624428.405856-.568199.714307-1.204286 1.120163-1.766582.380767-.528351.919449-.947489 1.289885-1.47584.230231-.329113.343871-.72759.562295-1.062605.194811-.29812.454559-.549013.650846-.844181.438324-.655274.575578-1.475841 1.675079-1.607191.366008-.04427.501786.56082.628708.906166.01035.02657.0059 1.055226.0044 1.254465l-.0074 3.015142c-.01035 3.636472.122495 7.315742-.0974 10.943359-.05903.977006-.191859 1.962868-.206617 2.94135-.144633.448656-.329113.900263-.383719 1.371056-.171198 1.443372.04575 2.833614-.427994 4.24009l-.305499.197763a.65232156.65232156 0 0 1-.355677.230231l-.003.0015h-.0044c-.31874.069345-.575537-.187453-.575537-.187453-.314354-.324685-.708403-.695121-1.155583-.820567-.678886-.187432-1.086218-.208094-1.664748-.621329l-.04722-.03394-.01771.177101c-.05313 1.015378-.05313 1.943682-.309926 2.938398-.06642.615426-.05018 1.242658-.140205 1.853656-.04428.309927.04722.693645-.162343.923877-.212521.233182-.596239.213996-.909118.256796-.461938.06494-1.01833-.174149-1.471413-.256796-.637563-.118068-1.343015-.154964-1.962868-.351251-.302547-.09446-.671507-.09888-.892883-.32616-.332064-.339444-.268603-1.129018-.267127-1.549633.0015-.988813.132825-2.029281.417662-2.975295.09298-.364532.165295-.718734.277458-1.07146a6.7445917 6.7445917 0 0 1-.410283.02952c-1.115736.06051-2.538446.28041-3.549397-.258272zm1.490599-.962248c.770388.003 1.682458.07822 2.436612-.07674.5254-.107735 1.040468-.57115 1.588005.147584.199238.259748-.0856.64937-.154963.971103-.112162.516544-.327637 1.038992-.457511 1.559964a9.3184578 9.3184578 0 0 0-.373388 2.638803c0 .188907.01771.379291-.0044.566723-.0059.04427-.118068.09298-.07527.109214.08412.03394.178577-.03985.268603-.03246.28041.02361.553441.09298.829423.138729.509165.08707 1.019806.191859 1.526019.301072.188908.03985.399953.01476.585909.05165.003-.14168.05018-.284837.05755-.427993.02657-.50031.05165-.988814.110683-1.487648a9.2092455 9.2092455 0 0 0 .286313-2.258036c0-.349774.03394-.698073.05165-1.046371.01036-.193335-.06198-.398477.0059-.581481.126923-.335016.216949-.810237.559344-.917973.498834-.157915.848608.450131 1.155583.711355.569675.485552.906166.439801 1.630804.662653.361581.112161.693645.311402 1.00062.547536.264175-1.514212.0089-3.099265.554916-4.589864-.0074-.498834.09446-.969627.123971-1.468461.08264-1.337112.08855-2.68603.140205-4.029045.104788-2.719975.01476-5.460611.02214-8.185012l.0089-2.821808c-.230231.302548-.497358.581481-.634611.792527-.230231.352726-.357154.767437-.597716 1.114259-.366008.528351-.907642.940111-1.283981 1.46551-.383718.538682-.677411 1.148204-1.068509 1.689838-.988813 1.974674-2.359869 3.781103-3.546445 5.637711-1.136397 1.778388-1.965819 3.736828-2.979722 5.584581-.211045.38667-.398477.786623-.640515 1.154107-.472269.718735-1.083267 1.31645-1.446323 2.088315.09446-.003.199238-.01036.320257-.01036z" style="mix-blend-mode:normal;fill-rule:nonzero;stroke-width:1.47584;stroke-linecap:butt;stroke-linejoin:miter;stroke-miterlimit:10;stroke-dasharray:none;stroke-dashoffset:0"/><path fill="#e9e9e9" d="M20.459342 74.741806c.363057-.771864.974055-1.36958 1.446324-2.088314.242037-.36896.429469-.767437.640514-1.154108 1.013903-1.849228 1.844801-3.819475 2.981199-5.596387 1.188051-1.856608 2.563535-3.664513 3.553824-5.639187.391098-.541634.68479-1.151156 1.069984-1.689838.374864-.525399.915021-.937159 1.283982-1.46551.239086-.346822.366008-.761533.596239-1.114259.137253-.211045.404381-.488503.634612-.791051l-.0074 2.821807c-.0074 2.722926.0856 5.469466-.01918 8.190916-.05165 1.341539-.05756 2.693409-.140205 4.031997-.02952.498834-.132826.971103-.125447 1.469937-.546061 1.489123-.292216 3.078603-.556392 4.592816a3.20405 3.20405 0 0 0-1.00062-.547537c-.724638-.224328-1.062606-.177101-1.63228-.662652-.306975-.261224-.658225-.867795-1.157059-.711356-.342395.109215-.433897.582957-.56082.919449-.06642.180053.0044.38667-.0044.580005-.0177.348299-.05165.696597-.05165 1.046371a9.2121972 9.2121972 0 0 1-.287789 2.258037c-.05903.498834-.08412.988813-.110683 1.487647-.0074.143157-.05461.286313-.05609.427994-.187432-.0369-.398477-.01181-.587385-.05165-.506213-.109214-1.01833-.213997-1.527495-.299596-.275982-.04722-.550488-.116591-.829422-.140204-.09003-.0074-.18448.06641-.268603.03394-.04133-.01624.06937-.06641.07379-.110683.02361-.187431.0044-.377815.0059-.566722a9.2830376 9.2830376 0 0 1 .371912-2.638803c.13135-.519496.349774-1.058178.461938-1.574722.06937-.321734.349774-.696597.150536-.957821-.546061-.715783-1.062606-.253845-1.588005-.146108-.75563.154963-1.6677.07822-2.438089.07527-.121019 0-.227279.0074-.321733.01036z" data-paper-data="{&quot;noHover&quot;:false,&quot;origItem&quot;:[&quot;Path&quot;,{&quot;applyMatrix&quot;:true,&quot;segments&quot;:[[[221.12258,106.59626],[-0.35515,-0.00095],[2.25242,0.00601]],[[228.25494,106.3724],[-2.21102,0.45294],[1.53688,-0.31484]],[[232.90017,106.79932],[-1.60292,-2.0985],[0.58304,0.76331]],[[232.44737,109.64505],[0.20385,-0.93863],[-0.32867,1.51335]],[[231.10535,114.21007],[0.38498,-1.52158],[-0.75085,2.45204]],[[230.01581,121.93569],[0.01091,-2.55951],[-0.00236,0.55328]],[[230.00206,123.59549],[0.06482,-0.54948],[-0.01521,0.12891]],[[229.78211,123.91684],[-0.12067,-0.04783],[0.2455,0.09731]],[[230.56843,123.81999],[-0.26313,-0.02244],[0.81762,0.06973]],[[232.99622,124.22757],[-0.80902,-0.13733],[1.4929,0.25342]],[[237.46571,125.10547],[-1.48162,-0.3176],[0.54964,0.11782]],[[239.18055,125.25997],[-0.54552,-0.11171],[0.00823,-0.41642]],[[239.34672,124.0041],[-0.02216,0.41924],[0.07729,-1.46223]],[[239.66985,119.65177],[-0.17061,1.45944],[0.55338,-2.21417]],[[240.5098,113.03771],[-0.00586,2.28277],[0.00262,-1.02107]],[[240.66214,109.97828],[-0.05099,1.0198],[0.02832,-0.56635]],[[240.67897,108.27717],[-0.19971,0.53073],[0.3692,-0.98117]],[[242.31334,105.59017],[-0.9996,0.31595],[1.4606,-0.46166]],[[245.6988,107.67194],[-0.89709,-0.76335],[1.66875,1.41997]],[[250.47197,109.61085],[-2.11972,-0.65389],[1.05828,0.32646]],[[253.39966,111.21552],[-0.89333,-0.6916],[0.77377,-4.43316]],[[255.02435,97.78042],[-1.59776,4.35757],[-0.02035,-1.46311]],[[255.39038,93.48132],[-0.08988,1.45993],[0.24118,-3.91764]],[[255.79811,81.68886],[-0.15248,3.9301],[0.30896,-7.96358]],[[255.86544,57.72682],[-0.02273,7.97018],[0.00785,-2.75324]],[[255.88899,49.4671],[-0.00785,2.75324],[-0.67418,0.88592]],[[254.03183,51.78449],[0.40142,-0.61626],[-0.67329,1.03364]],[[252.28191,55.04537],[0.70286,-1.01377],[-1.07229,1.54661]],[[248.52738,59.33541],[1.09795,-1.53725],[-1.12822,1.57962]],[[245.39534,64.28248],[1.14604,-1.58479],[-2.89508,5.7809]],[[235.0134,80.7891],[3.47481,-5.43527],[-3.32669,5.20359]],[[226.29381,97.13551],[2.96481,-5.41202],[-0.61875,1.12948]],[[224.41687,100.51255],[0.70844,-1.0755],[-1.38657,2.10498]],[[220.18059,106.62553],[1.06363,-2.26076],[0.27953,-0.00992]]],&quot;closed&quot;:true}]}" style="mix-blend-mode:normal;fill-rule:nonzero;stroke-width:1.47584;stroke-linecap:butt;stroke-linejoin:miter;stroke-miterlimit:10;stroke-dasharray:none;stroke-dashoffset:0"/><g stroke-width=".5" style="mix-blend-mode:normal;fill-rule:nonzero;stroke-linecap:butt;stroke-linejoin:miter;stroke-miterlimit:10;stroke-dasharray:none;stroke-dashoffset:0"><path d="M23.71740068 65.49688214c-.85796748-1.77396724-.69980106-4.31373303-.24350801-6.15597354.15247698-.6212868.53025576-1.19023074.75100601-1.78875978.4517415-1.74438215 2.19953731-2.44987265 3.76413318-3.0563669 1.14130156-.4415005 2.68655333-1.00134135 3.92798903-.91486187 2.0026827.1410981 3.7516164 1.79103556 4.85650555 3.319219.68500852.5643924 1.12650903 1.12423325 1.7022803 1.78079457.14564965.16499374.39257133.27081732.52115266.44036262l.5359452-.5268421c.35046947-.34136637.96037739-1.2232295 1.46446173-1.33360462.75897123-.16726952.98085937.35274525 1.47925427.7054905 1.14471523.81245196 2.16767645 1.70000452 3.25094573 2.61259062.55984085.75897123 1.1947823 1.56800952 1.9002728 2.1995373.5723576.51091167 1.3062953.87276003 1.84679205 1.41325678.52797999.52797998.94444696 1.18112764 1.52021824 1.67838465.69411162.60080481 1.52476978 1.05823575 2.21319196 1.66814366.22075026.19571672.5837365.33340116.62583835.62470046.07168694.5166011-.72824826 1.1196817-1.02296122 1.3916369-1.30401954.95355006-2.3417733 2.08461063-3.5172115 3.17129358-.03641241.03413664-1.19933385.87617368-1.20274751.87958735-.56894395.46767192-1.05595997 1.05823574-1.60442194 1.54752754-1.7113834 1.53045923-3.76527106 2.77758436-5.62002834 4.13167096-1.07757984.78628054-2.1540218 1.57483686-3.23273952 2.3599795-.28105831.20481983-1.1196817.89893145-1.51111513.78855632-.50408434-.1410981-1.27671023-1.54070021-1.59304306-1.9742355-.7896942-1.0809935-1.70000453-2.07436964-2.63989993-3.04157436.07168694-.22871547.12061611-.46880981.14337387-.71686938.06372173-.06372172.121754-.13427077.17182108-.20823348.05234284.05234284.10582357.1035478.16044219.15361486.59056382.54049676 1.25736613 1.06961463 1.81265542 1.64311013.6030806.6212868 1.08326929 1.47356483 1.59418095 2.1733659.14451177.1968546.3106434.38119244.4323974.59283959.07168694.12289189.02617143.3186086.142236.40167443.06713538.0466534.07054904-.15361487.13199499-.20823349.17409685-.15475275.375503-.27536887.5643924-.4130533 1.07644195-.78741843 2.15515968-1.57369897 3.23273952-2.35997951 1.82972374-1.3358804 3.8654052-2.56479933 5.55175506-4.07705235.55301352-.49498123 1.0434432-1.08554505 1.61693871-1.55890642.37322723-.30722973.81927929-.52342844 1.17316243-.85341593 1.18567919-1.10375126 2.2370876-2.24619071 3.55817546-3.20770599.15361487-.13882232.29016141-.30154029.45743093-.4221564-.17182107-.04210186-.32429805-.22075026-.44263839-.31291918-.46653404-.36412413-.91031032-.74076502-1.3916369-1.08554506-.81131407-.57918494-1.34270772-1.36091392-2.02885413-2.05388766-.52342843-.52797998-1.25281457-.88186312-1.80924176-1.37912013-.72824825-.6485961-1.39505056-1.47470272-1.96399451-2.26098326-1.03320222-.85341592-2.00609637-1.69772874-3.08595199-2.46921674-.2355428-.1695453-.41191542-.71004205-.66225076-.5643924-.10696146.06144595-.12630555.2161987-.2161987.3004024-.67135386.63380357-1.3153984 1.28467545-1.96854606 1.93668521-.91144821.90917243-2.04250878 1.56573375-2.96419798 2.46921675a63.59427896 63.59427896 0 0 1-2.66720924 2.43052855 4.5140013 4.5140013 0 0 0-.19571672-1.15836988 52.9732333 52.9732333 0 0 0 2.16426279-1.99130383c.18092417-.17523473.375503-.33226326.57690916-.48246447a.9216892.9216892 0 0 0-.02048198-.01137888c-.64745822-.37777878-1.07757984-.80562463-1.5418381-1.3734307-.26171422-.32088438-.63835512-.52911787-.9603774-.7896942-.82155506-.66566442-1.26988289-1.17202453-2.32470497-1.4655996-.86707058-.04892919-1.6271797.4597067-2.304223.95355005-.41874275.30609185-1.34839716.68842218-1.50997724 1.19819596-.04892918.15361487.03186086.32657383-.010241.48132658-.07965215.29585086-.39826076.53480731-.37208934.84089916.00568944.05917017.09672047.24805956.19344095.43694895a11.30605417 11.30605417 0 0 0-.70890417.77831533c-.1877515-.41646697-.45743093-.65087188-.48474024-1.17202454-.02275776-.40281232.29926452-.7521439.4050881-1.14243945.04892917-.18206207-.0375503-.39029555.03527452-.5643924.26171421-.62242468.82041717-.903483 1.33360461-1.28012389 1.1094407-.81472773 2.15060814-1.57256108 3.57638167-1.51908034 1.23802204.32998749 1.83541319.89665566 2.79806635 1.6726952.375503.30381608.79652153.56666818 1.10830282.93648175.42898373.50977378.83748549.74531657 1.33246673 1.18112764.05917017.05120496.02275775.23099124.10013413.21278504.09103103-.02275776.04551552-.1877515.10240991-.26171422.11947823-.15361487.27650676-.2730931.41646697-.40622598.2730931-.26171422.507498-.55870296.77035011-.82952028.05006707-.05006707.22302603-.05006707.18319995-.10923724-.0659975-.10013413-.24919745-.04437763-.33909059-.12402978-.17068319-.15133909-.5552893-.81472773-.72255882-.98996247-.29357507-.30722973-.6668023-.52911787-.99223825-.80334886-.97175626-1.31994996-2.44759687-2.87544272-4.21132311-3.00629983-1.07644196-.07965215-2.4931124.46880981-3.4796612.85114015-1.2129885.47108559-2.88227005 1.014996-3.16787992 2.41004657-.2070956.56211662-.59511537 1.14130156-.7327998 1.7216244-.22757758.96037738-.26399 1.90710011-.22302603 2.86975328.03641241.85341592-.01365466 1.80127654.38346822 2.61145273.02617142.05348073.05461862.10696146.0842037.1593043-.12971921.22757758-.22757757.4232943-.2821962.57121973a3.40228482 3.40228482 0 0 0-.23895645.48701602 5.80891773 5.80891773 0 0 1-.45515516-.76352278z"/><path fill="#fff" d="M24.60153958 65.05196797c-.39826077-.81017618-.34933159-1.76145047-.38688189-2.61600428-.03982607-.96379105-.00455155-1.91506534.22302603-2.87658061.13768444-.58032283.52797999-1.16292144.7339377-1.72503806.28674775-1.39505056 1.96171874-1.9457883 3.17470724-2.41573601.9865488-.38346822 2.41232234-.9307923 3.4887643-.85114015 1.76372624.12971922 3.24639418 1.6931772 4.21815044 3.01312716.32543594.2730931.69866317.49725701.99337614.80448675.16726952.17523473.55187563.84089915.72255882.99223824.09103103.07965216.2730931.02275776.3390906.12516767.03982607.05803229-.13427078.0568944-.18319996.10923724-.2628521.26967943-.49725701.56894395-.7703501.82952028-.13996022.13427077-.29698875.253749-.41646698.40622598-.0568944.0751006-.01137888.24123224-.10240991.2628521-.0762385.0193441-.0659975-.16385585-.12516767-.2161987-.49498124-.43353529-.903483-.6679402-1.33132884-1.17771397-.31291918-.36981357-.73279981-.62925201-1.1094407-.93306808-.96265317-.77603955-1.5520791-1.3358804-2.79010114-1.66586789-1.42691142-.05348073-2.4532863.69980106-3.56158912 1.5145288-.51318745.3766409-1.06961463.65200977-1.33132885 1.27443445-.07282482.17409685.01365466.38119244-.03527452.5632545-.10582358.38915767-.42784585.7350756-.40622598 1.1378879.0273093.52115267.29585085.75100602.48246447 1.1663351-.66338865.78741843-1.34953505 1.75803681-1.7398306 2.44190744a3.20315444 3.20315444 0 0 1-.08647948-.16385586z" data-paper-data="{&quot;noHover&quot;:false,&quot;origItem&quot;:[&quot;Path&quot;,{&quot;applyMatrix&quot;:true,&quot;segments&quot;:[[[322.21982,173.83719],[-0.25618,-2.22228],[0.93105,0.15699]],[[325.0084,174.32942],[-0.9437,-0.0191],[1.53498,0.03106]],[[328.45314,173.93794],[-1.7322,-0.37954],[0.83823,-4.93636]],[[332.15839,159.96416],[-2.04658,4.58629],[0.59372,-1.33051]],[[333.732,156.35956],[-1.10037,1.17718],[0.80757,-0.86394]],[[336.96429,154.89691],[-1.03713,0.56826],[0.48392,-0.26515]],[[338.22871,153.82846],[-0.51449,0.19945],[1.84246,-0.71428]],[[343.63552,154.04264],[-1.83469,-0.31783],[3.96999,0.68774]],[[354.09861,158.50907],[-2.78353,-3.11923],[1.81337,3.28402]],[[356.24274,167.806],[-0.31526,-3.60507],[0.12338,1.41092]],[[356.5158,172.04614],[0.14966,-1.40838],[-0.20613,1.9398]],[[356.72845,177.25365],[-0.08714,-1.92663],[0.01039,0.22968]],[[356.47984,177.89702],[-0.19383,-0.12365],[0.23181,0.14788]],[[357.24186,177.58119],[-0.27344,0.02886],[0.56476,-0.05961]],[[358.94463,177.63686],[-0.56737,-0.02439],[1.10246,0.04739]],[[362.25459,177.58023],[-1.10346,-0.0072],[0.20895,0.00136]],[[362.85902,177.74648],[-0.04525,0.204],[0.0764,-0.34446]],[[362.4326,176.77767],[0.0143,0.35254],[-0.02705,-0.66702]],[[363.05549,173.2454],[-0.02953,0.7063],[0.05203,-1.24436]],[[362.7375,169.52263],[0.08149,1.24277],[0.8136,-4.72906]],[[360.53765,154.53511],[3.30279,3.98588],[-2.01605,-2.43301]],[[351.68093,148.91902],[2.80979,1.30454],[-3.45542,-1.60429]],[[340.17017,147.12339],[3.52319,-2.22711],[-1.60602,0.70446]],[[335.05056,149.06945],[1.50366,-0.8875],[-2.48895,1.46904]],[[328.54097,154.42173],[1.94975,-2.04146],[-1.72832,1.80962]],[[323.80837,160.52912],[0.90309,-2.4832],[-0.72239,1.98632]],[[322.66726,167.10818],[0.34227,-2.09529],[-0.37092,2.2707]]],&quot;closed&quot;:true}]}"/><path fill="#a5a5a5" d="M36.09306948 62.92525549c.9216892-.9023451 2.0595771-1.5611822 2.96988742-2.46921675.65314765-.65314765 1.29946798-1.30401953 1.97082184-1.9378231.09103103-.0842037.11037513-.23895645.2161987-.3004024.25033534-.14564965.42784585.3948471.66338865.56325451 1.0809935.77376378 2.05843921 1.61921449 3.09050353 2.47263041.56894395.78628054 1.23915993 1.61466293 1.9662703 2.26439692.55756507.49611913 1.2880891.85341593 1.81151753 1.38025802.6861464.69411162 1.21754006 1.47811639 2.02999202 2.05730133.48132658.34478003.92510286.7236967 1.3916369 1.08668294.11834034.09216892.27081732.27081732.44377628.31291917-.16840741.12061612-.30495396.28447198-.45856882.4232943-1.31994997.96151528-2.37363416 2.1073684-3.55817547 3.21111966-.35388313.32998749-.80107308.54732408-1.17430031.8556917-.5734955.47222348-1.06620096 1.06620096-1.61921448 1.5611822-1.68634987 1.5133909-3.72999654 2.7457235-5.55972028 4.0816039-1.07757984.78628053-2.15971124 1.57142318-3.23729108 2.3599795-.1877515.13654655-.39029555.25830055-.5643924.4130533-.06144594.05461863-.0648596.2548869-.131995.2070956-.11606456-.08192792-.07054904-.27764464-.1410981-.40053654-.12289188-.21278503-.2901614-.39598499-.43467317-.59397748-.50977378-.69980106-.99337614-1.5520791-1.59531884-2.17336589-.55642718-.5734955-1.22550526-1.10488915-1.8149312-1.6453859a5.48461968 5.48461968 0 0 1-.1593043-.15247698c.39939865-.57577128.40053654-1.410981.45515516-2.04819822.18547573-2.12216093.80448674-3.54110715.57577128-5.8498817 0-.26171421-.02958509-.51773899-.0853416-.76352278a3.39090594 3.39090594 0 0 0 .18433784-1.1094407 5.95115372 5.95115372 0 0 0 .1035478-1.37912013 64.00164282 64.00164282 0 0 0 2.66265769-2.4271149z" data-paper-data="{&quot;noHover&quot;:false,&quot;origItem&quot;:[&quot;Path&quot;,{&quot;applyMatrix&quot;:true,&quot;segments&quot;:[[[317.07081,176.81497],[1.01283,0.08745],[0,0]],[[317.02715,177.06254],[0,0],[-0.92983,5.2729]],[[315.59628,193.35335],[0.16203,-5.34125],[-0.0821,2.36463]],[[315.05647,200.43353],[-0.05663,-2.37634],[0.05577,2.34033]],[[315.26627,207.59284],[0.08258,-2.33697],[-0.08943,2.53063]],[[313.91531,215.36293],[0.44026,-2.49664],[-0.12458,0.70645]],[[313.54158,217.48229],[0.1992,-0.68914],[-0.11516,0.39841]],[[312.98156,218.59327],[-0.06161,-0.41011],[0.03564,0.23725]],[[313.68708,218.45087],[-0.23921,-0.01842],[0.68069,0.0524]],[[315.70471,218.80292],[-0.67245,-0.11789],[3.84691,0.67444]],[[327.24345,220.83767],[-3.84624,-0.67825],[6.53104,1.15169]],[[347.10985,224.28219],[-6.61315,-0.49009],[2.16676,0.16057]],[[353.6808,224.53219],[-2.16154,-0.25063],[1.4066,0.16309]],[[357.86344,225.27491],[-1.41384,-0.07866],[4.73172,0.26326]],[[371.84953,226.27779],[-4.70952,-0.83643],[0.6059,0.04063]],[[373.6692,226.38576],[-0.59618,-0.10962],[-0.26147,-0.44896]],[[373.43075,224.81741],[0.0456,0.43652],[-0.17987,-1.72192]],[[372.89707,219.6789],[0.25121,1.71529],[-0.42301,-2.8884]],[[373.1158,211.2297],[-0.07021,2.85516],[0.05349,-2.17509]],[[372.35391,204.61157],[0.0807,2.18522],[-0.10529,-2.85118]],[[373.14344,195.88115],[-0.50645,2.79726],[-0.29489,-3.91032]],[[372.09369,184.35753],[0.5622,3.84701],[-0.12267,-0.83941]],[[371.93968,181.8172],[0.81531,0.23436],[-0.34733,-0.09984]],[[370.86657,181.97163],[0.36095,0.0178],[-2.69952,-0.13314]],[[362.78405,181.74491],[2.70492,0.05603],[-3.76511,-0.07799]],[[351.56389,180.49901],[3.77487,0.11451],[-4.82486,-0.16752]],[[337.08191,179.41329],[4.79527,0.50205],[-2.90889,-0.30455]],[[328.05674,177.80164],[2.90966,-0.0907],[-0.68068,0.02122]],[[326.04829,178.17588],[0.681,-0.00324],[-1.3662,0.00651]],[[321.90838,177.6665],[1.38881,0.28047],[-0.07392,0.03311]],[[321.66647,177.75551],[0.08753,-0.02603],[-0.7963,0.23685]],[[320.12495,177.29723],[0.2659,0.3466],[-1.02131,-0.20799]]],&quot;closed&quot;:true}]}"/><path d="M37.23095738 69.55800406c-.56553029.08989314-.92737864-.02730931-1.51794246-.3390906-.20140616-.10582357-.44605206-.15247698-.60763214-.31405706-1.35636237-1.34725927.24123224-3.12919172 1.32336363-3.92571325.38460611-.2833341.78855632-.64632033 1.31084686-.65542343.65656132-.01137888 1.35750027.60308058 1.74096849 1.0718904.29585085.36184835.43467318.86707058.42443218 1.33246673-.07168693.93875752.37550301 1.3813959.94444696 2.08005908.59625326.73166192 1.19136863 1.45422074 1.84224051 2.13695348.28560986.3004024.87162213.639493.90120722 1.12195746.07054905 1.16861088-1.55890642 1.63400703-2.41573601 1.35294872-.87958735-.28902353-1.65904056-1.43260087-2.32129132-2.05274977-.44491417-.57804706-.95696372-1.10488915-1.47925427-1.61580082z"/></g><g style="font-size:4.629px;font-family:&quot;Noto Sans&quot;;-inkscape-font-specification:&quot;Noto Sans&quot;;fill:#1b5341;stroke-width:.116;stroke-miterlimit:10"><path d="M17.795 10.096q0 .532-.111.916-.111.38-.352.584-.24.203-.639.203-.56 0-.828-.449-.264-.453-.264-1.254 0-.537.106-.917.111-.38.352-.578.24-.204.634-.204.556 0 .829.449.273.444.273 1.25zm-1.787 0q0 .68.153 1.018.157.338.532.338.37 0 .528-.333.162-.338.162-1.023 0-.676-.162-1.014-.157-.338-.528-.338-.375 0-.532.338-.153.338-.153 1.014zm2.902 1.171q-.06.245-.175.537-.111.296-.223.546h-.3q.064-.264.13-.578.069-.315.101-.556h.435zm2.773-1.171q0 .532-.11.916-.112.38-.353.584-.24.203-.638.203-.56 0-.829-.449-.264-.453-.264-1.254 0-.537.107-.917.11-.38.351-.578.241-.204.635-.204.555 0 .828.449.273.444.273 1.25zm-1.786 0q0 .68.152 1.018.158.338.533.338.37 0 .527-.333.162-.338.162-1.023 0-.676-.162-1.014-.157-.338-.527-.338-.375 0-.533.338-.152.338-.152 1.014z" aria-label="0,0" style="stroke-width:.115736" transform="rotate(13.209 28.31794016 -65.67554278) scale(1.45952382)"/></g><g style="font-size:6.412px;font-family:&quot;Noto Sans&quot;;-inkscape-font-specification:&quot;Noto Sans&quot;;fill:#1b5341;stroke-width:.16;stroke-miterlimit:10"><path d="M36.04 41.172q0 .737-.153 1.27-.154.525-.488.807-.333.282-.885.282-.775 0-1.147-.622Q33 42.281 33 41.172q0-.744.148-1.27.154-.526.487-.802.333-.282.878-.282.77 0 1.148.622.378.616.378 1.732zm-2.475 0q0 .942.212 1.41.218.468.737.468.513 0 .731-.461.225-.469.225-1.417 0-.937-.225-1.405-.218-.468-.73-.468-.52 0-.738.468-.212.468-.212 1.405zm4.021 1.622q-.084.34-.244.744-.154.41-.308.756h-.416q.09-.365.18-.801.095-.436.14-.77h.603zm3.841-1.622q0 .737-.154 1.27-.154.525-.488.807-.333.282-.885.282-.775 0-1.147-.622-.366-.628-.366-1.737 0-.744.148-1.27.154-.526.487-.802.333-.282.878-.282.77 0 1.148.622.379.616.379 1.732zm-2.475 0q0 .942.211 1.41.218.468.737.468.513 0 .731-.461.225-.469.225-1.417 0-.937-.225-1.405-.218-.468-.73-.468-.52 0-.738.468-.211.468-.211 1.405z" aria-label="0,0" style="stroke-width:.160301" transform="matrix(.98617682 -.7811298 .7811298 .98617682 -21.07394065 -.11719984)"/></g><g style="font-size:7.973px;font-family:&quot;Noto Sans&quot;;-inkscape-font-specification:&quot;Noto Sans&quot;;fill:#1b5341;stroke-width:.199;stroke-miterlimit:10"><path d="M99.806 44.232q0 .917-.191 1.578-.192.654-.606 1.005-.415.35-1.1.35-.965 0-1.428-.773-.454-.781-.454-2.16 0-.925.183-1.579.191-.654.606-.997.415-.35 1.092-.35.957 0 1.427.773.47.765.47 2.153zm-3.078 0q0 1.172.263 1.754.271.582.917.582.638 0 .91-.574.278-.582.278-1.762 0-1.164-.279-1.746-.27-.582-.909-.582-.646 0-.917.582-.263.582-.263 1.746zm4.999 2.017q-.103.422-.303.925-.191.51-.382.94h-.519q.112-.454.224-.996.12-.542.175-.957h.75zm4.776-2.017q0 .917-.191 1.578-.192.654-.606 1.005-.415.35-1.1.35-.965 0-1.428-.773-.454-.781-.454-2.16 0-.925.183-1.579.192-.654.606-.997.415-.35 1.093-.35.956 0 1.427.773.47.765.47 2.153zm-3.077 0q0 1.172.263 1.754.27.582.917.582.637 0 .909-.574.279-.582.279-1.762 0-1.164-.28-1.746-.27-.582-.908-.582-.646 0-.917.582-.263.582-.263 1.746z" aria-label="0,0" style="stroke-width:.199332" transform="rotate(-3.974062 -144.97099512 525.90105753) scale(1.4464238)"/></g><g style="font-size:7.38px;font-family:&quot;Sans Serif&quot;;fill:#1b5341;stroke-width:.184;stroke-miterlimit:10"><path d="M120.53-62.773q0 .849-.176 1.461-.178.605-.561.93-.384.325-1.019.325-.893 0-1.32-.716-.421-.723-.421-2 0-.856.17-1.461.176-.605.56-.923.384-.325 1.011-.325.886 0 1.321.716.436.709.436 1.993zm-2.848 0q0 1.085.244 1.624.25.538.848.538.59 0 .842-.531.258-.539.258-1.631 0-1.078-.258-1.616-.251-.539-.842-.539-.597 0-.848.539-.244.538-.244 1.616zm4.628 1.867q-.097.391-.281.856-.177.472-.354.871h-.48q.103-.42.207-.922.11-.502.162-.886h.694zm4.42-1.867q0 .849-.177 1.461-.177.605-.561.93-.384.325-1.019.325-.892 0-1.32-.716-.421-.723-.421-2 0-.856.17-1.461.177-.605.56-.923.384-.325 1.011-.325.886 0 1.322.716.435.709.435 1.993zm-2.849 0q0 1.085.244 1.624.25.538.848.538.59 0 .842-.531.258-.539.258-1.631 0-1.078-.258-1.616-.251-.539-.842-.539-.597 0-.848.539-.244.538-.244 1.616z" aria-label="0,0" style="font-family:&quot;Noto Sans&quot;;-inkscape-font-specification:&quot;Noto Sans&quot;;stroke-width:.184499" transform="scale(1.28344432) rotate(32.74 -11.1433788 -40.84534152)"/></g><g style="font-size:7.029px;font-family:&quot;Noto Sans&quot;;-inkscape-font-specification:&quot;Noto Sans&quot;;fill:#1b5341;stroke-width:.176;stroke-miterlimit:10"><path d="M115.355 88.953q0 .808-.169 1.391-.168.577-.534.886-.365.31-.97.31-.85 0-1.258-.683-.4-.688-.4-1.904 0-.816.161-1.392.169-.577.534-.879.366-.309.963-.309.844 0 1.258.682.415.675.415 1.898zm-2.713 0q0 1.033.232 1.546.239.513.808.513.563 0 .802-.506.246-.513.246-1.553 0-1.027-.246-1.54-.24-.513-.802-.513-.57 0-.808.513-.232.513-.232 1.54zm4.408 1.778q-.092.372-.268.815-.169.45-.337.83h-.457q.098-.4.197-.879.105-.478.154-.843h.66zm4.21-1.778q0 .808-.17 1.391-.168.577-.533.886-.366.31-.97.31-.85 0-1.259-.683-.4-.688-.4-1.904 0-.816.161-1.392.17-.577.535-.879.365-.309.963-.309.843 0 1.258.682.415.675.415 1.898zm-2.714 0q0 1.033.232 1.546.24.513.809.513.562 0 .8-.506.247-.513.247-1.553 0-1.027-.246-1.54-.24-.513-.801-.513-.57 0-.809.513-.232.513-.232 1.54z" aria-label="0,0" style="stroke-width:.175715" transform="scale(1.4857194) rotate(-19.3869996 -49.0535202 111.44777245)"/></g><g style="font-size:6.412px;font-family:&quot;Noto Sans&quot;;-inkscape-font-specification:&quot;Noto Sans&quot;;fill:#1b5341;stroke-width:.16;stroke-miterlimit:10"><path d="M37.315 31.807q0 .737-.153 1.27-.154.525-.488.807-.333.282-.885.282-.775 0-1.147-.622-.366-.628-.366-1.737 0-.744.148-1.27.154-.526.487-.802.333-.282.878-.282.77 0 1.148.622.378.616.378 1.732zm-2.475 0q0 .942.212 1.41.218.468.737.468.513 0 .731-.461.225-.469.225-1.417 0-.937-.225-1.405-.218-.468-.73-.468-.52 0-.738.468-.212.468-.212 1.405zm4.02 1.622q-.083.34-.243.744-.154.41-.308.756h-.416q.09-.365.18-.801.095-.436.14-.77h.603zm3.842-1.622q0 .737-.154 1.27-.154.525-.488.807-.333.282-.885.282-.775 0-1.147-.622-.366-.628-.366-1.737 0-.744.148-1.27.154-.526.487-.802.333-.282.878-.282.77 0 1.148.622.379.616.379 1.732zm-2.475 0q0 .942.211 1.41.218.468.737.468.513 0 .731-.461.225-.469.225-1.417 0-.937-.225-1.405-.218-.468-.73-.468-.52 0-.738.468-.211.468-.211 1.405z" aria-label="0,0" style="stroke-width:.160301" transform="rotate(23.2700007 3.8752809 -39.9514511) scale(1.2934783)"/></g><g style="font-size:6.412px;font-family:&quot;Noto Sans&quot;;-inkscape-font-specification:&quot;Noto Sans&quot;;fill:#113a2d;stroke-width:.16;stroke-miterlimit:10"><path d="M40.94 84.196q0 .737-.153 1.27-.154.525-.488.807-.333.282-.885.282-.775 0-1.147-.622-.366-.628-.366-1.737 0-.744.148-1.27.154-.526.487-.802.333-.282.878-.282.77 0 1.148.622.378.616.378 1.732zm-2.475 0q0 .942.212 1.41.218.468.737.468.513 0 .731-.461.225-.469.225-1.417 0-.937-.225-1.405-.218-.468-.73-.468-.52 0-.738.468-.212.468-.212 1.405zm4.021 1.622q-.084.34-.244.744-.154.41-.308.756h-.416q.09-.365.18-.801.095-.436.14-.77h.603zm3.841-1.622q0 .737-.154 1.27-.154.525-.488.807-.333.282-.885.282-.775 0-1.147-.622-.366-.628-.366-1.737 0-.744.148-1.27.154-.526.487-.802.333-.282.878-.282.77 0 1.148.622.379.616.379 1.732zm-2.475 0q0 .942.211 1.41.218.468.737.468.513 0 .731-.461.225-.469.225-1.417 0-.937-.225-1.405-.218-.468-.73-.468-.52 0-.738.468-.211.468-.211 1.405z" aria-label="0,0" style="stroke-width:.160301" transform="rotate(-18.1530003 18.18070876 40.20786428) scale(1.17734103)"/></g><g style="font-size:4.918px;font-family:&quot;Sans Serif&quot;;fill:#113a2d;stroke-width:.123;stroke-miterlimit:10"><path d="M136.252 59.002q0 .566-.118.974-.118.403-.374.62-.255.216-.678.216-.595 0-.88-.477-.281-.482-.281-1.333 0-.57.113-.973.118-.404.374-.615.256-.217.674-.217.59 0 .88.477.29.473.29 1.328zm-1.898 0q0 .723.162 1.082.167.36.566.36.393 0 .56-.355.172-.359.172-1.087 0-.718-.172-1.077-.167-.359-.56-.359-.399 0-.566.36-.162.358-.162 1.076zm3.083 1.245q-.064.26-.187.57-.118.315-.236.58h-.32q.07-.28.138-.614.074-.335.109-.59h.462zm2.946-1.245q0 .566-.118.974-.118.403-.374.62-.255.216-.678.216-.595 0-.88-.477-.28-.482-.28-1.333 0-.57.112-.973.118-.404.374-.615.256-.217.674-.217.59 0 .88.477.29.473.29 1.328zm-1.898 0q0 .723.162 1.082.167.36.566.36.393 0 .56-.355.173-.359.173-1.087 0-.718-.173-1.077-.167-.359-.56-.359-.399 0-.566.36-.162.358-.162 1.076z" aria-label="0,0" style="font-family:&quot;Noto Sans&quot;;-inkscape-font-specification:&quot;Noto Sans&quot;;stroke-width:.122942" transform="scale(1.55897575) rotate(6.5429997 132.9296076 -353.03138251)"/></g><g style="font-size:4.918px;font-family:&quot;Sans Serif&quot;;fill:#113a2d;stroke-width:.123;stroke-miterlimit:10"><path d="M-19.079 69.296q0 .566-.118.974-.118.403-.374.62-.255.216-.678.216-.595 0-.88-.477-.281-.482-.281-1.333 0-.57.113-.973.118-.404.374-.615.256-.217.674-.217.59 0 .88.477.29.473.29 1.328zm-1.898 0q0 .723.162 1.082.167.36.566.36.393 0 .56-.355.172-.359.172-1.087 0-.718-.172-1.077-.167-.359-.56-.359-.399 0-.566.36-.162.358-.162 1.076zm3.083 1.244q-.064.261-.187.571-.118.315-.236.58h-.32q.07-.28.138-.614.074-.335.109-.59h.462zm2.946-1.244q0 .566-.118.974-.118.403-.374.62-.255.216-.678.216-.595 0-.88-.477-.28-.482-.28-1.333 0-.57.112-.973.118-.404.374-.615.256-.217.674-.217.59 0 .88.477.29.473.29 1.328zm-1.898 0q0 .723.162 1.082.167.36.566.36.393 0 .56-.355.173-.359.173-1.087 0-.718-.173-1.077-.167-.359-.56-.359-.399 0-.566.36-.162.358-.162 1.076z" aria-label="0,0" style="font-family:&quot;Noto Sans&quot;;-inkscape-font-specification:&quot;Noto Sans&quot;;stroke-width:.122942" transform="scale(1.29080184) rotate(-30.363 -16.15462733 18.02856847)"/></g></svg>