<svg xmlns="http://www.w3.org/2000/svg" width="600" height="372"><path fill="#ffab19" d="M0 372V0h599.99999v372z" style="fill-rule:nonzero;stroke-width:1.11355;stroke-linejoin:miter;stroke-miterlimit:10;stroke-dasharray:none;stroke-dashoffset:0"/><path d="M37.991623 95.166914S92.77418 81.434191 143.04166 83.627144c45.73827 1.99537 109.1902 21.819626 109.1902 21.819626" style="fill:none;fill-rule:nonzero;stroke:#ec9c13;stroke-width:39.8439;stroke-linecap:round;stroke-linejoin:miter;stroke-miterlimit:10;stroke-dasharray:none;stroke-dashoffset:0"/><path d="M426.41225 157.67661s-64.87346 15.87103-110.62014 13.9109c-50.27672-2.15424-103.73665-22.07484-103.73665-22.07484m-78.12116-2.3157s-68.684251 18.72911-114.430919 16.76897c-6.540003-.28023-13.069389-.90943-19.480257-1.79208m44.357625 64.83776S91.1718 212.80721 150.97549 209.70027c76.23299-2.91283 124.91059 14.86359 124.91059 14.86359M12.58568 311.8489c21.735979-7.73602 52.717534-17.81437 80.538868-23.36879 44.902502-8.96462 101.917082-7.05882 101.917082-7.05882m273.28927 2.01128s-63.92076 8.24946-109.66743 6.28932c-50.27673-2.15425-104.68936-7.78437-104.68936-7.78437m303.30581-108.2455s-29.39725 22.73388-62.78196 37.66843c-24.39783 10.91429-50.92526 14.11207-69.6646 18.8686-48.77612 12.38064-75.21905-2.77395-75.21905-2.77395M530.73892 35.283495s-54.45061 38.67281-97.69678 53.718409c-47.52859 16.535476-105.51959 20.588226-105.51959 20.588226m283.89302-66.142068c-12.98856 12.881156-27.2355 26.267908-40.04409 36.650347-39.09291 31.688071-83.76428 55.032641-83.76428 55.032641m120.18589 74.54752c-38.24031 30.16089-81.1253 51.20846-81.1253 51.20846m-34.81897 82.14466c18.48122-10.10532 40.83751-21.04043 60.71185-27.18311 18.34987-5.67149 38.00583-9.06118 55.29796-11.08468M422.35018 25.5753s-63.02014 22.11145-108.74035 24.614344c-50.24763 2.750724-105.39297-11.870585-105.39297-11.870585" data-paper-data="{&quot;index&quot;:null}" style="fill:none;fill-rule:nonzero;stroke:#ec9c13;stroke-width:39.8439;stroke-linecap:round;stroke-linejoin:miter;stroke-miterlimit:10;stroke-dasharray:none;stroke-dashoffset:0"/><path d="M37.991634 95.166914s55.735256-6.11116 106.002736-3.91821c45.73827 1.99537 108.2375 14.198056 108.2375 14.198056M124.35535 347.25509s55.73526-6.11117 106.00273-3.91821c45.73827 1.99537 108.2375 14.19806 108.2375 14.19806" style="fill:none;fill-rule:nonzero;stroke:#ec9c13;stroke-width:39.8439;stroke-linecap:round;stroke-linejoin:miter;stroke-miterlimit:10;stroke-dasharray:none;stroke-dashoffset:0"/><path d="M426.41226 157.67661s-64.87346 15.87103-110.62014 13.9109c-50.27672-2.15424-103.73665-22.07484-103.73665-22.07484m-78.12117-2.3157s-63.920755 6.34406-109.667434 4.38391c-8.055438-.34517-16.217044-.90183-24.244021-1.59337m45.310624 77.02411s54.412621-7.53554 104.689351-9.68978c45.74668-1.96014 134.43756 7.24202 134.43756 7.24202M10.959716 305.4137c17.883024-10.2263 42.886018-22.2342 68.827034-27.41323 44.90251-8.96462 115.25485 3.42085 115.25485 3.42085m273.2893 2.01125s-65.82615 22.53992-111.57283 20.57978c-50.27672-2.15425-102.78396-22.07484-102.78396-22.07484m303.30581-108.24549s-53.7682 27.17068-98.14947 38.4358c-48.77612 12.38064-109.51614 15.3273-109.51614 15.3273M530.73896 35.283495s-54.4506 44.388983-97.69678 59.434579c-47.52859 16.535486-105.51959 14.872046-105.51959 14.872046m281.65803-42.609765c-8.3934 10.414335-17.37421 20.111159-26.37678 27.408489-39.0929 31.688086-95.19663 40.742216-95.19663 40.742216m120.18588 94.60191c-37.17634 22.41613-81.12529 31.15406-81.12529 31.15406m-34.81897 82.14466c18.48122-10.10532 40.83752-21.04043 60.71185-27.18311 18.34987-5.67149 38.00584-9.06118 55.29795-11.08468M423.3029 26.528032s-64.92555 31.638429-110.64573 34.141313C262.40953 63.420069 209.16958 39.27179 209.16958 39.27179M-.017861 41.743973c8.913676-3.847453 18.306522-7.162 27.883974-9.456511C72.394722 21.619569 143.6543 33.383298 143.6543 33.383298" data-paper-data="{&quot;index&quot;:null}" style="fill:none;fill-rule:nonzero;stroke:#ec9c13;stroke-width:39.8439;stroke-linecap:round;stroke-linejoin:miter;stroke-miterlimit:10;stroke-dasharray:none;stroke-dashoffset:0"/><g stroke="#ffab19" style="fill-rule:nonzero;stroke-linejoin:miter;stroke-miterlimit:10;stroke-dasharray:none;stroke-dashoffset:0"><path fill="#fff" stroke-width="37.26901541862" d="M446.1707736 302.39753995c-2.19567606.01053346-4.39520268-.81902323-6.08104763-2.48258407L224.85076306 86.62719916c-3.36478464-3.334151-3.3896319-8.77436173-.05535918-12.13913584 3.33414398-3.3647741 8.7743594-3.38962722 12.13913233-.05537088l215.2389161 213.28074963c3.36477293 3.33415568 3.3896319 8.7743594.05535917 12.13913233-1.67059485 1.67889287-3.86240864 2.53501728-6.058073 2.54504747z"/><path fill="#ffab19" stroke-width="47.91728881845" d="M319.66333772 121.49295916c.11905149 26.07535464-20.92281969 47.3105616-46.99819773 47.42971842-26.07536635.1190515-47.3105733-20.92283138-47.42971843-46.99820943-.11905149-26.0753605 20.92281969-47.31056394 46.99819773-47.42971842 26.07536635-.11925982 47.3105733 20.92282553 47.42971843 46.99820943z"/><path fill="#ffab19" stroke-width="47.91728881845" d="M313.56421935 218.99430449c-25.40505214-5.87647616-41.236033-31.2352045-35.35949832-56.64022153 5.87646446-25.40505214 31.2352045-41.2360096 56.64020982-35.35947491 25.40505214 5.87647616 41.236033 31.2352045 35.35949832 56.64020982-5.87647616 25.40505214-31.2352045 41.2360213-56.64020982 35.35948662z"/><path fill="#ffab19" stroke-width="47.91728881845" d="M423.15598561 224.03696376c.1190515 26.07536635-20.92980688 47.3175488-47.00514981 47.43670562-26.07535464.1190515-47.310585-20.92983029-47.42974183-47.00517322-.1190398-26.07535464 20.92283138-47.3105382 46.99820943-47.42969502 26.07536634-.11905149 47.3175722 20.92980688 47.43668221 46.99818603z"/><path fill="#fff" stroke-width="37.26901541862" d="M446.52089406 302.74444185c-2.19567605.01053346-4.39521438-.81904663-6.08104763-2.48260747l-52.82452293-52.34395143c-3.37178353-3.33412057-3.3966425-8.77433598-.05535917-12.13913233 3.34117798-3.36481975 8.76734879-3.38960849 12.13913232-.05535917l52.82452293 52.34395142c3.36477294 3.33414398 3.3896319 8.7743594.05535918 12.13913233-1.67062996 1.67190568-3.86243205 2.5280301-6.0580847 2.53806028z"/></g><path fill="none" stroke="#ffab19" stroke-linecap="round" stroke-width="40.9415" d="M567.61693 372.72643v-59.44102" style="fill-rule:nonzero;stroke-linejoin:miter;stroke-miterlimit:10;stroke-dasharray:none;stroke-dashoffset:0" transform="translate(-243.06833 -286.64274) scale(1.1703843)"/><path fill="none" stroke="#ffab19" stroke-linecap="round" stroke-width="3.63925" d="M537.89639 343.00591h59.44102" style="fill-rule:nonzero;stroke-linejoin:miter;stroke-miterlimit:10;stroke-dasharray:none;stroke-dashoffset:0" transform="translate(-243.06833 -286.64274) scale(1.1703843)"/><path fill="none" stroke="#ffab19" stroke-linecap="round" stroke-width="40.9415" d="M537.89639 343.00597h59.44102" style="fill-rule:nonzero;stroke-linejoin:miter;stroke-miterlimit:10;stroke-dasharray:none;stroke-dashoffset:0" transform="translate(-243.06833 -286.64274) scale(1.1703843)"/><g stroke="#fff"><g style="fill-rule:nonzero;stroke-linejoin:miter;stroke-miterlimit:10;stroke-dasharray:none;stroke-dashoffset:0"><path fill="#fff" stroke-width="2.129654679966" d="M348.91717522 302.84189975c-2.19567606.01053346-4.39520268-.81903493-6.08104763-2.48259576L127.59716469 87.07155195c-3.36478465-3.33414983-3.3896319-8.77436174-.05535919-12.13913584 3.33414398-3.36477411 8.7743594-3.38962722 12.13913233-.05537089L354.9197603 288.15768484c3.36477294 3.33415568 3.3896202 8.7743711.05535918 12.13914403-1.67059484 1.67889287-3.86240863 2.53501728-6.05807299 2.54504748z"/><path fill="#cf8b17" stroke-width="15.97246861896" d="M222.40996171 121.93733067c.11903979 26.07536635-20.92283139 47.3105499-46.99820943 47.42969502-26.07536634.11926216-47.3105499-20.92281969-47.42969502-46.99819773-.11905149-26.07536752 20.92281969-47.31054873 46.99819773-47.42970321 26.07536635-.11904798 47.3105499 20.92282436 47.42970672 46.99820592z"/><path fill="#cf8b17" stroke-width="15.97246861896" d="M216.31083164 219.43873452c-25.40505214-5.87646446-41.236033-31.2352045-35.35949832-56.64020982 5.87646446-25.40505215 31.2352045-41.236033 56.64020982-35.35949833 25.40505214 5.87647617 41.236033 31.2352045 35.35949832 56.64020983-5.87647616 25.40505214-31.2352045 41.236033-56.64020982 35.35949832z"/><path fill="#cf8b17" stroke-width="15.97246861896" d="M325.90243405 224.4814289c.11905149 26.07535464-20.92980688 47.3175488-47.00514982 47.43672903-26.07536634.11903979-47.310585-20.92983029-47.42974183-47.00517322-.11905149-26.07536634 20.92281969-47.3105499 46.99820944-47.42969502 26.07535464-.11905149 47.31754879 20.92978347 47.4366822 46.99816262z"/><path fill="#fff" stroke-width="2.129654679966" d="M349.26743613 303.18881337c-2.19567606.01053345-4.39520268-.81902323-6.08103593-2.48258407l-52.82453463-52.34395143c-3.37177183-3.33412057-3.3966308-8.77433599-.05535918-12.13913233 3.341178-3.36481975 8.7673605-3.38960849 12.13914404-.05559325l52.82452292 52.34395143c3.36477294 3.33414397 3.3896202 8.77435939.05535918 12.13913233-1.67062996 1.67190567-3.86243204 2.52803008-6.0580964 2.53806028z"/></g><g style="fill-rule:nonzero;stroke-linejoin:miter;stroke-miterlimit:10;stroke-dasharray:none;stroke-dashoffset:0"><path fill="#fff" stroke-width="2.129654679966" d="M446.1707736 302.39753995c-2.19567606.01053346-4.39520268-.81902323-6.08104763-2.48258407L224.85076306 86.62719916c-3.36478464-3.334151-3.3896319-8.77436173-.05535918-12.13913584 3.33414398-3.3647741 8.7743594-3.38962722 12.13913233-.05537088l215.2389161 213.28074963c3.36477293 3.33415568 3.3896319 8.7743594.05535917 12.13913233-1.67059485 1.67889287-3.86240864 2.53501728-6.058073 2.54504747z"/><path fill="#cf8b17" stroke-width="15.97246861896" d="M319.66333772 121.49295916c.11905149 26.07535464-20.92281969 47.3105616-46.99819773 47.42971842-26.07536635.1190515-47.3105733-20.92283138-47.42971843-46.99820943-.11905149-26.0753605 20.92281969-47.31056394 46.99819773-47.42971842 26.07536635-.11925982 47.3105733 20.92282553 47.42971843 46.99820943z"/><path fill="#cf8b17" stroke-width="15.97246861896" d="M313.56421935 218.99430449c-25.40505214-5.87647616-41.236033-31.2352045-35.35949832-56.64022153 5.87646446-25.40505214 31.2352045-41.2360096 56.64020982-35.35947491 25.40505214 5.87647616 41.236033 31.2352045 35.35949832 56.64020982-5.87647616 25.40505214-31.2352045 41.2360213-56.64020982 35.35948662z"/><path fill="#cf8b17" stroke-width="15.97246861896" d="M423.15598561 224.03696376c.1190515 26.07536635-20.92980688 47.3175488-47.00514981 47.43670562-26.07535464.1190515-47.310585-20.92983029-47.42974183-47.00517322-.1190398-26.07535464 20.92283138-47.3105382 46.99820943-47.42969502 26.07536634-.11905149 47.3175722 20.92980688 47.43668221 46.99818603z"/><path fill="#fff" stroke-width="2.129654679966" d="M446.52089406 302.74444185c-2.19567605.01053346-4.39521438-.81904663-6.08104763-2.48260747l-52.82452293-52.34395143c-3.37178353-3.33412057-3.3966425-8.77433598-.05535917-12.13913233 3.34117798-3.36481975 8.76734879-3.38960849 12.13913232-.05535917l52.82452293 52.34395142c3.36477294 3.33414398 3.3896319 8.7743594.05535918 12.13913233-1.67062996 1.67190568-3.86243205 2.5280301-6.0580847 2.53806028z"/></g><path fill="none" stroke-linecap="round" stroke-width="13.6472" d="M408.44114 126.21545V66.774432M378.7206 96.494877h59.44102" style="fill-rule:nonzero;stroke-linejoin:miter;stroke-miterlimit:10;stroke-dasharray:none;stroke-dashoffset:0" transform="translate(-56.77148444 1.869911) scale(1.1703843)"/></g></svg>