<svg xmlns="http://www.w3.org/2000/svg" width="600" height="372" viewBox="70.779 41.356 600 372"><path fill="#e6282a" d="M70.779 413.356v-372h600v372z" style="mix-blend-mode:normal;fill-rule:nonzero;stroke-linecap:butt;stroke-linejoin:miter;stroke-miterlimit:10;stroke-dasharray:none;stroke-dashoffset:0"/><path fill="none" stroke="#ff4346" stroke-width="5.316" d="M-33.513 206.932c22.96-23.372 47.672-40.61 76.655-43.43 98.362-9.569 147.542 145.448 245.903 155.23 98.362 9.781 161.769-120.144 245.904-106.322 84.137 13.822 145.354 142.47 180.31 177.557" style="mix-blend-mode:normal;fill-rule:nonzero;stroke-linecap:butt;stroke-linejoin:miter;stroke-miterlimit:10;stroke-dasharray:none;stroke-dashoffset:0"/><path fill="none" stroke="#ff4346" stroke-width="5.316" d="M-31.74 293.546C50.72 266.321 99.516 177.718 189.2 175.197c98.358-2.764 147.539 99.305 245.904 110.575 98.358 11.27 190.977-71.66 245.903-54.224 22.906 7.272 34.39 27.094 36.112 51.024" style="mix-blend-mode:normal;fill-rule:nonzero;stroke-linecap:butt;stroke-linejoin:miter;stroke-miterlimit:10;stroke-dasharray:none;stroke-dashoffset:0"/><path fill="none" stroke="#ff4346" stroke-width="5.316" d="M731.683 231.73c-11.056.185-21.815 1.124-32.063 3.007-98.363 18.075-147.543 127.161-245.903 128.65-98.363 1.488-147.544-112.489-245.904-121.207-98.363-8.718-196.724 62.092-245.903 77.615M550.484 32.984c-31.397 30.22-66.512 56.27-112.187 69.548-143.1 41.602-241.788-61.204-386.812-277.226-13.302 3.006-26.44 6.754-39.386 11.113" style="mix-blend-mode:normal;fill-rule:nonzero;stroke-linecap:butt;stroke-linejoin:miter;stroke-miterlimit:10;stroke-dasharray:none;stroke-dashoffset:0"/><path fill="none" stroke="#ff4346" stroke-width="5.316" d="M670.779 39.356c-41.531 36.602-83.612 70.704-138.953 74.603-74.478 5.246-124.94-45.708-182.358-84.62" style="mix-blend-mode:normal;fill-rule:nonzero;stroke-linecap:butt;stroke-linejoin:miter;stroke-miterlimit:10;stroke-dasharray:none;stroke-dashoffset:0"/><path fill="none" stroke="#ff4346" stroke-width="5.316" d="M19.638 414.8c36.346-34.367 74.891-62.01 122.403-62.091 48.284-.081 87.308 27.81 124.177 62.382" data-paper-data="{&quot;index&quot;:null}" style="mix-blend-mode:normal;fill-rule:nonzero;stroke-linecap:butt;stroke-linejoin:miter;stroke-miterlimit:10;stroke-dasharray:none;stroke-dashoffset:0"/><g fill="#fff" stroke="#b31e21" stroke-width="5" style="mix-blend-mode:normal;stroke-linejoin:miter;stroke-miterlimit:10;stroke-dasharray:none;stroke-dashoffset:0"><g fill-rule="evenodd" stroke-linecap="round"><path stroke-width="5.3161000000000005" d="M190.053 182.322h22.114a68.24 68.24 0 0 1 8.088.445c5.77.69 10.38 2.185 13.83 4.482a18.1 18.1 0 0 1 7.723 11.485c.456 2.082.678 4.209.661 6.34a23.279 23.279 0 0 1-.432 4.593 17.546 17.546 0 0 1-1.535 4.498c-1.311 2.587-3.048 4.785-5.21 6.592a30.772 30.772 0 0 1-6.964 4.412l22.328 33.066h-17.862l-18.075-29.132h-8.612v29.132h-16.054zm20.945 13.184h-4.89v20.52h5.209a37.815 37.815 0 0 0 3.918-.188c2.652-.277 4.785-.859 6.398-1.746a8.71 8.71 0 0 0 1.113-.724c2.304-1.772 3.456-4.395 3.456-7.868 0-3.615-1.223-6.184-3.668-7.708a11.996 11.996 0 0 0-2.86-1.255c-2.26-.687-5.152-1.031-8.676-1.031z"/><path stroke-width="5.3161000000000005" d="M300.414 225.488v7.656H262.99c.036 1.499.242 2.99.613 4.443.593 2.25 1.607 4.16 3.041 5.732a12.422 12.422 0 0 0 6.457 3.705c1.324.314 2.768.472 4.33.473h.019c3.757 0 7.159-.372 10.207-1.116a45.15 45.15 0 0 0 5.839-1.874 55.988 55.988 0 0 0 3.623-1.582v12.227a37.517 37.517 0 0 1-8.984 3.137 41.39 41.39 0 0 1-4.169.653c-2.188.238-4.609.357-7.26.357-5.813 0-10.951-1.081-15.417-3.243-4.465-2.162-7.974-5.44-10.526-9.835-2.552-4.395-3.827-9.923-3.827-16.586a49.88 49.88 0 0 1 .486-7.17c.54-3.713 1.53-6.976 2.97-9.788a24.783 24.783 0 0 1 5.019-6.8 22.491 22.491 0 0 1 4.602-3.354 27.145 27.145 0 0 1 9.316-3.054 35.196 35.196 0 0 1 5.038-.348c8.01 0 14.353 2.286 19.031 6.857 4.678 4.572 7.017 11.076 7.017 19.51zm-37.106-2.87h22.221a17.992 17.992 0 0 0-.498-3.978 12.826 12.826 0 0 0-2.266-4.794 8.436 8.436 0 0 0-4.609-3.004c-.961-.263-2.022-.412-3.181-.445a19.824 19.824 0 0 0-.503-.006c-1.322-.014-2.637.2-3.887.631a10.06 10.06 0 0 0-3.715 2.346c-.942.947-1.69 2.07-2.203 3.304-.421.976-.752 2.071-.992 3.286-.171.879-.294 1.767-.367 2.66zM340.391 207.626h.426l1.275-7.442h13.397v58.158c0 6.813-1.65 12.286-4.951 16.42a19.972 19.972 0 0 1-2.385 2.505c-3.846 3.4-9.139 5.463-15.877 6.189-1.931.203-3.871.302-5.813.297a90.214 90.214 0 0 1-6.651-.236 72.166 72.166 0 0 1-4.778-.509 47.001 47.001 0 0 1-10.26-2.658v-12.652c7.159 2.977 14.707 4.466 22.646 4.466 1.689.027 3.37-.21 4.987-.701 3.507-1.133 5.74-3.64 6.699-7.52.38-1.626.561-3.293.541-4.963v-1.17c.001-1.162.048-2.324.14-3.483l.02-.238a363.161 363.161 0 0 0 .234-2.976l.031-.426h-.425a21.08 21.08 0 0 1-2.938 3.619 16.078 16.078 0 0 1-4.186 2.973 20.046 20.046 0 0 1-6.663 1.877c-.894.096-1.793.144-2.694.143a21.51 21.51 0 0 1-7.368-1.21 18.512 18.512 0 0 1-8.74-6.711 27.14 27.14 0 0 1-4.011-8.29c-.743-2.47-1.254-5.19-1.532-8.16a60.15 60.15 0 0 1-.251-5.612c0-9.498 1.985-16.905 5.954-22.221a18.958 18.958 0 0 1 13.8-7.847 25.177 25.177 0 0 1 2.573-.127 21.67 21.67 0 0 1 7.953 1.403c3.499 1.368 6.448 3.736 8.846 7.102zm.32 23.71v-1.914c0-6.237-.958-10.703-2.871-13.396a9.147 9.147 0 0 0-5.28-3.563c-1.184-.318-2.508-.477-3.97-.477-7.174 0-10.89 5.432-11.15 16.295-.009.416-.014.832-.014 1.248-.014 1.97.12 3.938.4 5.889.767 5.064 2.638 8.447 5.613 10.15a10.625 10.625 0 0 0 5.363 1.291c4.04 0 7.035-1.152 8.984-3.455a9.663 9.663 0 0 0 1.605-2.823c.7-1.835 1.121-4.162 1.264-6.98.037-.755.056-1.51.055-2.265zM412.796 244.945v13.29h-43.698v-75.913h43.698v13.184h-27.643v16.692h25.73v13.184h-25.73v19.563z"/><path stroke-width="5.3161000000000005" d="m411.095 258.235 19.67-29.663-18.713-28.388h17.968l11.27 18.5 11.377-18.5h17.968l-18.925 28.388 19.776 29.663h-17.969l-12.227-19.882-12.227 19.882zM487.647 251.856h-.851c.345 1.79.589 3.598.73 5.415.08 1.028.12 2.06.12 3.09v23.392h-15.841v-83.57h12.865l2.232 7.55h.745a20.564 20.564 0 0 1 4.516-4.812 24.816 24.816 0 0 1 1.757-1.249c2.292-1.487 5.18-2.324 8.663-2.51.514-.028 1.029-.042 1.543-.041 2.917-.04 5.809.549 8.478 1.725 2.751 1.245 5.173 3.162 7.265 5.752l.1.125a24.52 24.52 0 0 1 4.033 7.69c.76 2.304 1.306 4.862 1.639 7.672.266 2.33.396 4.673.388 7.018 0 6.446-.896 11.884-2.686 16.312a23.89 23.89 0 0 1-3.587 6.175 21.058 21.058 0 0 1-6.652 5.532 20.16 20.16 0 0 1-9.403 2.177 27.921 27.921 0 0 1-3.969-.265c-1.338-.192-2.559-.49-3.663-.892a13.021 13.021 0 0 1-2.362-1.13 26.85 26.85 0 0 1-3.517-2.553 20.903 20.903 0 0 1-2.543-2.603zm0-24.56v1.701c0 5.534.813 9.804 2.44 12.81l.058.108a8.306 8.306 0 0 0 5.516 4.115c1.003.252 2.113.386 3.33.402l.245.002c3.459 0 6.058-1.38 7.797-4.138.08-.126.156-.253.23-.38a16.352 16.352 0 0 0 1.536-3.764c.69-2.462 1.046-5.437 1.068-8.923v-.338c0-7.864-1.716-13.018-5.148-15.464a9.564 9.564 0 0 0-5.696-1.654c-2.634 0-4.766.523-6.395 1.57a7.568 7.568 0 0 0-2.27 2.257 13.2 13.2 0 0 0-1.448 3.11c-.75 2.281-1.17 5.143-1.263 8.586z"/></g><path stroke-width="5.3161000000000005" d="M589.072 218.213c-.538.915-1.647.822-2.554.363-.946-.48-13.907-8.03-13.907-8.03s-.051 10.041-.051 16.468c0 .867-.51 1.522-1.37 1.654-.858.132-8.3.003-9.361-.006-1.061-.008-1.569-.996-1.592-2.028-.024-1.06 0-16.06 0-16.06s-8.645 5.114-14.288 8.19c-.75.432-1.573.32-2.116-.358-.544-.678-4.15-7.19-4.676-8.111-.525-.921.209-1.954.958-2.393.915-.537 13.958-8.06 13.958-8.06s-13.543-7.788-14.327-8.273c-.784-.486-.926-1.332-.587-2.193.339-.86 3.858-6.662 4.557-7.886.7-1.224 1.361-1.029 2.216-.634.854.394 14.303 8.258 14.303 8.258s-.022-15.566.005-16.488c.027-.922.69-1.469 1.604-1.606.916-.137 9.03.012 9.05.01.02 0 .039-.005.06-.005.937 0 1.57.665 1.655 1.601.086.936 0 16.516 0 16.516s13.47-7.807 14.283-8.243c.813-.436 1.617-.137 2.194.587.576.724 4.504 7.825 4.515 7.843.01.017.025.03.035.048.469.812.21 1.694-.56 2.237-.768.543-14.254 8.23-14.254 8.23l14.161 8.24c.009.005.018.007.026.012.706.408.994 1.256.725 1.996s-4.123 7.208-4.662 8.122zM147.73 267.56c0-7.402 6-13.402 13.401-13.402 7.402 0 13.402 6 13.402 13.402 0 7.402-6 13.402-13.402 13.402-7.401 0-13.402-6-13.402-13.402z"/></g></svg>