<svg xmlns="http://www.w3.org/2000/svg" width="600" height="372"><path d="M0 0h600v372H0Z" style="fill:#59c093;fill-opacity:1;stroke:none;stroke-width:4.45288;stroke-linejoin:round"/><path d="M24.76 11.46c-2.588 0-4.537 1.278-5.847 3.833-1.294 2.537-1.94 6.361-1.94 11.47 0 5.093.646 8.917 1.94 11.472 1.31 2.537 3.26 3.806 5.847 3.806 2.604 0 4.553-1.269 5.848-3.806 1.31-2.555 1.966-6.379 1.966-11.471 0-5.11-.656-8.934-1.966-11.471-1.295-2.555-3.244-3.833-5.848-3.833zm0-3.98c4.164 0 7.34 1.65 9.53 4.951 2.206 3.285 3.31 8.062 3.31 14.333 0 6.253-1.103 11.03-3.31 14.332-2.19 3.284-5.366 4.927-9.53 4.927-4.163 0-7.348-1.643-9.555-4.927-2.19-3.301-3.284-8.079-3.284-14.332 0-6.271 1.095-11.048 3.284-14.333C17.412 9.13 20.597 7.48 24.76 7.48zm26.002 33.59h17.543v4.23H44.716v-4.23a972.842 972.842 0 0 1 7.788-7.936c3.301-3.335 5.375-5.483 6.22-6.446 1.61-1.808 2.73-3.334 3.36-4.578.648-1.26.971-2.496.971-3.708 0-1.973-.697-3.583-2.09-4.827-1.377-1.244-3.177-1.866-5.4-1.866-1.576 0-3.243.274-5.001.822-1.742.547-3.608 1.376-5.6 2.488V9.943c2.024-.813 3.916-1.427 5.675-1.842 1.758-.415 3.367-.622 4.827-.622 3.847 0 6.916.962 9.206 2.887 2.289 1.924 3.433 4.495 3.433 7.713a11.1 11.1 0 0 1-.87 4.354c-.564 1.36-1.6 2.97-3.111 4.829-.414.48-1.733 1.873-3.956 4.178-2.222 2.29-5.358 5.5-9.406 9.632zM78.905 8.15h19.731v4.23H83.508v9.11c.73-.25 1.46-.433 2.191-.549.729-.133 1.458-.2 2.189-.2 4.147 0 7.431 1.137 9.853 3.41 2.422 2.272 3.633 5.35 3.633 9.231 0 3.998-1.244 7.108-3.733 9.33-2.488 2.207-5.997 3.31-10.525 3.31-1.56 0-3.152-.132-4.778-.398a38.065 38.065 0 0 1-5-1.194v-5.051a19.577 19.577 0 0 0 4.627 1.816 20.75 20.75 0 0 0 5.051.598c2.871 0 5.144-.755 6.819-2.265 1.675-1.51 2.512-3.558 2.512-6.146s-.837-4.637-2.512-6.146c-1.676-1.509-3.949-2.264-6.819-2.264-1.343 0-2.687.15-4.03.448-1.327.298-2.687.763-4.081 1.393zm32.422 0h19.733v4.23h-15.13v9.11c.73-.25 1.46-.433 2.19-.549.73-.133 1.46-.2 2.19-.2 4.147 0 7.431 1.137 9.853 3.41 2.422 2.272 3.633 5.35 3.633 9.231 0 3.998-1.244 7.108-3.733 9.33-2.488 2.207-5.996 3.31-10.524 3.31-1.56 0-3.152-.132-4.778-.398a38.05 38.05 0 0 1-5.001-1.194v-5.051a19.6 19.6 0 0 0 4.628 1.816c1.593.399 3.276.598 5.05.598 2.87 0 5.144-.755 6.819-2.265 1.675-1.51 2.513-3.558 2.513-6.146s-.838-4.637-2.513-6.146c-1.676-1.509-3.949-2.264-6.819-2.264-1.343 0-2.687.15-4.03.448-1.327.298-2.688.763-4.081 1.393zm32.522 36.38v-4.58a20.048 20.048 0 0 0 3.831 1.37c1.294.314 2.564.472 3.808.472 3.318 0 5.847-1.112 7.59-3.334 1.757-2.24 2.76-5.631 3.01-10.177-.963 1.427-2.182 2.522-3.658 3.284-1.476.764-3.11 1.146-4.902 1.146-3.716 0-6.66-1.12-8.833-3.36-2.157-2.256-3.236-5.333-3.236-9.231 0-3.815 1.129-6.876 3.385-9.182s5.258-3.459 9.007-3.459c4.297 0 7.573 1.65 9.83 4.952 2.272 3.285 3.408 8.062 3.408 14.333 0 5.855-1.393 10.533-4.18 14.033-2.77 3.484-6.503 5.226-11.198 5.226-1.26 0-2.537-.125-3.83-.374a27.356 27.356 0 0 1-4.032-1.12zm10.002-15.751c2.256 0 4.04-.772 5.351-2.315 1.327-1.542 1.99-3.657 1.99-6.344 0-2.671-.664-4.778-1.991-6.32-1.31-1.56-3.094-2.34-5.35-2.34s-4.047.78-5.375 2.34c-1.31 1.542-1.965 3.648-1.965 6.318 0 2.689.655 4.804 1.965 6.346 1.328 1.543 3.12 2.315 5.377 2.315zm21.002-20.628h23.887v2.14L185.254 45.3h-5.25l12.689-32.92h-17.84Zm33.74 0h19.732v4.23h-15.129v9.108c.73-.25 1.46-.432 2.19-.548.73-.133 1.46-.2 2.19-.2 4.147 0 7.431 1.137 9.854 3.41 2.422 2.272 3.633 5.35 3.633 9.231 0 3.998-1.244 7.108-3.733 9.33-2.488 2.207-5.997 3.31-10.526 3.31-1.559 0-3.151-.132-4.777-.398a38.113 38.113 0 0 1-5.002-1.194v-5.051a19.6 19.6 0 0 0 4.629 1.816c1.592.399 3.276.598 5.051.598 2.87 0 5.143-.755 6.818-2.265 1.675-1.51 2.513-3.558 2.513-6.146s-.838-4.637-2.513-6.146c-1.675-1.509-3.948-2.264-6.818-2.264-1.344 0-2.687.15-4.03.448-1.328.298-2.688.763-4.081 1.393zm46.183 4.38-12.69 19.83h12.689zm-1.319-4.38h6.32v24.21h5.299v4.182h-5.3V45.3h-5v-8.758h-16.771V31.69zm19.98 0h19.733v4.23h-15.13v9.108c.73-.25 1.46-.432 2.189-.548.73-.133 1.46-.2 2.191-.2 4.147 0 7.43 1.137 9.853 3.41 2.422 2.272 3.632 5.35 3.632 9.231 0 3.998-1.244 7.108-3.732 9.33-2.489 2.207-5.997 3.31-10.525 3.31-1.56 0-3.152-.132-4.777-.398a38.05 38.05 0 0 1-5.002-1.194v-5.051a19.6 19.6 0 0 0 4.628 1.816 20.75 20.75 0 0 0 5.052.598c2.869 0 5.141-.755 6.817-2.265 1.676-1.51 2.513-3.558 2.513-6.146s-.837-4.637-2.513-6.146c-1.676-1.509-3.948-2.264-6.817-2.264-1.344 0-2.688.15-4.032.448-1.327.298-2.687.763-4.081 1.393zm43.744 16.572c-2.256 0-4.047.771-5.374 2.314-1.31 1.543-1.965 3.658-1.965 6.345 0 2.671.655 4.786 1.965 6.344 1.327 1.544 3.118 2.315 5.374 2.315 2.257 0 4.04-.77 5.35-2.313 1.328-1.56 1.99-3.674 1.99-6.345 0-2.688-.663-4.803-1.99-6.346-1.31-1.543-3.093-2.314-5.35-2.314zm9.978-15.75v4.578a20.048 20.048 0 0 0-3.83-1.37 15.893 15.893 0 0 0-3.809-.47c-3.317 0-5.855 1.118-7.613 3.357-1.742 2.24-2.738 5.624-2.986 10.153.978-1.444 2.205-2.547 3.681-3.31 1.477-.78 3.103-1.17 4.878-1.17 3.732 0 6.677 1.137 8.833 3.41 2.173 2.255 3.26 5.333 3.26 9.231 0 3.815-1.128 6.876-3.384 9.182-2.256 2.306-5.259 3.459-9.007 3.459-4.297 0-7.582-1.643-9.854-4.927-2.273-3.301-3.41-8.079-3.41-14.332 0-5.873 1.394-10.55 4.18-14.035 2.788-3.5 6.53-5.25 11.223-5.25 1.26 0 2.53.125 3.807.373 1.294.25 2.638.623 4.031 1.12zm15.403 32.098h17.542v4.23h-23.589v-4.23a972.525 972.525 0 0 1 7.788-7.937c3.301-3.335 5.375-5.483 6.221-6.446 1.61-1.808 2.73-3.334 3.36-4.578.647-1.26.97-2.496.97-3.708 0-1.973-.697-3.583-2.09-4.827-1.377-1.244-3.177-1.866-5.4-1.866-1.576 0-3.243.274-5.001.822-1.741.547-3.608 1.376-5.6 2.488V9.943c2.025-.813 3.916-1.427 5.675-1.842 1.758-.415 3.367-.622 4.827-.622 3.848 0 6.916.962 9.206 2.887 2.289 1.924 3.433 4.495 3.433 7.713a11.1 11.1 0 0 1-.87 4.354c-.564 1.36-1.6 2.97-3.11 4.829-.415.48-1.734 1.873-3.957 4.178-2.222 2.29-5.358 5.5-9.405 9.632zm38.841-13.412c-2.388 0-4.27.639-5.648 1.916-1.36 1.278-2.04 3.036-2.04 5.275 0 2.24.68 3.998 2.04 5.275 1.376 1.278 3.259 1.916 5.648 1.916 2.39 0 4.272-.638 5.649-1.916 1.377-1.293 2.065-3.051 2.065-5.274 0-2.24-.688-3.998-2.065-5.276-1.36-1.277-3.244-1.916-5.649-1.916zm-5.026-2.14c-2.156-.53-3.84-1.534-5.051-3.01-1.194-1.477-1.791-3.276-1.791-5.4 0-2.969 1.053-5.317 3.159-7.042 2.123-1.725 5.026-2.588 8.71-2.588 3.699 0 6.602.863 8.708 2.588s3.16 4.073 3.16 7.042c0 2.124-.606 3.923-1.816 5.4-1.194 1.476-2.861 2.48-5.002 3.01 2.423.564 4.306 1.667 5.65 3.31 1.36 1.641 2.039 3.648 2.039 6.02 0 3.6-1.103 6.363-3.309 8.287-2.19 1.924-5.333 2.887-9.43 2.887-4.098 0-7.25-.963-9.455-2.887-2.19-1.924-3.286-4.686-3.286-8.286 0-2.373.68-4.38 2.041-6.021 1.36-1.643 3.252-2.746 5.673-3.31zm-1.84-7.937c0 1.924.596 3.425 1.79 4.503 1.212 1.08 2.903 1.618 5.076 1.618 2.157 0 3.841-.539 5.051-1.618 1.229-1.078 1.843-2.58 1.843-4.503 0-1.925-.614-3.426-1.843-4.504-1.21-1.078-2.894-1.618-5.05-1.618-2.174 0-3.865.54-5.077 1.618-1.194 1.079-1.79 2.58-1.79 4.504zm43.767 7.688c2.406.514 4.28 1.584 5.624 3.21 1.36 1.626 2.04 3.633 2.04 6.022 0 3.666-1.26 6.502-3.782 8.51-2.522 2.007-6.104 3.01-10.749 3.01-1.559 0-3.168-.157-4.828-.472a34.022 34.022 0 0 1-5.1-1.368v-4.853a17.394 17.394 0 0 0 4.578 1.84c1.66.416 3.393.624 5.2.624 3.152 0 5.55-.622 7.192-1.867 1.659-1.244 2.488-3.052 2.488-5.424 0-2.19-.771-3.898-2.314-5.125-1.526-1.245-3.658-1.867-6.395-1.867h-4.33v-4.13h4.529c2.471 0 4.363-.49 5.674-1.47 1.31-.994 1.966-2.421 1.966-4.28 0-1.906-.68-3.366-2.041-4.378-1.344-1.028-3.276-1.542-5.797-1.542-1.377 0-2.854.149-4.43.446-1.576.299-3.31.764-5.2 1.395v-4.48c1.908-.53 3.69-.928 5.35-1.193a30.227 30.227 0 0 1 4.726-.399c3.816 0 6.835.87 9.058 2.612 2.223 1.726 3.334 4.065 3.334 7.018 0 2.057-.588 3.799-1.766 5.225-1.178 1.41-2.853 2.389-5.027 2.936zM434.23 8.15h23.888v2.14L444.63 45.3h-5.249l12.69-32.92h-17.842zm33.84 36.38v-4.58a20.07 20.07 0 0 0 3.833 1.37 16.09 16.09 0 0 0 3.807.472c3.318 0 5.847-1.112 7.59-3.334 1.757-2.24 2.76-5.631 3.01-10.177-.963 1.427-2.181 2.522-3.657 3.284-1.477.764-3.112 1.146-4.903 1.146-3.716 0-6.66-1.12-8.833-3.36-2.157-2.256-3.236-5.333-3.236-9.231 0-3.815 1.129-6.876 3.385-9.182s5.258-3.459 9.007-3.459c4.297 0 7.573 1.65 9.83 4.952 2.272 3.285 3.408 8.062 3.408 14.333 0 5.855-1.393 10.533-4.18 14.033-2.77 3.484-6.503 5.226-11.198 5.226-1.26 0-2.537-.125-3.83-.374a27.356 27.356 0 0 1-4.032-1.12zm10.003-15.751c2.257 0 4.04-.772 5.351-2.315 1.327-1.542 1.99-3.657 1.99-6.344 0-2.671-.663-4.778-1.99-6.32-1.31-1.56-3.094-2.34-5.35-2.34s-4.048.78-5.374 2.34c-1.31 1.542-1.966 3.648-1.966 6.318 0 2.689.655 4.804 1.966 6.346 1.326 1.543 3.118 2.315 5.373 2.315zm33.643-4.056c-2.257 0-4.049.771-5.377 2.314-1.31 1.543-1.964 3.658-1.964 6.345 0 2.671.655 4.786 1.966 6.344 1.326 1.544 3.118 2.315 5.375 2.315 2.256 0 4.039-.77 5.35-2.313 1.326-1.56 1.99-3.674 1.99-6.345 0-2.688-.664-4.803-1.99-6.346-1.311-1.543-3.095-2.314-5.352-2.314zm9.978-15.75v4.578a20.08 20.08 0 0 0-3.833-1.37 15.888 15.888 0 0 0-3.806-.47c-3.319 0-5.857 1.118-7.615 3.357-1.741 2.24-2.736 5.624-2.986 10.153.98-1.444 2.206-2.547 3.682-3.31 1.478-.78 3.104-1.17 4.878-1.17 3.732 0 6.676 1.137 8.834 3.41 2.172 2.255 3.259 5.333 3.259 9.231 0 3.815-1.128 6.876-3.384 9.182-2.256 2.306-5.258 3.459-9.007 3.459-4.297 0-7.582-1.643-9.855-4.927-2.272-3.301-3.409-8.079-3.409-14.332 0-5.873 1.394-10.55 4.181-14.035 2.786-3.5 6.527-5.25 11.222-5.25 1.261 0 2.53.125 3.808.373 1.293.25 2.637.623 4.03 1.12zm21.822 18.686c-2.39 0-4.272.639-5.649 1.916-1.36 1.278-2.04 3.036-2.04 5.275 0 2.24.68 3.998 2.04 5.275 1.377 1.278 3.26 1.916 5.649 1.916 2.388 0 4.27-.638 5.648-1.916 1.376-1.293 2.065-3.051 2.065-5.274 0-2.24-.688-3.998-2.064-5.276-1.36-1.277-3.244-1.916-5.65-1.916zm-5.027-2.14c-2.157-.53-3.84-1.534-5.052-3.01-1.194-1.477-1.79-3.276-1.79-5.4 0-2.969 1.052-5.317 3.159-7.042 2.123-1.725 5.026-2.588 8.71-2.588 3.699 0 6.601.863 8.708 2.588 2.106 1.725 3.16 4.073 3.16 7.042 0 2.124-.606 3.923-1.816 5.4-1.194 1.476-2.862 2.48-5.002 3.01 2.422.564 4.305 1.667 5.649 3.31 1.36 1.641 2.04 3.648 2.04 6.02 0 3.6-1.102 6.363-3.309 8.287-2.19 1.924-5.333 2.887-9.43 2.887-4.098 0-7.25-.963-9.456-2.887-2.19-1.924-3.284-4.686-3.284-8.286 0-2.373.68-4.38 2.04-6.021 1.36-1.643 3.251-2.746 5.673-3.31zm-1.841-7.937c0 1.924.597 3.425 1.791 4.503 1.211 1.08 2.903 1.618 5.077 1.618 2.156 0 3.84-.539 5.05-1.618 1.228-1.078 1.842-2.58 1.842-4.503 0-1.925-.614-3.426-1.842-4.504-1.21-1.078-2.894-1.618-5.05-1.618-2.174 0-3.867.54-5.077 1.618-1.194 1.079-1.791 2.58-1.791 4.504zm29.411 23.489h8.211V12.729l-8.933 1.792V9.943l8.883-1.792h5.026v32.92h8.212v4.23h-21.399ZM25.382 88.422c-2.256 0-4.047.772-5.374 2.315-1.31 1.543-1.966 3.657-1.966 6.345 0 2.67.656 4.786 1.966 6.344 1.327 1.543 3.118 2.315 5.374 2.315 2.257 0 4.04-.771 5.35-2.314 1.327-1.559 1.99-3.674 1.99-6.344 0-2.688-.663-4.803-1.99-6.346-1.31-1.543-3.093-2.315-5.35-2.315Zm9.978-15.75v4.579a20.048 20.048 0 0 0-3.831-1.37 15.893 15.893 0 0 0-3.808-.471c-3.318 0-5.855 1.12-7.613 3.358-1.742 2.24-2.738 5.624-2.987 10.152.979-1.443 2.206-2.547 3.682-3.31 1.477-.78 3.103-1.169 4.878-1.169 3.732 0 6.676 1.136 8.833 3.41 2.173 2.255 3.26 5.332 3.26 9.23 0 3.816-1.128 6.876-3.384 9.182-2.256 2.306-5.259 3.46-9.007 3.46-4.297 0-7.582-1.643-9.854-4.927-2.273-3.302-3.41-8.08-3.41-14.333 0-5.872 1.394-10.55 4.18-14.034 2.788-3.5 6.529-5.25 11.223-5.25 1.26 0 2.53.124 3.807.373 1.294.249 2.638.622 4.03 1.12zm15.402 32.098h17.543V109H44.716v-4.23a972.624 972.624 0 0 1 7.788-7.937c3.301-3.334 5.375-5.483 6.22-6.445 1.61-1.808 2.73-3.334 3.36-4.579.648-1.26.971-2.496.971-3.707 0-1.974-.697-3.583-2.09-4.827-1.377-1.244-3.177-1.867-5.4-1.867-1.576 0-3.243.274-5.001.822-1.742.547-3.608 1.377-5.6 2.488v-5.075c2.024-.813 3.916-1.427 5.675-1.842 1.758-.415 3.367-.622 4.827-.622 3.847 0 6.916.962 9.206 2.887 2.289 1.923 3.433 4.494 3.433 7.712a11.1 11.1 0 0 1-.87 4.355c-.564 1.36-1.6 2.97-3.111 4.828-.414.481-1.733 1.874-3.956 4.18-2.222 2.289-5.358 5.5-9.406 9.63zm39.465-16.348c-2.256 0-4.048.772-5.375 2.315-1.31 1.543-1.966 3.657-1.966 6.345 0 2.67.655 4.786 1.966 6.344 1.327 1.543 3.119 2.315 5.375 2.315s4.039-.771 5.35-2.314c1.326-1.559 1.99-3.674 1.99-6.344 0-2.688-.664-4.803-1.99-6.346-1.311-1.543-3.095-2.315-5.351-2.315zm9.978-15.75v4.579a20.08 20.08 0 0 0-3.832-1.37 15.888 15.888 0 0 0-3.807-.471c-3.318 0-5.857 1.12-7.615 3.358-1.74 2.24-2.736 5.624-2.986 10.152.98-1.443 2.207-2.547 3.683-3.31 1.476-.78 3.102-1.169 4.877-1.169 3.733 0 6.677 1.136 8.834 3.41 2.172 2.255 3.259 5.332 3.259 9.23 0 3.816-1.128 6.876-3.384 9.182-2.256 2.306-5.258 3.46-9.007 3.46-4.297 0-7.582-1.643-9.855-4.927-2.271-3.302-3.407-8.08-3.407-14.333 0-5.872 1.392-10.55 4.178-14.034 2.788-3.5 6.529-5.25 11.224-5.25 1.26 0 2.53.124 3.807.373 1.293.249 2.637.622 4.03 1.12zm9.803-.822h23.887v2.14L120.41 109h-5.249l12.69-32.92h-17.842zm47.501 4.38L144.82 96.061h12.689zm-1.319-4.38h6.32v24.211h5.3v4.181h-5.3v8.76h-5.001v-8.76h-16.77V95.39zm30.68 3.31c-2.587 0-4.536 1.277-5.847 3.832-1.293 2.538-1.94 6.362-1.94 11.471 0 5.093.647 8.916 1.94 11.471 1.31 2.538 3.26 3.807 5.848 3.807 2.605 0 4.554-1.269 5.847-3.807 1.31-2.555 1.966-6.378 1.966-11.47 0-5.11-.655-8.934-1.966-11.472-1.293-2.555-3.242-3.832-5.847-3.832zm0-3.981c4.164 0 7.34 1.65 9.53 4.952 2.207 3.284 3.31 8.062 3.31 14.332 0 6.254-1.103 11.031-3.309 14.333-2.19 3.284-5.366 4.926-9.53 4.926-4.163 0-7.348-1.642-9.554-4.926-2.19-3.302-3.286-8.08-3.286-14.333 0-6.27 1.095-11.048 3.285-14.332 2.206-3.302 5.391-4.952 9.555-4.952zm22.544 33.591h8.212V76.43l-8.933 1.791v-4.577l8.883-1.793h5.026v32.92h8.211V109h-21.399zm31.7 3.46v-4.58a20.08 20.08 0 0 0 3.833 1.37 16.1 16.1 0 0 0 3.807.471c3.318 0 5.848-1.111 7.589-3.334 1.758-2.239 2.762-5.63 3.012-10.176-.963 1.426-2.182 2.521-3.658 3.284-1.477.763-3.111 1.145-4.902 1.145-3.716 0-6.66-1.12-8.834-3.36-2.157-2.255-3.235-5.332-3.235-9.23 0-3.816 1.128-6.876 3.384-9.182 2.256-2.306 5.259-3.46 9.007-3.46 4.297 0 7.574 1.651 9.83 4.953 2.272 3.284 3.408 8.062 3.408 14.332 0 5.856-1.393 10.533-4.179 14.033-2.771 3.484-6.504 5.226-11.198 5.226-1.26 0-2.538-.124-3.832-.373a27.414 27.414 0 0 1-4.031-1.12zm10.004-15.751c2.256 0 4.04-.772 5.35-2.315 1.327-1.543 1.99-3.657 1.99-6.345 0-2.67-.663-4.778-1.99-6.32-1.31-1.56-3.094-2.339-5.351-2.339-2.255 0-4.046.78-5.374 2.34-1.31 1.541-1.966 3.648-1.966 6.318 0 2.688.656 4.803 1.966 6.346 1.328 1.543 3.12 2.315 5.375 2.315zm33.641-4.057c-2.256 0-4.047.772-5.375 2.315-1.31 1.543-1.966 3.657-1.966 6.345 0 2.67.656 4.786 1.966 6.344 1.328 1.543 3.12 2.315 5.376 2.315 2.255 0 4.038-.771 5.349-2.314 1.327-1.559 1.991-3.674 1.991-6.344 0-2.688-.664-4.803-1.991-6.346-1.31-1.543-3.094-2.315-5.35-2.315zm9.978-15.75v4.579a20.039 20.039 0 0 0-3.832-1.37 15.888 15.888 0 0 0-3.807-.471c-3.317 0-5.855 1.12-7.614 3.358-1.742 2.24-2.736 5.624-2.985 10.152.978-1.443 2.205-2.547 3.681-3.31 1.477-.78 3.103-1.169 4.877-1.169 3.733 0 6.678 1.136 8.834 3.41 2.174 2.255 3.26 5.332 3.26 9.23 0 3.816-1.128 6.876-3.385 9.182-2.255 2.306-5.258 3.46-9.007 3.46-4.297 0-7.58-1.643-9.853-4.927-2.273-3.302-3.41-8.08-3.41-14.333.001-5.872 1.394-10.55 4.18-14.034 2.788-3.5 6.528-5.25 11.224-5.25 1.26 0 2.529.124 3.806.373 1.294.249 2.637.622 4.031 1.12zm15.403 32.098h17.543V109h-23.59v-4.23a972.641 972.641 0 0 1 7.788-7.937c3.302-3.334 5.375-5.483 6.221-6.445 1.609-1.808 2.729-3.334 3.36-4.579.646-1.26.97-2.496.97-3.707 0-1.974-.697-3.583-2.09-4.827-1.377-1.244-3.177-1.867-5.4-1.867-1.576 0-3.243.274-5.001.822-1.742.547-3.608 1.377-5.6 2.488v-5.075c2.025-.813 3.916-1.427 5.674-1.842 1.758-.415 3.367-.622 4.828-.622 3.848 0 6.916.962 9.206 2.887 2.29 1.923 3.434 4.494 3.434 7.712 0 1.527-.29 2.978-.87 4.355-.565 1.36-1.602 2.97-3.112 4.828-.414.481-1.733 1.874-3.955 4.18-2.223 2.289-5.358 5.5-9.406 9.63zm28.963 0h8.212V76.43l-8.933 1.791v-4.577l8.883-1.793h5.026v32.92h8.21V109h-21.398zm30.282-32.92h23.888v2.14L379.786 109h-5.25l12.69-32.92h-17.84zm47.501 4.38-12.689 19.831h12.69zm-1.318-4.38h6.319v24.211h5.3v4.181h-5.3v8.76h-5v-8.76h-16.772V95.39zm33.74 4.38L436.62 96.061h12.69zm-1.317-4.38h6.32v24.211h5.3v4.181h-5.3v8.76h-5.002v-8.76h-16.772V95.39zm19.98 0h19.732v4.23h-15.13v9.109c.731-.25 1.461-.432 2.19-.548.731-.133 1.46-.2 2.19-.2 4.147 0 7.432 1.136 9.854 3.41 2.421 2.272 3.632 5.35 3.632 9.23 0 3.998-1.244 7.109-3.733 9.331-2.487 2.207-5.996 3.31-10.524 3.31-1.56 0-3.152-.133-4.778-.399a38.049 38.049 0 0 1-5.001-1.193v-5.052a19.6 19.6 0 0 0 4.628 1.817 20.75 20.75 0 0 0 5.051.598c2.87 0 5.143-.756 6.818-2.266 1.675-1.509 2.513-3.557 2.513-6.145 0-2.588-.838-4.637-2.513-6.146-1.675-1.51-3.948-2.264-6.818-2.264-1.343 0-2.687.15-4.03.447a21.24 21.24 0 0 0-4.081 1.394zm32.521 36.38v-4.58a20.038 20.038 0 0 0 3.832 1.37 16.09 16.09 0 0 0 3.807.471c3.317 0 5.847-1.111 7.59-3.334 1.757-2.239 2.76-5.63 3.01-10.176-.962 1.426-2.18 2.521-3.657 3.284-1.477.763-3.11 1.145-4.902 1.145-3.716 0-6.66-1.12-8.834-3.36-2.156-2.255-3.235-5.332-3.235-9.23 0-3.816 1.128-6.876 3.384-9.182 2.256-2.306 5.258-3.46 9.007-3.46 4.298 0 7.574 1.651 9.83 4.953 2.272 3.284 3.408 8.062 3.408 14.332 0 5.856-1.393 10.533-4.18 14.033-2.77 3.484-6.503 5.226-11.198 5.226-1.26 0-2.537-.124-3.83-.373a27.414 27.414 0 0 1-4.032-1.12zm10.004-15.751c2.255 0 4.039-.772 5.349-2.315 1.327-1.543 1.99-3.657 1.99-6.345 0-2.67-.663-4.778-1.99-6.32-1.31-1.56-3.094-2.339-5.35-2.339-2.257 0-4.048.78-5.374 2.34-1.311 1.541-1.966 3.648-1.966 6.318 0 2.688.655 4.803 1.966 6.346 1.326 1.543 3.118 2.315 5.375 2.315zm22.42 15.75v-4.579a20.048 20.048 0 0 0 3.83 1.37 16.09 16.09 0 0 0 3.807.471c3.318 0 5.848-1.111 7.589-3.334 1.758-2.239 2.762-5.63 3.012-10.176-.963 1.426-2.182 2.521-3.658 3.284-1.477.763-3.111 1.145-4.902 1.145-3.716 0-6.66-1.12-8.834-3.36-2.157-2.255-3.235-5.332-3.235-9.23 0-3.816 1.128-6.876 3.384-9.182 2.257-2.306 5.259-3.46 9.007-3.46 4.298 0 7.574 1.651 9.83 4.953 2.272 3.284 3.408 8.062 3.408 14.332 0 5.856-1.393 10.533-4.179 14.033-2.77 3.484-6.504 5.226-11.198 5.226-1.26 0-2.538-.124-3.832-.373a27.414 27.414 0 0 1-4.031-1.12zm10-15.75c2.257 0 4.04-.772 5.35-2.315 1.328-1.543 1.992-3.657 1.992-6.345 0-2.67-.664-4.778-1.991-6.32-1.31-1.56-3.094-2.339-5.35-2.339s-4.047.78-5.375 2.34c-1.31 1.541-1.965 3.648-1.965 6.318 0 2.688.655 4.803 1.965 6.346 1.328 1.543 3.12 2.315 5.375 2.315zm23.142 12.291h8.211V76.43l-8.933 1.791v-4.577l8.883-1.793h5.026v32.92h8.212V109h-21.399ZM27.82 139.93l-12.689 19.83h12.69zm-1.317-4.38h6.32v24.21h5.3v4.182h-5.3v8.759h-5.001v-8.759H11.049v-4.854zm35.158 17.12c2.406.514 4.28 1.584 5.624 3.21 1.36 1.625 2.04 3.632 2.04 6.021 0 3.666-1.26 6.503-3.783 8.51-2.52 2.007-6.104 3.01-10.749 3.01-1.56 0-3.168-.157-4.827-.472a34.062 34.062 0 0 1-5.101-1.368v-4.853a17.39 17.39 0 0 0 4.579 1.841c1.658.416 3.392.623 5.2.623 3.152 0 5.55-.622 7.192-1.866 1.659-1.244 2.488-3.053 2.488-5.425 0-2.19-.772-3.898-2.315-5.125-1.526-1.244-3.658-1.867-6.395-1.867h-4.33v-4.13h4.53c2.471 0 4.362-.49 5.673-1.469 1.31-.995 1.966-2.422 1.966-4.28 0-1.907-.68-3.367-2.04-4.38-1.344-1.027-3.276-1.54-5.798-1.54-1.377 0-2.853.148-4.43.445-1.575.3-3.309.764-5.2 1.395v-4.479a48.718 48.718 0 0 1 5.35-1.194 30.226 30.226 0 0 1 4.727-.399c3.816 0 6.836.871 9.058 2.612 2.223 1.726 3.334 4.065 3.334 7.019 0 2.057-.589 3.798-1.767 5.224-1.178 1.41-2.853 2.389-5.026 2.937zm27.943 2.389c-2.388 0-4.271.638-5.648 1.916-1.36 1.277-2.04 3.035-2.04 5.274 0 2.24.68 3.998 2.04 5.276 1.377 1.277 3.26 1.916 5.648 1.916 2.389 0 4.272-.64 5.649-1.916 1.376-1.294 2.065-3.052 2.065-5.275 0-2.24-.688-3.998-2.064-5.275-1.361-1.278-3.245-1.916-5.65-1.916zm-5.026-2.14c-2.157-.532-3.84-1.535-5.051-3.011-1.195-1.476-1.792-3.276-1.792-5.4 0-2.969 1.053-5.316 3.16-7.042 2.123-1.724 5.026-2.586 8.709-2.586 3.7 0 6.603.862 8.709 2.586 2.106 1.726 3.16 4.073 3.16 7.043 0 2.123-.606 3.923-1.816 5.399-1.194 1.476-2.861 2.48-5.002 3.01 2.423.564 4.305 1.667 5.65 3.31 1.359 1.642 2.039 3.649 2.039 6.021 0 3.6-1.103 6.362-3.309 8.286-2.19 1.925-5.333 2.887-9.431 2.887-4.097 0-7.249-.962-9.454-2.887-2.19-1.924-3.286-4.686-3.286-8.286 0-2.372.68-4.38 2.04-6.02 1.361-1.644 3.253-2.747 5.674-3.31zm-1.841-7.938c0 1.924.597 3.425 1.791 4.504 1.211 1.078 2.903 1.618 5.076 1.618 2.157 0 3.84-.54 5.051-1.618 1.228-1.079 1.842-2.58 1.842-4.504 0-1.924-.614-3.426-1.842-4.503-1.21-1.079-2.894-1.618-5.051-1.618-2.173 0-3.865.539-5.076 1.618-1.194 1.078-1.791 2.58-1.791 4.503zm42.35-5.051-12.689 19.83h12.69zm-1.318-4.38h6.319v24.21h5.3v4.182h-5.3v8.759h-5v-8.759h-16.772v-4.854zm20.801 32.92h8.211v-28.341l-8.932 1.79v-4.577l8.882-1.792h5.028v32.92h8.21v4.23H144.57zm42.3-29.61c-2.587 0-4.536 1.277-5.847 3.832-1.293 2.538-1.94 6.361-1.94 11.47 0 5.093.647 8.917 1.94 11.472 1.31 2.538 3.26 3.807 5.848 3.807 2.605 0 4.554-1.27 5.847-3.807 1.31-2.555 1.966-6.379 1.966-11.471 0-5.11-.655-8.933-1.966-11.471-1.293-2.555-3.242-3.832-5.847-3.832zm0-3.982c4.164 0 7.34 1.651 9.53 4.952 2.207 3.285 3.31 8.062 3.31 14.333 0 6.254-1.103 11.031-3.309 14.332-2.19 3.285-5.366 4.927-9.53 4.927-4.163 0-7.348-1.642-9.554-4.927-2.19-3.301-3.286-8.078-3.286-14.332 0-6.27 1.095-11.048 3.285-14.333 2.206-3.3 5.391-4.952 9.555-4.952zm33.046 17.244c-2.257 0-4.05.772-5.377 2.315-1.31 1.542-1.964 3.657-1.964 6.344 0 2.671.655 4.786 1.966 6.345 1.326 1.543 3.118 2.315 5.375 2.315 2.255 0 4.038-.772 5.349-2.314 1.327-1.56 1.99-3.674 1.99-6.344 0-2.689-.663-4.804-1.99-6.346-1.31-1.543-3.094-2.315-5.35-2.315zm9.977-15.75v4.578a20.08 20.08 0 0 0-3.832-1.37 15.888 15.888 0 0 0-3.806-.47c-3.319 0-5.857 1.119-7.615 3.358-1.741 2.24-2.737 5.623-2.986 10.152.979-1.444 2.206-2.547 3.682-3.31 1.477-.78 3.103-1.17 4.878-1.17 3.732 0 6.677 1.137 8.833 3.41 2.173 2.256 3.26 5.333 3.26 9.231 0 3.815-1.129 6.876-3.384 9.182-2.256 2.306-5.259 3.459-9.007 3.459-4.297 0-7.582-1.642-9.855-4.927-2.273-3.301-3.409-8.078-3.409-14.332 0-5.872 1.394-10.55 4.181-14.034 2.787-3.5 6.527-5.25 11.222-5.25 1.26 0 2.53.125 3.808.373 1.293.249 2.637.622 4.03 1.12zm15.403 32.098h17.542v4.23h-23.59v-4.23a991.562 991.562 0 0 1 7.79-7.937c3.3-3.335 5.374-5.483 6.22-6.445 1.61-1.808 2.729-3.335 3.359-4.579.647-1.26.97-2.496.97-3.707 0-1.974-.696-3.583-2.089-4.827-1.377-1.245-3.178-1.867-5.4-1.867-1.576 0-3.243.274-5.002.822-1.741.547-3.607 1.376-5.598 2.488v-5.076c2.024-.812 3.915-1.426 5.673-1.842 1.758-.414 3.367-.622 4.827-.622 3.849 0 6.917.963 9.206 2.887 2.29 1.924 3.435 4.495 3.435 7.713 0 1.526-.29 2.978-.872 4.355-.563 1.36-1.6 2.97-3.11 4.828-.414.48-1.733 1.874-3.956 4.179-2.223 2.29-5.358 5.5-9.405 9.631zm28.963 0h8.21v-28.341l-8.932 1.79v-4.577l8.883-1.792h5.026v32.92h8.212v4.23H274.26zm42.922-16.348c-2.256 0-4.047.772-5.374 2.315-1.31 1.542-1.965 3.657-1.965 6.344 0 2.671.655 4.786 1.965 6.345 1.327 1.543 3.118 2.315 5.374 2.315 2.257 0 4.04-.772 5.35-2.314 1.327-1.56 1.99-3.674 1.99-6.344 0-2.689-.663-4.804-1.99-6.346-1.31-1.543-3.093-2.315-5.35-2.315zm9.978-15.75v4.578a20.048 20.048 0 0 0-3.83-1.37 15.893 15.893 0 0 0-3.809-.47c-3.317 0-5.855 1.119-7.613 3.358-1.742 2.24-2.738 5.623-2.987 10.152.979-1.444 2.206-2.547 3.682-3.31 1.477-.78 3.103-1.17 4.878-1.17 3.732 0 6.677 1.137 8.833 3.41 2.173 2.256 3.26 5.333 3.26 9.231 0 3.815-1.128 6.876-3.384 9.182-2.256 2.306-5.259 3.459-9.007 3.459-4.297 0-7.582-1.642-9.854-4.927-2.273-3.301-3.41-8.078-3.41-14.332 0-5.872 1.394-10.55 4.18-14.034 2.788-3.5 6.53-5.25 11.223-5.25 1.26 0 2.53.125 3.807.373 1.294.249 2.638.622 4.031 1.12zm9.803-.822h23.888v2.14l-13.485 35.01h-5.25l12.688-32.92h-17.84zm48.922 17.12c2.404.514 4.278 1.584 5.622 3.21 1.36 1.625 2.04 3.632 2.04 6.021 0 3.666-1.26 6.503-3.783 8.51-2.52 2.007-6.104 3.01-10.749 3.01-1.559 0-3.168-.157-4.827-.472a34.063 34.063 0 0 1-5.1-1.368v-4.853a17.414 17.414 0 0 0 4.578 1.841c1.659.416 3.392.623 5.2.623 3.152 0 5.55-.622 7.192-1.866 1.659-1.244 2.488-3.053 2.488-5.425 0-2.19-.772-3.898-2.315-5.125-1.525-1.244-3.657-1.867-6.394-1.867h-4.329v-4.13h4.528c2.471 0 4.362-.49 5.673-1.469 1.31-.995 1.966-2.422 1.966-4.28 0-1.907-.68-3.367-2.04-4.38-1.344-1.027-3.276-1.54-5.798-1.54-1.377 0-2.853.148-4.43.445-1.575.3-3.309.764-5.2 1.395v-4.479a48.718 48.718 0 0 1 5.35-1.194 30.226 30.226 0 0 1 4.727-.399c3.816 0 6.836.871 9.058 2.612 2.223 1.726 3.334 4.065 3.334 7.019 0 2.057-.589 3.798-1.767 5.224-1.177 1.41-2.852 2.389-5.026 2.937zm32.42 0c2.406.514 4.28 1.584 5.624 3.21 1.36 1.625 2.04 3.632 2.04 6.021 0 3.666-1.26 6.503-3.782 8.51-2.522 2.007-6.104 3.01-10.749 3.01-1.559 0-3.168-.157-4.828-.472a34.02 34.02 0 0 1-5.1-1.368v-4.853a17.394 17.394 0 0 0 4.578 1.841c1.66.416 3.393.623 5.2.623 3.152 0 5.55-.622 7.192-1.866 1.659-1.244 2.488-3.053 2.488-5.425 0-2.19-.771-3.898-2.314-5.125-1.526-1.244-3.658-1.867-6.395-1.867h-4.33v-4.13h4.529c2.471 0 4.363-.49 5.674-1.469 1.31-.995 1.966-2.422 1.966-4.28 0-1.907-.68-3.367-2.041-4.38-1.344-1.027-3.276-1.54-5.797-1.54-1.377 0-2.854.148-4.43.445-1.576.3-3.31.764-5.2 1.395v-4.479c1.908-.53 3.69-.929 5.35-1.194a30.226 30.226 0 0 1 4.726-.399c3.816 0 6.835.871 9.058 2.612 2.223 1.726 3.334 4.065 3.334 7.019 0 2.057-.588 3.798-1.766 5.224-1.178 1.41-2.853 2.389-5.027 2.937zm17.244-17.12h19.733v4.23h-15.129v9.109a13.1 13.1 0 0 1 2.189-.548c.73-.134 1.46-.2 2.191-.2 4.146 0 7.43 1.136 9.853 3.409 2.421 2.273 3.632 5.35 3.632 9.231 0 3.998-1.244 7.108-3.733 9.331-2.488 2.207-5.996 3.31-10.524 3.31-1.56 0-3.152-.133-4.778-.399a38.051 38.051 0 0 1-5.001-1.194v-5.051a19.6 19.6 0 0 0 4.628 1.817c1.593.398 3.276.597 5.052.597 2.87 0 5.142-.755 6.817-2.265 1.675-1.51 2.513-3.558 2.513-6.146s-.838-4.636-2.513-6.145c-1.675-1.51-3.948-2.264-6.817-2.264-1.344 0-2.688.149-4.031.447a21.27 21.27 0 0 0-4.082 1.394zm31.104 0h23.888v2.14l-13.487 35.01h-5.251l12.69-32.92h-17.84zm48.92 17.12c2.404.514 4.279 1.584 5.623 3.21 1.36 1.625 2.04 3.632 2.04 6.021 0 3.666-1.26 6.503-3.783 8.51-2.521 2.007-6.104 3.01-10.749 3.01-1.56 0-3.168-.157-4.827-.472a34.062 34.062 0 0 1-5.101-1.368v-4.853a17.414 17.414 0 0 0 4.579 1.841c1.658.416 3.392.623 5.2.623 3.152 0 5.55-.622 7.192-1.866 1.658-1.244 2.488-3.053 2.488-5.425 0-2.19-.772-3.898-2.315-5.125-1.526-1.244-3.658-1.867-6.396-1.867h-4.329v-4.13h4.53c2.471 0 4.362-.49 5.673-1.469 1.31-.995 1.965-2.422 1.965-4.28 0-1.907-.68-3.367-2.04-4.38-1.343-1.027-3.276-1.54-5.797-1.54-1.377 0-2.854.148-4.43.445-1.575.3-3.309.764-5.2 1.395v-4.479a48.718 48.718 0 0 1 5.35-1.194 30.226 30.226 0 0 1 4.727-.399c3.816 0 6.835.871 9.058 2.612 2.223 1.726 3.334 4.065 3.334 7.019 0 2.057-.589 3.798-1.767 5.224-1.177 1.41-2.852 2.389-5.026 2.937zm28.565-.548c-2.256 0-4.048.772-5.375 2.315-1.31 1.542-1.966 3.657-1.966 6.344 0 2.671.655 4.786 1.966 6.345 1.327 1.543 3.119 2.315 5.375 2.315 2.255 0 4.039-.772 5.35-2.314 1.327-1.56 1.99-3.674 1.99-6.344 0-2.689-.663-4.804-1.99-6.346-1.311-1.543-3.095-2.315-5.352-2.315zm9.978-15.75v4.578a20.08 20.08 0 0 0-3.833-1.37 15.888 15.888 0 0 0-3.806-.47c-3.318 0-5.856 1.119-7.615 3.358-1.741 2.24-2.737 5.623-2.986 10.152.979-1.444 2.207-2.547 3.683-3.31 1.476-.78 3.102-1.17 4.877-1.17 3.733 0 6.677 1.137 8.834 3.41 2.172 2.256 3.258 5.333 3.258 9.231 0 3.815-1.127 6.876-3.383 9.182-2.256 2.306-5.258 3.459-9.007 3.459-4.297 0-7.582-1.642-9.855-4.927-2.272-3.301-3.408-8.078-3.408-14.332 0-5.872 1.393-10.55 4.179-14.034 2.788-3.5 6.529-5.25 11.224-5.25 1.26 0 2.53.125 3.807.373 1.293.249 2.637.622 4.03 1.12zm26.3 16.298c2.405.514 4.28 1.584 5.623 3.21 1.36 1.625 2.041 3.632 2.041 6.021 0 3.666-1.26 6.503-3.782 8.51-2.522 2.007-6.105 3.01-10.749 3.01-1.56 0-3.169-.157-4.828-.472a34.02 34.02 0 0 1-5.1-1.368v-4.853a17.39 17.39 0 0 0 4.579 1.841c1.658.416 3.392.623 5.2.623 3.151 0 5.548-.622 7.19-1.866 1.66-1.244 2.488-3.053 2.488-5.425 0-2.19-.77-3.898-2.313-5.125-1.526-1.244-3.658-1.867-6.396-1.867h-4.329v-4.13h4.53c2.471 0 4.362-.49 5.673-1.469 1.31-.995 1.965-2.422 1.965-4.28 0-1.907-.68-3.367-2.04-4.38-1.344-1.027-3.276-1.54-5.797-1.54-1.378 0-2.854.148-4.43.445-1.576.3-3.31.764-5.2 1.395v-4.479c1.907-.53 3.69-.929 5.35-1.194a30.243 30.243 0 0 1 4.726-.399c3.816 0 6.835.871 9.058 2.612 2.222 1.726 3.334 4.065 3.334 7.019 0 2.057-.589 3.798-1.766 5.224-1.178 1.41-2.854 2.389-5.027 2.937zM14.16 235.628v-4.578a20.039 20.039 0 0 0 3.832 1.37 16.09 16.09 0 0 0 3.806.47c3.318 0 5.848-1.11 7.59-3.333 1.758-2.24 2.761-5.631 3.01-10.177-.962 1.427-2.182 2.522-3.658 3.284-1.476.764-3.11 1.146-4.902 1.146-3.716 0-6.66-1.12-8.833-3.36-2.157-2.256-3.236-5.333-3.236-9.231 0-3.815 1.129-6.876 3.385-9.182s5.259-3.459 9.008-3.459c4.296 0 7.573 1.65 9.828 4.952 2.273 3.285 3.41 8.062 3.41 14.333 0 5.855-1.394 10.533-4.18 14.033-2.77 3.484-6.504 5.226-11.199 5.226-1.26 0-2.537-.125-3.83-.374a27.358 27.358 0 0 1-4.031-1.12zm10.002-15.75c2.256 0 4.04-.772 5.35-2.315 1.327-1.542 1.99-3.657 1.99-6.344 0-2.671-.663-4.778-1.99-6.32-1.31-1.56-3.094-2.34-5.35-2.34s-4.047.78-5.374 2.34c-1.31 1.542-1.966 3.648-1.966 6.318 0 2.689.655 4.804 1.966 6.346 1.327 1.543 3.118 2.315 5.374 2.315zm33.019-17.319c-2.588 0-4.537 1.278-5.848 3.833-1.293 2.537-1.94 6.361-1.94 11.47 0 5.093.647 8.917 1.94 11.472 1.31 2.537 3.26 3.806 5.848 3.806 2.605 0 4.554-1.269 5.848-3.806 1.31-2.555 1.965-6.379 1.965-11.471 0-5.11-.655-8.934-1.965-11.471-1.294-2.555-3.243-3.833-5.848-3.833zm0-3.98c4.164 0 7.34 1.65 9.53 4.951 2.206 3.284 3.31 8.062 3.31 14.333 0 6.253-1.104 11.03-3.31 14.332-2.189 3.284-5.365 4.927-9.529 4.927s-7.349-1.643-9.555-4.927c-2.19-3.301-3.285-8.079-3.285-14.332 0-6.271 1.094-11.048 3.284-14.333 2.207-3.301 5.392-4.952 9.555-4.952zm36.901 17.79c2.406.514 4.28 1.584 5.624 3.21 1.36 1.626 2.04 3.633 2.04 6.022 0 3.666-1.26 6.502-3.782 8.51-2.522 2.007-6.105 3.01-10.75 3.01-1.558 0-3.167-.157-4.827-.472a34.063 34.063 0 0 1-5.101-1.368v-4.853a17.414 17.414 0 0 0 4.579 1.84c1.658.416 3.392.624 5.2.624 3.152 0 5.55-.622 7.192-1.867 1.658-1.244 2.488-3.052 2.488-5.424 0-2.19-.771-3.898-2.314-5.125-1.526-1.245-3.658-1.867-6.395-1.867h-4.33v-4.13h4.529c2.471 0 4.362-.49 5.673-1.47 1.31-.994 1.965-2.421 1.965-4.28 0-1.906-.68-3.366-2.04-4.378-1.343-1.028-3.276-1.542-5.797-1.542-1.377 0-2.853.149-4.43.446-1.575.299-3.309.764-5.2 1.395v-4.48a48.72 48.72 0 0 1 5.35-1.193 30.228 30.228 0 0 1 4.727-.399c3.816 0 6.835.87 9.058 2.612 2.223 1.726 3.334 4.065 3.334 7.018 0 2.057-.589 3.799-1.767 5.225-1.177 1.41-2.852 2.389-5.026 2.936zm27.944-13.81c-2.588 0-4.537 1.278-5.848 3.833-1.294 2.537-1.941 6.361-1.941 11.47 0 5.093.647 8.917 1.941 11.472 1.31 2.537 3.26 3.806 5.848 3.806 2.604 0 4.553-1.269 5.848-3.806 1.31-2.555 1.965-6.379 1.965-11.471 0-5.11-.655-8.934-1.965-11.471-1.295-2.555-3.244-3.833-5.848-3.833zm0-3.98c4.163 0 7.34 1.65 9.53 4.951 2.206 3.284 3.31 8.062 3.31 14.333 0 6.253-1.104 11.03-3.31 14.332-2.19 3.284-5.367 4.927-9.53 4.927-4.164 0-7.35-1.643-9.555-4.927-2.19-3.301-3.284-8.079-3.284-14.332 0-6.271 1.094-11.048 3.284-14.333 2.206-3.301 5.39-4.952 9.555-4.952zm36.901 17.79c2.405.514 4.28 1.584 5.624 3.21 1.36 1.626 2.04 3.633 2.04 6.022 0 3.666-1.262 6.502-3.783 8.51-2.521 2.007-6.104 3.01-10.749 3.01-1.56 0-3.169-.157-4.828-.472a34.022 34.022 0 0 1-5.1-1.368v-4.853a17.39 17.39 0 0 0 4.579 1.84c1.658.416 3.392.624 5.2.624 3.151 0 5.548-.622 7.19-1.867 1.66-1.244 2.489-3.052 2.489-5.424 0-2.19-.772-3.898-2.314-5.125-1.526-1.245-3.658-1.867-6.395-1.867h-4.33v-4.13h4.53c2.471 0 4.362-.49 5.673-1.47 1.31-.994 1.965-2.421 1.965-4.28 0-1.906-.68-3.366-2.04-4.378-1.344-1.028-3.276-1.542-5.797-1.542-1.378 0-2.854.149-4.43.446-1.576.299-3.31.764-5.2 1.395v-4.48a48.721 48.721 0 0 1 5.35-1.193 30.228 30.228 0 0 1 4.727-.399c3.815 0 6.835.87 9.058 2.612 2.223 1.726 3.334 4.065 3.334 7.018 0 2.057-.589 3.799-1.767 5.225-1.178 1.41-2.853 2.389-5.026 2.936zm21.524 15.8h17.542v4.23h-23.59v-4.23a972.56 972.56 0 0 1 7.789-7.936c3.3-3.335 5.375-5.483 6.22-6.446 1.61-1.808 2.73-3.334 3.36-4.578.647-1.26.97-2.497.97-3.708 0-1.973-.696-3.583-2.09-4.827-1.377-1.244-3.176-1.866-5.399-1.866-1.576 0-3.244.274-5.002.822-1.742.546-3.608 1.376-5.599 2.488v-5.076c2.024-.813 3.915-1.427 5.673-1.842 1.758-.415 3.368-.622 4.829-.622 3.847 0 6.916.962 9.205 2.887 2.29 1.924 3.434 4.495 3.434 7.713a11.1 11.1 0 0 1-.87 4.354c-.564 1.36-1.601 2.97-3.111 4.829-.415.48-1.733 1.873-3.956 4.178-2.223 2.29-5.358 5.5-9.406 9.632zm43.32-15.8c2.405.514 4.28 1.584 5.623 3.21 1.36 1.626 2.041 3.633 2.041 6.022 0 3.666-1.261 6.502-3.784 8.51-2.52 2.007-6.103 3.01-10.748 3.01-1.56 0-3.169-.157-4.827-.472a34.063 34.063 0 0 1-5.101-1.368v-4.853a17.414 17.414 0 0 0 4.578 1.84c1.659.416 3.393.624 5.2.624 3.153 0 5.55-.622 7.192-1.867 1.66-1.244 2.489-3.052 2.489-5.424 0-2.19-.772-3.898-2.315-5.125-1.526-1.245-3.658-1.867-6.396-1.867h-4.329v-4.13h4.53c2.47 0 4.362-.49 5.672-1.47 1.31-.994 1.966-2.421 1.966-4.28 0-1.906-.68-3.366-2.04-4.378-1.343-1.028-3.276-1.542-5.797-1.542-1.377 0-2.854.149-4.43.446-1.576.299-3.31.764-5.2 1.395v-4.48a48.72 48.72 0 0 1 5.35-1.193 30.228 30.228 0 0 1 4.727-.399c3.816 0 6.835.87 9.058 2.612 2.222 1.726 3.334 4.065 3.334 7.018 0 2.057-.59 3.799-1.767 5.225-1.177 1.41-2.853 2.389-5.026 2.936zm28.565-.547c-2.255 0-4.047.771-5.375 2.314-1.31 1.543-1.965 3.658-1.965 6.345 0 2.671.655 4.786 1.965 6.344 1.328 1.544 3.12 2.315 5.375 2.315 2.256 0 4.04-.77 5.351-2.313 1.327-1.56 1.99-3.674 1.99-6.345 0-2.688-.664-4.803-1.991-6.346-1.31-1.543-3.094-2.314-5.35-2.314zm9.978-15.75v4.578a20.04 20.04 0 0 0-3.832-1.37 15.888 15.888 0 0 0-3.807-.47c-3.317 0-5.855 1.118-7.614 3.357-1.741 2.24-2.737 5.624-2.986 10.153.979-1.444 2.207-2.547 3.683-3.31 1.476-.78 3.101-1.17 4.876-1.17 3.733 0 6.678 1.137 8.834 3.41 2.173 2.255 3.26 5.333 3.26 9.231 0 3.815-1.129 6.876-3.385 9.182-2.255 2.306-5.258 3.459-9.007 3.459-4.296 0-7.581-1.643-9.854-4.927-2.272-3.301-3.408-8.079-3.408-14.332 0-5.873 1.393-10.55 4.179-14.035 2.787-3.499 6.529-5.249 11.224-5.249 1.26 0 2.529.124 3.806.372 1.294.25 2.638.623 4.031 1.12zm11.222 35.556v-4.578a20.08 20.08 0 0 0 3.832 1.37c1.294.313 2.563.47 3.808.47 3.317 0 5.847-1.11 7.589-3.333 1.758-2.24 2.762-5.631 3.01-10.177-.962 1.427-2.181 2.522-3.657 3.284-1.476.764-3.11 1.146-4.903 1.146-3.715 0-6.66-1.12-8.832-3.36-2.157-2.256-3.236-5.333-3.236-9.231 0-3.815 1.128-6.876 3.385-9.182 2.256-2.306 5.258-3.459 9.007-3.459 4.297 0 7.573 1.65 9.829 4.952 2.273 3.285 3.41 8.062 3.41 14.333 0 5.855-1.395 10.533-4.182 14.033-2.77 3.484-6.502 5.226-11.197 5.226-1.26 0-2.538-.125-3.831-.374a27.4 27.4 0 0 1-4.032-1.12zm10.003-15.75c2.256 0 4.04-.772 5.35-2.315 1.327-1.542 1.99-3.657 1.99-6.344 0-2.671-.663-4.778-1.99-6.32-1.311-1.56-3.094-2.34-5.35-2.34s-4.047.78-5.375 2.34c-1.31 1.542-1.966 3.648-1.966 6.318 0 2.689.656 4.804 1.966 6.346 1.328 1.543 3.12 2.315 5.375 2.315zm33.02-17.319c-2.589 0-4.538 1.278-5.848 3.833-1.294 2.537-1.94 6.361-1.94 11.47 0 5.093.646 8.917 1.94 11.472 1.31 2.537 3.26 3.806 5.847 3.806 2.604 0 4.554-1.269 5.848-3.806 1.31-2.555 1.966-6.379 1.966-11.471 0-5.11-.655-8.934-1.966-11.471-1.294-2.555-3.244-3.833-5.848-3.833zm0-3.98c4.163 0 7.34 1.65 9.529 4.951 2.206 3.284 3.31 8.062 3.31 14.333 0 6.253-1.104 11.03-3.31 14.332-2.19 3.284-5.366 4.927-9.53 4.927-4.163 0-7.348-1.643-9.555-4.927-2.19-3.301-3.284-8.079-3.284-14.332 0-6.271 1.095-11.048 3.284-14.333 2.207-3.301 5.392-4.952 9.555-4.952zm36.9 17.79c2.406.514 4.28 1.584 5.624 3.21 1.36 1.626 2.04 3.633 2.04 6.022 0 3.666-1.26 6.502-3.782 8.51-2.521 2.007-6.105 3.01-10.75 3.01-1.559 0-3.168-.157-4.827-.472a34.063 34.063 0 0 1-5.1-1.368v-4.853a17.39 17.39 0 0 0 4.578 1.84c1.659.416 3.392.624 5.2.624 3.152 0 5.55-.622 7.192-1.867 1.659-1.244 2.488-3.052 2.488-5.424 0-2.19-.771-3.898-2.315-5.125-1.526-1.245-3.658-1.867-6.395-1.867h-4.33v-4.13h4.53c2.472 0 4.363-.49 5.673-1.47 1.31-.994 1.966-2.421 1.966-4.28 0-1.906-.68-3.366-2.04-4.378-1.343-1.028-3.276-1.542-5.798-1.542-1.377 0-2.853.149-4.43.446-1.575.299-3.308.764-5.2 1.395v-4.48a48.721 48.721 0 0 1 5.35-1.193 30.228 30.228 0 0 1 4.727-.399c3.816 0 6.836.87 9.058 2.612 2.223 1.726 3.335 4.065 3.335 7.018 0 2.057-.59 3.799-1.768 5.225-1.178 1.41-2.853 2.389-5.025 2.936zm27.943-13.81c-2.587 0-4.536 1.278-5.848 3.833-1.293 2.537-1.94 6.361-1.94 11.47 0 5.093.647 8.917 1.942 11.472 1.31 2.537 3.26 3.806 5.847 3.806 2.604 0 4.554-1.269 5.848-3.806 1.31-2.555 1.964-6.379 1.964-11.471 0-5.11-.655-8.934-1.965-11.471-1.294-2.555-3.243-3.833-5.848-3.833zm0-3.98c4.164 0 7.34 1.65 9.53 4.951 2.207 3.284 3.31 8.062 3.31 14.333 0 6.253-1.103 11.03-3.31 14.332-2.189 3.284-5.365 4.927-9.529 4.927s-7.349-1.643-9.555-4.927c-2.19-3.301-3.285-8.079-3.285-14.332 0-6.271 1.095-11.048 3.284-14.333 2.207-3.301 5.392-4.952 9.555-4.952zm26.004 33.59h17.542v4.23h-23.59v-4.23a990.883 990.883 0 0 1 7.79-7.936c3.3-3.335 5.373-5.483 6.22-6.446 1.609-1.808 2.728-3.334 3.358-4.578.647-1.26.971-2.497.971-3.708 0-1.973-.696-3.583-2.09-4.827-1.377-1.244-3.177-1.866-5.4-1.866-1.575 0-3.243.274-5.001.822-1.742.546-3.608 1.376-5.598 2.488v-5.076c2.024-.813 3.915-1.427 5.673-1.842 1.758-.415 3.367-.622 4.827-.622 3.848 0 6.917.962 9.207 2.887 2.289 1.924 3.433 4.495 3.433 7.713 0 1.526-.29 2.977-.871 4.354-.564 1.36-1.6 2.97-3.11 4.829-.414.48-1.733 1.873-3.957 4.178-2.223 2.29-5.357 5.5-9.404 9.632zm38.841-29.61c-2.588 0-4.537 1.278-5.848 3.833-1.293 2.537-1.94 6.361-1.94 11.47 0 5.093.647 8.917 1.94 11.472 1.31 2.537 3.26 3.806 5.848 3.806 2.604 0 4.553-1.269 5.848-3.806 1.31-2.555 1.965-6.379 1.965-11.471 0-5.11-.655-8.934-1.965-11.471-1.295-2.555-3.244-3.833-5.848-3.833zm0-3.98c4.163 0 7.34 1.65 9.53 4.951 2.206 3.284 3.31 8.062 3.31 14.333 0 6.253-1.104 11.03-3.31 14.332-2.19 3.284-5.367 4.927-9.53 4.927-4.163 0-7.348-1.643-9.555-4.927-2.19-3.301-3.284-8.079-3.284-14.332 0-6.271 1.095-11.049 3.284-14.333 2.207-3.301 5.392-4.952 9.555-4.952zm22.543 33.59h8.211v-28.34l-8.932 1.79v-4.577l8.883-1.792h5.027v32.92h8.21v4.23h-21.399zm45.362-28.54-12.69 19.831h12.689zm-1.318-4.38h6.319v24.211h5.3v4.182h-5.3v8.758h-5v-8.758h-16.772v-4.854zm24.259 32.92h17.543v4.23h-23.59v-4.23a962.317 962.317 0 0 1 7.79-7.936c3.3-3.335 5.373-5.483 6.22-6.446 1.609-1.808 2.729-3.334 3.359-4.578.647-1.26.97-2.497.97-3.708 0-1.973-.696-3.583-2.089-4.827-1.377-1.244-3.177-1.866-5.4-1.866-1.576 0-3.243.274-5.002.822-1.74.546-3.607 1.376-5.598 2.488v-5.076c2.024-.813 3.915-1.427 5.673-1.842 1.759-.415 3.368-.622 4.828-.622 3.848 0 6.916.962 9.205 2.887 2.29 1.924 3.435 4.495 3.435 7.713 0 1.526-.29 2.977-.871 4.354-.564 1.36-1.6 2.97-3.11 4.829-.415.48-1.734 1.873-3.957 4.178-2.223 2.29-5.358 5.5-9.406 9.632zm26.824-32.92h23.887v2.14L574.32 236.4h-5.249l12.69-32.92h-17.842zM24.76 266.26c-2.588 0-4.537 1.277-5.847 3.832-1.294 2.538-1.94 6.362-1.94 11.471 0 5.093.646 8.916 1.94 11.471 1.31 2.538 3.26 3.807 5.847 3.807 2.604 0 4.553-1.269 5.848-3.807 1.31-2.555 1.966-6.378 1.966-11.47 0-5.11-.656-8.934-1.966-11.472-1.295-2.555-3.244-3.832-5.848-3.832zm0-3.981c4.164 0 7.34 1.65 9.53 4.952 2.206 3.284 3.31 8.062 3.31 14.332 0 6.254-1.103 11.031-3.31 14.333-2.19 3.284-5.366 4.926-9.53 4.926-4.163 0-7.348-1.642-9.555-4.926-2.19-3.302-3.284-8.08-3.284-14.333 0-6.27 1.095-11.048 3.284-14.332 2.207-3.302 5.392-4.952 9.555-4.952zm36.901 17.791c2.406.514 4.28 1.584 5.624 3.21 1.36 1.625 2.04 3.632 2.04 6.021 0 3.666-1.26 6.503-3.783 8.51-2.52 2.008-6.104 3.011-10.749 3.011-1.56 0-3.168-.157-4.827-.472a34.062 34.062 0 0 1-5.101-1.369v-4.852a17.391 17.391 0 0 0 4.579 1.84c1.658.416 3.392.624 5.2.624 3.152 0 5.55-.623 7.192-1.867 1.659-1.244 2.488-3.052 2.488-5.425 0-2.19-.772-3.898-2.315-5.125-1.526-1.244-3.658-1.866-6.395-1.866h-4.33v-4.13h4.53c2.471 0 4.362-.49 5.673-1.47 1.31-.995 1.966-2.422 1.966-4.28 0-1.907-.68-3.366-2.04-4.379-1.344-1.027-3.276-1.541-5.798-1.541-1.377 0-2.853.148-4.43.446-1.575.299-3.309.764-5.2 1.395v-4.48a48.718 48.718 0 0 1 5.35-1.193 30.226 30.226 0 0 1 4.727-.4c3.816 0 6.836.871 9.058 2.612 2.223 1.726 3.334 4.066 3.334 7.019 0 2.057-.589 3.799-1.767 5.225-1.178 1.41-2.853 2.388-5.026 2.936zm17.244-17.12h19.731v4.23H83.508v9.109c.73-.25 1.46-.432 2.191-.548.729-.133 1.458-.2 2.189-.2 4.147 0 7.431 1.136 9.853 3.41 2.422 2.272 3.633 5.35 3.633 9.23 0 3.998-1.244 7.109-3.733 9.331-2.488 2.207-5.997 3.31-10.525 3.31-1.56 0-3.152-.133-4.778-.399a38.065 38.065 0 0 1-5-1.193v-5.052a19.577 19.577 0 0 0 4.627 1.817c1.592.398 3.276.598 5.051.598 2.871 0 5.144-.756 6.819-2.266 1.675-1.509 2.512-3.557 2.512-6.145 0-2.588-.837-4.637-2.512-6.146-1.676-1.51-3.949-2.264-6.819-2.264-1.343 0-2.687.15-4.03.447-1.327.3-2.687.764-4.081 1.394zm32.522 36.38v-4.58a20.049 20.049 0 0 0 3.831 1.37 16.1 16.1 0 0 0 3.807.471c3.318 0 5.848-1.111 7.59-3.334 1.757-2.239 2.761-5.63 3.01-10.176-.961 1.426-2.18 2.521-3.657 3.284-1.477.763-3.11 1.145-4.902 1.145-3.716 0-6.66-1.12-8.834-3.36-2.156-2.255-3.235-5.332-3.235-9.23 0-3.816 1.129-6.876 3.385-9.182s5.259-3.46 9.007-3.46c4.297 0 7.574 1.651 9.83 4.953 2.272 3.284 3.409 8.062 3.409 14.332 0 5.855-1.394 10.533-4.182 14.033-2.77 3.484-6.502 5.226-11.197 5.226-1.26 0-2.538-.124-3.832-.373a27.413 27.413 0 0 1-4.03-1.12zm10.001-15.751c2.257 0 4.04-.772 5.351-2.315 1.327-1.543 1.991-3.657 1.991-6.345 0-2.67-.664-4.778-1.991-6.32-1.31-1.56-3.094-2.339-5.35-2.339s-4.047.78-5.375 2.34c-1.31 1.541-1.965 3.648-1.965 6.318 0 2.688.655 4.803 1.965 6.346 1.328 1.543 3.12 2.315 5.375 2.315zm33.643-4.057c-2.256 0-4.048.772-5.375 2.315-1.311 1.543-1.966 3.657-1.966 6.345 0 2.67.655 4.786 1.966 6.344 1.327 1.543 3.12 2.315 5.376 2.315 2.255 0 4.038-.771 5.348-2.314 1.328-1.559 1.991-3.674 1.991-6.344 0-2.688-.663-4.803-1.991-6.346-1.31-1.543-3.094-2.315-5.35-2.315zm9.977-15.75v4.579a20.039 20.039 0 0 0-3.832-1.37 15.887 15.887 0 0 0-3.806-.471c-3.318 0-5.856 1.12-7.614 3.358-1.742 2.24-2.737 5.624-2.986 10.152.978-1.443 2.206-2.547 3.682-3.31 1.477-.78 3.103-1.169 4.878-1.169 3.732 0 6.676 1.136 8.833 3.41 2.173 2.255 3.26 5.332 3.26 9.23 0 3.816-1.128 6.876-3.384 9.182-2.257 2.306-5.26 3.46-9.007 3.46-4.298 0-7.583-1.643-9.855-4.927-2.272-3.302-3.409-8.08-3.409-14.333 0-5.872 1.394-10.55 4.18-14.034 2.788-3.5 6.529-5.249 11.223-5.249 1.26 0 2.53.124 3.807.372 1.294.249 2.638.622 4.03 1.12zm22.444 15.75c-2.255 0-4.047.772-5.373 2.315-1.31 1.543-1.966 3.657-1.966 6.345 0 2.67.655 4.786 1.966 6.344 1.326 1.543 3.118 2.315 5.373 2.315 2.257 0 4.04-.771 5.351-2.314 1.327-1.559 1.99-3.674 1.99-6.344 0-2.688-.663-4.803-1.99-6.346-1.31-1.543-3.094-2.315-5.35-2.315zm9.978-15.75v4.579a20.048 20.048 0 0 0-3.83-1.37 15.893 15.893 0 0 0-3.809-.471c-3.317 0-5.855 1.12-7.613 3.358-1.742 2.24-2.737 5.624-2.986 10.152.978-1.443 2.206-2.547 3.682-3.31 1.477-.78 3.103-1.169 4.878-1.169 3.732 0 6.676 1.136 8.832 3.41 2.174 2.255 3.26 5.332 3.26 9.23 0 3.816-1.127 6.876-3.383 9.182-2.257 2.306-5.26 3.46-9.007 3.46-4.298 0-7.583-1.643-9.855-4.927-2.272-3.302-3.409-8.08-3.409-14.333 0-5.872 1.393-10.55 4.18-14.034 2.788-3.5 6.529-5.249 11.224-5.249 1.26 0 2.528.124 3.805.372 1.295.249 2.638.622 4.031 1.12zm26.302 16.298c2.405.514 4.28 1.584 5.623 3.21 1.36 1.625 2.041 3.632 2.041 6.021 0 3.666-1.261 6.503-3.784 8.51-2.52 2.008-6.103 3.011-10.748 3.011-1.56 0-3.169-.157-4.827-.472a34.062 34.062 0 0 1-5.101-1.369v-4.852a17.415 17.415 0 0 0 4.578 1.84c1.659.416 3.393.624 5.2.624 3.153 0 5.55-.623 7.192-1.867 1.66-1.244 2.489-3.052 2.489-5.425 0-2.19-.772-3.898-2.315-5.125-1.526-1.244-3.658-1.866-6.396-1.866h-4.329v-4.13h4.53c2.47 0 4.362-.49 5.672-1.47 1.31-.995 1.966-2.422 1.966-4.28 0-1.907-.68-3.366-2.04-4.379-1.343-1.027-3.276-1.541-5.797-1.541-1.377 0-2.854.148-4.43.446-1.576.299-3.31.764-5.2 1.395v-4.48a48.718 48.718 0 0 1 5.35-1.193 30.226 30.226 0 0 1 4.727-.4c3.816 0 6.835.871 9.058 2.612 2.222 1.726 3.334 4.066 3.334 7.019 0 2.057-.59 3.799-1.767 5.225-1.177 1.41-2.853 2.388-5.026 2.936zm27.944 2.389c-2.39 0-4.272.639-5.65 1.916-1.36 1.277-2.04 3.035-2.04 5.274 0 2.24.68 3.998 2.04 5.276 1.378 1.277 3.26 1.916 5.65 1.916 2.388 0 4.27-.639 5.647-1.916 1.377-1.294 2.065-3.052 2.065-5.274 0-2.24-.688-3.999-2.063-5.276-1.361-1.277-3.244-1.916-5.65-1.916zm-5.028-2.14c-2.156-.531-3.84-1.535-5.05-3.01-1.195-1.477-1.792-3.277-1.792-5.4 0-2.97 1.053-5.317 3.16-7.043 2.123-1.725 5.026-2.587 8.71-2.587 3.698 0 6.601.862 8.707 2.587 2.108 1.726 3.161 4.074 3.161 7.043 0 2.123-.605 3.923-1.817 5.4-1.194 1.475-2.86 2.479-5.001 3.01 2.422.564 4.305 1.667 5.649 3.31 1.36 1.641 2.04 3.648 2.04 6.02 0 3.6-1.103 6.363-3.31 8.286-2.189 1.925-5.332 2.887-9.43 2.887-4.097 0-7.25-.962-9.455-2.887-2.19-1.923-3.284-4.685-3.284-8.286 0-2.372.68-4.379 2.04-6.02 1.36-1.643 3.251-2.746 5.672-3.31zm-1.84-7.937c0 1.923.597 3.424 1.79 4.503 1.212 1.079 2.904 1.618 5.078 1.618 2.156 0 3.84-.54 5.05-1.618 1.228-1.079 1.842-2.58 1.842-4.503 0-1.925-.614-3.426-1.842-4.504-1.21-1.079-2.894-1.618-5.05-1.618-2.174 0-3.866.54-5.077 1.618-1.194 1.079-1.791 2.58-1.791 4.504zm27.27-9.432h23.888v2.14L282.52 300.1h-5.25l12.69-32.92h-17.841zm32.423 0h23.887v2.14L314.94 300.1h-5.248l12.689-32.92H304.54zm47.502 4.38-12.69 19.831h12.688zm-1.32-4.38h6.32v24.211h5.3v4.181h-5.3v8.76h-5v-8.76h-16.771v-4.854zm33.741 4.38-12.69 19.831h12.69zm-1.318-4.38h6.319v24.211h5.3v4.181h-5.3v8.76h-5v-8.76h-16.771v-4.854zm33.74 4.38-12.689 19.831h12.69zm-1.318-4.38h6.319v24.211h5.3v4.181h-5.3v8.76h-5v-8.76h-16.772v-4.854zm33.74 4.38L436.62 287.16h12.69zm-1.318-4.38h6.32v24.211h5.3v4.181h-5.3v8.76h-5.002v-8.76h-16.77v-4.854zm33.74 4.38-12.689 19.831h12.689zm-1.319-4.38h6.32v24.211h5.3v4.181h-5.3v8.76h-5.001v-8.76h-16.77v-4.854zm18.663 0h23.888v2.14l-13.488 35.01h-5.25l12.689-32.92h-17.84zm32.422 0h23.887v2.14l-13.486 35.01h-5.25l12.689-32.92h-17.84zm45.062 16.572c-2.255 0-4.047.772-5.375 2.315-1.31 1.543-1.965 3.657-1.965 6.345 0 2.67.655 4.786 1.965 6.344 1.328 1.543 3.12 2.315 5.375 2.315 2.256 0 4.04-.771 5.351-2.314 1.327-1.559 1.99-3.674 1.99-6.344 0-2.688-.664-4.803-1.991-6.346-1.31-1.543-3.094-2.315-5.35-2.315zm9.978-15.75v4.579a20.039 20.039 0 0 0-3.832-1.37 15.887 15.887 0 0 0-3.807-.471c-3.317 0-5.855 1.12-7.614 3.358-1.741 2.24-2.736 5.624-2.985 10.152.978-1.443 2.206-2.547 3.682-3.31 1.477-.78 3.102-1.169 4.877-1.169 3.732 0 6.677 1.136 8.833 3.41 2.174 2.255 3.26 5.332 3.26 9.23 0 3.816-1.128 6.876-3.384 9.182-2.256 2.306-5.259 3.46-9.008 3.46-4.296 0-7.58-1.643-9.853-4.927-2.272-3.302-3.409-8.08-3.409-14.333 0-5.872 1.393-10.55 4.18-14.034 2.787-3.5 6.528-5.249 11.223-5.249 1.26 0 2.53.124 3.806.372 1.294.249 2.638.622 4.031 1.12zM12.741 326.649H36.63v2.14L23.143 363.8h-5.252l12.69-32.92h-17.84Zm48.92 17.12c2.406.514 4.28 1.584 5.624 3.21 1.36 1.625 2.04 3.632 2.04 6.021 0 3.666-1.26 6.503-3.783 8.51-2.52 2.007-6.104 3.01-10.749 3.01-1.56 0-3.168-.157-4.827-.472a34.065 34.065 0 0 1-5.101-1.368v-4.853a17.39 17.39 0 0 0 4.579 1.841c1.658.416 3.392.623 5.2.623 3.152 0 5.55-.622 7.192-1.866 1.659-1.244 2.488-3.053 2.488-5.425 0-2.19-.772-3.898-2.315-5.125-1.526-1.244-3.658-1.867-6.395-1.867h-4.33v-4.13h4.53c2.471 0 4.362-.49 5.673-1.469 1.31-.995 1.966-2.422 1.966-4.28 0-1.907-.68-3.367-2.04-4.38-1.344-1.027-3.276-1.54-5.798-1.54-1.377 0-2.853.148-4.43.445-1.575.3-3.309.764-5.2 1.395v-4.48a48.718 48.718 0 0 1 5.35-1.193 30.227 30.227 0 0 1 4.727-.399c3.816 0 6.836.871 9.058 2.612 2.223 1.726 3.334 4.065 3.334 7.019 0 2.057-.589 3.798-1.767 5.224-1.178 1.41-2.853 2.389-5.026 2.937zm17.343 19.259v-4.579a20.08 20.08 0 0 0 3.832 1.37 16.09 16.09 0 0 0 3.807.47c3.318 0 5.847-1.11 7.59-3.333 1.757-2.239 2.761-5.631 3.011-10.177-.962 1.427-2.182 2.522-3.659 3.285-1.476.763-3.11 1.145-4.901 1.145-3.716 0-6.66-1.12-8.834-3.36-2.156-2.255-3.235-5.333-3.235-9.231 0-3.815 1.128-6.876 3.384-9.182 2.257-2.306 5.26-3.459 9.007-3.459 4.298 0 7.575 1.651 9.83 4.952 2.272 3.285 3.408 8.062 3.408 14.333 0 5.855-1.393 10.533-4.178 14.033-2.772 3.484-6.504 5.226-11.199 5.226-1.26 0-2.537-.125-3.832-.373a27.415 27.415 0 0 1-4.03-1.12zm10.004-15.75c2.255 0 4.039-.772 5.35-2.315 1.326-1.543 1.99-3.658 1.99-6.345 0-2.671-.664-4.778-1.99-6.32-1.311-1.56-3.095-2.34-5.352-2.34-2.255 0-4.047.78-5.373 2.34-1.31 1.542-1.966 3.648-1.966 6.319 0 2.688.655 4.803 1.966 6.346 1.326 1.543 3.118 2.314 5.375 2.314zm37.497-3.51c2.405.515 4.28 1.585 5.623 3.211 1.361 1.625 2.041 3.632 2.041 6.021 0 3.666-1.26 6.503-3.782 8.51-2.522 2.007-6.105 3.01-10.749 3.01-1.56 0-3.169-.157-4.828-.472a34.023 34.023 0 0 1-5.1-1.368v-4.853a17.393 17.393 0 0 0 4.577 1.841c1.66.416 3.394.623 5.2.623 3.153 0 5.55-.622 7.193-1.866 1.658-1.244 2.488-3.053 2.488-5.425 0-2.19-.771-3.898-2.314-5.125-1.526-1.244-3.658-1.867-6.395-1.867h-4.33v-4.13h4.528c2.472 0 4.363-.49 5.675-1.469 1.31-.995 1.966-2.422 1.966-4.28 0-1.907-.68-3.367-2.041-4.38-1.344-1.027-3.276-1.54-5.797-1.54-1.378 0-2.854.148-4.43.445-1.576.3-3.31.764-5.2 1.395v-4.48c1.907-.53 3.69-.928 5.35-1.193a30.227 30.227 0 0 1 4.726-.399c3.816 0 6.835.871 9.058 2.612 2.223 1.726 3.334 4.065 3.334 7.019 0 2.057-.589 3.798-1.766 5.224-1.178 1.41-2.854 2.389-5.027 2.937zm31.004-12.74L144.82 350.86h12.689zm-1.319-4.38h6.32v24.212h5.3v4.181h-5.3v8.759h-5.001v-8.759h-16.77v-4.853zm31.302 16.573c-2.255 0-4.047.772-5.373 2.315-1.31 1.542-1.966 3.657-1.966 6.344 0 2.671.655 4.786 1.966 6.345 1.326 1.543 3.118 2.315 5.373 2.315 2.257 0 4.04-.772 5.351-2.314 1.327-1.56 1.99-3.674 1.99-6.344 0-2.689-.663-4.804-1.99-6.346-1.31-1.543-3.094-2.315-5.35-2.315zm9.978-15.75v4.578a20.05 20.05 0 0 0-3.83-1.37 15.893 15.893 0 0 0-3.809-.47c-3.317 0-5.855 1.119-7.613 3.358-1.742 2.24-2.737 5.623-2.986 10.152.978-1.444 2.206-2.547 3.682-3.31 1.477-.78 3.103-1.17 4.878-1.17 3.732 0 6.676 1.137 8.832 3.41 2.174 2.256 3.26 5.333 3.26 9.231 0 3.815-1.127 6.876-3.383 9.182-2.257 2.306-5.26 3.459-9.007 3.459-4.298 0-7.583-1.642-9.855-4.927-2.272-3.301-3.409-8.078-3.409-14.332 0-5.872 1.393-10.55 4.18-14.034 2.788-3.5 6.529-5.25 11.224-5.25 1.26 0 2.528.124 3.805.373 1.295.249 2.638.622 4.031 1.12zm11.223 35.557v-4.579a20.038 20.038 0 0 0 3.832 1.37 16.09 16.09 0 0 0 3.807.47c3.317 0 5.847-1.11 7.589-3.333 1.758-2.239 2.762-5.631 3.01-10.177-.961 1.427-2.18 2.522-3.656 3.285-1.477.763-3.111 1.145-4.902 1.145-3.716 0-6.66-1.12-8.834-3.36-2.157-2.255-3.235-5.333-3.235-9.231 0-3.815 1.128-6.876 3.384-9.182 2.257-2.306 5.259-3.459 9.007-3.459 4.298 0 7.574 1.651 9.829 4.952 2.273 3.285 3.41 8.062 3.41 14.333 0 5.855-1.394 10.533-4.18 14.033-2.771 3.484-6.504 5.226-11.2 5.226-1.259 0-2.536-.125-3.83-.373a27.415 27.415 0 0 1-4.031-1.12zm10.003-15.75c2.256 0 4.04-.772 5.35-2.315 1.326-1.543 1.99-3.658 1.99-6.345 0-2.671-.664-4.778-1.99-6.32-1.31-1.56-3.094-2.34-5.351-2.34-2.256 0-4.047.78-5.374 2.34-1.31 1.542-1.965 3.648-1.965 6.319 0 2.688.655 4.803 1.965 6.346 1.327 1.543 3.119 2.314 5.375 2.314zm33.02-1.12c-2.39 0-4.272.638-5.65 1.916-1.36 1.277-2.04 3.035-2.04 5.274 0 2.24.68 3.998 2.04 5.276 1.378 1.277 3.26 1.916 5.65 1.916 2.388 0 4.27-.64 5.647-1.916 1.377-1.294 2.065-3.052 2.065-5.275 0-2.24-.688-3.998-2.063-5.275-1.361-1.278-3.244-1.916-5.65-1.916zm-5.028-2.14c-2.156-.532-3.84-1.535-5.05-3.011-1.195-1.476-1.792-3.276-1.792-5.4 0-2.969 1.053-5.316 3.16-7.042 2.123-1.724 5.026-2.586 8.71-2.586 3.698 0 6.601.862 8.707 2.586 2.108 1.726 3.161 4.073 3.161 7.043 0 2.123-.605 3.923-1.817 5.399-1.194 1.476-2.86 2.48-5.001 3.01 2.422.564 4.305 1.667 5.649 3.31 1.36 1.642 2.04 3.649 2.04 6.02 0 3.601-1.103 6.363-3.31 8.287-2.189 1.925-5.332 2.887-9.43 2.887-4.097 0-7.25-.962-9.455-2.887-2.19-1.924-3.284-4.686-3.284-8.286 0-2.372.68-4.38 2.04-6.021 1.36-1.643 3.251-2.746 5.672-3.31zm-1.84-7.938c0 1.924.597 3.425 1.79 4.504 1.212 1.078 2.904 1.618 5.078 1.618 2.156 0 3.84-.54 5.05-1.618 1.228-1.079 1.842-2.58 1.842-4.504 0-1.924-.614-3.426-1.842-4.503-1.21-1.079-2.894-1.618-5.05-1.618-2.174 0-3.866.539-5.077 1.618-1.194 1.078-1.791 2.58-1.791 4.503zm28.59-9.431h19.732v4.23h-15.13v9.109c.73-.25 1.46-.433 2.189-.548.73-.134 1.46-.2 2.191-.2 4.147 0 7.43 1.136 9.853 3.409 2.422 2.273 3.632 5.35 3.632 9.231 0 3.998-1.244 7.108-3.732 9.331-2.489 2.207-5.997 3.31-10.525 3.31-1.56 0-3.152-.133-4.777-.399a38.051 38.051 0 0 1-5.002-1.194v-5.051a19.6 19.6 0 0 0 4.628 1.817 20.75 20.75 0 0 0 5.052.597c2.869 0 5.141-.755 6.817-2.265 1.676-1.51 2.513-3.558 2.513-6.146s-.837-4.636-2.513-6.145c-1.676-1.51-3.948-2.264-6.817-2.264-1.344 0-2.688.149-4.032.447-1.327.299-2.687.763-4.081 1.394zm33.243 32.92h8.21v-28.341l-8.931 1.79v-4.577l8.882-1.792h5.027v32.92h8.211v4.23h-21.4zm45.362-28.54-12.69 19.83h12.688zm-1.32-4.38h6.32v24.21h5.3v4.182h-5.3v8.759h-5v-8.759h-16.771v-4.853zm24.26 32.92h17.543v4.23h-23.589v-4.23a962.51 962.51 0 0 1 7.79-7.937c3.3-3.335 5.373-5.483 6.219-6.445 1.61-1.808 2.73-3.335 3.36-4.579.647-1.26.97-2.496.97-3.707 0-1.974-.696-3.583-2.09-4.827-1.377-1.245-3.177-1.867-5.4-1.867-1.576 0-3.243.274-5.001.822-1.741.547-3.607 1.376-5.598 2.488v-5.076c2.023-.812 3.914-1.427 5.673-1.842 1.758-.414 3.367-.622 4.827-.622 3.848 0 6.917.963 9.206 2.887 2.29 1.924 3.435 4.495 3.435 7.713 0 1.526-.29 2.978-.872 4.355-.564 1.36-1.6 2.97-3.11 4.828-.415.48-1.734 1.874-3.957 4.179-2.222 2.29-5.358 5.5-9.406 9.631zm43.321-15.8c2.406.514 4.28 1.584 5.624 3.21 1.36 1.625 2.04 3.632 2.04 6.021 0 3.666-1.26 6.503-3.782 8.51-2.522 2.007-6.104 3.01-10.749 3.01-1.559 0-3.168-.157-4.828-.472a34.023 34.023 0 0 1-5.1-1.368v-4.853a17.393 17.393 0 0 0 4.578 1.841c1.66.416 3.393.623 5.2.623 3.152 0 5.55-.622 7.192-1.866 1.659-1.244 2.488-3.053 2.488-5.425 0-2.19-.771-3.898-2.314-5.125-1.526-1.244-3.658-1.867-6.395-1.867h-4.33v-4.13h4.529c2.471 0 4.363-.49 5.674-1.469 1.31-.995 1.966-2.422 1.966-4.28 0-1.907-.68-3.367-2.041-4.38-1.344-1.027-3.276-1.54-5.797-1.54-1.377 0-2.854.148-4.43.445-1.576.3-3.31.764-5.2 1.395v-4.48c1.908-.53 3.69-.928 5.35-1.193a30.227 30.227 0 0 1 4.726-.399c3.816 0 6.835.871 9.058 2.612 2.223 1.726 3.334 4.065 3.334 7.019 0 2.057-.588 3.798-1.766 5.224-1.178 1.41-2.853 2.389-5.027 2.937zm21.524 15.8h17.543v4.23h-23.589v-4.23a972.393 972.393 0 0 1 7.788-7.937c3.301-3.335 5.375-5.483 6.22-6.445 1.61-1.808 2.73-3.335 3.36-4.579.647-1.26.97-2.496.97-3.707 0-1.974-.697-3.583-2.09-4.827-1.376-1.245-3.176-1.867-5.4-1.867-1.575 0-3.242.274-5 .822-1.742.547-3.609 1.376-5.6 2.488v-5.076c2.024-.812 3.915-1.427 5.674-1.842 1.758-.414 3.367-.622 4.828-.622 3.847 0 6.916.963 9.206 2.887 2.289 1.924 3.433 4.495 3.433 7.713a11.1 11.1 0 0 1-.87 4.355c-.565 1.36-1.602 2.97-3.111 4.828-.414.48-1.733 1.874-3.956 4.179-2.223 2.29-5.359 5.5-9.406 9.631zm28.241 3.459v-4.579a20.07 20.07 0 0 0 3.833 1.37 16.09 16.09 0 0 0 3.807.47c3.318 0 5.847-1.11 7.59-3.333 1.757-2.239 2.76-5.631 3.01-10.177-.963 1.427-2.181 2.522-3.657 3.285-1.477.763-3.112 1.145-4.903 1.145-3.716 0-6.66-1.12-8.833-3.36-2.157-2.255-3.236-5.333-3.236-9.231 0-3.815 1.129-6.876 3.385-9.182s5.258-3.459 9.007-3.459c4.297 0 7.573 1.651 9.83 4.952 2.272 3.285 3.408 8.062 3.408 14.333 0 5.855-1.393 10.533-4.18 14.033-2.77 3.484-6.503 5.226-11.198 5.226-1.26 0-2.537-.125-3.83-.373a27.358 27.358 0 0 1-4.032-1.12zm10.003-15.75c2.257 0 4.04-.772 5.351-2.315 1.327-1.543 1.99-3.658 1.99-6.345 0-2.671-.663-4.778-1.99-6.32-1.31-1.56-3.094-2.34-5.35-2.34s-4.048.78-5.374 2.34c-1.31 1.542-1.966 3.648-1.966 6.319 0 2.688.655 4.803 1.966 6.346 1.326 1.543 3.118 2.314 5.373 2.314zm26.6 12.29h17.543v4.23h-23.59v-4.23a972.226 972.226 0 0 1 7.789-7.936c3.301-3.335 5.375-5.483 6.22-6.445 1.61-1.808 2.73-3.335 3.36-4.579.647-1.26.97-2.496.97-3.707 0-1.974-.696-3.583-2.088-4.827-1.378-1.245-3.179-1.867-5.402-1.867-1.576 0-3.243.274-5 .822-1.742.547-3.608 1.376-5.6 2.488v-5.076c2.024-.812 3.916-1.427 5.675-1.842 1.758-.414 3.367-.622 4.827-.622 3.847 0 6.916.963 9.206 2.887 2.29 1.924 3.434 4.495 3.434 7.713 0 1.526-.29 2.978-.871 4.355-.564 1.36-1.6 2.97-3.11 4.828-.415.48-1.734 1.874-3.957 4.179-2.223 2.29-5.358 5.5-9.406 9.631zm39.465-16.347c-2.256 0-4.048.772-5.375 2.315-1.31 1.542-1.966 3.657-1.966 6.344 0 2.671.655 4.786 1.966 6.345 1.327 1.543 3.119 2.315 5.375 2.315 2.255 0 4.039-.772 5.35-2.314 1.327-1.56 1.99-3.674 1.99-6.344 0-2.689-.663-4.804-1.99-6.346-1.311-1.543-3.095-2.315-5.352-2.315zm9.978-15.75v4.578a20.081 20.081 0 0 0-3.833-1.37 15.888 15.888 0 0 0-3.806-.47c-3.318 0-5.856 1.119-7.615 3.358-1.741 2.24-2.737 5.623-2.986 10.152.979-1.444 2.207-2.547 3.683-3.31 1.476-.78 3.102-1.17 4.877-1.17 3.733 0 6.677 1.137 8.834 3.41 2.172 2.256 3.258 5.333 3.258 9.231 0 3.815-1.127 6.876-3.383 9.182-2.256 2.306-5.258 3.459-9.007 3.459-4.297 0-7.582-1.642-9.855-4.927-2.272-3.301-3.408-8.078-3.408-14.332 0-5.872 1.393-10.55 4.179-14.034 2.788-3.5 6.529-5.25 11.224-5.25 1.26 0 2.53.124 3.807.373 1.293.249 2.637.622 4.03 1.12zm11.121-.822h19.733v4.23h-15.128v9.109c.73-.25 1.459-.433 2.188-.548.73-.134 1.461-.2 2.192-.2 4.146 0 7.43 1.136 9.851 3.409 2.423 2.273 3.634 5.35 3.634 9.231 0 3.998-1.244 7.108-3.733 9.331-2.488 2.207-5.997 3.31-10.524 3.31-1.56 0-3.152-.133-4.778-.399a38.05 38.05 0 0 1-5.002-1.194v-5.051a19.6 19.6 0 0 0 4.629 1.817c1.592.398 3.276.597 5.05.597 2.87 0 5.144-.755 6.818-2.265 1.676-1.51 2.514-3.558 2.514-6.146s-.838-4.636-2.514-6.145c-1.675-1.51-3.948-2.264-6.818-2.264-1.344 0-2.687.149-4.03.447-1.328.299-2.688.763-4.082 1.394z" style="font-size:40px;line-height:1.25;fill:#74caa4;stroke-width:1.27399"/><g fill="none"><g stroke="#479a76" stroke-width="45" style="fill-rule:nonzero;stroke-linecap:butt;stroke-linejoin:miter;stroke-miterlimit:10;stroke-dasharray:none;stroke-dashoffset:0"><path stroke-width="57.7611" d="M126.674 186c0-43.913 35.599-79.51 79.512-79.51 43.91 0 93.855 79.51 93.855 79.51s-49.944 79.51-93.855 79.51c-43.913 0-79.512-35.597-79.512-79.51z"/><path stroke-width="57.7611" d="M393.814 265.51c-43.91 0-93.855-79.51-93.855-79.51s49.944-79.51 93.855-79.51c43.913 0 79.512 35.597 79.512 79.51 0 43.913-35.599 79.51-79.512 79.51z" data-paper-data="{&quot;index&quot;:null}"/></g><g stroke="#fff" stroke-width="22.5" style="fill-rule:nonzero;stroke-linecap:butt;stroke-linejoin:miter;stroke-miterlimit:10;stroke-dasharray:none;stroke-dashoffset:0"><path stroke-width="28.88055" d="M126.674 186c0-43.913 35.599-79.51 79.512-79.51 43.91 0 93.855 79.51 93.855 79.51s-49.944 79.51-93.855 79.51c-43.913 0-79.512-35.597-79.512-79.51z"/><path stroke-width="28.88055" d="M393.814 265.51c-43.91 0-93.855-79.51-93.855-79.51s49.944-79.51 93.855-79.51c43.913 0 79.512 35.597 79.512 79.51 0 43.913-35.599 79.51-79.512 79.51z" data-paper-data="{&quot;index&quot;:null}"/></g></g></svg>