<svg xmlns="http://www.w3.org/2000/svg" width="600" height="372"><path fill="#5cb1d6" d="M0 372V0h600v372Z" style="mix-blend-mode:normal;stroke-width:1.11355;stroke-miterlimit:10;stroke-dasharray:none;stroke-dashoffset:0"/><g fill="none" stroke="#518da6" stroke-linecap="round" stroke-width="26.336" style="mix-blend-mode:normal;stroke-miterlimit:10;stroke-dasharray:none;stroke-dashoffset:0"><path stroke-width="28.102092159999994" d="M45.775 94.686s.457-16.05 18.952-23.964c16.819-7.196 30.565 3.991 30.565 3.991"/><path stroke-width="28.102092159999994" d="M145.51 55.357s-2.137 17.594-19.241 24.08c-18.81 7.135-30.275-4.107-30.275-4.107" data-paper-data="{&quot;index&quot;:null}"/></g><g fill="none" stroke="#518da6" stroke-linecap="round" stroke-width="26.336" style="mix-blend-mode:normal;stroke-miterlimit:10;stroke-dasharray:none;stroke-dashoffset:0"><path stroke-width="28.102092159999994" d="M433.568 74.949s7.46-14.22 27.551-13.205c18.27.922 25.706 17.01 25.706 17.01"/><path stroke-width="28.102092159999994" d="M540.442 83.42s-9.647 14.868-27.863 13.183c-20.032-1.852-25.394-16.987-25.394-16.987" data-paper-data="{&quot;index&quot;:null}"/></g><g fill="none" stroke="#518da6" stroke-linecap="round" stroke-width="26.336" style="mix-blend-mode:normal;stroke-miterlimit:10;stroke-dasharray:none;stroke-dashoffset:0"><path stroke-width="28.102092159999994" d="M42.206 301.85s7.459-14.218 27.551-13.204c18.27.922 25.706 17.01 25.706 17.01"/><path stroke-width="28.102092159999994" d="M149.08 310.322s-9.647 14.868-27.863 13.183c-20.032-1.852-25.394-16.987-25.394-16.987" data-paper-data="{&quot;index&quot;:null}"/></g><g fill="none" stroke="#518da6" stroke-linecap="round" stroke-width="26.336" style="mix-blend-mode:normal;stroke-miterlimit:10;stroke-dasharray:none;stroke-dashoffset:0"><path stroke-width="28.102092159999994" d="M437.137 320.547s.457-16.05 18.952-23.964c16.82-7.196 30.565 3.991 30.565 3.991"/><path stroke-width="28.102092159999994" d="M536.872 281.218s-2.137 17.594-19.241 24.08c-18.81 7.135-30.275-4.107-30.275-4.107" data-paper-data="{&quot;index&quot;:null}"/></g><g fill="none" stroke="#7cd8ff" stroke-linecap="round" stroke-width="26.336" style="mix-blend-mode:normal;stroke-miterlimit:10;stroke-dasharray:none;stroke-dashoffset:0"><path stroke-width="28.102092159999994" d="M45.927 87.697s.456-16.05 18.952-23.964c16.819-7.197 30.565 3.991 30.565 3.991"/><path stroke-width="28.102092159999994" d="M145.662 48.367s-2.137 17.594-19.242 24.081c-18.81 7.134-30.275-4.108-30.275-4.108" data-paper-data="{&quot;index&quot;:null}"/></g><g fill="none" stroke="#7cd8ff" stroke-linecap="round" stroke-width="26.336" style="mix-blend-mode:normal;stroke-miterlimit:10;stroke-dasharray:none;stroke-dashoffset:0"><path stroke-width="28.102092159999994" d="M433.72 67.96s7.459-14.22 27.55-13.206c18.271.922 25.707 17.01 25.707 17.01"/><path stroke-width="28.102092159999994" d="M540.594 76.431S530.947 91.3 512.73 89.614c-20.032-1.853-25.394-16.988-25.394-16.988" data-paper-data="{&quot;index&quot;:null}"/></g><g fill="none" stroke="#7cd8ff" stroke-linecap="round" stroke-width="26.336" style="mix-blend-mode:normal;stroke-miterlimit:10;stroke-dasharray:none;stroke-dashoffset:0"><path stroke-width="28.102092159999994" d="M42.357 294.861s7.46-14.219 27.552-13.205c18.27.922 25.705 17.01 25.705 17.01"/><path stroke-width="28.102092159999994" d="M149.231 303.333s-9.647 14.868-27.862 13.183c-20.032-1.853-25.395-16.988-25.395-16.988" data-paper-data="{&quot;index&quot;:null}"/></g><path fill="#56a0bf" d="M133.22 154.974c0-12.807 10.338-23.145 23.145-23.145s23.144 10.338 23.144 23.145c0 8.023-4.063 15.07-10.286 19.235v-19.235c0-7.102-5.757-12.858-12.858-12.858-7.101 0-12.858 5.756-12.858 12.858v19.235c-6.223-4.166-10.287-11.212-10.287-19.235Zm65.576 50.146c0 .309-.05.669-.102 1.029l-3.858 27.104c-.566 3.755-3.549 6.584-7.406 6.584h-34.923a7.742 7.742 0 0 1-5.451-2.263l-25.408-25.408 4.063-4.114a5.754 5.754 0 0 1 4.063-1.698c.67 0 .36-.051 18.876 3.858v-55.238a7.705 7.705 0 0 1 7.715-7.715 7.705 7.705 0 0 1 7.715 7.715v30.859h3.909c.977 0 1.903.206 2.777.566l23.35 11.623c2.726 1.132 4.68 3.91 4.68 7.098z" style="mix-blend-mode:normal;stroke-width:1.06706;stroke-miterlimit:10;stroke-dasharray:none;stroke-dashoffset:0"/><g fill="none" stroke="#7cd8ff" stroke-linecap="round" stroke-width="26.336" style="mix-blend-mode:normal;stroke-miterlimit:10;stroke-dasharray:none;stroke-dashoffset:0"><path stroke-width="28.102092159999994" d="M437.29 313.558s.455-16.05 18.951-23.964c16.819-7.197 30.565 3.991 30.565 3.991"/><path stroke-width="28.102092159999994" d="M537.024 274.228s-2.137 17.594-19.242 24.081c-18.81 7.134-30.275-4.108-30.275-4.108" data-paper-data="{&quot;index&quot;:null}"/></g><path fill="#fff" d="M129.65 151.403c0-12.807 10.338-23.145 23.144-23.145 12.807 0 23.145 10.338 23.145 23.145 0 8.023-4.063 15.07-10.287 19.236v-19.236c0-7.101-5.756-12.858-12.858-12.858-7.101 0-12.858 5.757-12.858 12.858v19.236c-6.223-4.166-10.286-11.213-10.286-19.236zm65.576 50.146c0 .309-.052.669-.103 1.029l-3.857 27.105c-.566 3.754-3.55 6.583-7.407 6.583h-34.922a7.742 7.742 0 0 1-5.452-2.263l-25.407-25.407 4.063-4.115a5.754 5.754 0 0 1 4.063-1.697c.668 0 .36-.052 18.875 3.857v-55.238a7.705 7.705 0 0 1 7.715-7.715 7.704 7.704 0 0 1 7.715 7.715v30.86h3.909c.977 0 1.903.205 2.777.565l23.35 11.624c2.726 1.131 4.68 3.909 4.68 7.097z" style="mix-blend-mode:normal;stroke-width:1.06706;stroke-miterlimit:10;stroke-dasharray:none;stroke-dashoffset:0"/><g style="font-size:51.2204px;font-family:&quot;Sans Serif&quot;;fill:#518da6;stroke-width:1.28051;stroke-miterlimit:10"><path d="M232.873 160.562v4.927q-2.877-1.375-5.428-2.05-2.55-.676-4.927-.676-4.126 0-6.377 1.6-2.226 1.601-2.226 4.553 0 2.476 1.476 3.751 1.5 1.25 5.652 2.026l3.051.625q5.652 1.076 8.328 3.802 2.701 2.7 2.701 7.253 0 5.427-3.651 8.228-3.626 2.801-10.654 2.801-2.651 0-5.653-.6-2.976-.6-6.177-1.776v-5.202q3.076 1.726 6.027 2.601 2.952.875 5.803.875 4.326 0 6.677-1.7 2.351-1.701 2.351-4.852 0-2.751-1.7-4.302-1.676-1.55-5.528-2.326l-3.076-.6q-5.652-1.126-8.178-3.527-2.526-2.4-2.526-6.677 0-4.952 3.476-7.803 3.502-2.851 9.63-2.851 2.625 0 5.351.475t5.578 1.425zm10.129-1.225h23.609v4.251h-18.557v11.055h17.782v4.252h-17.782v13.53h19.007v4.252h-24.06zm32.362 0h6.803l16.557 31.237v-31.237h4.902v37.34h-6.803l-16.557-31.238v31.238h-4.902zm60.7 1.225v4.927q-2.877-1.375-5.428-2.05-2.55-.676-4.927-.676-4.126 0-6.377 1.6-2.226 1.601-2.226 4.553 0 2.476 1.476 3.751 1.5 1.25 5.652 2.026l3.051.625q5.652 1.076 8.328 3.802 2.702 2.7 2.702 7.253 0 5.427-3.652 8.228-3.626 2.801-10.654 2.801-2.651 0-5.652-.6-2.977-.6-6.178-1.776v-5.202q3.076 1.726 6.027 2.601 2.952.875 5.803.875 4.327 0 6.677-1.7 2.351-1.701 2.351-4.852 0-2.751-1.7-4.302-1.676-1.55-5.527-2.326l-3.077-.6q-5.652-1.126-8.178-3.527-2.526-2.4-2.526-6.677 0-4.952 3.476-7.803 3.502-2.851 9.63-2.851 2.625 0 5.351.475t5.578 1.425zm10.129-1.225h5.052v37.34h-5.052zm15.106 0h6.802l16.557 31.237v-31.237h4.902v37.34h-6.803l-16.556-31.238v31.238h-4.902zm63.775 32.013v-10.03h-8.253v-4.151h13.255V193.2q-2.926 2.076-6.453 3.152-3.526 1.05-7.528 1.05-8.753 0-13.705-5.102-4.927-5.127-4.927-14.256 0-9.153 4.927-14.255 4.952-5.127 13.705-5.127 3.652 0 6.928.9 3.302.9 6.078 2.65v5.378q-2.801-2.376-5.953-3.576-3.151-1.2-6.627-1.2-6.853 0-10.304 3.826-3.427 3.826-3.427 11.404 0 7.553 3.427 11.38 3.45 3.826 10.304 3.826 2.676 0 4.777-.45 2.1-.475 3.776-1.45z" aria-label="SENSING" style="font-family:&quot;DejaVu Sans&quot;;-inkscape-font-specification:&quot;DejaVu Sans&quot;" transform="matrix(1.05752 0 0 1.05752 -34.52 -20.56)"/></g><path fill="none" d="M157.638 108.366h123.437v123.437H157.638z" style="mix-blend-mode:normal;stroke-width:1.06706;stroke-miterlimit:10;stroke-dasharray:none;stroke-dashoffset:0"/><g style="font-size:51.2204px;font-family:&quot;Sans Serif&quot;;fill:#fff;stroke-width:1.28051;stroke-miterlimit:10"><path d="M230.3 157.99v4.926q-2.877-1.375-5.428-2.05-2.55-.676-4.927-.676-4.126 0-6.377 1.6-2.226 1.602-2.226 4.553 0 2.476 1.476 3.751 1.5 1.25 5.652 2.026l3.051.625q5.652 1.076 8.328 3.802 2.701 2.7 2.701 7.253 0 5.427-3.651 8.228-3.626 2.801-10.654 2.801-2.651 0-5.653-.6-2.976-.6-6.177-1.776v-5.202q3.076 1.726 6.027 2.601 2.952.875 5.803.875 4.326 0 6.677-1.7t2.351-4.852q0-2.751-1.7-4.302-1.676-1.55-5.528-2.326l-3.076-.6q-5.652-1.126-8.178-3.526-2.526-2.401-2.526-6.678 0-4.952 3.476-7.803 3.502-2.851 9.63-2.851 2.625 0 5.351.475t5.578 1.425zm10.129-1.226h23.609v4.252h-18.557v11.054h17.782v4.252H245.48v13.53h19.007v4.252h-24.06zm32.362 0h6.803L296.151 188v-31.237h4.902v37.34h-6.803l-16.557-31.238v31.238h-4.902zm60.7 1.225v4.927q-2.877-1.375-5.428-2.05-2.55-.676-4.927-.676-4.126 0-6.377 1.6-2.226 1.602-2.226 4.553 0 2.476 1.476 3.751 1.5 1.25 5.652 2.026l3.051.625q5.652 1.076 8.328 3.802 2.702 2.7 2.702 7.253 0 5.427-3.652 8.228-3.626 2.801-10.654 2.801-2.651 0-5.652-.6-2.977-.6-6.178-1.776v-5.202q3.076 1.726 6.028 2.601 2.95.875 5.802.875 4.327 0 6.677-1.7 2.351-1.7 2.351-4.852 0-2.751-1.7-4.302-1.676-1.55-5.527-2.326l-3.077-.6q-5.652-1.126-8.178-3.526-2.526-2.401-2.526-6.678 0-4.952 3.476-7.803 3.502-2.851 9.63-2.851 2.625 0 5.351.475t5.578 1.425zm10.129-1.225h5.052v37.34h-5.052zm15.106 0h6.802L382.085 188v-31.237h4.902v37.34h-6.803l-16.556-31.238v31.238h-4.902zm63.775 32.013v-10.03h-8.253v-4.151h13.255v16.031q-2.926 2.076-6.453 3.152-3.526 1.05-7.528 1.05-8.753 0-13.705-5.102-4.927-5.127-4.927-14.256 0-9.153 4.927-14.255 4.952-5.127 13.705-5.127 3.652 0 6.928.9 3.302.9 6.078 2.651v5.377q-2.801-2.376-5.953-3.576-3.15-1.2-6.627-1.2-6.853 0-10.304 3.826-3.427 3.826-3.427 11.404 0 7.553 3.427 11.38 3.45 3.826 10.304 3.826 2.676 0 4.777-.45 2.1-.475 3.776-1.45z" aria-label="SENSING" style="font-family:&quot;DejaVu Sans&quot;;-inkscape-font-specification:&quot;DejaVu Sans&quot;" transform="matrix(1.05752 0 0 1.05752 -34.52 -20.56)"/></g><path d="M453.383 159.203V202.3h43.096v13.153h-43.096v43.095h-12.998v-43.095H397.29v-13.153h43.095v-43.096z" aria-label="+" style="font-size:179.512px;font-family:&quot;Sans Serif&quot;;fill:#518da6;stroke-width:3.96139;stroke-miterlimit:10"/><path d="M450.355 156.932v43.096h43.096v13.153h-43.096v43.095h-12.998v-43.095h-43.095v-13.153h43.095v-43.096z" aria-label="+" style="font-size:179.512px;font-family:&quot;Sans Serif&quot;;fill:#fff;stroke-width:3.96139;stroke-miterlimit:10"/><g fill="none" stroke="#518da6" stroke-linecap="round" stroke-width="26.336" style="mix-blend-mode:normal;stroke-miterlimit:10;stroke-dasharray:none;stroke-dashoffset:0"><path stroke-width="28.102092159999994" d="M245.809 86.158s4.11-15.522 23.925-19c18.018-3.164 28.845 10.868 28.845 10.868"/><path stroke-width="28.102092159999994" d="M351.89 70.655s-6.099 16.64-24.233 19.048c-19.943 2.648-28.536-10.916-28.536-10.916" data-paper-data="{&quot;index&quot;:null}"/></g><g fill="none" stroke="#7cd8ff" stroke-linecap="round" stroke-width="26.336" style="mix-blend-mode:normal;stroke-miterlimit:10;stroke-dasharray:none;stroke-dashoffset:0"><path stroke-width="28.102092159999994" d="M247.553 79.388s4.111-15.522 23.926-19c18.018-3.164 28.844 10.868 28.844 10.868"/><path stroke-width="28.102092159999994" d="M353.636 63.885s-6.1 16.64-24.235 19.048c-19.942 2.648-28.535-10.916-28.535-10.916" data-paper-data="{&quot;index&quot;:null}"/></g><g fill="none" stroke="#518da6" stroke-linecap="round" stroke-width="26.336" style="mix-blend-mode:normal;stroke-miterlimit:10;stroke-dasharray:none;stroke-dashoffset:0"><path stroke-width="28.102092159999994" d="M244.936 305.774s4.111-15.522 23.926-19c18.018-3.164 28.844 10.868 28.844 10.868"/><path stroke-width="28.102092159999994" d="M351.019 290.27s-6.1 16.641-24.235 19.049c-19.942 2.648-28.535-10.916-28.535-10.916" data-paper-data="{&quot;index&quot;:null}"/></g><g fill="none" stroke="#7cd8ff" stroke-linecap="round" stroke-width="26.336" style="mix-blend-mode:normal;stroke-miterlimit:10;stroke-dasharray:none;stroke-dashoffset:0"><path stroke-width="28.102092159999994" d="M246.68 299.004s4.112-15.522 23.927-19c18.018-3.164 28.844 10.868 28.844 10.868"/><path stroke-width="28.102092159999994" d="M352.763 283.5s-6.1 16.641-24.234 19.049c-19.943 2.648-28.536-10.916-28.536-10.916" data-paper-data="{&quot;index&quot;:null}"/></g><g fill-rule="evenodd" style="mix-blend-mode:normal;stroke-miterlimit:10;stroke-dasharray:none;stroke-dashoffset:0"><path fill="#3ba2ce" stroke="#1b556e" stroke-width="5.724776899999999" d="M66.113 127.728c.388-.36 1.136-.333 1.375.223l6.282 14.899s10.38 5.31 13.909 9.646c5.93 7.22 7.132 13.72 7.132 13.72s10.784 1.376 13.862 9.356c3.078 7.98-.763 24.668-27.144 34.446-26.381 9.778-49.466 5.932-62.434-8.925-12.969-14.856.072-37.199-.61-35.898l-7.248-25.453c-.239-.556.416-1.108 1.042-.912l19.394 8.609s6.123-3.52 12.889-4.915c4.011-.947 7.537-1.22 10.965-1.181z"/><path fill="#a7e2fb" d="M94.47 166.866s10.424.989 13.502 8.969c3.078 7.98-1.46 24.037-27.575 33.623-33.903 12.93-53.954-5.241-46.732-22.18 7.199-17.082 26.005-6.592 38.04-9.435 10.318-2.415 9.998-11.735 22.765-10.977z"/><path fill="none" stroke="#1b556e" stroke-linecap="round" stroke-linejoin="round" stroke-width="5.724776899999999" d="M121.398 164.14c-5.92 6.611-16.333 8.447-16.333 8.447m17.08 8.092c-9.015 2.204-15.114.366-15.114.366"/><path fill="#1b556e" stroke="#1b556e" stroke-linecap="round" stroke-linejoin="round" stroke-width="5.724776899999999" d="M70.514 174.169c3.044-.494 6.28-.72 6.589.27.474 2.007-1.043 6.417-3.339 6.938-2.562.713-9.236-1.925-9.612-4.244-.427-1.716 3.463-2.495 6.362-2.964z"/><path fill="none" stroke="#1b556e" stroke-linecap="round" stroke-linejoin="round" stroke-width="5.724776899999999" d="M4.936 182.562s13.123 2.04 18.924 5.71m1.257 5.003c-5.834 3.474-16.818 3.618-16.818 3.618"/><path fill="#1b556e" d="M85.629 162.795c.258 1.594-.69 3.086-2.14 3.321-1.449.235-2.82-.881-3.078-2.476-.259-1.594.69-3.087 2.14-3.322 1.449-.234 2.82.882 3.078 2.477m-35.556 10.074c.259 1.595-.69 3.087-2.139 3.322-1.45.235-2.82-.882-3.079-2.476-.258-1.595.69-3.087 2.14-3.322 1.473-.09 2.82.882 3.078 2.476"/></g><path fill="none" d="M-13.807 233.167V109.73H109.63v123.437z" style="mix-blend-mode:normal;stroke-width:1.06706;stroke-miterlimit:10;stroke-dasharray:none;stroke-dashoffset:0"/><g fill-rule="evenodd" data-paper-data="{&quot;index&quot;:null}" style="mix-blend-mode:normal;stroke-miterlimit:10;stroke-dasharray:none;stroke-dashoffset:0"><path fill="#3ba2ce" stroke="#1b556e" stroke-width="5.724776899999999" d="M543.421 138.664c3.428-.04 6.954.234 10.965 1.182 6.766 1.393 12.89 4.914 12.89 4.914l19.393-8.609c.627-.196 1.28.357 1.042.913l-7.248 25.452c-.681-1.3 12.359 21.042-.61 35.899-12.968 14.856-36.053 18.702-62.433 8.924-26.381-9.778-30.223-26.465-27.145-34.445 3.078-7.98 13.863-9.357 13.863-9.357s1.201-6.499 7.131-13.72c3.53-4.336 13.91-9.646 13.91-9.646l6.28-14.899c.24-.556.988-.583 1.376-.223z"/><path fill="#a7e2fb" d="M527.244 175.165c12.034 2.842 30.84-7.647 38.039 9.435 7.222 16.938-12.829 35.11-46.731 22.179-26.115-9.586-30.653-25.643-27.575-33.623 3.077-7.98 13.501-8.969 13.501-8.969 12.767-.757 12.447 8.562 22.766 10.978z"/><path fill="none" stroke="#1b556e" stroke-linecap="round" stroke-linejoin="round" stroke-width="5.724776899999999" d="M493.883 169.908s-10.413-1.836-16.333-8.447m14.367 16.905s-6.099 1.838-15.113-.366"/><path fill="#1b556e" stroke="#1b556e" stroke-linecap="round" stroke-linejoin="round" stroke-width="5.724776899999999" d="M534.796 174.455c-.375 2.319-7.05 4.956-9.612 4.243-2.296-.52-3.813-4.931-3.339-6.937.31-.991 3.545-.764 6.59-.271 2.898.47 6.788 1.249 6.361 2.965z"/><path fill="none" stroke="#1b556e" stroke-linecap="round" stroke-linejoin="round" stroke-width="5.724776899999999" d="M575.088 185.594c5.801-3.671 18.924-5.71 18.924-5.71m-3.363 14.33s-10.984-.144-16.818-3.617"/><path fill="#1b556e" d="M513.32 160.116c.258-1.594 1.629-2.711 3.078-2.476 1.45.235 2.398 1.727 2.14 3.321-.259 1.595-1.63 2.712-3.08 2.477-1.449-.235-2.397-1.728-2.139-3.322m35.556 10.075c.258-1.595 1.606-2.567 3.079-2.477 1.449.235 2.397 1.728 2.139 3.322s-1.63 2.711-3.079 2.476c-1.45-.235-2.397-1.727-2.14-3.321"/></g></svg>