<svg xmlns="http://www.w3.org/2000/svg" width="600" height="372"><path fill="#fcb103" d="M-83.838326 393.25673V-5.2946225H713.26438V393.25673Z" style="stroke-width:1.32851;stroke-miterlimit:10"/><path fill="#eca602" d="m439.14519 393.25673 274.11919-274.11918v274.11918z" style="stroke-width:1.32851;stroke-miterlimit:10"/><path fill="#e3a514" d="M-83.838326 119.13763 190.28087 393.25681H-83.838326Z" style="stroke-width:1.32851;stroke-miterlimit:10"/><path fill="#f0a902" d="M-43.983193 393.25673 354.56816-5.2946225h346.73968L302.75648 393.25673Z" style="stroke-width:1.32851;stroke-miterlimit:10"/><path fill="#e2a414" d="M540.55879 393.25673 142.00744-5.2946225h151.44952L692.00831 393.25673Z" style="stroke-width:1.32851;stroke-miterlimit:10"/><!--! Font Awesome Pro 6.3.0 by @fontawesome - https://fontawesome.com License - https://fontawesome.com/license (Commercial License) Copyright 2023 Fonticons, Inc.--><path fill="#fff" d="M154.29999 94.463658v43.650002c0 4.00125-3.27375 7.275-7.275 7.275h-43.68637c-4.001255 0-7.238615-3.27375-7.238615-7.275l.03637-58.200002c0-4.00124 3.23738-7.275 7.238615-7.275h29.1zm-5.45625 3.63752-20.00625-20.00625v20.00626z" style="stroke-miterlimit:10" transform="translate(-67.809695 -42.042011) scale(1.2260323)"/><path fill="#fcb103" d="M128.80213 98.136548v-20.07697l20.07696 20.07696z" data-paper-data="{&quot;noHover&quot;:false,&quot;origItem&quot;:[&quot;Path&quot;,{&quot;applyMatrix&quot;:true,&quot;segments&quot;:[[81.74375,131.7125],[61.7375,111.70626],[61.7375,131.71251]],&quot;closed&quot;:true,&quot;fillColor&quot;:[0,0,0,1]}]}" style="stroke-miterlimit:10" transform="translate(-67.809695 -42.042011) scale(1.2260323)"/><g fill="#bf8b11" style="stroke-miterlimit:10"><path stroke="#bf8b11" stroke-width="1.2260323" d="M103.98615004 126.2192479c-.37560726 0-.75121451-.14354387-1.03830224-.42944234L66.29499918 89.13575543c-.5729862-.5729862-.5729862-1.50363054 0-2.07661673.5729862-.5729862 1.50361827-.5729862 2.07660447 0l36.65284862 36.65286088c.5729862.5729862.5729862 1.50361827 0 2.07660447-.28709998.28588621-.66270724.43064385-1.0383145.43064385z"/><path d="M82.4867664 95.1741484c0 4.46063654-3.61612098 8.07676977-8.07675751 8.07676977-4.46063654 0-8.0767575-3.61612097-8.0767575-8.07676976 0-4.46063654 3.61612096-8.07676977 8.0767575-8.07676977 4.4606488 0 8.0767575 3.61612097 8.0767575 8.07676977z"/><path d="M81.36720274 111.84832255c-4.34129455-1.02511013-7.02956654-5.3754528-6.00445641-9.71673509 1.02511013-4.34128229 5.3754528-7.02956653 9.71672283-6.00444415 4.34129455 1.02511013 7.0295788 5.37544054 6.0044564 9.71672283-1.02511012 4.3412823-5.3754528 7.0295788-9.71672282 6.00445641z"/><path d="M100.11041673 112.7966095c0 4.46063653-3.61731022 8.077959-8.07794675 8.077959-4.46063654 0-8.07676977-3.61732247-8.07676977-8.077959 0-4.46063654 3.61613323-8.07676977 8.07676977-8.07676977 4.46063653 0 8.07794675 3.61731022 8.07794675 8.07676976z"/><path stroke="#bf8b11" stroke-width="1.2260323" d="M104.04577199 126.27885759c-.37560726 0-.75121451-.14354387-1.03830224-.42944234l-8.99543576-8.99544802c-.57417545-.5729862-.57417545-1.50361828 0-2.07660447.57417544-.5729862 1.50242902-.5729862 2.07660447 0l8.99544802 8.99544802c.5729862.5729862.5729862 1.50361828 0 2.07660447-.28709998.28469696-.66270724.42944234-1.03830223.42944234z"/></g><path fill="#fff" d="M503.89999 130.21369v69.15c0 6.33876-5.18624 11.525-11.52499 11.525h-69.20763c-6.33875 0-11.46738-5.18624-11.46738-11.525l.0576-92.2c0-6.33874 5.12863-11.525002 11.46738-11.525002h46.1zm-8.64376 5.76251-31.69373-31.69374v31.69376z" style="stroke-miterlimit:10" transform="translate(-67.809695 -42.042011) scale(1.2260323)"/><path fill="#fcb103" d="M463.52989 136.00881v-31.75895l31.75893 31.75893z" data-paper-data="{&quot;noHover&quot;:false,&quot;origItem&quot;:[&quot;Path&quot;,{&quot;applyMatrix&quot;:true,&quot;segments&quot;:[[442.12499,125.75002],[407.75,91.37503],[407.75,125.75004]],&quot;closed&quot;:true,&quot;fillColor&quot;:[0,0,0,1]}]}" style="stroke-miterlimit:10" transform="translate(-67.809695 -42.042011) scale(1.2260323)"/><path fill="#bf8b11" fill-rule="evenodd" d="M469.58159 175.27728c-.0158-.49312-.13751-1.30392-.40461-2.69003-.15172-.78235-.96726-4.77632-1.19013-5.89532-.6243-3.12942-1.20119-6.19562-1.80496-9.66168-1.15693-6.67451-1.09528-9.56211.54371-10.31602.79026-.36352 1.67535-.12643 2.90814.55318.65433.35878 3.44868 2.1574 3.27166 2.04834 3.15154 1.96299 5.47491 2.80383 7.79194 2.44664 2.41186-.37458 3.9576-.0948 4.54555.97676.55002 1.00362.0237 2.23801-1.15377 3.44552-2.32651 2.39606-6.28254 3.97341-9.24285 3.19738-1.29917-.34771-1.95668-.73494-3.76162-2.00252l-.15015-.1043c.0743.93725.41726 2.75009 1.13324 6.01069.46467 2.11156 3.28746 14.52018 4.1678 18.45092l.003.019c.83451 4.16782-2.9603 7.46635-8.27557 7.46635-5.19989 0-10.05681-3.14206-10.84549-7.15656-.83767-4.17256 2.9603-7.48215 8.27083-7.48215 1.06211 0 2.12895.13435 3.18315.39512.35879.0901.68912.1865 1.00521.29556zm-26.86241 9.4673c-.0158-.50261-.14225-1.32447-.42041-2.74536-.14224-.72703-.94041-4.64196-1.19012-5.89057-.61639-3.09781-1.18538-6.1482-1.78598-9.59373-1.15692-6.67451-1.0937-9.56211.5437-10.31444.79343-.36352 1.67534-.1296 2.90815.55318.65592.35878 3.44868 2.15582 3.27167 2.04677 3.14997 1.96299 5.47174 2.80383 7.78562 2.44664 2.41028-.37933 3.95761-.10115 4.54555.97043.55002 1.00362.0237 2.23642-1.15061 3.44552-2.32968 2.39763-6.2857 3.97184-9.24126 3.1879-1.29602-.34771-1.95352-.73336-3.75847-2.00251l-.15015-.10274c.0743.93725.41726 2.75009 1.13323 6.00912.46467 2.11314 3.28431 14.52492 4.16623 18.4525l.005.0206c.81713 4.16939-2.9777 7.479-8.27242 7.479-5.19515 0-10.05207-3.14997-10.85813-7.17554-.82186-4.17256 2.97769-7.47582 8.28189-7.47582 1.43036 0 2.84966.23707 4.18836.6891z" style="stroke-miterlimit:10" transform="translate(-67.809695 -42.042011) scale(1.2260323)"/><path fill="#fff" d="M153.53999 184.1536v42.93c0 3.93526-3.21974 7.155-7.155 7.155h-42.96578c-3.935255 0-7.119215-3.21974-7.119215-7.155l.03578-57.24c0-3.93524 3.18398-7.155 7.119215-7.155h28.62zm-5.36626 3.5775-19.67624-19.67624v19.67626z" style="stroke-miterlimit:10" transform="translate(-67.809695 -42.042011) scale(1.2260323)"/><path fill="#fcb103" d="M128.47725 187.75135v-19.71673l19.71672 19.71672z" data-paper-data="{&quot;noHover&quot;:false,&quot;origItem&quot;:[&quot;Path&quot;,{&quot;applyMatrix&quot;:true,&quot;segments&quot;:[[681.24998,262.5],[612.5,193.75002],[612.5,262.50004]],&quot;closed&quot;:true,&quot;fillColor&quot;:[0,0,0,1]}]}" style="stroke-miterlimit:10" transform="translate(-67.809695 -42.042011) scale(1.2260323)"/><g fill="#bf8b11" stroke-width=".5" style="stroke-miterlimit:10"><path d="M80.9771896 235.63587523v-34.95248895h8.73810385v34.95248895z" data-paper-data="{&quot;noHover&quot;:false,&quot;origItem&quot;:[&quot;Path&quot;,{&quot;applyMatrix&quot;:true,&quot;segments&quot;:[[127.93334,157.21668],[108.33334,157.21668],[108.33334,162.11668],[127.93334,162.11668]],&quot;closed&quot;:true,&quot;fillColor&quot;:[0,0,0,1]}]}"/><path d="M102.82249826 205.13856698H67.87000931v-8.73810385h34.95248895z" data-paper-data="{&quot;noHover&quot;:false,&quot;origItem&quot;:[&quot;Path&quot;,{&quot;applyMatrix&quot;:true,&quot;segments&quot;:[[127.93334,147.41668],[108.33334,147.41668],[108.33334,152.31668],[127.93334,152.31668]],&quot;closed&quot;:true,&quot;fillColor&quot;:[0,0,0,1]}]}"/></g><path fill="#fff" d="M296.99317 231.80222c-10.73979-19.0805-5.65979-54.74569 14.29281-75.14651 1.77002-1.80528 4.70905-4.36618 6.69404-5.84363 9.3539-6.93595 20.11676-10.51918 32.46216-10.79245 2.82263-.0644 7.67247.28979 10.58697.78704.72231.12186 1.3177.21165 1.3177.21165.009-.008.0154-.82192.0223-1.81565.15042-14.64656.23025-20.34995.30678-20.68033.16203-.66889.8519-1.26851 1.55842-1.34455.61975-.0547 1.09802.14922 1.63482.72455 1.03343 1.09722 27.25079 33.05464 27.35634 33.34273.1735.47145.17776.90014.0205 1.30361-.23426.57101-27.7477 38.84552-28.22215 39.25025-.99336.84152-2.3961.44565-2.88114-.82122-.10555-.28808-.0982-1.46175.11442-20.43287.0159-1.51603.0104-2.77604-.014-2.80297-.0812-.0898-2.36953-.59852-3.85649-.85291-1.93744-.32836-5.89098-.61196-8.16354-.58004-2.77861.0409-5.89746.37323-8.56369.9082-1.12582.23502-3.32873.75889-3.7211.89351-.0958.0295-.67917.21452-1.30577.40597-8.25049 2.5264-16.48061 7.72754-23.47733 14.82432-8.97404 9.10594-11.52223 19.83316-7.32527 45.54948z" data-paper-data="{&quot;index&quot;:null}" style="stroke-miterlimit:10" transform="translate(-67.809695 -42.042011) scale(1.2260323)"/><path fill="#fff" d="M292.30982 191.86765c2.61584-31.41851-9.56034-64.79295-32.87256-78.82829-11.29301-5.95557-24.94206-2.85443-29.04751-1.55111-4.13096 1.31142-12.25086 3.74253-18.55086 8.68863-1.18512.9334-2.95296 2.4729-2.98147 2.59054-.009.0353.58816 1.14506 1.32588 2.46958 9.24371 16.56812 9.81047 17.5959 9.85525 17.89943.17861 1.34475-.86496 2.36226-2.13955 2.09707-.61012-.12913-43.0581-20.62538-43.53655-21.01528-.33083-.27942-.53174-.65815-.60436-1.15524-.0448-.30352 7.73545-40.900252 8.1197-42.357722.19701-.7618.51992-1.16929 1.09058-1.41711.65712-.27049 1.54955-.07295 2.01125.43744.22496.25377 3.01792 5.22714 10.1424 18.02504.48047.86989.87467 1.58188.88642 1.58473 0 0 .48029-.36314 1.0568-.81504 2.32354-1.82831 6.41593-4.45484 8.92687-5.7458 10.97817-5.6536 22.14599-7.64329 33.67636-6.01436 2.44951.35057 6.25458 1.19769 8.67171 1.93896 27.27144 8.40048 55.05503 38.736772 56.36634 84.057812 0 0-1.2001 15.15013-3.06016 18.58471-1.08799 2.00895-9.33654.52603-9.33654.52603z" data-paper-data="{&quot;index&quot;:null}" style="stroke-miterlimit:10" transform="translate(-67.809695 -42.042011) scale(1.2260323)"/><path d="m222.05288 178.64645 1.16656 97.99233 129.87874-47.82958-3.49972-31.8864-52.10706-5.05515-33.83067-18.66522z" style="fill:#bf8b11;fill-opacity:1;stroke:none;stroke-width:1.11602px;stroke-linecap:butt;stroke-linejoin:miter;stroke-opacity:1" transform="translate(-67.809695 -42.042011) scale(1.2260323)"/><path d="M329.04608 299.36134h14.22029c3.37731 0 6.48799-1.77753 8.17666-4.71049l33.18066-56.88109c1.71827-2.93293 1.71827-6.54725.0296-9.50981s-4.79934-4.74008-8.20629-4.74008H257.94469c-3.37733 0-6.488 1.77752-8.17666 4.71044l-20.2639 34.72119v-77.3524c0-2.60704 2.13309-4.72347 4.7401-4.74007l27.37129-.17422c1.24422-.008 7.95899.48916 8.65359 1.53673l5.58598 8.42445c3.79024 5.71619 5.85841 9.17342 13.78612 9.17342h48.88506c2.60705 0 4.74007 2.13303 4.74007 4.74007v20.64043h14.22029v-20.64043c0-10.45782-8.50291-19.04723-18.96037-18.96038l-41.95285.34842c-5.03619.0419-8.82003-1.98489-12.37512-5.53996l-4.58654-8.35201c-3.5551-3.55509-10.47829-5.41681-15.51463-5.41681h-29.85283c-10.45785 0-18.96038 8.50255-18.96038 18.96036v94.80187c0 10.45782 8.50253 18.96037 18.96038 18.96037h7.02124z" style="fill:#fff;stroke-width:.296255" transform="translate(-67.809695 -42.042011) scale(1.2260323)"/><path fill="none" stroke="#bf8b11" stroke-linecap="round" stroke-width="6.69614" d="m232.7457 283.50633 108.89012.68272m14.3223-20.0699-108.89011-.68273m16.36836-20.10695 108.89011.68273" style="stroke-miterlimit:10" transform="translate(-67.809695 -42.042011) scale(1.2260323)"/></svg>