<svg xmlns="http://www.w3.org/2000/svg" width="600" height="372"><path fill="#96f" d="M0 372V0h600v372z" style="mix-blend-mode:normal;stroke-width:1.11355;stroke-miterlimit:10;stroke-dasharray:none;stroke-dashoffset:0"/><path fill="none" stroke="#8955f2" stroke-linecap="round" stroke-opacity=".804" stroke-width="36.12" d="M-9.19 180.368c24.108 7.387 55.66 14.486 94.289 17.886 99.592 8.766 170.706-30.592 310.342-19.33 116.822 9.42 216.746 32.581 216.746 32.581m-2.401 70.415c-32.027-6.3-91.519-15.56-156.535-20.803-139.635-11.261-210.75 28.097-310.342 19.33C43.994 271.74-8.508 238.791-8.508 238.791m620.265-107.013c-31.922-5.376-91.29-10.234-142.403-14.353-144.032-11.606-217.322 27.581-320.05 18.568C47.271 127.041-6.923 93.963-6.923 93.963m-9.159 241.83c23.714 7.064 54.274 13.734 91.355 17 99.592 8.765 170.706-30.592 310.342-19.332 116.822 9.422 224.714 26.607 224.714 26.607M-14.255 25.897c25.182 8.56 60.408 17.447 105.116 21.382 99.593 8.768 170.707-30.591 310.342-19.33 116.824 9.42 212.762 25.61 212.762 25.61" style="mix-blend-mode:normal;stroke-miterlimit:10;stroke-dasharray:none;stroke-dashoffset:0"/><g fill-rule="evenodd"><g style="mix-blend-mode:normal;stroke-miterlimit:10;stroke-dasharray:none;stroke-dashoffset:0"><path fill="none" d="M362.956 155.497a316.95 316.95 0 0 1-2.923 9.332 445.57 445.57 0 0 1-4.684 13.309 2249.792 2249.792 0 0 0-5.618 15.428l-7.713 20.9h41.501l-7.713-20.9a703.727 703.727 0 0 1-5.471-15.132 549.628 549.628 0 0 1-4.536-13.605 472.13 472.13 0 0 1-2.843-9.332zm24.927-75.5 83.894 212.006h-59.643l-12.97-35.146h-72.792l-12.97 35.144h-58.46l84.486-212.004Z"/><path fill="#96f" stroke="#7240d6" stroke-linejoin="round" stroke-width="39.034" d="M362.956 155.497a316.95 316.95 0 0 1-2.923 9.332 445.57 445.57 0 0 1-4.684 13.309 2249.792 2249.792 0 0 0-5.618 15.428l-7.713 20.9h41.501l-7.713-20.9a703.727 703.727 0 0 1-5.471-15.132 549.628 549.628 0 0 1-4.536-13.605 472.13 472.13 0 0 1-2.843-9.332zm24.927-75.5 83.894 212.006h-59.643l-12.97-35.146h-72.792l-12.97 35.144h-58.46l84.486-212.004Z"/><path fill="none" d="M362.956 155.497a316.95 316.95 0 0 1-2.923 9.332 445.57 445.57 0 0 1-4.684 13.309 2249.792 2249.792 0 0 0-5.618 15.428l-7.713 20.9h41.501l-7.713-20.9a703.723 703.723 0 0 1-5.471-15.132 549.573 549.573 0 0 1-4.536-13.605 472.13 472.13 0 0 1-2.843-9.332zm24.927-75.5 83.894 212.006h-59.643l-12.97-35.146h-72.792l-12.97 35.144h-58.46l84.486-212.004Z"/><path fill="#ffa24d" stroke="#fff" stroke-linejoin="round" stroke-width="12.114" d="M362.956 155.497a316.95 316.95 0 0 1-2.923 9.332 445.57 445.57 0 0 1-4.684 13.309 2249.792 2249.792 0 0 0-5.618 15.428l-7.713 20.9h41.501l-7.713-20.9a703.723 703.723 0 0 1-5.471-15.132 549.573 549.573 0 0 1-4.536-13.605 472.13 472.13 0 0 1-2.843-9.332zm24.927-75.5 83.894 212.006h-59.643l-12.97-35.146h-72.792l-12.97 35.144h-58.46l84.486-212.004Z"/></g><g style="mix-blend-mode:normal;stroke-miterlimit:10;stroke-dasharray:none;stroke-dashoffset:0"><path fill="none" d="M302.12 155.497a316.95 316.95 0 0 1-2.924 9.332 449.247 449.247 0 0 1-4.682 13.309 2249.792 2249.792 0 0 0-5.62 15.428l-7.712 20.9h41.5l-7.712-20.9a703.723 703.723 0 0 1-5.471-15.132 549.628 549.628 0 0 1-4.536-13.605 472.13 472.13 0 0 1-2.843-9.332zm24.926-75.5 83.896 212.006H351.3l-12.972-35.146h-72.791l-12.97 35.144h-58.46l84.486-212.004Z"/><path fill="#96f" stroke="#7240d6" stroke-linejoin="round" stroke-width="39.034" d="M302.12 155.497a316.95 316.95 0 0 1-2.924 9.332 449.247 449.247 0 0 1-4.682 13.309 2249.792 2249.792 0 0 0-5.62 15.428l-7.712 20.9h41.5l-7.712-20.9a703.723 703.723 0 0 1-5.471-15.132 549.628 549.628 0 0 1-4.536-13.605 472.13 472.13 0 0 1-2.843-9.332zm24.926-75.5 83.896 212.006H351.3l-12.972-35.146h-72.791l-12.97 35.144h-58.46l84.486-212.004Z"/><path fill="none" d="M302.12 155.497a316.95 316.95 0 0 1-2.924 9.332 449.247 449.247 0 0 1-4.682 13.309 2249.792 2249.792 0 0 0-5.62 15.428l-7.712 20.9h41.5l-7.712-20.9a703.723 703.723 0 0 1-5.471-15.132 549.628 549.628 0 0 1-4.536-13.605 472.13 472.13 0 0 1-2.843-9.332zm24.926-75.5 83.896 212.006H351.3l-12.972-35.146h-72.791l-12.97 35.144h-58.46l84.486-212.004Z"/><path fill="#ff774d" stroke="#fff" stroke-linejoin="round" stroke-width="12.114" d="M302.12 155.497a316.95 316.95 0 0 1-2.924 9.332 449.247 449.247 0 0 1-4.682 13.309 2249.792 2249.792 0 0 0-5.62 15.428l-7.712 20.9h41.5l-7.712-20.9a703.723 703.723 0 0 1-5.471-15.132 549.628 549.628 0 0 1-4.536-13.605 472.13 472.13 0 0 1-2.843-9.332zm24.926-75.5 83.896 212.006H351.3l-12.972-35.146h-72.791l-12.97 35.144h-58.46l84.486-212.004Z"/></g><g style="mix-blend-mode:normal;stroke-miterlimit:10;stroke-dasharray:none;stroke-dashoffset:0"><path fill="none" d="M236.236 155.497a316.95 316.95 0 0 1-2.923 9.332 449.247 449.247 0 0 1-4.683 13.309c-1.71 4.633-3.58 9.776-5.62 15.428l-7.712 20.9h41.5l-7.712-20.9a703.801 703.801 0 0 1-5.471-15.132 549.628 549.628 0 0 1-4.535-13.605 472.13 472.13 0 0 1-2.844-9.332zm24.928-75.5 83.893 212.006h-59.642l-12.972-35.146h-72.79l-12.97 35.144h-58.46l84.486-212.004Z"/><path fill="#96f" stroke="#7240d6" stroke-linejoin="round" stroke-width="39.034" d="M236.236 155.497a316.95 316.95 0 0 1-2.923 9.332 449.247 449.247 0 0 1-4.683 13.309c-1.71 4.633-3.58 9.776-5.62 15.428l-7.712 20.9h41.5l-7.712-20.9a703.801 703.801 0 0 1-5.471-15.132 549.628 549.628 0 0 1-4.535-13.605 472.13 472.13 0 0 1-2.844-9.332zm24.928-75.5 83.893 212.006h-59.642l-12.972-35.146h-72.79l-12.97 35.144h-58.46l84.486-212.004Z"/><path fill="none" d="M236.236 155.497a316.95 316.95 0 0 1-2.923 9.332 449.247 449.247 0 0 1-4.683 13.309c-1.71 4.633-3.58 9.776-5.62 15.428l-7.712 20.9h41.5l-7.712-20.9a703.801 703.801 0 0 1-5.471-15.132 549.573 549.573 0 0 1-4.535-13.605 472.13 472.13 0 0 1-2.844-9.332zm24.928-75.5 83.893 212.006h-59.642l-12.97-35.146h-72.792l-12.97 35.144h-58.46l84.486-212.004Z"/><path fill="#ff4c4c" stroke="#fff" stroke-linejoin="round" stroke-width="12.114" d="M236.236 155.497a316.95 316.95 0 0 1-2.923 9.332 449.247 449.247 0 0 1-4.683 13.309c-1.71 4.633-3.58 9.776-5.62 15.428l-7.712 20.9h41.5l-7.712-20.9a703.801 703.801 0 0 1-5.471-15.132 549.573 549.573 0 0 1-4.535-13.605 472.13 472.13 0 0 1-2.844-9.332zm24.928-75.5 83.893 212.006h-59.642l-12.97-35.146h-72.792l-12.97 35.144h-58.46l84.486-212.004Z"/></g></g></svg>