<svg xmlns="http://www.w3.org/2000/svg" width="600" height="372"><path fill="#00511f" d="M.00001 373.32845V1.328451h600V373.32845Z" style="fill-rule:nonzero;stroke:none;stroke-width:1.11355;stroke-linecap:butt;stroke-linejoin:miter;stroke-miterlimit:10;stroke-dasharray:none;stroke-dashoffset:0"/><path fill="#00d150" d="M506.53602 1.328471h136.90162v40.92H435.59608v42.15998h-52.27152v40.919989h215.30891v40.92001h60.98345v42.15999H344.74319v40.92h-4.97824v40.91999h19.91296v42.15999h102.05394v40.92H.000012V1.328471Z" style="fill-rule:nonzero;stroke:none;stroke-width:1.24228;stroke-linecap:butt;stroke-linejoin:miter;stroke-miterlimit:10;stroke-dasharray:none;stroke-dashoffset:0"/><path fill="#00b344" d="M522.7153 1.328471h-98.32026v40.92h42.31505v42.15998H337.27583v40.919989h144.36898v40.92001H368.38983v42.15999h65.96169v40.92h72.1845v40.91999h14.93472v42.15999h-48.53785v40.92H.000012V1.328471Z" style="fill-rule:nonzero;stroke:none;stroke-width:1.24228;stroke-linecap:butt;stroke-linejoin:miter;stroke-miterlimit:10;stroke-dasharray:none;stroke-dashoffset:0"/><path fill="#00de55" d="M368.38983 1.328471h17.42385v40.92h125.70058l.41485 49.599966-200.3742-.10205-.41485 33.582003H431.8624v40.92001h-48.53784v42.15999h31.114v40.92h135.65706v40.91999h-75.91817v42.15999h-44.80417v40.92H.000012V1.328421Z" style="fill-rule:nonzero;stroke:none;stroke-width:1.24228;stroke-linecap:butt;stroke-linejoin:miter;stroke-miterlimit:10;stroke-dasharray:none;stroke-dashoffset:0"/><path fill="#00d150" d="M431.8624 1.328471h41.07049v40.92H425.6396v42.15998h-62.22801v40.919989h54.76065v40.92001H260.1131v42.15999h43.5596v40.92h-51.02697v40.91999h110.76586v42.15999h79.65186v40.92H.000012V1.328471Z" style="fill-rule:nonzero;stroke:none;stroke-width:1.24228;stroke-linecap:butt;stroke-linejoin:miter;stroke-miterlimit:10;stroke-dasharray:none;stroke-dashoffset:0"/><path fill="#00e658" d="M273.80326 1.328471h87.11921v40.92h-49.78241v42.15998h-62.22801v40.919989H425.6396v40.92001h-79.13328l-5.60052.82667-85.89424.76015-6.20322-1.58682h-55.90148v42.15999h62.22801v40.92h168.01562v40.91999H317.36288v42.15999h79.65185v40.92H.000025V1.328471Z" style="fill-rule:nonzero;stroke:none;stroke-width:1.24228;stroke-linecap:butt;stroke-linejoin:miter;stroke-miterlimit:10;stroke-dasharray:none;stroke-dashoffset:0"/><path fill="#00c44b" d="M247.66749 1.328471h68.45081v40.92h-29.86944v42.15998h-68.45081v40.919989h-49.7824v40.92001h81.41497l44.9744 1.07034 41.86825.23855 7.53651-1.30889h20.84638v42.15999H184.19494v40.92h168.01562v40.91999H169.26022v42.15999h104.54305v40.92H.000025V1.328471Z" style="fill-rule:nonzero;stroke:none;stroke-width:1.24228;stroke-linecap:butt;stroke-linejoin:miter;stroke-miterlimit:10;stroke-dasharray:none;stroke-dashoffset:0"/><path fill="#00b745" d="M226.50997 1.328471h44.80417v40.92h31.114v42.15998h-39.82592v40.919989l33.43906.35227-.21119 42.26736-42.45837.36705-8.08964-2.06667H219.0426v42.15999h-16.17929v40.92h99.56482v40.91999h-38.58137v42.15999h8.71192v40.92H0V1.328471Z" style="fill-rule:nonzero;stroke:none;stroke-width:1.24228;stroke-linecap:butt;stroke-linejoin:miter;stroke-miterlimit:10;stroke-dasharray:none;stroke-dashoffset:0"/><path fill="#00ca4d" d="M93.342028 1.328471h-6.222801v40.92H205.35245v42.15998h-93.34202v40.919989h75.91817v40.92001h-85.87465v42.15999h139.39074v40.92h-99.56481v40.91999h33.60313v42.15999h-11.20105v40.92H.000012V1.328471Z" style="fill-rule:nonzero;stroke:none;stroke-width:1.24228;stroke-linecap:butt;stroke-linejoin:miter;stroke-miterlimit:10;stroke-dasharray:none;stroke-dashoffset:0"/><path fill="#009e3d" d="M123.21148 1.328471h32.35856v40.92h-2.48912v42.15998h-49.78241v40.919989h7.46736v40.92001H63.472583v42.15999h6.222801v40.92h37.336806v40.91999h6.2228v42.15999h51.02697v40.92H.000012V1.328471Z" style="fill-rule:nonzero;stroke:none;stroke-width:1.24228;stroke-linecap:butt;stroke-linejoin:miter;stroke-miterlimit:10;stroke-dasharray:none;stroke-dashoffset:0"/><path fill="#009138" d="M3.733693 1.328471h8.711921v40.92h59.73889v42.15998H48.537861v40.919989H29.869457v40.92001h93.342023v42.15999H37.336818v40.92H14.934735v40.91999h12.445602v42.15999h47.293288v40.92H.000012V1.328471Z" style="fill-rule:nonzero;stroke:none;stroke-width:1.24228;stroke-linecap:butt;stroke-linejoin:miter;stroke-miterlimit:10;stroke-dasharray:none;stroke-dashoffset:0"/><path d="M220.17976 99.74737c-7.42772.0346-14.9151 1.43487-22.08797 4.2835-22.95316 9.11555-38.08729 31.23971-38.26161 55.93609-5.83009 37.38446-8.95096 75.14182-9.34246 112.97614 0 22.61377 9.34455 37.3769 27.28607 40.74093 3.32107.68014 6.70059 1.02525 10.09058 1.02868 16.4909.30586 31.13096-10.50141 35.69563-26.35092 3.64436-10.279 10.18713-24.4848 14.20527-33.08177 21.14868 9.62672 45.86294-2.16974 51.67545-24.66762h21.11857c5.82275 22.44034 30.45808 34.22046 51.58192 24.66762 4.01814 8.50352 10.55862 22.70933 14.20298 33.08177 4.57359 15.88365 19.26385 26.69958 35.78916 26.35092 3.42126.004 6.83481-.34165 10.18636-1.02868 17.84808-3.64438 27.19257-18.12716 27.19257-40.74093-.3915-37.83432-3.51458-75.59168-9.34474-112.97614-.17432-24.69638-15.30846-46.82054-38.26163-55.93609-22.95316-9.11558-49.14116-3.40087-66.21141 14.44703h-71.39128c-11.73582-12.27045-27.78247-18.80645-44.12346-18.73053Zm161.24165 18.87194a14.016802 14.016802 0 0 1-1.99347 27.89052 14.016802 14.016802 0 0 1-14.01597-14.01597 14.016802 14.016802 0 0 1 16.00944-13.87455zm-174.86758 9.20333h28.0342v18.68719h18.68945v28.03419h-18.68945v18.68946h-28.0342v-18.68946h-18.68946v-28.03419h18.68946zm172.87411 0a4.6722672 4.6722672 0 0 0-4.67351 4.67122 4.6722672 4.6722672 0 1 0 4.67351-4.67122zm-163.52937 9.34246v18.68945H197.2091v9.34474h18.68947v18.68946h9.34473v-18.68946h18.68945v-9.34474H225.2433V137.1651Zm137.49093 9.48841a14.016802 14.016802 0 0 1-1.99576 27.89051 14.016802 14.016802 0 0 1-14.01596-14.01595 14.016802 14.016802 0 0 1 16.01172-13.87456zm56.06612 0a14.016802 14.016802 0 0 1-1.99348 27.89051 14.016802 14.016802 0 0 1-14.01825-14.01595 14.016802 14.016802 0 0 1 16.01173-13.87456zm-58.06188 9.20104a4.6722672 4.6722672 0 0 0-4.67121 4.67352 4.6722672 4.6722672 0 1 0 4.67121-4.67352zm56.0684 0a4.6722672 4.6722672 0 0 0-4.67352 4.67352 4.6722672 4.6722672 0 1 0 4.67352-4.67352zm-26.04073 18.83316a14.016802 14.016802 0 0 1-1.99347 27.8905 14.016802 14.016802 0 0 1-14.01597-14.01824 14.016802 14.016802 0 0 1 16.00944-13.87226zm-1.99347 9.20104a4.6722672 4.6722672 0 0 0-4.67351 4.67122 4.6722672 4.6722672 0 1 0 4.67351-4.67122zm-126.15046 18.68946a18.689067 18.689067 0 0 1 18.6872 18.68944 18.689067 18.689067 0 1 1-18.6872-18.68944zm93.44505 0a18.689067 18.689067 0 0 1 18.68944 18.68944 18.689067 18.689067 0 1 1-18.68944-18.68944zm-94.0837 9.36526a9.3445343 9.3445343 0 0 0 .63865 18.66893 9.3445343 9.3445343 0 0 0 9.34473-9.34475 9.3445343 9.3445343 0 0 0-9.98338-9.32418zm93.44504 0a9.3445343 9.3445343 0 0 0 .63866 18.66893 9.3445343 9.3445343 0 0 0 9.34473-9.34475 9.3445343 9.3445343 0 0 0-9.98339-9.32418z" style="fill:#fff;stroke-width:9.34454"/><path d="M300.28238 123.36934V42.475042s.62227-23.646029 18.6679-23.646029c18.04565 0 21.26576 14.884002 21.41242 20.49696.14666 5.612944.29334 11.225902.44 16.83886.14667 5.612957 6.84483 14.000937 17.42333 14.000937 10.57852 0 18.92566-4.226962 18.66796-15.245459-.24777-10.593874-.62231-61.604118-.62231-61.604118" style="fill:none;fill-opacity:1;stroke:#fdffff;stroke-width:10.1026;stroke-linecap:butt;stroke-linejoin:miter;stroke-miterlimit:4;stroke-dasharray:none;stroke-opacity:1"/></svg>