<svg xmlns="http://www.w3.org/2000/svg" width="600" height="372" viewBox="17.089 9.505 600 372"><path fill="#7d8aab" d="M17.089 381.505v-372h600v372z" style="mix-blend-mode:normal;fill-rule:nonzero;stroke-width:1.11355;stroke-linecap:butt;stroke-linejoin:miter;stroke-miterlimit:10;stroke-dasharray:none;stroke-dashoffset:0"/><path fill="#8c9abf" stroke="#8c9abf" d="M660.863 97.901a21.568 21.568 0 0 1 16.595-20.987V11.725a4.978 4.978 0 1 1 9.957 0v65.19a21.568 21.568 0 0 1 0 41.973v79.665a4.978 4.978 0 0 1-9.957 0v-79.665a21.568 21.568 0 0 1-16.595-20.987zm9.957 0c0 6.416 5.2 11.617 11.616 11.617 6.416 0 11.617-5.201 11.617-11.617 0-6.415-5.201-11.616-11.617-11.616-6.412.007-11.609 5.204-11.616 11.616z" data-paper-data="{&quot;index&quot;:null}" style="mix-blend-mode:normal;fill-rule:nonzero;stroke-width:1.19991;stroke-linecap:butt;stroke-linejoin:miter;stroke-miterlimit:10;stroke-dasharray:none;stroke-dashoffset:0"/><path fill="#8c9abf" stroke="#8c9abf" d="M660.843 282.7a21.568 21.568 0 0 1 16.595-20.987v-65.19a4.978 4.978 0 1 1 9.957 0v65.19a21.568 21.568 0 0 1 0 41.973v79.665a4.978 4.978 0 0 1-9.957 0v-79.665a21.568 21.568 0 0 1-16.595-20.986zm9.957 0c0 6.415 5.2 11.616 11.616 11.616 6.416 0 11.616-5.201 11.616-11.616 0-6.416-5.2-11.617-11.616-11.617-6.412.007-11.609 5.204-11.616 11.617z" data-paper-data="{&quot;index&quot;:null}" style="mix-blend-mode:normal;fill-rule:nonzero;stroke-width:1.19991;stroke-linecap:butt;stroke-linejoin:miter;stroke-miterlimit:10;stroke-dasharray:none;stroke-dashoffset:0"/><path fill="#8c9abf" stroke="#8c9abf" d="M558.007 236.36v-39.837a4.978 4.978 0 0 1 9.956 0v39.838a21.568 21.568 0 0 1 0 41.974V383.35a4.978 4.978 0 0 1-9.956 0V278.335a21.568 21.568 0 0 1 0-41.974zm4.978 32.604c6.416 0 11.616-5.2 11.616-11.616 0-6.416-5.2-11.617-11.616-11.617-6.415 0-11.616 5.201-11.616 11.617.007 6.412 5.204 11.609 11.616 11.616zm-81.314 54.763a21.607 21.607 0 0 1 16.595-20.987l-.001-106.217a4.978 4.978 0 0 1 9.957 0V302.74a21.568 21.568 0 0 1 0 41.974v38.637a4.978 4.978 0 1 1-9.957 0v-38.637a21.607 21.607 0 0 1-16.594-20.987zm21.573 11.616c6.416 0 11.616-5.2 11.616-11.616 0-6.416-5.2-11.617-11.616-11.617-6.416 0-11.616 5.201-11.616 11.617.007 6.412 5.203 11.609 11.616 11.616zm97.909-38.168a21.568 21.568 0 0 1 16.595-20.987v-79.665a4.978 4.978 0 0 1 9.957 0v79.665a21.568 21.568 0 0 1 0 41.974v65.19a4.979 4.979 0 0 1-9.957 0v-65.19a21.568 21.568 0 0 1-16.595-20.987zm21.573 11.616c6.416 0 11.616-5.2 11.616-11.616 0-6.415-5.2-11.616-11.616-11.616-6.415 0-11.616 5.2-11.616 11.616.007 6.413 5.204 11.61 11.616 11.616z" style="mix-blend-mode:normal;fill-rule:nonzero;stroke-width:1.19991;stroke-linecap:butt;stroke-linejoin:miter;stroke-miterlimit:10;stroke-dasharray:none;stroke-dashoffset:0"/><path fill="#8c9abf" stroke="#8c9abf" d="M557.986 51.563V11.725a4.978 4.978 0 0 1 9.957 0v39.838a21.568 21.568 0 0 1 0 41.974v105.016a4.978 4.978 0 0 1-9.957 0V93.537a21.568 21.568 0 0 1 0-41.974zm4.979 32.603c6.415 0 11.616-5.2 11.616-11.616 0-6.416-5.2-11.617-11.616-11.617-6.416 0-11.617 5.201-11.617 11.617.007 6.412 5.204 11.609 11.617 11.616zm-81.314 54.763a21.607 21.607 0 0 1 16.594-20.987V11.725a4.978 4.978 0 1 1 9.956 0l.001 106.217a21.568 21.568 0 0 1 0 41.973v38.638a4.978 4.978 0 1 1-9.957 0v-38.638a21.607 21.607 0 0 1-16.594-20.986zm21.573 11.616c6.415 0 11.616-5.2 11.616-11.616 0-6.416-5.2-11.617-11.616-11.617-6.416 0-11.617 5.201-11.617 11.617.007 6.412 5.204 11.609 11.617 11.616zm97.909-38.168a21.568 21.568 0 0 1 16.594-20.987V11.725a4.978 4.978 0 1 1 9.958 0V91.39a21.568 21.568 0 0 1 0 41.974v65.19a4.979 4.979 0 0 1-9.957 0v-65.19a21.568 21.568 0 0 1-16.595-20.987zm21.573 11.616c6.415 0 11.616-5.2 11.616-11.616 0-6.416-5.2-11.616-11.616-11.616-6.416 0-11.616 5.2-11.616 11.616.007 6.413 5.203 11.61 11.616 11.616z" style="mix-blend-mode:normal;fill-rule:nonzero;stroke-width:1.19991;stroke-linecap:butt;stroke-linejoin:miter;stroke-miterlimit:10;stroke-dasharray:none;stroke-dashoffset:0"/><path fill="#8c9abf" stroke="#8c9abf" d="M362.225 323.727a21.568 21.568 0 0 1 16.595-20.987V196.523a4.978 4.978 0 0 1 9.956 0V302.74a21.568 21.568 0 0 1 0 41.974v38.637a4.978 4.978 0 0 1-9.957 0v-38.637a21.568 21.568 0 0 1-16.594-20.987zm9.957 0c0 6.415 5.2 11.616 11.616 11.616 6.415 0 11.616-5.2 11.616-11.616 0-6.416-5.2-11.617-11.616-11.617-6.413.007-11.61 5.204-11.616 11.617zm66.379-18.84a21.568 21.568 0 0 1 0-41.975v-66.389a4.978 4.978 0 1 1 9.957 0v66.39a21.568 21.568 0 0 1 0 41.973v78.465a4.978 4.978 0 0 1-9.957 0v-78.465zm-6.638-20.988c0 6.416 5.2 11.617 11.616 11.617 6.416 0 11.616-5.201 11.616-11.617 0-6.415-5.2-11.616-11.616-11.616-6.413.007-11.61 5.204-11.616 11.616z" data-paper-data="{&quot;index&quot;:null}" style="mix-blend-mode:normal;fill-rule:nonzero;stroke-width:1.19991;stroke-linecap:butt;stroke-linejoin:miter;stroke-miterlimit:10;stroke-dasharray:none;stroke-dashoffset:0"/><path fill="#8c9abf" stroke="#8c9abf" d="M362.205 138.929a21.568 21.568 0 0 1 16.594-20.987V11.725a4.978 4.978 0 1 1 9.957 0v106.217a21.568 21.568 0 0 1 0 41.974v38.637a4.978 4.978 0 0 1-9.957 0v-38.637a21.568 21.568 0 0 1-16.594-20.987zm9.956 0c0 6.415 5.201 11.616 11.617 11.616 6.415 0 11.616-5.2 11.616-11.616 0-6.416-5.2-11.617-11.616-11.617-6.413.007-11.61 5.204-11.617 11.617zm66.38-18.84a21.568 21.568 0 0 1 0-41.975V11.725a4.978 4.978 0 1 1 9.957 0v66.39a21.568 21.568 0 0 1 0 41.973v78.465a4.978 4.978 0 0 1-9.957 0v-78.465zM431.901 99.1c0 6.416 5.201 11.617 11.617 11.617 6.415 0 11.616-5.201 11.616-11.617 0-6.415-5.2-11.616-11.616-11.616-6.413.007-11.61 5.204-11.617 11.616zM319.164 236.36l-.001-39.837a4.978 4.978 0 0 1 9.957 0v39.838a21.568 21.568 0 0 1 0 41.974V383.35a4.978 4.978 0 1 1-9.957 0V278.335a21.607 21.607 0 0 1-16.594-20.987 21.607 21.607 0 0 1 16.595-20.987zm-6.638 20.988c0 6.415 5.2 11.616 11.616 11.616 6.416 0 11.616-5.2 11.616-11.616 0-6.416-5.2-11.617-11.616-11.617-6.412.007-11.609 5.204-11.616 11.617z" data-paper-data="{&quot;index&quot;:null}" style="mix-blend-mode:normal;fill-rule:nonzero;stroke-width:1.19991;stroke-linecap:butt;stroke-linejoin:miter;stroke-miterlimit:10;stroke-dasharray:none;stroke-dashoffset:0"/><path fill="#8c9abf" stroke="#8c9abf" d="M319.143 51.563V11.725a4.978 4.978 0 0 1 9.956 0l.001 39.838a21.568 21.568 0 0 1 0 41.974v105.016a4.978 4.978 0 1 1-9.957 0V93.537A21.607 21.607 0 0 1 302.55 72.55a21.607 21.607 0 0 1 16.594-20.987zm-6.637 20.987c0 6.415 5.2 11.616 11.616 11.616 6.415 0 11.616-5.2 11.616-11.616 0-6.416-5.2-11.617-11.616-11.617-6.413.007-11.61 5.204-11.616 11.617zM-12.6 97.901a21.568 21.568 0 0 1-16.594 20.987v79.665a4.978 4.978 0 0 1-9.957 0v-79.665a21.568 21.568 0 0 1 0-41.974V11.725a4.979 4.979 0 0 1 9.957 0v65.19A21.568 21.568 0 0 1-12.599 97.9zm-21.572-11.616c-6.416 0-11.617 5.2-11.617 11.616 0 6.416 5.201 11.617 11.617 11.617 6.415 0 11.616-5.201 11.616-11.617-.007-6.412-5.204-11.609-11.616-11.616z" data-paper-data="{&quot;index&quot;:null}" style="mix-blend-mode:normal;fill-rule:nonzero;stroke-width:1.19991;stroke-linecap:butt;stroke-linejoin:miter;stroke-miterlimit:10;stroke-dasharray:none;stroke-dashoffset:0"/><path fill="#8c9abf" stroke="#8c9abf" d="M-12.58 282.7a21.568 21.568 0 0 1-16.594 20.986v79.665a4.978 4.978 0 0 1-9.957 0v-79.665a21.568 21.568 0 0 1 0-41.973v-65.19a4.979 4.979 0 0 1 9.957 0v65.19A21.568 21.568 0 0 1-12.579 282.7zm-21.572-11.617c-6.416 0-11.617 5.201-11.617 11.616 0 6.416 5.201 11.617 11.617 11.617 6.415 0 11.616-5.201 11.616-11.617-.007-6.412-5.204-11.609-11.616-11.616z" data-paper-data="{&quot;index&quot;:null}" style="mix-blend-mode:normal;fill-rule:nonzero;stroke-width:1.19991;stroke-linecap:butt;stroke-linejoin:miter;stroke-miterlimit:10;stroke-dasharray:none;stroke-dashoffset:0"/><path fill="#8c9abf" stroke="#8c9abf" d="M106.852 257.348a21.568 21.568 0 0 1-16.595 20.987V383.35a4.978 4.978 0 1 1-9.957 0V278.335a21.568 21.568 0 0 1 0-41.974v-39.838a4.978 4.978 0 0 1 9.957 0v39.838a21.568 21.568 0 0 1 16.595 20.987zm-9.957 0c0-6.416-5.2-11.617-11.616-11.617-6.416 0-11.616 5.201-11.616 11.617 0 6.415 5.2 11.616 11.616 11.616 6.412-.007 11.609-5.204 11.616-11.616zm53.103 87.366L150 383.35a4.978 4.978 0 1 1-9.957 0v-38.637a21.568 21.568 0 0 1 0-41.974V196.523a4.978 4.978 0 1 1 9.957 0V302.74a21.607 21.607 0 0 1 16.594 20.987 21.607 21.607 0 0 1-16.595 20.987zm6.638-20.987c0-6.416-5.2-11.617-11.616-11.617-6.416 0-11.616 5.201-11.616 11.617 0 6.415 5.2 11.616 11.616 11.616 6.412-.007 11.61-5.204 11.616-11.616zM47.111 297.175a21.568 21.568 0 0 1-16.595 20.987v65.19a4.978 4.978 0 1 1-9.957 0v-65.19a21.568 21.568 0 0 1 0-41.974v-79.665a4.978 4.978 0 0 1 9.957 0v79.665a21.568 21.568 0 0 1 16.595 20.987zm-9.957 0c0-6.415-5.2-11.616-11.616-11.616-6.416 0-11.617 5.2-11.617 11.616 0 6.416 5.201 11.616 11.617 11.616 6.412-.007 11.609-5.203 11.616-11.616z" style="mix-blend-mode:normal;fill-rule:nonzero;stroke-width:1.19991;stroke-linecap:butt;stroke-linejoin:miter;stroke-miterlimit:10;stroke-dasharray:none;stroke-dashoffset:0"/><path fill="#8c9abf" stroke="#8c9abf" d="M106.872 72.55a21.568 21.568 0 0 1-16.594 20.987v105.016a4.978 4.978 0 0 1-9.957 0V93.537a21.568 21.568 0 0 1 0-41.974V11.725a4.978 4.978 0 1 1 9.957 0v39.838a21.568 21.568 0 0 1 16.594 20.987zm-9.957 0c0-6.416-5.2-11.617-11.616-11.617-6.415 0-11.616 5.201-11.616 11.617 0 6.415 5.2 11.616 11.616 11.616 6.413-.007 11.61-5.204 11.616-11.616zm53.104 87.366v38.637a4.978 4.978 0 0 1-9.956 0l-.001-38.637a21.568 21.568 0 0 1 0-41.974V11.725a4.978 4.978 0 1 1 9.957 0v106.217a21.607 21.607 0 0 1 16.594 20.987 21.607 21.607 0 0 1-16.594 20.987zm6.638-20.987c0-6.416-5.201-11.617-11.617-11.617-6.415 0-11.616 5.201-11.616 11.617 0 6.415 5.2 11.616 11.616 11.616 6.413-.007 11.61-5.204 11.617-11.616zM47.13 112.377a21.568 21.568 0 0 1-16.595 20.987v65.19a4.978 4.978 0 1 1-9.957 0v-65.19a21.568 21.568 0 0 1 0-41.974V11.725a4.978 4.978 0 1 1 9.957 0V91.39a21.568 21.568 0 0 1 16.595 20.987zm-9.957 0c0-6.416-5.2-11.616-11.616-11.616-6.415 0-11.616 5.2-11.616 11.616 0 6.416 5.2 11.616 11.616 11.616 6.413-.007 11.61-5.203 11.616-11.616z" style="mix-blend-mode:normal;fill-rule:nonzero;stroke-width:1.19991;stroke-linecap:butt;stroke-linejoin:miter;stroke-miterlimit:10;stroke-dasharray:none;stroke-dashoffset:0"/><path fill="#8c9abf" stroke="#8c9abf" d="M269.444 344.714v38.637a4.978 4.978 0 0 1-9.956 0v-38.637a21.568 21.568 0 0 1 0-41.974V196.523a4.978 4.978 0 1 1 9.956 0V302.74a21.568 21.568 0 0 1 0 41.974zm-4.978-32.604c-6.415 0-11.616 5.201-11.616 11.617 0 6.415 5.2 11.616 11.616 11.616 6.416 0 11.616-5.2 11.616-11.616-.007-6.413-5.203-11.61-11.616-11.617zm-54.763-7.224v78.465a4.978 4.978 0 0 1-9.957 0v-78.465a21.568 21.568 0 0 1 0-41.974v-66.389a4.979 4.979 0 0 1 9.957 0v66.39a21.568 21.568 0 0 1 0 41.973zm-4.978-32.603c-6.416 0-11.616 5.2-11.616 11.616 0 6.416 5.2 11.617 11.616 11.617 6.415 0 11.616-5.201 11.616-11.617-.007-6.412-5.204-11.609-11.616-11.616z" data-paper-data="{&quot;index&quot;:null}" style="mix-blend-mode:normal;fill-rule:nonzero;stroke-width:1.19991;stroke-linecap:butt;stroke-linejoin:miter;stroke-miterlimit:10;stroke-dasharray:none;stroke-dashoffset:0"/><path fill="#8c9abf" stroke="#8c9abf" d="M269.465 159.916v38.637a4.978 4.978 0 0 1-9.957 0v-38.637a21.568 21.568 0 0 1 0-41.974V11.725a4.978 4.978 0 0 1 9.957 0v106.217a21.568 21.568 0 0 1 0 41.974zm-4.979-32.604c-6.415 0-11.616 5.201-11.616 11.617 0 6.415 5.2 11.616 11.616 11.616 6.416 0 11.617-5.2 11.617-11.616-.007-6.413-5.204-11.61-11.617-11.617zm-54.762-7.224v78.465a4.978 4.978 0 0 1-9.958 0v-78.465a21.568 21.568 0 0 1 0-41.974V11.725a4.979 4.979 0 0 1 9.957 0v66.39a21.568 21.568 0 0 1 0 41.973zm-4.979-32.603c-6.415 0-11.616 5.2-11.616 11.616 0 6.416 5.2 11.617 11.616 11.617 6.416 0 11.617-5.201 11.617-11.617-.007-6.412-5.204-11.609-11.617-11.616z" data-paper-data="{&quot;index&quot;:null}" style="mix-blend-mode:normal;fill-rule:nonzero;stroke-width:1.19991;stroke-linecap:butt;stroke-linejoin:miter;stroke-miterlimit:10;stroke-dasharray:none;stroke-dashoffset:0"/><g style="mix-blend-mode:normal;fill-rule:nonzero;stroke-linecap:butt;stroke-linejoin:miter;stroke-miterlimit:10;stroke-dasharray:none;stroke-dashoffset:0"><path fill="none" stroke="#000" stroke-opacity=".149" stroke-width="11.5217" d="m466.287 226.331-5.151.451-11.747-8.514a3.94 3.94 0 0 1-.919-5.444l2.66-3.822a.162.162 0 0 0 0-.169l-1.387-2.31v-.037a51.443 51.443 0 0 1-9.524-10.419l-.156-.062-7.667 1.4-4.49-2.759-5.105-17.288a3.934 3.934 0 0 1 2.946-4.964l5.413-1.175a.156.156 0 0 0 .119-.163 50.917 50.917 0 0 1 1.052-15.297l-6.47-3.314a3.952 3.952 0 0 1-1.599-5.513l8.888-15.074a3.946 3.946 0 0 1 4.995-1.587l5.657 2.577a.15.15 0 0 0 .175-.037 51.399 51.399 0 0 1 10.544-9.068l.068-.17-2.562-10.032 2.56-4.696 15.963-5.436 4.896 2.21 4.142 9.876.256.625a.15.15 0 0 0 .15.093l8.74-.439 4.802-.232a.15.15 0 0 0 .137-.093l1.43-3.647a3.94 3.94 0 0 1 5.25-2.174l15.442 6.809a3.934 3.934 0 0 1 2.137 4.92l-2.128 6.025a.161.161 0 0 0 .05.169 51.199 51.199 0 0 1 10.13 11.436l1.873 1.873a.15.15 0 0 0 .181 0l6.474-3.354a3.94 3.94 0 0 1 5.62 2.383l4.836 16.414a3.94 3.94 0 0 1-2.646 4.89l-7.442 2.262-.112.137-1.245 17.152.093.156 6.17 2.808a3.933 3.933 0 0 1 1.737 5.62l-7.946 13.113a3.94 3.94 0 0 1-5.831 1.038l-4.865-3.877a.156.156 0 0 0-.219 0 51.142 51.142 0 0 1-13.203 11.373l-1.741 1.742a.156.156 0 0 0-.038.163l2.174 6.056a3.934 3.934 0 0 1-2.796 5.151l-13.386 3.213a3.934 3.934 0 0 1-4.627-2.497l-1.25-3.459a.175.175 0 0 0-.093-.093l-9.017-3.027-3.36-1.123a.143.143 0 0 0-.155.038l-.58.593zm-8.761-63.378c-2.738 12.752 4.866 25.446 17.401 29.048a24.85 24.85 0 1 0-17.414-29.048z"/><path fill="#aabbe3" d="m466.287 226.331-5.151.451-11.747-8.514a3.94 3.94 0 0 1-.919-5.444l2.66-3.822a.162.162 0 0 0 0-.169l-1.387-2.31v-.037a51.443 51.443 0 0 1-9.524-10.419l-.156-.062-7.667 1.4-4.49-2.759-5.105-17.288a3.934 3.934 0 0 1 2.946-4.964l5.413-1.175a.156.156 0 0 0 .119-.163 50.917 50.917 0 0 1 1.052-15.297l-6.47-3.314a3.952 3.952 0 0 1-1.599-5.513l8.888-15.074a3.946 3.946 0 0 1 4.995-1.587l5.657 2.577a.15.15 0 0 0 .175-.037 51.399 51.399 0 0 1 10.544-9.068l.068-.169-2.562-10.033 2.56-4.696 15.963-5.436 4.896 2.21 4.142 9.876.256.625a.15.15 0 0 0 .15.093l8.74-.438 4.802-.233a.15.15 0 0 0 .138-.093l1.429-3.647a3.94 3.94 0 0 1 5.25-2.174l15.442 6.809a3.934 3.934 0 0 1 2.137 4.92l-2.128 6.025a.161.161 0 0 0 .05.169 51.2 51.2 0 0 1 10.13 11.436l1.873 1.873a.15.15 0 0 0 .181 0l6.474-3.354a3.94 3.94 0 0 1 5.62 2.384l4.836 16.413a3.94 3.94 0 0 1-2.646 4.89l-7.442 2.262-.112.137-1.245 17.152.093.156 6.17 2.808a3.933 3.933 0 0 1 1.737 5.62l-7.946 13.113a3.94 3.94 0 0 1-5.831 1.038l-4.865-3.877a.156.156 0 0 0-.219 0 51.142 51.142 0 0 1-13.203 11.373l-1.741 1.742a.156.156 0 0 0-.038.163l2.174 6.056a3.934 3.934 0 0 1-2.796 5.151l-13.386 3.213a3.934 3.934 0 0 1-4.627-2.497l-1.25-3.459a.175.175 0 0 0-.093-.093l-9.017-3.027-3.36-1.123a.143.143 0 0 0-.155.038l-.58.593zm-8.761-63.378c-2.738 12.752 4.866 25.446 17.401 29.048a24.85 24.85 0 1 0-17.414-29.048z"/><path fill="none" stroke="#000" stroke-opacity=".149" stroke-width="11.5217" d="m151.633 281.837-4.822 1.866-13.652-4.91a3.94 3.94 0 0 1-2.397-4.974l1.491-4.41a.163.163 0 0 0-.047-.163l-1.974-1.833-.01-.036a51.443 51.443 0 0 1-12.047-7.358l-.168-.016-6.974 3.478-5.08-1.4-9.713-15.186a3.934 3.934 0 0 1 1.448-5.588l4.873-2.635a.156.156 0 0 0 .069-.189 50.917 50.917 0 0 1-3.246-14.986l-7.135-1.383a3.952 3.952 0 0 1-3.07-4.85l4.343-16.952a3.946 3.946 0 0 1 4.356-2.914l6.151.902a.15.15 0 0 0 .157-.085 51.398 51.398 0 0 1 7.605-11.644l.02-.18-5.253-8.925 1.152-5.222 13.822-9.663 5.316.76 6.726 8.335.42.529a.15.15 0 0 0 .17.048l8.274-2.853 4.547-1.56a.15.15 0 0 0 .106-.127l.358-3.9a3.94 3.94 0 0 1 4.439-3.55l16.727 2.245a3.934 3.934 0 0 1 3.42 4.13l-.367 6.38c0 .064.037.122.095.148a51.2 51.2 0 0 1 12.911 8.167l2.32 1.278a.15.15 0 0 0 .175-.05l5.285-5.024a3.94 3.94 0 0 1 6.061.727l9.212 14.42a3.94 3.94 0 0 1-1.182 5.433l-6.519 4.243-.07.163 3.576 16.821.134.124 6.707.981a3.933 3.933 0 0 1 3.231 4.914l-3.983 14.807a3.94 3.94 0 0 1-5.313 2.619l-5.75-2.37a.156.156 0 0 0-.21.06 51.142 51.142 0 0 1-9.519 14.597l-1.188 2.158a.156.156 0 0 0 .01.167l3.772 5.212a3.934 3.934 0 0 1-1.252 5.726l-11.964 6.81a3.934 3.934 0 0 1-5.14-1.111l-2.162-2.975a.174.174 0 0 0-.116-.064l-9.502-.398-3.54-.144a.143.143 0 0 0-.139.08l-.393.73zm-26.047-58.44c.918 13.01 11.753 23.088 24.796 23.061a24.85 24.85 0 1 0-24.808-23.057z"/><path fill="#aabbe3" d="m151.633 281.837-4.822 1.866-13.652-4.91a3.94 3.94 0 0 1-2.397-4.974l1.491-4.41a.162.162 0 0 0-.047-.163l-1.975-1.833-.01-.036a51.442 51.442 0 0 1-12.046-7.358l-.168-.016-6.975 3.478-5.08-1.4-9.712-15.186a3.934 3.934 0 0 1 1.448-5.588l4.873-2.635a.156.156 0 0 0 .069-.189 50.917 50.917 0 0 1-3.246-14.986l-7.136-1.383a3.952 3.952 0 0 1-3.07-4.85l4.344-16.953a3.946 3.946 0 0 1 4.356-2.913l6.15.901a.15.15 0 0 0 .158-.084 51.398 51.398 0 0 1 7.605-11.644l.02-.18-5.253-8.925 1.152-5.222 13.821-9.663 5.317.76 6.726 8.335.42.529a.15.15 0 0 0 .17.048l8.274-2.853 4.547-1.56a.15.15 0 0 0 .106-.127l.358-3.9a3.94 3.94 0 0 1 4.439-3.55l16.727 2.245a3.934 3.934 0 0 1 3.42 4.13l-.367 6.38c0 .064.037.122.095.148a51.199 51.199 0 0 1 12.911 8.167l2.32 1.278a.15.15 0 0 0 .175-.05l5.285-5.024a3.94 3.94 0 0 1 6.061.727l9.212 14.42a3.94 3.94 0 0 1-1.182 5.433l-6.519 4.243-.07.163 3.576 16.821.133.124 6.708.981a3.933 3.933 0 0 1 3.231 4.914l-3.983 14.807a3.94 3.94 0 0 1-5.313 2.619l-5.751-2.37a.156.156 0 0 0-.21.06 51.142 51.142 0 0 1-9.518 14.597l-1.188 2.158a.156.156 0 0 0 .009.167l3.773 5.212a3.934 3.934 0 0 1-1.252 5.726l-11.964 6.81a3.934 3.934 0 0 1-5.14-1.111l-2.162-2.975a.174.174 0 0 0-.116-.064l-9.502-.398-3.54-.144a.143.143 0 0 0-.14.079l-.392.731zm-26.047-58.44c.918 13.01 11.753 23.088 24.796 23.061a24.85 24.85 0 1 0-24.808-23.057z"/><path fill="none" stroke="#000" stroke-opacity=".149" stroke-width="24.771655" d="M484.204 107.4v176.21c0 16.22-13.15 29.37-29.369 29.37H178.428c-16.219 0-29.369-13.15-29.369-29.37V107.4c0-16.22 13.15-29.37 29.369-29.37h276.407c16.219 0 29.369 13.15 29.369 29.37z"/><path fill="#707b99" stroke="#fff" stroke-width="13.249955" d="M484.204 107.4v176.21c0 16.22-13.15 29.37-29.369 29.37H178.428c-16.219 0-29.369-13.15-29.369-29.37V107.4c0-16.22 13.15-29.37 29.369-29.37h276.407c16.219 0 29.369 13.15 29.369 29.37z"/><path fill="none" stroke="#000" stroke-opacity=".149" stroke-width="20.162975" d="M379.162 148.362V208.6c0 2.62-.655 4.584-2.62 5.893-18.333 15.06-45.178 15.06-64.166 0-6.548-5.238-14.405-7.857-22.263-7.857-8.512.655-15.714 3.929-22.262 8.512v41.905c0 3.274-3.273 6.548-6.547 6.548h-.655c-3.274 0-6.548-3.274-6.548-6.548V133.957c0-3.929 3.274-6.548 6.548-6.548s6.548 2.62 6.548 6.548v2.619c17.678-8.512 39.286-5.893 54.345 6.548 13.096 10.476 31.429 10.476 44.524 0 1.965-1.965 5.239-2.62 7.858-1.31 3.273.655 5.238 3.274 5.238 6.548zm-6.548 0-.655-.655h-1.31c-15.714 12.44-37.321 12.44-53.035 0-14.405-11.131-34.048-13.095-50.417-3.929v63.513c7.202-3.929 14.404-6.548 22.262-7.203 9.821 0 18.988 3.274 26.19 9.167 16.37 13.095 39.941 13.095 56.31-.655z"/><path fill="#fff" stroke="#fff" stroke-width="8.641275" d="M379.162 148.362V208.6c0 2.62-.655 4.584-2.62 5.893-18.333 15.06-45.178 15.06-64.166 0-6.548-5.238-14.405-7.857-22.263-7.857-8.512.655-15.714 3.929-22.262 8.512v41.905c0 3.274-3.273 6.548-6.547 6.548h-.655c-3.274 0-6.548-3.274-6.548-6.548V133.957c0-3.929 3.274-6.548 6.548-6.548s6.548 2.62 6.548 6.548v2.619c17.678-8.512 39.286-5.893 54.345 6.548 13.096 10.476 31.429 10.476 44.524 0 1.965-1.965 5.239-2.62 7.858-1.31 3.273.655 5.238 3.274 5.238 6.548zm-6.548 0-.655-.655h-1.31c-15.714 12.44-37.321 12.44-53.035 0-14.405-11.131-34.048-13.095-50.417-3.929v63.513c7.202-3.929 14.404-6.548 22.262-7.203 9.821 0 18.988 3.274 26.19 9.167 16.37 13.095 39.941 13.095 56.31-.655z"/></g></svg>