<svg xmlns="http://www.w3.org/2000/svg" width="600" height="372" viewBox="0 0 158.75 98.425"><path fill="red" d="M0 98.424998V0h158.75v98.424998z" style="mix-blend-mode:normal;fill-rule:nonzero;stroke:none;stroke-linecap:butt;stroke-linejoin:miter;stroke-miterlimit:10;stroke-dasharray:none;stroke-dashoffset:0;fill:#ff4c4c;fill-opacity:1"/><path fill="#ff4040" d="M-5.118115 49.212505c0-46.66426 37.828857-84.49312 84.49312-84.49312 46.664255 0 84.493115 37.82886 84.493115 84.49312 0 46.66425-37.82886 84.493115-84.493115 84.493115-46.664263 0-84.49312-37.828865-84.49312-84.493115z" style="mix-blend-mode:normal;fill-rule:nonzero;stroke:none;stroke-linecap:butt;stroke-linejoin:miter;stroke-miterlimit:10;stroke-dasharray:none;stroke-dashoffset:0;fill:#ff6161;fill-opacity:1"/><path fill="red" d="M5.332926 49.212505c0-40.89231 33.149767-74.042081 74.042079-74.042081 40.892315 0 74.042085 33.149771 74.042085 74.042081 0 40.8923-33.14977 74.042075-74.042085 74.042075-40.892309 0-74.042076-33.149775-74.042076-74.042075z" style="mix-blend-mode:normal;fill-rule:nonzero;stroke:none;stroke-linecap:butt;stroke-linejoin:miter;stroke-miterlimit:10;stroke-dasharray:none;stroke-dashoffset:0;fill:#ff4c4c;fill-opacity:1"/><path fill="#ff4040" d="M15.91627 49.212505c0-35.0473 28.411448-63.458748 63.458745-63.458748 35.047305 0 63.458745 28.411448 63.458745 63.458748 0 35.04729-28.41145 63.458745-63.458745 63.458745-35.047297 0-63.458745-28.411455-63.458745-63.458745z" style="mix-blend-mode:normal;fill-rule:nonzero;stroke:none;stroke-linecap:butt;stroke-linejoin:miter;stroke-miterlimit:10;stroke-dasharray:none;stroke-dashoffset:0;fill:#ff6161;fill-opacity:1"/><path fill="red" d="M26.631895 49.212505c0-29.12922 23.613898-52.743121 52.74312-52.743121 29.129225 0 52.743125 23.613901 52.743125 52.743121 0 29.12922-23.6139 52.743125-52.743125 52.743125-29.129217 0-52.743115-23.613905-52.743115-52.743125z" style="mix-blend-mode:normal;fill-rule:nonzero;stroke:none;stroke-linecap:butt;stroke-linejoin:miter;stroke-miterlimit:10;stroke-dasharray:none;stroke-dashoffset:0;fill:#ff4c4c;fill-opacity:1"/><path fill="#ff4040" d="M37.016785 49.212505c0-23.3938 18.964423-42.35822 42.35822-42.35822 23.393805 0 42.358235 18.96442 42.358235 42.35822 0 23.3938-18.96443 42.35822-42.358225 42.35822-23.393804 0-42.358224-18.96442-42.358224-42.35822z" style="mix-blend-mode:normal;fill-rule:nonzero;stroke:none;stroke-linecap:butt;stroke-linejoin:miter;stroke-miterlimit:10;stroke-dasharray:none;stroke-dashoffset:0;fill:#ff6161;fill-opacity:1"/><path fill="red" d="M47.798556 49.212505c0-17.43919 14.137259-31.57645 31.576449-31.57645s31.576465 14.13726 31.576465 31.57645c0 17.43919-14.137265 31.57645-31.576455 31.57645-17.439195 0-31.576454-14.13726-31.576454-31.57645z" style="mix-blend-mode:normal;fill-rule:nonzero;stroke:none;stroke-linecap:butt;stroke-linejoin:miter;stroke-miterlimit:10;stroke-dasharray:none;stroke-dashoffset:0;fill:#ff4c4c;fill-opacity:1"/><path fill="#ff4040" d="M58.183452 49.212505c0-11.70378 9.487783-21.19156 21.191553-21.19156 11.70378 0 21.191565 9.48778 21.191565 21.19156 0 11.70377-9.487785 21.19155-21.191555 21.19155-11.70378 0-21.191558-9.48778-21.191558-21.19155z" style="mix-blend-mode:normal;fill-rule:nonzero;stroke:none;stroke-linecap:butt;stroke-linejoin:miter;stroke-miterlimit:10;stroke-dasharray:none;stroke-dashoffset:0;fill:#ff6161;fill-opacity:1"/><path fill="red" d="M68.810875 49.212505c0-5.83441 4.72972-10.56413 10.56412-10.56413 5.8344 0 10.56413 4.72972 10.56413 10.56413 0 5.8344-4.72973 10.56412-10.56413 10.56412-5.8344 0-10.56412-4.72972-10.56412-10.56412z" style="mix-blend-mode:normal;fill-rule:nonzero;stroke:none;stroke-linecap:butt;stroke-linejoin:miter;stroke-miterlimit:10;stroke-dasharray:none;stroke-dashoffset:0;fill:#ff4c4c;fill-opacity:1"/><path fill="#fff" d="M103.47356 20.519915c4.71889 2.55133.68553 8.06819 1.29027 12.04049.45923 3.01647 1.92744 9.24242-4.58494 9.2998-6.017675.053-5.574855-3.56849-5.505975-7.77495v-3.76298l-10.10284.75574.18369 36.72183 4.24056.22567c2.68709.084 3.70549 1.19368 4.1671 2.32496 1.79865 4.40813.28865 5.46865-2.02057 8.08228-.24142.28866-3.13988.26071-11.91348.41941-11.48399.20775-10.92725.63154-13.36198-1.63701-1.22545-2.09822-1.1052-3.95541.19113-5.85002 1.67024-1.94446 3.04965-2.01094 5.04398-2.40981l2.96656-.35731.33239-37.15263-6.87212.12464c-2.45136 0-3.07458.1662-3.07458.1662s.97291 7.96514 1.0304 8.60884c.45703 4.3709-1.1135 6.26551-3.38205 6.73085-4.744833.81434-5.683829-1.00547-7.437175-10.87739-1.36471-7.68378-2.852364-10.49947-.390554-13.23733 2.363515-2.62855 9.983549-1.37906 20.965349-1.67387 11.08067-.29747 12.2097-.19833 23.0677-1.71926 0 0 1.32797-.32802 2.903175-.0675 1.71248.28317 2.26395 1.01941 2.26395 1.01941z" style="mix-blend-mode:normal;fill-rule:nonzero;stroke:none;stroke-linecap:butt;stroke-linejoin:miter;stroke-miterlimit:10;stroke-dasharray:none;stroke-dashoffset:0"/></svg>