<svg width="900" height="600" xmlns="http://www.w3.org/2000/svg" version="1.1">
 <defs>
  <filter id="svg_7_blur" x="-50%" y="-50%" width="200%" height="200%">
   <feGaussianBlur in="SourceGraphic" stdDeviation="10"/>
  </filter>
 </defs>
 <g>
  <title>Layer 1</title>
  <rect x="0" y="0" width="900" height="600" fill="#001220" id="svg_1"/>
  <path opacity="0.7" filter="url(#svg_7_blur)" id="svg_7" d="m157.39999,242.39999c0,-38.03653 31.96347,-70 70,-70l436,0c38.03653,0 70,31.96347 70,70l0,226.99997c0,38.03653 -31.96347,70 -70,70l-436,0c-38.03653,0 -70,-31.96347 -70,-70l0,-226.99997z" stroke="#000" fill="#666666"/>
  <path d="m0,448l21.5,-13.8c21.5,-13.9 64.5,-41.5 107.3,-46.9c42.9,-5.3 85.5,11.7 128.4,20.2c42.8,8.5 85.8,8.5 128.6,10.7c42.9,2.1 85.5,6.5 128.4,9.5c42.8,3 85.8,4.6 128.6,7.3c42.9,2.7 85.5,6.3 128.4,5c42.8,-1.3 85.8,-7.7 107.3,-10.8l21.5,-3.2l0,175l-21.5,0c-21.5,0 -64.5,0 -107.3,0c-42.9,0 -85.5,0 -128.4,0c-42.8,0 -85.8,0 -128.6,0c-42.9,0 -85.5,0 -128.4,0c-42.8,0 -85.8,0 -128.6,0c-42.9,0 -85.5,0 -128.4,0c-42.8,0 -85.8,0 -107.3,0l-21.5,0l0,-153z" fill="#fa7268" id="svg_2"/>
  <path d="m0,459l21.5,-5.8c21.5,-5.9 64.5,-17.5 107.3,-18.5c42.9,-1 85.5,8.6 128.4,12.5c42.8,3.8 85.8,1.8 128.6,-2.5c42.9,-4.4 85.5,-11 128.4,-16.9c42.8,-5.8 85.8,-10.8 128.6,-4c42.9,6.9 85.5,25.5 128.4,36.9c42.8,11.3 85.8,15.3 107.3,17.3l21.5,2l0,121l-21.5,0c-21.5,0 -64.5,0 -107.3,0c-42.9,0 -85.5,0 -128.4,0c-42.8,0 -85.8,0 -128.6,0c-42.9,0 -85.5,0 -128.4,0c-42.8,0 -85.8,0 -128.6,0c-42.9,0 -85.5,0 -128.4,0c-42.8,0 -85.8,0 -107.3,0l-21.5,0l0,-142z" fill="#ef5f67" id="svg_3"/>
  <path id="svg_12" d="m250.39999,311.21743c0,-22.17934 21.198,-40.81744 46.42361,-40.81744l289.15279,0c25.22562,0 46.42361,18.6381 46.42361,40.81744l0,132.36509c0,22.17934 -21.198,40.81744 -46.42361,40.81744l-289.15279,0c-25.22562,0 -46.42361,-18.6381 -46.42361,-40.81744l0,-132.36509z" opacity="undefined" fill="#666666"/>
  <path d="m0,447l21.5,9.2c21.5,9.1 64.5,27.5 107.3,34c42.9,6.5 85.5,1.1 128.4,-8.4c42.8,-9.5 85.8,-23.1 128.6,-23.3c42.9,-0.2 85.5,13.2 128.4,20.7c42.8,7.5 85.8,9.1 128.6,8.1c42.9,-1 85.5,-4.6 128.4,-7.8c42.8,-3.2 85.8,-5.8 107.3,-7.2l21.5,-1.3l0,130l-21.5,0c-21.5,0 -64.5,0 -107.3,0c-42.9,0 -85.5,0 -128.4,0c-42.8,0 -85.8,0 -128.6,0c-42.9,0 -85.5,0 -128.4,0c-42.8,0 -85.8,0 -128.6,0c-42.9,0 -85.5,0 -128.4,0c-42.8,0 -85.8,0 -107.3,0l-21.5,0l0,-154z" fill="#e34c67" id="svg_4"/>
  <path d="m0,483l21.5,3.7c21.5,3.6 64.5,11 107.3,16c42.9,5 85.5,7.6 128.4,12.3c42.8,4.7 85.8,11.3 128.6,13.3c42.9,2 85.5,-0.6 128.4,-6.1c42.8,-5.5 85.8,-13.9 128.6,-15.5c42.9,-1.7 85.5,3.3 128.4,8.3c42.8,5 85.8,10 107.3,12.5l21.5,2.5l0,71l-21.5,0c-21.5,0 -64.5,0 -107.3,0c-42.9,0 -85.5,0 -128.4,0c-42.8,0 -85.8,0 -128.6,0c-42.9,0 -85.5,0 -128.4,0c-42.8,0 -85.8,0 -128.6,0c-42.9,0 -85.5,0 -128.4,0c-42.8,0 -85.8,0 -107.3,0l-21.5,0l0,-118z" fill="#d53867" id="svg_5"/>
  <path d="m0,548l21.5,1.5c21.5,1.5 64.5,4.5 107.3,8.7c42.9,4.1 85.5,9.5 128.4,11.6c42.8,2.2 85.8,1.2 128.6,-2.6c42.9,-3.9 85.5,-10.5 128.4,-12.7c42.8,-2.2 85.8,0.2 128.6,-0.2c42.9,-0.3 85.5,-3.3 128.4,-5.1c42.8,-1.9 85.8,-2.5 107.3,-2.9l21.5,-0.3l0,55l-21.5,0c-21.5,0 -64.5,0 -107.3,0c-42.9,0 -85.5,0 -128.4,0c-42.8,0 -85.8,0 -128.6,0c-42.9,0 -85.5,0 -128.4,0c-42.8,0 -85.8,0 -128.6,0c-42.9,0 -85.5,0 -128.4,0c-42.8,0 -85.8,0 -107.3,0l-21.5,0l0,-53z" fill="#c62368" id="svg_6"/>
  <path transform="rotate(-0.527272 495.121 441.372)" fill="#ffffff" d="m600.58329,441.37246l-210.92356,0l210.92356,0z" id="svg_18" filter="url(#svg_7_blur)" opacity="0.9" stroke="#000"/>
  <text xml:space="preserve" text-anchor="start" font-family="'Open Sans'" font-size="24" stroke-width="0" id="svg_8" y="270.4" x="133.4" fill="#000000">q</text>
 </g>
</svg>